<?xml version="1.0" encoding="UTF-8"?>
<svg id="Layer_1" data-name="Layer 1" xmlns="http://www.w3.org/2000/svg" viewBox="0 0 439.43 200">
  <defs>
    <style>
      .cls-1 {
        fill: #f8c3da;
      }

      .cls-2 {
        fill: #673606;
      }
    </style>
  </defs>
  <g>
    <path class="cls-2" d="M92.61,173.77c-16.98,1.23-30.2-5.7-45.01-17.36-4.39-3.53-6.02-9.58-3.3-15.39.23-.5.47-1,.71-1.5,1.65-3.5,4.74-6.45,8.54-8.41-.03,0-.06,0-.09,0-2.05.14-4.06,0-6-.42-.6-.13-1.2-.25-1.8-.38-7.37-1.57-12.59-6.98-12.34-13.38.64-17.33,11.89-33.86,26.39-43.16,10.85-7.01,22.74-9.99,35.32-9.12,1.79.12,3.6.33,5.4.61,12.5,1.83,23.71,7.45,32.94,11.91,1.82.88,3.57,1.73,5.24,2.51,1.66.73,3.45,1.54,5.51,2.48,1.77-3.69,3.2-7.58,4.25-11.7.03-.14.06-.26.11-.4.53-1.89.98-3.87,1.43-6.32,0-.05.02-.1.03-.15,1.36-7.17,2.11-15.22,4.9-23.62,2.69-8.97,9.25-15.12,17.82-14.44.18.01.37.03.55.05,7.73.74,15.83,6.8,21.72,15.36.25.35.48.72.71,1.09,4.38,7.19,5.9,13.38,6.76,17.77.02.1.04.19.05.29.22,1.28.41,2.51.56,3.73,3.09,2.46,5.26,5.81,6.07,9.23.32,1.32.64,2.75.96,4.21.08.36.16.71.23,1.07.3,1.38.61,2.93.93,4.44,1.03-.91,2.2-1.67,3.48-2.24,1.97-.87,4.1-1.28,6.31-1.22,2.44.07,4.92.75,7.14,1.91.81.43,1.56.92,2.26,1.45-.03-.7-.07-1.41-.1-2.12-.01-.56,0-1.11.06-1.65-8.21-3.27-15.69-8.63-22.54-16.86-1.62-1.97-3.07-3.85-4.54-5.91-4.03-5.61-5.13-13.69-1.78-19.52,1.98-3.39,5.39-5.32,9.21-5.04,2.22.16,4.51,1.05,6.58,2.54,19.5,13.82,24.11,15.98,35.61,16.75,3.8.18,8.31.1,14.11-.02.86-.02,1.72-.03,2.58-.05,2.22-.04,4.6-.09,7.19-.13,1.73-.03,3.48-.02,5.21.05,5.22.2,10.02.85,14.23,1.87,4.86-4.98,14.44-13.16,24.02-13.17.31,0,.62,0,.93.02,5.75.32,9.86,3.87,11.27,8.77.07.21.13.48.19.76.72,3.63-.12,7.51-2.35,11.03-.82,1.32-1.65,2.64-2.5,3.99.76.16,1.46.33,2.11.49.12.03.24.06.35.08.52.13,1.27.31,1.78.41,2.33-.52,4.64-.78,6.87-.79.81,0,1.62.03,2.42.1,1.71-1.97,3.62-3.87,5.79-5.76,10.87-9.34,26.54-15.02,41.32-14.23,4.62.19,9.12.91,13.58,2.04,5.69,1.49,10.01,5.09,10.7,9.28.66,4.16-2.98,8.23-9.49,10.42-2.88.98-5.57,1.83-8.29,2.7-.68.22-1.32.42-1.91.61,5.18,1.36,9.05,4.24,9.81,7.76,1.01,4.52-3.61,8.93-11.27,10.91-3.65.98-7.44,1.74-11.47,2.3.81,13.45.03,27.04-14.17,38.33-2.7,2.18-5.78,4.12-9.18,5.76-3.13,1.6-7.87,3.71-13.22,3.96-.23.01-.47.02-.7.02-3.67.05-7.16-.84-10.38-2.63-2.31-1.27-4.26-2.89-5.69-4.68-.88.85-1.93,1.59-3.13,2.19-1.95.94-4.16,1.45-6.59,1.48-4.53.07-9.34-1.6-13.05-4.43-.37-.29-.75-.59-1.14-.89-1.47.61-3.08.97-4.79,1.05-.19,0-.38.02-.58.02-4.31.07-8.78-1.67-12.09-4.6-1.34-1.17-2.55-2.37-3.54-3.39-3.81,1.31-7.67,2.05-11.46,2.12-6.84.15-13.06-1.92-17.79-5.71-.6,1.14-1.28,2.27-2.03,3.38-.04.06-.09.13-.13.19-3.99,5.6-10.53,9.71-17.62,10.31-.15.01-.85.06-.85.06-6.06.29-11.61-1.99-15.52-6.07-2.6,1.15-5.32,1.82-8.05,1.97-.4.02-.8.03-1.2.03-.34,0-.68-.01-1.02-.03-1.74,2.67-4.08,5.03-6.82,6.79-2.83,1.82-6.07,2.94-9.28,3.16-3.53.24-6.99-.6-9.94-2.36-.11-.05-.19-.11-.24-.15-6.18-3.9-12.12-8.04-17.71-11.67-6.62,10.39-15.77,20.68-27.15,30.41-.36.3-.71.59-1.04.85-9.18,7.15-19.91,13.04-29.52,15.8-3.17.91-6.37,1.57-9.49,1.95-.8.1-1.59.18-2.37.24ZM73.37,119.71c-1.91,1.8-3.9,3.68-5.96,5.55-1.38,1.25-2.96,2.35-4.67,3.24,5.78-.74,12.75-1.44,18.71-2.02,11.44-1.23,22.48-2.51,29.7-7,5.13-4.26,10.07-8.7,14.59-13.2-.03-.01-.06-.02-.1-.03-7.14-1.95-14.5-3.01-21.05-2.9-4.69.08-8.84.74-12.23,2.01-6.42,2.67-12.05,7.86-18.89,14.25-.62-.43-1.25-.85-1.88-1.28.6.46,1.19.92,1.77,1.38ZM176.05,98.01c-.17-1.01-.33-2.04-.5-3.08-.26.76-.53,1.55-.82,2.38.44.23.88.47,1.32.7Z"/>
    <path class="cls-2" d="M173.46,28.47c.17.01.33.03.5.05,7.02.68,14.36,6.09,19.76,13.84.21.3.41.61.61.93,4.04,6.54,5.53,12.37,6.37,16.53.02.09.03.17.05.26.31,1.68.53,3.24.71,4.73,2.99,2.05,5.25,5.13,6.06,8.47.4,1.64.81,3.45,1.22,5.27.56,2.58,1.11,5.28,1.64,7.62,1.26-1.75,2.98-3.17,5.03-4.08,1.78-.79,3.72-1.15,5.68-1.1,2.18.06,4.39.64,6.42,1.69,1.89,1,3.45,2.32,4.6,3.84-.08-1.94-.16-3.93-.26-5.97-.02-.92.07-1.83.28-2.69-8.36-3.11-16.16-8.5-23.22-17.08-1.73-2.12-3.12-3.98-4.43-5.84-3.36-4.73-4.19-11.5-1.36-16.3,1.77-2.95,4.71-4.48,7.92-4.24,1.87.13,3.82.85,5.65,2.14,19.79,13.81,24.48,15.83,36.02,16.57,3.79.17,8.24.08,14.06-.05,2.89-.06,6.08-.13,9.67-.19,1.49-.03,3.21-.03,5.08.04,4.39.16,9.62.68,14.58,1.93.1.03.22.04.32.06,3.91-4.13,13.56-13.05,23.1-13.14.28,0,.56,0,.83.02,5.09.25,8.74,3.26,10.02,7.58.07.21.12.43.17.64.64,3.09-.08,6.43-2.02,9.51-1.29,2.1-2.47,3.96-3.59,5.73.49.14,1,.28,1.48.41,1.05.21,1.99.43,2.84.63.78.19,1.81.43,2.36.49,2.45-.58,4.7-.82,6.77-.83,1.29,0,2.51.08,3.66.24,1.85-2.28,4-4.46,6.45-6.58,10.42-8.91,25.51-14.09,39.48-13.47,4.42.15,8.82.78,13.24,1.85,4.95,1.23,8.62,4.28,9.11,7.85.47,3.53-2.64,6.94-8.14,8.81-2.84.97-5.55,1.84-8.15,2.67-3.39,1.08-6.05,1.96-8.16,2.73.72.06,1.46.11,2.2.17,6.29.54,11.32,3.43,12.11,7.19.8,3.78-3.18,7.52-9.6,9.2-4.08,1.1-8.41,1.93-13.06,2.5.69,12.32,1.18,26.79-13.4,38.3-2.58,2.06-5.51,3.88-8.81,5.43-3.02,1.51-7.52,3.46-12.49,3.67-.21,0-.42.01-.63.02-2.92.03-5.99-.58-9.03-2.26-3.16-1.73-5.43-4.16-6.44-6.64-.93,1.64-2.43,3.01-4.42,3.98-1.75.83-3.76,1.25-5.85,1.27-3.92.05-8.16-1.33-11.49-3.85-.75-.58-1.49-1.15-2.19-1.74,0,0,0,0-.01,0-1.59.83-3.37,1.28-5.24,1.36-.17,0-.34.01-.51.02-3.69.05-7.6-1.38-10.55-3.97-1.68-1.45-3.1-2.9-4.32-4.17,0,0,0,0,0-.01-4.04,1.49-8.1,2.3-11.99,2.36-7.04.14-13.48-2.22-18.09-6.54-.74,1.62-1.67,3.26-2.8,4.89-.04.06-.08.12-.12.18-3.75,5.17-9.77,8.86-16.33,9.4-.28.02-.57.03-.84.06-5.91.27-11.31-2.12-14.96-6.24-2.65,1.29-5.49,2.06-8.34,2.2-.37.02-.74.03-1.11.03-.66,0-1.31-.04-1.95-.12-1.59,2.77-3.88,5.22-6.7,7.01-2.59,1.64-5.47,2.6-8.34,2.79-3.23.22-6.43-.53-9.25-2.2-.04,0-.07-.03-.1-.06-6.54-4.05-12.69-8.29-19-12.29-.08-.04-.15-.1-.23-.14-6.5,10.76-15.82,21.38-27.5,31.29-.29.24-.57.48-.85.69-8.84,6.83-19.14,12.42-28.41,15.07-3.16.9-6.25,1.53-9.24,1.9-.78.1-1.55.18-2.32.24-16.55,1.27-29.73-5.17-44.31-16.62-3.66-2.92-4.93-7.95-2.64-12.74.24-.5.48-1,.72-1.49,2.28-4.78,7.8-8.37,13.75-9.19,5.99-.83,13.59-1.63,20.02-2.28,11.86-1.33,23.28-2.73,31.04-7.67,6.03-5.01,11.83-10.27,17.05-15.63-.93-.33-1.88-.66-2.82-.98-7.48-2.07-15.04-3.17-21.79-3.09-4.93.06-9.43.74-13.15,2.13-7,2.88-12.83,8.26-19.9,14.86-1.94,1.82-3.9,3.67-5.94,5.52-3.17,2.88-7.56,4.68-12.03,4.97-1.74.11-3.5,0-5.21-.38-.61-.13-1.21-.26-1.82-.39-6.25-1.34-10.59-5.86-10.35-11.15.71-16.51,11.3-32.3,25.22-41.24,10.36-6.71,21.97-9.59,33.96-8.8,1.73.11,3.46.3,5.2.57,12.12,1.72,23.1,7.17,32.13,11.49,1.82.88,3.57,1.72,5.25,2.49,2.36,1.03,4.72,2.1,7.16,3.21,2.12-4.1,3.84-8.44,5.08-13.18.02-.09.04-.16.07-.25.59-2.01,1.06-4.1,1.5-6.38,1.4-7.03,2.19-14.92,4.98-23.03,2.61-8.35,8.71-13.93,16.64-13.3M178.31,101.14c-.75-4.15-1.47-8.73-2.17-13.43-1.14,3.44-2.26,6.91-3.5,10.42,1.94,1.01,3.82,2.03,5.67,3.01M267.14,102.21c.71-.15,2-.55,4.02-1.61.56-.3,1.33-.72,2.31-1.13-2.23-.62-3.52-.89-4.71-.89-.9.55-1.93,2-1.8,3.21.03.14.1.29.18.42M171.84,22.54s0,0,0,0c-9.25-.72-16.23,6-19.02,15.68-2.79,8.75-3.48,16.99-4.82,24.33,0,.05-.02.1-.03.15-.44,2.44-.86,4.41-1.39,6.34-.05.16-.09.31-.12.47-.88,3.57-2.05,6.96-3.49,10.2-1.38-.63-2.65-1.21-3.86-1.75-1.66-.78-3.39-1.63-5.18-2.5-9.44-4.59-20.88-10.39-33.79-12.34-1.85-.3-3.72-.52-5.56-.65-13.05-.95-25.34,2.14-36.66,9.44-15.1,9.65-27.03,26.93-27.58,45.07-.24,7.54,5.91,13.85,14.35,15.64.61.13,1.22.26,1.83.38.11.02.22.05.33.07-1.81,1.71-3.28,3.68-4.28,5.82-.23.5-.46,1-.7,1.49-3.16,6.83-1.1,13.92,4.01,18.04,15.15,11.98,28.32,19.31,45.66,18.15.8-.06,1.62-.14,2.43-.23,3.2-.38,6.48-1.05,9.74-1.99,9.92-2.86,21.09-9.04,30.7-16.57.43-.33.81-.65,1.15-.94,11.07-9.54,20.06-19.54,26.76-29.56,5.16,3.44,10.6,7.28,16.32,10.96.08.06.18.12.3.18,3.15,1.91,6.86,2.82,10.67,2.55,3.52-.24,7.1-1.5,10.23-3.54,2.7-1.76,5.06-4.06,6.9-6.63.04,0,.08,0,.12,0,.42,0,.86-.01,1.29-.03,2.62-.14,5.24-.75,7.76-1.77,4.12,4.02,9.82,6.25,15.96,5.94,0,0,0,0,0,0,.04,0,.08,0,.12,0,.12-.01.24-.02.36-.03.17-.01.33-.02.5-.04,7.65-.67,14.67-5.18,18.9-11.22.01-.02.03-.04.04-.06.01-.02.02-.03.03-.05.03-.04.06-.09.09-.13.45-.67.87-1.34,1.26-2.02,4.84,3.38,10.92,5.2,17.51,5.05,3.62-.07,7.29-.73,10.92-1.9.82.83,1.74,1.72,2.76,2.62,3.71,3.33,8.77,5.33,13.62,5.23.22,0,.43-.01.65-.02,1.51-.08,2.94-.35,4.28-.8.03.02.05.04.08.06.01.01.03.03.05.04,4.17,3.22,9.58,5.12,14.63,5.02,2.71-.05,5.16-.63,7.3-1.69.71-.36,1.38-.77,1.99-1.22,1.38,1.32,3.01,2.53,4.84,3.54,3.65,2.05,7.61,3.07,11.72,2.99.26,0,.51-.01.76-.03,5.7-.3,10.66-2.56,13.99-4.29,3.52-1.73,6.69-3.78,9.5-6.07,14.31-11.49,15.79-24.95,14.97-38.42,3.43-.54,6.7-1.22,9.9-2.08,8.8-2.26,14.14-7.37,12.9-12.62-.69-3.04-3.38-5.65-7.12-7.44,1.9-.6,3.88-1.24,5.91-1.93,7.55-2.52,11.7-7.22,10.81-12.01-.93-4.82-5.92-8.95-12.3-10.72-4.56-1.21-9.15-2.01-13.89-2.25-15.2-.98-31.66,5.04-43.13,14.96-1.91,1.67-3.61,3.33-5.16,5.03-.4-.02-.8-.02-1.2-.02-2.24,0-4.56.24-6.9.73-.42-.1-.93-.23-1.23-.3-.13-.03-.26-.06-.38-.09-.08-.02-.16-.04-.24-.06.47-.74.93-1.48,1.39-2.23,2.5-3.94,3.46-8.33,2.66-12.47-.06-.27-.12-.6-.24-.97-1.57-5.49-6.09-9.56-12.49-9.96-.34-.02-.69-.03-1.04-.03-9.79-.06-19.54,7.84-24.9,13.2-4.07-.94-8.64-1.54-13.58-1.75-1.77-.08-3.57-.1-5.36-.07-2.61.03-5.02.07-7.26.11-.87.01-1.73.03-2.59.04-5.85.11-10.39.19-14.18,0-11.26-.78-15.83-2.99-35.21-16.93-2.35-1.71-4.99-2.76-7.53-2.94-4.39-.33-8.29,1.94-10.52,5.87-1.27,2.24-1.95,4.84-2.13,7.52-.23-.41-.47-.81-.72-1.23-.02-.03-.03-.05-.05-.08-.23-.38-.49-.8-.81-1.25-6.36-9.39-15.25-16.14-23.71-16.94-.19-.02-.39-.04-.59-.05h0ZM204.57,62.94c-.12-.91-.26-1.83-.42-2.77,0-.03,0-.06-.01-.08.83,1.08,1.69,2.14,2.59,3.22,5.71,6.8,11.83,11.64,18.42,15.01-1.39-.4-2.82-.63-4.23-.67-2.44-.08-4.79.37-6.95,1.34-.62.28-1.21.59-1.78.95-.12-.6-.25-1.19-.37-1.77-.08-.36-.15-.72-.23-1.09-.31-1.46-.63-2.9-.94-4.23-.84-3.59-2.98-7.15-6.08-9.92t0,0ZM93.26,107.25c3.07-1.15,6.87-1.76,11.21-1.86,5.41-.12,11.43.6,17.4,1.99-3.73,3.6-7.72,7.13-11.84,10.55-6.64,4.02-17.3,5.2-28.39,6.34-3.5.33-7.33.69-11.09,1.08,1.57-1.45,3.1-2.9,4.58-4.29.02-.02.05-.05.07-.07,6.6-6.17,12.04-11.2,18.05-13.75t0,0Z"/>
    <path class="cls-2" d="M245.86,79.21c-.06-3.16-5.09-3.09-5.1.07.09,9.11.71,16.71-1.55,24.77-.19.6-.71,2.21-.96,2.8-1.34,4.06-6.18,8.15-9.19,2.93-1.95-2.94-2.26-6.13-2.71-9.71-.29-2.68-.39-5.35-.64-8.32-.1-1.29-.92-2.54-2.29-3.25-3.02-1.51-6.1.27-6.65,3.18-.88,4.09-1.16,8.54-3.4,12.37-.85,1.39-1.85,2.51-2.84,2.91-.73-.16-1.53-1.15-2.4-2.41-2.18-4.21-4.03-8.94-5.52-14.2-1.35-4.68-2.77-11.93-4.39-17.61-.3-1.11-1.4-1.97-2.51-1.93-1.13.06-1.82,1.05-1.53,2.22.75,3.15,1.24,6.19,1.59,9.16,1.32,9.12.57,18.45,3.98,26.71,4.16,9.32,14.34,9.03,20.29,1.11.74,1.93,1.72,3.79,3.09,5.39,4.49,6.08,13.72,5.56,18.46-.54,7.93-10.87,3.8-23.72,4.28-35.62Z"/>
    <path class="cls-2" d="M192.54,73.17c-.38-4.73-.73-9.4-2-15.14-.76-3.11-1.96-7.22-4.61-11.22-8.09-10.9-16.31-6.21-18.84,1.3-3.53,8.84-4.05,18.28-6.69,26.33-2.12,7.51-5.57,14.53-10.5,21.39-5.14-2.42-10.59-4.89-16.38-7.33-9.23-4.03-20.93-10.5-32.77-11.93-25.61-3.86-46.21,16.08-48.09,38.03.61.14,1.22.28,1.83.43,10.18-9.08,18.66-18.4,30.88-23.05,14.78-5.2,32.38-2.27,45.59,1.66,5.65,1.98,10.87,4.13,15.74,6.38-1.95,2.41-4.09,4.78-6.38,7.14-6.5,6.87-13.76,13.48-21.16,19.66-11.3,7.84-25.22,9.96-39.28,11.74-5.4.63-13.12,1.55-18.86,2.45-.26.49-.52.99-.78,1.48,14.01,10.6,29.25,16.41,48.48,11.21,7.11-1.95,14.93-5.9,21.69-10.88,11.66-9.52,19.73-19.51,24.7-29.05,1.33-2.66,2.52-5.24,3.56-7.77,10.75,5.78,19.85,11.8,29.51,17.23,4.01,2.22,9.64,1.46,10.67-4.7.63-5.84-1.82-10.93-2.68-15.89-2.24-9.24-2.79-18.67-3.64-29.46ZM180,111.43c-6.08-3.38-12.43-6.83-19.38-10.35,4.48-11.93,6.5-23.09,10.99-34.73,1.57-4.26,3.4-9.04,6.31-12.55.39-.41.74-.75,1.07-.97,2.12,3.82,2.9,8.55,3.55,12.27.72,4.48,1.5,10.13,1.99,14.02,1.14,8.67,2.68,18.5,4.7,25.26.89,4.41,2.96,8.61,3.19,13.32-4.4-1.43-8.27-4.16-12.43-6.27Z"/>
    <path class="cls-2" d="M293.76,111.37c-2.28-3.52-6.55-7.7-12.02-7.31-2.19.12-3.69.83-5.23,1.68-2.98,1.6-6.52,3.05-9.84,3.03-4.74.07-8.31-3.78-8.83-7.33-.65-4.74,3.25-10,8.8-11.38,4.64-.53,8.08.64,13.17,2.11,1.57.44,3.43-.06,4.38-1.25,1.06-1.33.59-3.03-1.06-3.79-4.69-2.23-12.3-5.38-18.47-2.89-10.68,3.62-13.98,14.93-8.62,22.52,5.66,8.31,16.73,7.13,25.22,3.06,1.54-.52,2.44-.25,3.81.69,2.59,1.87,4.92,4.77,7.79,7.12,1.81,1.52,4.64.2,3.63-1.67-.82-1.55-1.69-3.08-2.74-4.61Z"/>
    <path class="cls-2" d="M396.22,56.01c.71-.24.7-.93-.01-1.08-12.67-2.74-28.42-.31-38.48,8.08-5.16,4.38-8.11,8.95-9.7,13.44-5.08-1.38-9.03-4.38-15.25-2.72-4.43.94-7.72-.35-11.35-.97-3.89-.87-7.49-2.11-11.01-3.43,2.38-4.33,5.1-8.43,8.3-13.82.49-.78.73-1.62.54-2.42-1.93-5.87-13.85,4.3-16.33,7.38-1.28,1.44-2.46,3.05-3.52,4.75-2.48-.83-5.01-1.56-7.66-2.05-5.1-1.15-11.17-1.53-16.65-1.36-32.56.15-31.5,4.02-62.55-15.94-.65-.44-1.16.45-.73,1.12,1.24,1.94,2.53,3.75,3.81,5.47,9.51,12.45,20.84,17.91,33.12,18.4,8.57.43,16.68-.55,25.42-1.1,4.72-.39,9.94-.47,14.67.22,2.56.31,5.01.84,7.4,1.47-5.37,12.58-3.82,25.85.4,34.12,2.76,5.53,7.73,11.13,14.36,15.93,1.04.74,2.52,1,3.61.54,1.35-.57,1.63-1.96.63-3.09-4.45-5.12-7.52-10.04-9.04-15.06-1.57-5.1-1.68-9.94-1.25-15.2.2-4.45.89-8.91,2.73-13.65,0,0,0,0,.01,0,5.62,2,12.25,3.25,18.84,4.62.9.29,1.73.73,2.6,1.15,3.29,2.06,7.88,1.89,12.64.97,1.69-.38,3.38-.64,5.07-.81-1.12,6.19-.19,12.23-.1,17.96.37,3.39.41,6.82-.63,10.13-1.92,5.71-5.58,9.79-8.44,15.94-.52,2.29,7.68-.81,8.9-1.31,2.44-1.01,4.69-2.26,6.64-3.72,14.05-10.62,9.25-25.75,10.42-39.25,2.03,0,4.1-.03,6.23-.17,4.89-.36,9.97-1.04,14.88-2.46.87-.22.69-.96-.16-1-7.1-.66-13.91-.21-20.47.05.04-.18.06-.36.1-.53,1.93-12.25,16.39-15.07,32.03-20.62Z"/>
    <path class="cls-2" d="M330.07,111.59c-3.39-7.64-2.57-14.76-3.65-22.15-.18-1.03-1.09-1.94-2.59-2.38-2.36-.7-5.28.07-6.49,1.69-2.9,4-3.39,8.19-2.67,12.4.76,4.27,2.8,8.69,6.94,12.72,1.17,1.12,3.15,1.8,5.09,1.62,2.59-.25,4.11-1.95,3.43-3.75,0,0-.05-.14-.05-.14Z"/>
  </g>
  <g>
    <g>
      <path class="cls-2" d="M85.61,166.77c-16.98,1.23-30.2-5.7-45.01-17.36-4.39-3.53-6.02-9.58-3.3-15.39.23-.5.47-1,.71-1.5,1.65-3.5,4.74-6.45,8.54-8.41-.03,0-.06,0-.09,0-2.05.14-4.06,0-6-.42-.6-.13-1.2-.25-1.8-.38-7.37-1.57-12.59-6.98-12.34-13.38.64-17.33,11.89-33.86,26.39-43.16,10.85-7.01,22.74-9.99,35.32-9.12,1.79.12,3.6.33,5.4.61,12.5,1.83,23.71,7.45,32.94,11.91,1.82.88,3.57,1.73,5.24,2.51,1.66.73,3.45,1.54,5.51,2.48,1.77-3.69,3.2-7.58,4.25-11.7.03-.14.06-.26.11-.4.53-1.89.98-3.87,1.43-6.32,0-.05.02-.1.03-.15,1.36-7.17,2.11-15.22,4.9-23.62,2.69-8.97,9.25-15.12,17.82-14.44.18.01.37.03.55.05,7.73.74,15.83,6.8,21.72,15.36.25.35.48.72.71,1.09,4.38,7.19,5.9,13.38,6.76,17.77.02.1.04.19.05.29.22,1.28.41,2.51.56,3.73,3.09,2.46,5.26,5.81,6.07,9.23.32,1.32.64,2.75.96,4.21.08.36.16.71.23,1.07.3,1.38.61,2.93.93,4.44,1.03-.91,2.2-1.67,3.48-2.24,1.97-.87,4.1-1.28,6.31-1.22,2.44.07,4.92.75,7.14,1.91.81.43,1.56.92,2.26,1.45-.03-.7-.07-1.41-.1-2.12-.01-.56,0-1.11.06-1.65-8.21-3.27-15.69-8.63-22.54-16.86-1.62-1.97-3.07-3.85-4.54-5.91-4.03-5.61-5.13-13.69-1.78-19.52,1.98-3.39,5.39-5.32,9.21-5.04,2.22.16,4.51,1.05,6.58,2.54,19.5,13.82,24.11,15.98,35.61,16.75,3.8.18,8.31.1,14.11-.02.86-.02,1.72-.03,2.58-.05,2.22-.04,4.6-.09,7.19-.13,1.73-.03,3.48-.02,5.21.05,5.22.2,10.02.85,14.23,1.87,4.86-4.98,14.44-13.16,24.02-13.17.31,0,.62,0,.93.02,5.75.32,9.86,3.87,11.27,8.77.07.21.13.48.19.76.72,3.63-.12,7.51-2.35,11.03-.82,1.32-1.65,2.64-2.5,3.99.76.16,1.46.33,2.11.49.12.03.24.06.35.08.52.13,1.27.31,1.78.41,2.33-.52,4.64-.78,6.87-.79.81,0,1.62.03,2.42.1,1.71-1.97,3.62-3.87,5.79-5.76,10.87-9.34,26.54-15.02,41.32-14.23,4.62.19,9.12.91,13.58,2.04,5.69,1.49,10.01,5.09,10.7,9.28.66,4.16-2.98,8.23-9.49,10.42-2.88.98-5.57,1.83-8.29,2.7-.68.22-1.32.42-1.91.61,5.18,1.36,9.05,4.24,9.81,7.76,1.01,4.52-3.61,8.93-11.27,10.91-3.65.98-7.44,1.74-11.47,2.3.81,13.45.03,27.04-14.17,38.33-2.7,2.18-5.78,4.12-9.18,5.76-3.13,1.6-7.87,3.71-13.22,3.96-.23.01-.47.02-.7.02-3.67.05-7.16-.84-10.38-2.63-2.31-1.27-4.26-2.89-5.69-4.68-.88.85-1.93,1.59-3.13,2.19-1.95.94-4.16,1.45-6.59,1.48-4.53.07-9.34-1.6-13.05-4.43-.37-.29-.75-.59-1.14-.89-1.47.61-3.08.97-4.79,1.05-.19,0-.38.02-.58.02-4.31.07-8.78-1.67-12.09-4.6-1.34-1.17-2.55-2.37-3.54-3.39-3.81,1.31-7.67,2.05-11.46,2.12-6.84.15-13.06-1.92-17.79-5.71-.6,1.14-1.28,2.27-2.03,3.38-.04.06-.09.13-.13.19-3.99,5.6-10.53,9.71-17.62,10.31-.15.01-.85.06-.85.06-6.06.29-11.61-1.99-15.52-6.07-2.6,1.15-5.32,1.82-8.05,1.97-.4.02-.8.03-1.2.03-.34,0-.68-.01-1.02-.03-1.74,2.67-4.08,5.03-6.82,6.79-2.83,1.82-6.07,2.94-9.28,3.16-3.53.24-6.99-.6-9.94-2.36-.11-.05-.19-.11-.24-.15-6.18-3.9-12.12-8.04-17.71-11.67-6.62,10.39-15.77,20.68-27.15,30.41-.36.3-.71.59-1.04.85-9.18,7.15-19.91,13.04-29.52,15.8-3.17.91-6.37,1.57-9.49,1.95-.8.1-1.59.18-2.37.24ZM66.37,112.71c-1.91,1.8-3.9,3.68-5.96,5.55-1.38,1.25-2.96,2.35-4.67,3.24,5.78-.74,12.75-1.44,18.71-2.02,11.44-1.23,22.48-2.51,29.7-7,5.13-4.26,10.07-8.7,14.59-13.2-.03-.01-.06-.02-.1-.03-7.14-1.95-14.5-3.01-21.05-2.9-4.69.08-8.84.74-12.23,2.01-6.42,2.67-12.05,7.86-18.89,14.25-.62-.43-1.25-.85-1.88-1.28.6.46,1.19.92,1.77,1.38ZM169.05,91.01c-.17-1.01-.33-2.04-.5-3.08-.26.76-.53,1.55-.82,2.38.44.23.88.47,1.32.7Z"/>
      <path class="cls-1" d="M166.46,21.47c.17.01.33.03.5.05,7.02.68,14.36,6.09,19.76,13.84.21.3.41.61.61.93,4.04,6.54,5.53,12.37,6.37,16.53.02.09.03.17.05.26.31,1.68.53,3.24.71,4.73,2.99,2.05,5.25,5.13,6.06,8.47.4,1.64.81,3.45,1.22,5.27.56,2.58,1.11,5.28,1.64,7.62,1.26-1.75,2.98-3.17,5.03-4.08,1.78-.79,3.72-1.15,5.68-1.1,2.18.06,4.39.64,6.42,1.69,1.89,1,3.45,2.32,4.6,3.84-.08-1.94-.16-3.93-.26-5.97-.02-.92.07-1.83.28-2.69-8.36-3.11-16.16-8.5-23.22-17.08-1.73-2.12-3.12-3.98-4.43-5.84-3.36-4.73-4.19-11.5-1.36-16.3,1.77-2.95,4.71-4.48,7.92-4.24,1.87.13,3.82.85,5.65,2.14,19.79,13.81,24.48,15.83,36.02,16.57,3.79.17,8.24.08,14.06-.05,2.89-.06,6.08-.13,9.67-.19,1.49-.03,3.21-.03,5.08.04,4.39.16,9.62.68,14.58,1.93.1.03.22.04.32.06,3.91-4.13,13.56-13.05,23.1-13.14.28,0,.56,0,.83.02,5.09.25,8.74,3.26,10.02,7.58.07.21.12.43.17.64.64,3.09-.08,6.43-2.02,9.51-1.29,2.1-2.47,3.96-3.59,5.73.49.14,1,.28,1.48.41,1.05.21,1.99.43,2.84.63.78.19,1.81.43,2.36.49,2.45-.58,4.7-.82,6.77-.83,1.29,0,2.51.08,3.66.24,1.85-2.28,4-4.46,6.45-6.58,10.42-8.91,25.51-14.09,39.48-13.47,4.42.15,8.82.78,13.24,1.85,4.95,1.23,8.62,4.28,9.11,7.85.47,3.53-2.64,6.94-8.14,8.81-2.84.97-5.55,1.84-8.15,2.67-3.39,1.08-6.05,1.96-8.16,2.73.72.06,1.46.11,2.2.17,6.29.54,11.32,3.43,12.11,7.19.8,3.78-3.18,7.52-9.6,9.2-4.08,1.1-8.41,1.93-13.06,2.5.69,12.32,1.18,26.79-13.4,38.3-2.58,2.06-5.51,3.88-8.81,5.43-3.02,1.51-7.52,3.46-12.49,3.67-.21,0-.42.01-.63.02-2.92.03-5.99-.58-9.03-2.26-3.16-1.73-5.43-4.16-6.44-6.64-.93,1.64-2.43,3.01-4.42,3.98-1.75.83-3.76,1.25-5.85,1.27-3.92.05-8.16-1.33-11.49-3.85-.75-.58-1.49-1.15-2.19-1.74,0,0,0,0-.01,0-1.59.83-3.37,1.28-5.24,1.36-.17,0-.34.01-.51.02-3.69.05-7.6-1.38-10.55-3.97-1.68-1.45-3.1-2.9-4.32-4.17,0,0,0,0,0-.01-4.04,1.49-8.1,2.3-11.99,2.36-7.04.14-13.48-2.22-18.09-6.54-.74,1.62-1.67,3.26-2.8,4.89-.04.06-.08.12-.12.18-3.75,5.17-9.77,8.86-16.33,9.4-.28.02-.57.03-.84.06-5.91.27-11.31-2.12-14.96-6.24-2.65,1.29-5.49,2.06-8.34,2.2-.37.02-.74.03-1.11.03-.66,0-1.31-.04-1.95-.12-1.59,2.77-3.88,5.22-6.7,7.01-2.59,1.64-5.47,2.6-8.34,2.79-3.23.22-6.43-.53-9.25-2.2-.04,0-.07-.03-.1-.06-6.54-4.05-12.69-8.29-19-12.29-.08-.04-.15-.1-.23-.14-6.5,10.76-15.82,21.38-27.5,31.29-.29.24-.57.48-.85.69-8.84,6.83-19.14,12.42-28.41,15.07-3.16.9-6.25,1.53-9.24,1.9-.78.1-1.55.18-2.32.24-16.55,1.27-29.73-5.17-44.31-16.62-3.66-2.92-4.93-7.95-2.64-12.74.24-.5.48-1,.72-1.49,2.28-4.78,7.8-8.37,13.75-9.19,5.99-.83,13.59-1.63,20.02-2.28,11.86-1.33,23.28-2.73,31.04-7.67,6.03-5.01,11.83-10.27,17.05-15.63-.93-.33-1.88-.66-2.82-.98-7.48-2.07-15.04-3.17-21.79-3.09-4.93.06-9.43.74-13.15,2.13-7,2.88-12.83,8.26-19.9,14.86-1.94,1.82-3.9,3.67-5.94,5.52-3.17,2.88-7.56,4.68-12.03,4.97-1.74.11-3.5,0-5.21-.38-.61-.13-1.21-.26-1.82-.39-6.25-1.34-10.59-5.86-10.35-11.15.71-16.51,11.3-32.3,25.22-41.24,10.36-6.71,21.97-9.59,33.96-8.8,1.73.11,3.46.3,5.2.57,12.12,1.72,23.1,7.17,32.13,11.49,1.82.88,3.57,1.72,5.25,2.49,2.36,1.03,4.72,2.1,7.16,3.21,2.12-4.1,3.84-8.44,5.08-13.18.02-.09.04-.16.07-.25.59-2.01,1.06-4.1,1.5-6.38,1.4-7.03,2.19-14.92,4.98-23.03,2.61-8.35,8.71-13.93,16.64-13.3M171.31,94.14c-.75-4.15-1.47-8.73-2.17-13.43-1.14,3.44-2.26,6.91-3.5,10.42,1.94,1.01,3.82,2.03,5.67,3.01M260.14,95.21c.71-.15,2-.55,4.02-1.61.56-.3,1.33-.72,2.31-1.13-2.23-.62-3.52-.89-4.71-.89-.9.55-1.93,2-1.8,3.21.03.14.1.29.18.42M164.84,15.54s0,0,0,0c-9.25-.72-16.23,6-19.02,15.68-2.79,8.75-3.48,16.99-4.82,24.33,0,.05-.02.1-.03.15-.44,2.44-.86,4.41-1.39,6.34-.05.16-.09.31-.12.47-.88,3.57-2.05,6.96-3.49,10.2-1.38-.63-2.65-1.21-3.86-1.75-1.66-.78-3.39-1.63-5.18-2.5-9.44-4.59-20.88-10.39-33.79-12.34-1.85-.3-3.72-.52-5.56-.65-13.05-.95-25.34,2.14-36.66,9.44-15.1,9.65-27.03,26.93-27.58,45.07-.24,7.54,5.91,13.85,14.35,15.64.61.13,1.22.26,1.83.38.11.02.22.05.33.07-1.81,1.71-3.28,3.68-4.28,5.82-.23.5-.46,1-.7,1.49-3.16,6.83-1.1,13.92,4.01,18.04,15.15,11.98,28.32,19.31,45.66,18.15.8-.06,1.62-.14,2.43-.23,3.2-.38,6.48-1.05,9.74-1.99,9.92-2.86,21.09-9.04,30.7-16.57.43-.33.81-.65,1.15-.94,11.07-9.54,20.06-19.54,26.76-29.56,5.16,3.44,10.6,7.28,16.32,10.96.08.06.18.12.3.18,3.15,1.91,6.86,2.82,10.67,2.55,3.52-.24,7.1-1.5,10.23-3.54,2.7-1.76,5.06-4.06,6.9-6.63.04,0,.08,0,.12,0,.42,0,.86-.01,1.29-.03,2.62-.14,5.24-.75,7.76-1.77,4.12,4.02,9.82,6.25,15.96,5.94,0,0,0,0,0,0,.04,0,.08,0,.12,0,.12-.01.24-.02.36-.03.17-.01.33-.02.5-.04,7.65-.67,14.67-5.18,18.9-11.22.01-.02.03-.04.04-.06.01-.02.02-.03.03-.05.03-.04.06-.09.09-.13.45-.67.87-1.34,1.26-2.02,4.84,3.38,10.92,5.2,17.51,5.05,3.62-.07,7.29-.73,10.92-1.9.82.83,1.74,1.72,2.76,2.62,3.71,3.33,8.77,5.33,13.62,5.23.22,0,.43-.01.65-.02,1.51-.08,2.94-.35,4.28-.8.03.02.05.04.08.06.01.01.03.03.05.04,4.17,3.22,9.58,5.12,14.63,5.02,2.71-.05,5.16-.63,7.3-1.69.71-.36,1.38-.77,1.99-1.22,1.38,1.32,3.01,2.53,4.84,3.54,3.65,2.05,7.61,3.07,11.72,2.99.26,0,.51-.01.76-.03,5.7-.3,10.66-2.56,13.99-4.29,3.52-1.73,6.69-3.78,9.5-6.07,14.31-11.49,15.79-24.95,14.97-38.42,3.43-.54,6.7-1.22,9.9-2.08,8.8-2.26,14.14-7.37,12.9-12.62-.69-3.04-3.38-5.65-7.12-7.44,1.9-.6,3.88-1.24,5.91-1.93,7.55-2.52,11.7-7.22,10.81-12.01-.93-4.82-5.92-8.95-12.3-10.72-4.56-1.21-9.15-2.01-13.89-2.25-15.2-.98-31.66,5.04-43.13,14.96-1.91,1.67-3.61,3.33-5.16,5.03-.4-.02-.8-.02-1.2-.02-2.24,0-4.56.24-6.9.73-.42-.1-.93-.23-1.23-.3-.13-.03-.26-.06-.38-.09-.08-.02-.16-.04-.24-.06.47-.74.93-1.48,1.39-2.23,2.5-3.94,3.46-8.33,2.66-12.47-.06-.27-.12-.6-.24-.97-1.57-5.49-6.09-9.56-12.49-9.96-.34-.02-.69-.03-1.04-.03-9.79-.06-19.54,7.84-24.9,13.2-4.07-.94-8.64-1.54-13.58-1.75-1.77-.08-3.57-.1-5.36-.07-2.61.03-5.02.07-7.26.11-.87.01-1.73.03-2.59.04-5.85.11-10.39.19-14.18,0-11.26-.78-15.83-2.99-35.21-16.93-2.35-1.71-4.99-2.76-7.53-2.94-4.39-.33-8.29,1.94-10.52,5.87-1.27,2.24-1.95,4.84-2.13,7.52-.23-.41-.47-.81-.72-1.23-.02-.03-.03-.05-.05-.08-.23-.38-.49-.8-.81-1.25-6.36-9.39-15.25-16.14-23.71-16.94-.19-.02-.39-.04-.59-.05h0ZM197.57,55.94c-.12-.91-.26-1.83-.42-2.77,0-.03,0-.06-.01-.08.83,1.08,1.69,2.14,2.59,3.22,5.71,6.8,11.83,11.64,18.42,15.01-1.39-.4-2.82-.63-4.23-.67-2.44-.08-4.79.37-6.95,1.34-.62.28-1.21.59-1.78.95-.12-.6-.25-1.19-.37-1.77-.08-.36-.15-.72-.23-1.09-.31-1.46-.63-2.9-.94-4.23-.84-3.59-2.98-7.15-6.08-9.92t0,0ZM86.26,100.25c3.07-1.15,6.87-1.76,11.21-1.86,5.41-.12,11.43.6,17.4,1.99-3.73,3.6-7.72,7.13-11.84,10.55-6.64,4.02-17.3,5.2-28.39,6.34-3.5.33-7.33.69-11.09,1.08,1.57-1.45,3.1-2.9,4.58-4.29.02-.02.05-.05.07-.07,6.6-6.17,12.04-11.2,18.05-13.75t0,0Z"/>
    </g>
    <g>
      <path class="cls-1" d="M238.86,72.21c-.06-3.16-5.09-3.09-5.1.07.09,9.11.71,16.71-1.55,24.77-.19.6-.71,2.21-.96,2.8-1.34,4.06-6.18,8.15-9.19,2.93-1.95-2.94-2.26-6.13-2.71-9.71-.29-2.68-.39-5.35-.64-8.32-.1-1.29-.92-2.54-2.29-3.25-3.02-1.51-6.1.27-6.65,3.18-.88,4.09-1.16,8.54-3.4,12.37-.85,1.39-1.85,2.51-2.84,2.91-.73-.16-1.53-1.15-2.4-2.41-2.18-4.21-4.03-8.94-5.52-14.2-1.35-4.68-2.77-11.93-4.39-17.61-.3-1.11-1.4-1.97-2.51-1.93-1.13.06-1.82,1.05-1.53,2.22.75,3.15,1.24,6.19,1.59,9.16,1.32,9.12.57,18.45,3.98,26.71,4.16,9.32,14.34,9.03,20.29,1.11.74,1.93,1.72,3.79,3.09,5.39,4.49,6.08,13.72,5.56,18.46-.54,7.93-10.87,3.8-23.72,4.28-35.62Z"/>
      <path class="cls-1" d="M185.54,66.17c-.38-4.73-.73-9.4-2-15.14-.76-3.11-1.96-7.22-4.61-11.22-8.09-10.9-16.31-6.21-18.84,1.3-3.53,8.84-4.05,18.28-6.69,26.33-2.12,7.51-5.57,14.53-10.5,21.39-5.14-2.42-10.59-4.89-16.38-7.33-9.23-4.03-20.93-10.5-32.77-11.93-25.61-3.86-46.21,16.08-48.09,38.03.61.14,1.22.28,1.83.43,10.18-9.08,18.66-18.4,30.88-23.05,14.78-5.2,32.38-2.27,45.59,1.66,5.65,1.98,10.87,4.13,15.74,6.38-1.95,2.41-4.09,4.78-6.38,7.14-6.5,6.87-13.76,13.48-21.16,19.66-11.3,7.84-25.22,9.96-39.28,11.74-5.4.63-13.12,1.55-18.86,2.45-.26.49-.52.99-.78,1.48,14.01,10.6,29.25,16.41,48.48,11.21,7.11-1.95,14.93-5.9,21.69-10.88,11.66-9.52,19.73-19.51,24.7-29.05,1.33-2.66,2.52-5.24,3.56-7.77,10.75,5.78,19.85,11.8,29.51,17.23,4.01,2.22,9.64,1.46,10.67-4.7.63-5.84-1.82-10.93-2.68-15.89-2.24-9.24-2.79-18.67-3.64-29.46ZM173,104.43c-6.08-3.38-12.43-6.83-19.38-10.35,4.48-11.93,6.5-23.09,10.99-34.73,1.57-4.26,3.4-9.04,6.31-12.55.39-.41.74-.75,1.07-.97,2.12,3.82,2.9,8.55,3.55,12.27.72,4.48,1.5,10.13,1.99,14.02,1.14,8.67,2.68,18.5,4.7,25.26.89,4.41,2.96,8.61,3.19,13.32-4.4-1.43-8.27-4.16-12.43-6.27Z"/>
      <path class="cls-1" d="M286.76,104.37c-2.28-3.52-6.55-7.7-12.02-7.31-2.19.12-3.69.83-5.23,1.68-2.98,1.6-6.52,3.05-9.84,3.03-4.74.07-8.31-3.78-8.83-7.33-.65-4.74,3.25-10,8.8-11.38,4.64-.53,8.08.64,13.17,2.11,1.57.44,3.43-.06,4.38-1.25,1.06-1.33.59-3.03-1.06-3.79-4.69-2.23-12.3-5.38-18.47-2.89-10.68,3.62-13.98,14.93-8.62,22.52,5.66,8.31,16.73,7.13,25.22,3.06,1.54-.52,2.44-.25,3.81.69,2.59,1.87,4.92,4.77,7.79,7.12,1.81,1.52,4.64.2,3.63-1.67-.82-1.55-1.69-3.08-2.74-4.61Z"/>
      <path class="cls-1" d="M389.22,49.01c.71-.24.7-.93-.01-1.08-12.67-2.74-28.42-.31-38.48,8.08-5.16,4.38-8.11,8.95-9.7,13.44-5.08-1.38-9.03-4.38-15.25-2.72-4.43.94-7.72-.35-11.35-.97-3.89-.87-7.49-2.11-11.01-3.43,2.38-4.33,5.1-8.43,8.3-13.82.49-.78.73-1.62.54-2.42-1.93-5.87-13.85,4.3-16.33,7.38-1.28,1.44-2.46,3.05-3.52,4.75-2.48-.83-5.01-1.56-7.66-2.05-5.1-1.15-11.17-1.53-16.65-1.36-32.56.15-31.5,4.02-62.55-15.94-.65-.44-1.16.45-.73,1.12,1.24,1.94,2.53,3.75,3.81,5.47,9.51,12.45,20.84,17.91,33.12,18.4,8.57.43,16.68-.55,25.42-1.1,4.72-.39,9.94-.47,14.67.22,2.56.31,5.01.84,7.4,1.47-5.37,12.58-3.82,25.85.4,34.12,2.76,5.53,7.73,11.13,14.36,15.93,1.04.74,2.52,1,3.61.54,1.35-.57,1.63-1.96.63-3.09-4.45-5.12-7.52-10.04-9.04-15.06-1.57-5.1-1.68-9.94-1.25-15.2.2-4.45.89-8.91,2.73-13.65,0,0,0,0,.01,0,5.62,2,12.25,3.25,18.84,4.62.9.29,1.73.73,2.6,1.15,3.29,2.06,7.88,1.89,12.64.97,1.69-.38,3.38-.64,5.07-.81-1.12,6.19-.19,12.23-.1,17.96.37,3.39.41,6.82-.63,10.13-1.92,5.71-5.58,9.79-8.44,15.94-.52,2.29,7.68-.81,8.9-1.31,2.44-1.01,4.69-2.26,6.64-3.72,14.05-10.62,9.25-25.75,10.42-39.25,2.03,0,4.1-.03,6.23-.17,4.89-.36,9.97-1.04,14.88-2.46.87-.22.69-.96-.16-1-7.1-.66-13.91-.21-20.47.05.04-.18.06-.36.1-.53,1.93-12.25,16.39-15.07,32.03-20.62Z"/>
      <path class="cls-1" d="M323.07,104.59c-3.39-7.64-2.57-14.76-3.65-22.15-.18-1.03-1.09-1.94-2.59-2.38-2.36-.7-5.28.07-6.49,1.69-2.9,4-3.39,8.19-2.67,12.4.76,4.27,2.8,8.69,6.94,12.72,1.17,1.12,3.15,1.8,5.09,1.62,2.59-.25,4.11-1.95,3.43-3.75,0,0-.05-.14-.05-.14Z"/>
    </g>
  </g>
</svg>