<?xml version="1.0" encoding="UTF-8"?>
<svg id="Layer_1" xmlns="http://www.w3.org/2000/svg" version="1.1" viewBox="0 0 600 238.77">
  <!-- Generator: Adobe Illustrator 29.5.1, SVG Export Plug-In . SVG Version: 2.1.0 Build 141)  -->
  <defs>
    <style>
      .st0 {
        fill: #673606;
      }
    </style>
  </defs>
  <path class="st0" d="M113.13,97.33c.08-.45-.08-1.17.62-1.34,1.13-.27,2.02,1.54,2.56,2.3,5.12,7.18,10.07,14.74,15.26,21.94,2.04,2.84,5.58,7.01,6.96,9.85.19.39,1.6,1,1.47,2.04,1.62-.24-.44-3.72.23-4.32.62-.18,1.02.57,1.47.6.57.03,1.02-.77,1.37-.37.52.59.03,1.14.2,1.84.1.42.55.41.59.59.19.86-.26,2.01.23,2.87.09.15.46.12.46.29,0,1.41.35,1.49.44,2.51.1,1.14-.78,1.55-.68,2.22.02.14.35.15.37.2,1.27,2.97,4.02,4.45,5.99,6.68,1.72,1.95,2.92,3.68,5.1,5.07.23.15.27.52.5.69.54-.36.29-1.08.2-1.62-.79-4.94-2.35-9.54-3.03-14.67-.32-2.46-1.07-4.82-1.61-7.05-.39-1.62.36-5.56-.69-6.95-.22-.3-.65-.33-.81-.84-.25-.75.03-1.6-.14-2.36-.95-4.24-2.38-9.05-3.99-13.07-.11-.28-.46-1.35-.48-1.59-.06-.6.41-.76.54-1.19.14-.46-.2-2.91,1.1-2.49.07.02.95.9.98.96.19.33.13.92.35,1.36.31.64.99,1.01,1.2,1.98.37,1.65.62,3.01,1.23,4.67,1.41,3.88,3.31,7.83,4.87,11.54.89,2.12,1.34,4.58,2.2,6.48.95,2.09.83,5.87,1.71,8.26,2.02,5.5,3.31,11.61,5.03,17.26-.24.88.53,1.82.32,2.6-.23.84-1.18-.62-1.58-.32.08,1.18.48,2.26.78,3.4.5,1.91,1.26,4.19,1.77,6.2.18.7,1.47,2.59,2.05,2.84.14.06.75-.24,1.04.12.14.18.11.66.31.94,1.41,1.98,3.8,4.56,5.43,6.17.31.31,1.06.27,1.28.57l.11,1.81,1.26.24c-.22.89.16.56.4.96.34.57.39,1.45,1.18,1.32l.34-.46v.28s.69.17.69.17c.2,1.05-1.08-.21-.91.56.12.53,1.17,2.04,1.45,2.42s.17.97,1.05.88l-.13-.92,1.95-.67c.13.83-1.3.46-1.14,1.36.67-.12,1.49.58,1.72,1.14.07.18-.93,1.5.56,1.36l-.45.68c.92.1,1.91.79,1.82,1.82l.22-.45.91.22c.08-.6.02-.58-.45-.79l.45-.8-.91.23c-.05-.39.55-.21.65-.58.09-.33-.29-3.59-.88-3.63v-.45c1.16-.39-.26-1.02-.38-1.86-.07-.49.3-1.03-.08-1.72-.14-.25-.53-.25-.63-.55-.45-1.23-.3-3.36-.56-4.74-.75-4.02-2.08-8.08-3.18-12.22-.18-.7-.53-1.42-.62-1.72-.24-.88-.31-2.99-.62-3.63-.12-.24-.27-.3-.53-.28l.45-.45c-.18.03-.37.02-.45-.17-.37-.87-.02-3.01-1.14-3.25l.45-.22v-.45s-.46-.11-.46-.11l.46-.11c.16-.62-.29-.28-.5-.77-.43-1.04-.11-3.33-1.09-4.34l.45-.34c-.99-.24-.75-2.27-.96-3.08-.17-.62-.52-1.44-.76-2.41-.15-.58-.8-1.91-.8-2.36-.01-.98.8-.88.92-1.05.06-.08-.6-1.53-.21-2.03.55.42,2.35-.03,2.46.03.06.04.1.36.29.51.17.13.49.09.6.2.29.27.1,1.59,1.2,1.31.39-1.54.04-2.32-.9-3.54l.44-.55c-.7.1-.81-1.89-.57-2.28.19-.31.93-.3.79-.91l-1.16-.1c.05-.55-.63-1.14-.65-1.21-.13-.47-.53-3.39-.49-3.82.1-1.09,1.17-.97,2.07-1.02-.05-.56.31-1.47-.45-1.37l.46-.34c-1.09-.28-.27-3.04.45-3.43.47-.25.87.12,1.22.07.45-.07,1.01-.91,1.94-.36l.72,5.04c1.19,2.19.93,4.82,1.89,7.25.44,1.12,1.36,2.09,1.33,3.35,1.09-.11.72,1.13.95,1.95.1.35.74,1,.85,1.19,1.25,2.2,1.77,4.75,3.27,6.66.19.24.12,2.11,1.04,2.05l-.45.45c1.05.07.82,1.45,1.2,1.98.65.9.59-.17.84,1.5.01.09.98,1.07,1.09,1.46.15.52,0,1.12.05,1.66.28.38.41-.02.45-.34.1-.78-.07-1.69,0-2.5.2-2.16.19-3.37.21-5.45.01-.99.66-1.02.69-1.19.17-.81-.21-3.94.85-4.15.81-.16,1.93.09,2.8-.01.13.13-.09,3.17-.02,3.77.05.43.44.22.49.65.08.61.08,2.38,0,2.99-.06.43-.44.22-.49.65-.14,1.1.13,2.5.03,3.64-.32.08-2.25,1.52-2.28,1.66-.38,1.92-.11,3.86,2.09,3.94,1.16.5.45,3.28.62,4.41l.71.25c.08.73-.17,1.78-.01,2.45.02.08.83.57.48,1.51l.62.04c-.24.71.46.95.48,1.05.1.41-.11,1.5.03,1.65l.67.14c.28,1.43-.87,4.29,1.11,4.44l.02,2.48.45-.23v.69s.69-.11.69-.11l.33.33-.11,1.15.91-.68.21.77.7.13c-1.03-3.14,3.62-1.29,5.41-1.89.05-.02.42-.59.62-.75.12-.1,1-.5,1.03-.55.29-.5-.4-.41-.45-.6-.27-1-.19-3.44,1.37-3.03-.41.63.31.56.42.71.06.08-.25.47-.18.74s.75.33.67.82l.45-.11-.46-1.47c.45-.11.62.46,1.02.46.27,0,.58-.37.93-.45.79-.18,1.15.89,2.14.68.09-.09.23-2,.33-2.28.21-.57.76-.64.81-.84.15-.66.06-1.49.29-2.39.33-1.29,1.23-2.42,1.47-4.01.05-.34,0-.77-.01-1.12-.1-1.77-.39-3.75-.18-5.61l-.46-2.85c-1.15.15-.3-.69-.43-1.71-.22-1.66-1.22-3.85-1.54-5.54-.08-.41.15-.78.08-1.19-.12-.69-.74-1.69-.81-2.17-.1-.73.79-1.57.58-1.92-1.03-.63-2.04-1.31-3.08-1.93-.45-.27-1.03-.32-1.44-.56s-.93-1.31-1.76-1.14l.27-1.1.61-.05.03-.89c.66-.14.42.51.96.75.46.21.97.09,1.37.23.44.15,1.98.99,2.22.85-.24-1.21-.23-2.47-.47-3.69-.33-1.63-.88-4.03-1.33-5.58-.25-.86-.12-1.47-.26-2.17-.04-.21-1.1-.79-1.27-1.18-.46-1.06.48-3.22.38-4.33-.09-.99-1-1.8-1.08-2.31-.11-.69,0-2.8-.08-3.79-.23-2.44-.54-4.86-.36-7.3.04-.52.88-.6.56-1.61-.06-.19-.43-.18-.58-.5-.59-1.2.03-2.65-.04-3.81-.09-1.35-.88-2.3-.7-3.88.09-.8.59-1.23.69-2.04.33-2.63-.13-5.98.09-8.75.36-4.45,1.19-8.54,1.73-12.85.44-3.54,1.41-5.3,1.16-8.86-.09-1.25,2.51-9.83,2.99-11.78,1.51-6.16,2.73-12.45,5.02-18.41.1-.27.68-1.69.74-1.77.3-.44.96-.32,1.19-.51.47-.41.42-2.58,1.85-2.21.48,1.23.35,2.67-.43,3.74.97.27.15.53.06.96-.59,2.87-1.03,5.79-1.34,8.63-.25,2.26-.69,3.84-1.16,5.93-.66,3-1.07,5.87-2.13,8.78-.12.34-.55.69-.6.97-.09.58.48,2.24.41,2.66-.03.2-.51.17-.66.53-1.03,2.43-.78,6.44-1.82,9.11-.52,1.33-1.12.72-1.66,1.3-.45.48-.4,1.77-.69,2.51s-.99.79-1.21,1.7c-.55,2.24-.56,4.85-.82,7.19-.87,7.97-1.1,15.6-.56,23.65.09,1.29.12,3.35.34,4.54.11.58.88,1.32,1.03,1.94s-.14.93-.08,1.23c.05.26.53.44.63.94.2,1.03-.48,1.42-.46,2.02.03.67,1.11,1.44,1.09,2.98-.01.89-.84,2.33-.83,2.46.03.33.48.62.57.99.37,1.53.23,3.87.75,5.41.32.95.8,1.34,1.84,1.25l-.09.92,1.68,2.04.19-.88c-1.15-.26-.06-.5-.03-.55.35-.61,0-1.29.09-1.84s.93-3.92.86-4.13l-.41-.33c.63.1.47-.43.45-.91.8.16,1.47.34,2.18-.22.46-.36.2-.99,1.46-.69.12.49-.45.79-.54,1.13-.27.99.57,1.58-1.3,1.98-.27.35.26,2.95-.89,3.04.99.89.02,1.6,0,2.41-.01.48.63,1.3.45,1.98-.05.18-.41.14-.45.31-.08.32-.07,1.84,0,2.18.02.09,1.1.93.67,1.53,1.36-.24.69.41,1.16,1.23.24.43.74.47.88.77.35.75.3,2.14.51,2.84.13.42.72.62.77.95.11.72-.5,2.05.3,2.94.2.22.54.1.64.19.18.17.09.71.35,1.03.18.22,1.49,1.04,2,1.53,2.33,2.29,3.4,4.69,4.35,7.47.12.36.55.32.62.4.04.05-.31.76-.21,1.18.05.2.49.23.65.53.26.49.13,1.51.95,1.44-.38-.55.08-.84.15-1.28.17-1.23-.12-3.58.77-4.28v-.46s-.46-.34-.46-.34c.11.01.33,0,.38-.07.31-.47.65-4.79.77-5.72.04-.33.37-.54.38-.88.02-.65-.55-.8-.71-1.32-.38-1.24-.88-4.24-1.04-5.56-.27-2.14-.18-4.53-.47-6.7.67-.3,1.57,1.42,1.69.25.09-.89-.3-1.98-.33-2.85-.09-2.35.36-4.85.23-7.06-.21-3.85-1.38-7.69-2.02-11.39-.31-1.78-.27-4.8-.7-6.31-.06-.2-.29-.18-.45-.16l.45-.45c-.75.11-.37-.69-.48-1.22-.38-1.86-.32-4.02-1.08-5.56-.12-.25-.41-1.08-.53-1.15s-.86.45-.86-.36c1.23-1.15,1.19.43,1.64.64.95.44,2.01-.49,2.85.22.07.06,1.08,1.41,1.1,1.5.18.7.12,4.63.67,4.8l.57-.13c.02-.49-.33-1-.4-1.4-.13-.75.15-2.45-.53-2.7-.14-1.28,2.38-.62,2.96-.19.45.33.4.74.7,1.11.14.17.5.24.68.46.44.54.25,1.2,1.29,1.43,1.42.32,1.63-.34,2.79-.65-.59-1.98,1.68-2.86,3.28-2.92.39.14.35.74.6,1.01,1.58,1.77,1.11,2.65,2.2,4.37,1.54,2.44,2.31,5.53,2.37,8.59.03,1.54-1.47,2.31-.46,3.97,1-.38,1.88-.73,2.22.61.57,2.27.28,5.3.51,7.66l.45.14-.45.34c.24.18.39.39.44.7.83,4.56,1.15,9.65,1.72,14.32.06.49-.11,1.28.02,1.74s.53.39.56.58c.21,1.31.19,1.9.7,3.34.09.25.06.55.43.59-.02-.51.04-1.02.19-1.51.95-3.04.93-5.31.48-8.6-.04-.33-.37-.54-.38-.88.27-.46.6-1.51.83-1.88.5-.77,1.02-.12,1.17-1.79.12-1.39.09-9.25-.39-10.29-.71-1.53-1.19-3.57-1.16-5.43.02-1.24,1.07-3.37-.5-3.96v-.22c1.03-.11,1.12-2.54.8-3.19-.16-.33-.74-.35-.8-.61-.13-.53-.16-1.45.46-1.55l-.46-.56.46-.12-.46-.26c.14-1.37-.21-2.71-.24-4.06-.02-.66.26-1.23.26-1.82,0-.89-.43-1.83-.25-2.74.11-.57.63-.47.69-.72.11-.45-.08-1.16,0-1.66l-.91.23.03-3.61,1.35.07c.11,1.12.68,1.08,1.14,1.6.81.92,2.74,3.05,2.85,4.21.06.66-.32.99-.35,1.5-.03.62.26,1.43.23,2.27-.12,2.79-.16,4.28-1.64,6.56-.16.24-.59.31-.65.53-.11.41-.19,1.85.45,1.67v.33c-1.19.5-.03,1.06,0,1.19.09.36-.04.82.1,1.22.35.97,1.3,1.86,1.04,2.79-.06.2-.42.13-.44.16l-.02.44c.72.04.92,1.46,1.16,2.09.07.19.35.19.41.36.25.8.44,2.83.02,3.54-.09.16-.47.13-.47.28,0,.21,1.02,3.71,1.16,4.02.12.28.54.25.64.55.31.94-.31,1.3,1.19,1.82.17.73-.49,1.5-.46,2.02s.89.92.44,1.7c.57.45,4.4-1.48,5.24-1.72,1.22.59.54,6.75.23,8.09l2.05-.22c-.09,1.07.48,2.28.47,3.3-.02,3.09-1.83,6.14-2.75,9.05-.06.19-.28.18-.44.16v.45s.45.23.45.23c-.71-.08-.64.64,0,.8l-.46.91c.72.08.74,2.56,0,2.39l.46.34-.46.26.06,2.77.4.15-.46.57.68-.23c.27.18.33,3.13.47,3.71.04.17.38.16.43.34.74,2.94,1.46,6.15,2.06,8.85.17.76.24,2.37.67,3.1.2.34,1.7,1.26,1.88,1.93,1.36-.06,1.29-1.38,3-.83.5.16.42.84.66,1.04.18.15.86.22,1.24.46s2.41,1.58,2.5,1.7c.27.36.58,2.32.77,2.94.05.17.37.17.42.35.27.98.24,2.74.51,3.54.14.43,1.52.88.87,2.2l1.01-.23c.2.7.71.07,1.27.69-.42-1.59.18-1.62,1.36-2.04l.35.44c.54-.26.3-1.76,1.26-1.93.32-.06.48.32.79.33.08,0,1.46-.26,1.53-.28,2.26-.71,1.43-3.3,1.4-5.02-.08-4.04-.16-7.91-.99-11.68-.48-2.16-.2-5.16-.68-7.43l-.46-.15.45-.45c-.72.07-.57-1.78-.74-2.39-.58-2.12-.81-5.06-1.52-7.52-.12-.42-.74-1.39-.89-2.1-.13-.67.24-2.67-.72-2.78l.45-.45c-.8-.08-.61-2.07-.8-2.86-.58-2.49-.85-4.52-1.3-6.99-.06-.33-.42-.65-.42-.95,0-.12.42-.09.47-.27.12-.47-.35-1.39.46-1.21l-.23,1.13.45-.45c.17.77.18,1.76.35,2.5.45,2.03,1,5.83,1.87,7.51.35.68.95.9,1.09,1.14.11.19.63,1.31.81,1.69.27.57-.03,1.44.9,1.5l-.45.22c-.18.59.27.35.44.63.27.46.42,1.13.59,1.64h1.02s0-.22,0-.22c-.74.13-.22-.66-.37-1.38s-.89-1.67-1.16-2.44c-.55-1.62-1.08-3.01-1.69-4.67-1.09-2.97-1.67-6.2-3.38-8.92l-.91.14c-.08-.55-.38-1.27-.64-1.75-1.18-2.14-3.51-6.75-4.09-8.88-.28-1.06-.26-2.86-.59-3.82-.09-.25-.36-.32-.6-.33l.45-.45c-.18.02-.36.03-.44-.17-.36-.79-.43-2.64-.71-3.53-2-6.31-4.34-12.03-5.96-18.64-.43-1.74-1.31-4.55-1.06-6.19.14-.94.86-2.13.9-3.21.08-1.93-1.53-4.76-2.21-6.65-.54-1.51-1-4.04-1.69-5.32-.33-.62-1.29-.98-.89-2.23l-1.14.23c-1.59-5.81-1.55-11.89-.89-17.84,1.01-9.06,3.73-20.38,6.28-29.19.44-1.53.88-3.07,1.31-4.6.27-.38,1.28.02,1.48-1.02.06-.33.18-2.68,0-2.84-.57-.49-.95.99-1.36.68-.49-1.27-.07-2.69-.22-3.99-.41-3.38-.73-6.78-1-10.19-.1-1.31-1.2-2.6,1.3-2.39.33.11,1.2,2.87,1.24,3.32.41,4.82.87,9.46,1.61,14.28.08.54-.27,1.69-.2,2.51.06.73.59,2.17.65,2.94.14,1.78-.61,5.19-.43,7.29.06.71.49,1.1.49,1.57,0,.56-.49,1-.47,1.37.04.75.52,2.06.47,3.19-.04.95-.46,2.15-.46,2.98,0,.58.43.98.33,1.65-.3,1.95.16,2.11.06,3.56-.22,3.38-.75,6.85-.66,10.22.03,1.04.27,2.28.24,3.39,1.6.43.06.5.1,1.17.31,5.14-.69,10.33-.46,15.65.12,2.63,1.17,4.66,1.62,7.09.05.29-.21.73-.13,1.1.05.23.56.21.66.52.25.73.17,2.85.38,3.85.45,2.21,1.26,4.98,1.7,6.85.13.55-.12,1.24.1,1.91.17.53.67.58.89.95.79,1.32,1.21,2.94,2.14,4.21.22.31,1.18,1.01,1.2,1.09.18.81-.62.28-.46,1.01,1.3-.14.76,1.16,1.14,1.88.12.22.46.25.55.41.17.32.55,1.15.36,1.35,1.55-.43,1.03.55,1.39,1.41.28.68,1.62,2.59,1.75,3.07.47,1.68.43,1.84,1.33,3.42.84,1.47.68,1.96,1.24,3.29.13.3.77.55.87.83.18.5-.02,1.11.19,1.56.32.72,1.34,1.8,1.7,2.64,2.73,6.33,5.18,13.43,7.66,19.91.38.99.31,2.23,1.17,2.69v.62s-.46.36-.46.36c.86.1.68,1.5.98,2.32.37,1.04,1.23,2.53,1.56,3.45.57,1.58.15,2,1.1,3.73.26.47.2,1.38.39,1.88.54,1.37,1.44,3.04,1.87,4.49,1.09,3.67,2.39,7.11,3.41,10.69.23.82.33,1.79.47,2.63l.69.15c-.22.59.19,3.58.43,3.93s1.33,1.24,1.62,1.7c.37.58.88,2.41,1.41,2.97.17.18.64.14.81.33.07.08,1.05,1.49,1.12,1.61.21.33.63,1.76.82,1.93.12.11.47,0,.56.09.38.38-.2,1.56,1.87,1.33l-.23-.45h.69s-.23.45-.23.45l1.14.23c.32-1.73,1.82-1.54,3.19-1.14-.09-1.31-.34-3,.2-4.23.24-.54,1.06-.85.94-1.9,1.07-.04,1.24.35,1.32,1.29l.95,1.44c.02-.65.04-1.34-.19-1.96-.33-.89-.68-2.07-1.11-2.99-.14-.3-.49-.18-.54-.61-.09-.74-.1-3.38.02-4.06.03-.17.33-.13.39-.27.06-.14-.14-.66.27-.92,1.04-.65,1.68,1.92,1.99,2.57.12.27.46.28.48.33.05.1-.04,1.65.2,2.17.14.31.47.28.59.57.28.68.54,1.71.62,2.45.99.22.09-1.25.23-1.36h1.14s-.23.45-.23.45l.91-.23-.44,1.27-.69-.13c-.31.99-.15,1.74,0,2.73,1.51-.18.42-1.77.91-2.73l.91.23-.59.66c-.34,1.28.96,1.22.82-.21.78-.17.16.8.9.69-1.05.86,0,1.84-.79,2.72l-.11-1.36h-1.26s-.07,1.03-.07,1.03l.42.21c-.71.63-.12.82-.07,1.2.09.64-.29,1.26.75,1.42v.45s-.68-.23-.68-.23l.27.64,1.1.04c.21.53-.38,1.16-.37,1.48,0,.23.56.65.14,1.25l.68-.23v2.15s.57,1.03.57,1.03c.3-.13.48-.74.35-.91-.1-.11-.89.3-.68-.46l.68.11v-2.47s-.46-.26-.46-.26l.46-.26c.03-.52.18-1.07-.45-1v-.33c.71-.2.71-1.19-.01-1.37l.46-.11v-.45s-.45-.23-.45-.23l.46-.34-.46-.23c.7-.16.52-.82.4-1.44l-.39-.04.45-.56-.46-.34.46-.12-.46-.11c-.22-.61.39-.36.46-.6.06-.23.06-1.03-.06-1.18l-.39-.04.45-.56-.46-.34.46-.12-.46-.11c-.22-.61.39-.36.46-.6.13-.52.14-1.23-.46-1.33l.46-.26c.04-.62.16-.94-.46-1.1l.46-.26.22-3.95c-.58-.2-.57.68-.82.69-.17,0-.43-.23-.67-.21-.43.03-1.02.76-1.71.08-.2-1.38.73-1.14,1.1-1.51.15-.15,2.06-2.61,2.12-2.77.15-.4-.02-.71.07-1.06.12-.43.49-.38.58-.62.17-.48.32-1.74-.44-1.65v-.45s.45-.23.45-.23c-1.23-.11-.02-.76,0-.84.11-.47.09-2.84.02-3.39-.05-.39-.38-.25-.5-.66-.98-3.55-1.02-9.88-1.13-13.63-.05-1.53-1.14-3.63,1.16-4,.06.46.13.95.68.91l-.47.35.25,1.01.68-.13c.41.29-.06,1.62.9,1.49-.02-.8-.04-2.9.31-3.57.04-.07.26-.09.37-.07l-.45-.22c-.23-.6.39-.35.46-.6.09-.36-.12-.84.1-1.22.19-.33.84-.26,1.03-.62.24-.44.36-2.65.2-3.1l-1.05-.7c.57-1.29.05-3.06.4-4.3.06-.2.29-.18.45-.16l-.45-.22c-.18-.63.34-.29.5-.77.45-1.37.11-4.64.59-5.96.1-.27.2-.36.5-.32l-.45-.22c-.23-.6.4-.36.46-.6.06-.23.22-2.78.19-3.17-.22-2.99-1.76-7.04-2.91-9.6-.51-1.13-.72-2.99-.69-4.23l-.46-.15.45-.56-.46-.34.46-.12-.46-.26c.17-1.97-.69-4.26-.6-6.15s.19-3.65.31-5.44c.14-2.14-1.11-5.98-1.51-8.17-.13-.7.07-1.52-.03-2.25-.08-.6-.66-1.19-.44-1.94l-.68.91.02-1.12.66-.13c-.78-.87-.18-1.34-.23-2.05-.08-1.14-.41-2.49-.47-3.63-.04-.82-.14-3.71.05-4.29.49-1.55,1.74,1.04,1.96,1.38.14.23-.02.4.51.29l-.22-3.86.68,1.26,1.34-.1c.26.15,1.37,5.07,1.53,5.81.22,1,.23,2.16.55,3.35,1.17,4.43,2.67,9.01,4.13,13.19.65,1.85,1.16,3.8,1.77,5.67l.93.38-.18-.41c.51-.09.58-.48.64-.95.63-.23.38.51.82.65.3.1.68,0,1,.03l.11,2.27c.67-1.07.34-2.83,2.16-2.73-.03,1.09-.36,2.06-.65,3.1-.26.95-.74,2.55-1.14,3.38l.19.44c-.75.26-.17.42-.26.88-.14.68-.83,1.49-.57,2.57.07.26.49.21.6.5.59,1.61.43,3.14,1.21,5.11.42,1.08.18,2.28.42,2.99.1.31.6.29.66.52.4,1.64.24,3.23,1.11,4.8.23.41-.13,1.15.93.95-.16-.57-.15-1.34-.1-1.92.09-1.13.36-6.2.63-6.65.05-.08.27-.08.38-.07l-.45-.22c-.22-.64.39-.39.44-.46.35-.48-1.25-.61-.05-.95l.81-15.82c.84-.08-.04-.31-.08-.86-.04-.44.37-.71.41-1.09.19-1.54-.82-5.52,1.75-5.39.1,0,.2.75.81.46-.37-2.18.4-3.94.65-6.06.62-5.25,1.6-10.12,2.3-15.22.22-1.62.28-3.51.01-5.11l.46.11c.02-.37-.4-.45-.4-.86,0-.16.36-3.04.4-3.2.08-.28.46-.05.46-.27-1.21-.42.08-1.18.21-1.83.14-.69-.35-1.58-.36-1.81,0-.34,1.66-5.29,1.95-6.36.19-.72.79-1.42.71-2.25l-.46-.48c.63-.65,1.28-2.13,1.53-3.02.17-.61,1.01-5.02.98-5.38-.01-.14-.42-.1-.46-.29-.27-1.15.62-1.05.91-1.34.98-1,.95-3.32,1.39-4.7.06-.2.66-.15.44-.94l-.46-.25.68-.69-.68-.68c.3-.56,1.15-.15,1.39-.48.37-.5.6-2.62.85-3.42.1-.31.41-.31.47-.49.39-1.26.38-2.67,1.16-3.8l-.68-.12v-.45c.38-.13,1.38-.95,1.57-1.28.33-.57.16-1.15.36-1.68.17-.47,1.34-3.5,1.51-3.61.93-.57,1.14.79,1.4,1.04,1.13,1.07,2.87-.05,3.13.16.15.58.69,1.5.67,2.04-.04,1.14-1.28,5.65-1.69,6.97-.5,1.58-1.31,2.77-1.99,4.15-.44.89-.4,1.86-1.34,2.52-.29.21-.74.13-1.03.35-.35.26-.36.86-.55,1.23-.08.15-.44.17-.46.27-.16.69.46.53.48.7.02.25-.25.57-.2.74.03.09,1.26.81,1.43,1.18.29.63.27,2.41.06,3.07-.8,2.59-1.75,5.46-2.42,8.03s-1.14,5.76-1.97,8.12c-.38,1.07-1.79,2.38-1.92,3.19-.34,2.12-.27,5.68-.34,7.95-.03,1.09.22,2.69.12,3.64-.06.51-.8.45-.87,1.16-.03.32.2.72.17,1.11-.19,3.44-.09,6.2.43,9.56.12.75-.03,1.96.29,2.67.18.41.64.39.77.72.25.63.28,3.78.36,4.56,1.19,11.43,2.62,23.1,4.71,34.34.07.39.42.32.47.51.41,1.66.19,4.3.7,5.81.07.2.28.19.45.16l-.45.45c.17-.02.38-.04.45.16.22.67.13,1.99.38,2.82.13.44.23,1.2.76,1.12v.22c-1.26.2-.02.98.07,1.2.23.56.31,2.8.39,3.58h.68c.21.83-.55.5-.47,1.26.04.39.41.29.56.82.47,1.74.08,2.4,1.03,4.26.21.4.05,1.25.94,1.18-.39-1.26.24-2.51.34-3.75.2-2.49-.08-5-.11-7.48-.05-4.05.38-10.1-.89-13.73-.22-.63-1.45-3.47-.55-3.7l1.9.24-.23.91c.96.32.78-.84,1.05-.92l1.02.15c.25.46.1,1.11.24,1.54.11.32.53.3.71.66,1.8,3.56,1.27,6.75,1.73,10.53.57,4.65,1.34,10.1,2.09,14.97.37,2.4,1.53,5.4,1.77,7.56.18,1.64-.36,3.2-.14,4.69.15,1.02,1.13,2.65,1.48,3.98.87,3.34,2.09,6.5,3.05,9.71.65,2.15.4,3.88,1.23,6.02.17.44.77,1.37.91,1.83.26.83-.36,1.94.79,2.42-.54.89.09.67.2.95.38.97.44,1.98.48,3.01.45.06.38.05.51-.28.29-.7.22-2.3,1.07-2.45.24-.57-.39-.38-.45-.59-.31-1.04.53-.71.86-1.05.21-.21.11-.66.43-.88.82-.55,1.98.63,1.67,1.47l-.46.37,6.4,2.82c.11,1.18,1.29,1.46,1.87,2.47.46.81.54,1.52.62,2.44.91.23.04-1.42.99-1.34l1.06.88-1.36-.22.22.58,1.37-.12-.45.68,1.58.23c.33-.33.44-3.16.65-3.77.5-1.45,1.24-3.45,1.68-4.95.28-.97.16-3.02,1.1-3.33l-.45-.22c-.2-.6.32-.36.45-.62.82-1.65,1.25-4.75,1.85-6.71.05-.15.36-.19.47-.49.59-1.65.92-4.57,1.56-6.12.08-.19.27-.19.45-.17-.05-.53-1.32-.03-1.57-.25-.63-1.56.18-2.02.86-3.08.36-.56,1.1-2.09,1.46-2.52.22-.27.75-.28,1.06-.71.14-.19,1.5-3.84,1.68-4.4.27-.8.18-1.82.54-2.64.13-.29.5-.27.53-.43.15-.81-.5-.93-.64-1.38-.43-1.37.89-1.95,1.27-3.14l-1.44-1.25c-.21-.43.53-1.17-.32-2.17-.18-.21-.63-.26-.69-.49-.15-.6.05-1.63.2-2.26.37-1.64,1.68-5.64,3.01-6.54.88-.6,1.63-.2,2.23-1.41.48-.97.95-3.6,1.15-4.77.13-.79-.19-4.53,1.74-3.29,1.16.75,1.13,2.7.79,3.87l.87.27c.25,1.43-.64,2.7-1,4.06-.44,1.69-.68,3.89-1.17,5.42-.83,2.61-2.27,4.96-2.79,7.9-.37,2.05.19,3.42-.7,5.39-.06.14-.38.12-.44.33-.27.95-.83,5.87-.7,6.78.08.61.58,1.03.47,1.69.6.13.34-.16.59-.47l1.23.25-.06.64-.4.15.46.34c-.79.05-.34,1.52-.94,2.36-1.36,1.93-1.55,1.54-2.54,4.05-.33.83-1.37,2.9-1.52,3.53-.18.81-.42,4.91-.34,5.85.1,1.18.92,1.92.8,2.75-.06.41-.39.3-.51.64-.26.71-.1,1.47-.32,2.19-.17.56-.87.8-.92,1.02-.03.14.15.43.08.63-.29.98-.94,3.21-.95,4.15,0,.36-.02.96.55.79l.37-2.97c.56-.43.86.16,1.29.19,1.4.09.74-1.04.84-1.6.03-.16.35-.18.43-.35.19-.4.69-1.96.76-2.03.18-.17.61-.01.78-.38.28-.6-.2-2.96.75-3.09-.92-.96.22-.42.23-1.59,1.5.62,2.92.02,4.09-.91v-.22c-1.23-.12-.04-.73,0-.85.15-.55.29-2.6.39-3.4.76-6.12,1.7-12.06,2.68-18.28,1.71-10.88,4.05-21.95,6.35-32.55,1.84-8.5,3.48-17.32,6.38-25.46.59-.52.93-3.52,1.63-3.37,1.15.25.99,2.49,1.14,3.25s.65.99.74,1.68c.27,2.03-.42,5.07-.62,7.21-.43,4.56-.65,8.32-1.75,12.82-.98,4-1.28,6.57-1.92,10.59-.13.83-.67,1.88-.67,2.52,0,.45.03.37.47.35v-.91c1.92.74,1.45-1.09,1.94-1.82.61-.91.79.21.93.43,1.58,2.56-.95,5.59-2,8.06-1.81,4.28-1.94,6.16-2.02,10.73,0,.44.31,1.05.22,1.33-.11.38-.93.42-.91.95-.06.63.58.79.69,1.36.42,2.03,0,5.41.48,7.25,1.36,5.21,2.18,11.66,2.88,17.14.18,1.42.16,4.98.52,6.03.06.19.28.19.45.16l-.45.57.48.45-.48,1.03.46.23-.46.12c.58.11.61,1.61.66,2.32.37,4.83.07,9.28.25,14.06.01.35-.21.9.34.79.53-.35.49-1.96.7-2.26.11-.16.43-.15.55-.42.26-.56.55-2.09.69-2.78.32-.03.56-.01.82.21.53.45,0,1.32.77,1.16.04-.5.18-1.09.39-1.54,1.21-2.52,2.7-5.33,4.09-7.74s3.24-5.94,3.63-8.84c.03-.26-.18-.6-.11-.83.09-.31.67-.37.91-.92.27-.61.16-1.45.39-2.1.11-.31.41-.3.53-.63.27-.78.85-3.54,1.21-4.01.26-.33.93-.13,1.16-.43l.1-1.83c.38.06.68.27,1.08.07.1-.05.93-1.06.95-1.13.76-2.93,1.2-5.09,1.47-8.34.16-1.88,1.17-3.05,1.25-4.85.07-1.5-.82-1.86-.04-3.67.13-.3.53-.26.53-.41,0-1.22.01-2.04.27-3.34.29-1.43.62-2.44.98-3.79,1.15-4.26,2.05-8.49,3.36-12.79,1.93-6.34,1.72-6.94,6.42-11.55,5.93-5.82,11.89-11.48,18.34-16.69,1.14-.92,4.18-3.7,5.52-3.49.24.04.46.48.83.39.03-.26.1-.57.26-.77,1.29-1.65,2.1-4.5,3.11-6.43.37-.71.71-1.91,1.71-1.63.58.16.68,1.41.61,1.89-.07.42-.51.68-.46,1.14.01.12.43.1.47.27.14.59-.32,2.91-.47,3.57-.04.17-.36.12-.39.26-.07.28.2,1.27-.05,1.71l1.59.22c.02-.15-.03-.37.03-.48.84-1.31,1.1-3.77,1.76-5.34.17-.41.85-.9.83-1.68l2.62-.68c-.06.71.21.89.88.94l.03.88h.68c.18-.87.34-1.9.56-2.74.26-1.01.51-2.01.77-3.09.63-2.56,1.17-3.09,3.9-3.26-.91,3.23,2.34,1.39,4.06,2.77l.06.29c.02.78-.54,1.44-.67,2.08-1.6,7.75-2.88,16.09-5.46,23.47-1.12,3.19-1.64,5.74-2.32,8.77-.56,2.48-.1,3.75-.46,6.14-.23,1.52-.9,2.91-.88,4.46.69.12.35-.2.48-.53.14-.37.2-.76.43-1.11.32-.48,1.2-.67.92-1.76h-.91s0-.68,0-.68l.66-.02c-.17-.43-.02-.7.41-.86h1.5c.98-.63.52-3.99.84-5.11.06-.2.29-.18.45-.16l-.45-.22v-.45s.46-.11.46-.11l-.46-.11c-.17-.69.43-.23.48-.79.27-2.89-.1-9.34.93-11.8.14-.34.52-.32.59-.42.05-.08-.03-1.2.3-1.83.05-.1,1.3-1.67,1.4-1.72.28-.16.76-.02,1.09-.05.11.1-.11,1.51,0,1.89.02.09.52.76.79,1.53.56,1.56.16.48.1,1.92-.04,1.07.63,2.04.26,3.6-.06.25-.59.23-.67.52-.07.26.2,1.99.18,2.45-.01.52-.36,1.13-.2,1.73,1.59-1.6,3.31-3.05,3.72-5.38.53-.65,1.26-1.1,1.86-1.66.47-.44.55-1.33,1.47-1.15l.02.9h.66c.46.45-2.29,3.82-2.6,4.35-1.96,3.42-3.67,7.31-5.6,10.78.63.26.74,1.8.44,2.44-.51,1.07-.15.37-.2,1.44-.09,1.82-.17,3.67-.21,5.46.33.19.54-.02.43.55l-.46.11.7.23c-.2.84.02,1.66,0,2.5-.08,4.41.15,8.08,1.07,12.33.34,1.56.11,3.56.53,5.14.78,2.96.61,5.34.86,8.46.03.44.46.31.45.43-.2,3.73-.38,7.44-.57,11.2-.06,1.19.23,4.64-.32,5.59-.1.17-.27.19-.45.17v.45s.45.11.45.11l-.46.11v.45s.45.22.45.22c-1.17.11-.29,1.42-.45,2.13-.09.39-.11.24-.23,1.15-.06.49-.78,1.16-.46,1.95l-.68-.23c.12.29.28,1.21.21,1.45-.6,2.14-1.79,4.68-2.26,7.04-.06.3-1.15,1.82-.67,2.3-.76.4-1.14,2.06-.91,2.86h-.69c0,.24.16.47.11.71-.49,2.35-1.22,4.76-1.57,7.14-.14.95.05,2.45-.12,3.15-.07.27-.56,0-.46.37.63.03.49.18.7-.32.5-1.18.75-2.4,1.14-3.59.35-1.08.79-2.49,1.19-3.42,1.51-3.52,2.09-7.35,3.3-10.78,1-2.83,2.43-5.91,2.93-8.9.13-.8.25-2.15.06-2.89l.69-.12-.45-.23v-.45s.46-.11.46-.11c0-.22-.72.05-.46-.57l.7-.15.21-4.06.68.11-.92-.82.27-.74.88-.04c.09-1.2.08-2.75.25-3.96.12-.87.57-1.05.6-1.16.09-.31-.19-.97-.4-1.24l.45-.12c-1.02-.85-.05-.74,0-.95.62-2.37.21-6.92.47-9.5.04-.38.49-1.17.52-1.61.87-10.18,1.09-19.57,3.96-29.61,1.66-5.83,3.31-12.12,5.46-17.96,1.54-4.16,2.98-8.27,4.49-12.34.25-.68,1.05-2.07,1.16-2.71.06-.37-.19-.77-.11-1.01s.46-.27.59-.45c.25-.34-.12-.71.87-.83.6-.07.33.54.23.92-.56,2.31-1.87,4.67-2.53,7.02-.2.73.21,1.53-.56,1.72l.24.57c1.31-.45,2.59.2,2.26,1.7-.1.46-.47.69-.56,1.03-.89,3.3-1.48,6.67-2.34,9.96-.09.34.15.68.05.97-.26.81-1.81,1.7-2.13,2.66-.18.54.19,1.8-.67,1.9l-.02.32c.78.3,1.02.86,1.47,1.26.21.19.61.14.75.28.14.15.07.59.27.74.33.25,1-.03,1.34.15.13.07.48,1.07.95,1.09.11-.27-.01-1.11.05-1.25.08-.19.43-.18.55-.43.05-.11.41-2.17.43-2.38.05-.66-.96-2.43.57-2.3l-.46-.37c-.17-1.29.88-1.82,1.95-2.12.26.17.23.22.25.47.09,1.21-.13,1.95-.35,3.06s-.41.94-.46,1.16c-.39,1.63-.16,4.67-.48,6.54-.97,5.58-2.27,11.05-3.22,16.56-1.36,7.88-2.64,15.66-4.21,23.54-.2,1.01-.16,2.9-.47,3.82-.1.29-.19.35-.5.32v.45s.45.11.45.11c-1.06,1.09-.61,3.88-1.09,5.03-.12.28-.18.35-.5.32v.45s.45.23.45.23c-1.06-.08.01.8.4,1.08.12.09.49,0,.68.12.28.16.74,1.44,1.65,1.32l-.22.44,1.15.13c.69-1.49,1.24-3.09,1.12-4.76l.46-.15-.45-.45c.8.11.38-1.23.47-1.92,1.77-13.26,2.26-27.01,4.99-40.04l-.43-.21c.12-.67.45-1.52.54-2.15.06-.4-.21-.87-.12-1.24.06-.23.48-.22.61-.48.18-.38.17-2.16.55-2.91.17-.34.63-.31.79-.63.21-.42.07-1.05.26-1.55.09-.23,1.36-.99.12-1.44l-.04-.3c1.08-1.05,1.28-3.03,2.04-4.32.7-1.19,4.86-4.44,6.19-5.15.18-.1.21-.38.36-.42,1.3-.3,1.71.53,1.68,1.7-.03,1.37-1.31,2.03-1.57,3.23-1.01,4.69-2.5,8.39-3.59,13.01-1.64,6.96-3.27,15.82-4.15,22.69-.18,1.42-.02,3.14-.14,4.15-.54,4.45-1.29,8.93-1.95,13.34-.38,2.57-.99,5.14-1.36,7.73-.09.61.47,1.85-.47,1.9v.45s.45.22.45.22c-.17-.03-.37-.02-.44.17-.45,1.15-.28,3.52-.66,4.73-.63,1.98-.41,4.56-1.12,6.38-1.19,3.06-1.82,6.67-2.52,9.82-.17.75-.35,1.54-.22,2.31l.67.14c.18,1.27-.06,2.57.02,3.82.06.82.17,2.21.27,2.98s1.09,2.56.15,2.62v.45s.45,0,.45,0l-.43.24v.3c.34.35.23,1.22.89,1.05l-.23-.68.69-.12-.46-.56c1.01.26.79-1.13,1.15-1.87.18-.37,1.43-1.44,1.57-1.72.27-.52.14-1.32.34-1.87,1.89-5.18,2.89-8.5,3.86-13.65.1-.53.24-1.06.36-1.58.59-.06.64.33.69.78.14,1.19-.81,7.29-.47,7.63,1,.22,1.12-1.35,1.76-1.83.79-.59,1.75-.76,2.45-1.11.86-.42.92-1.51,1.93-1.39.03.4,0,.79-.06,1.19-.37,2.48-2.46,4.65-3.29,6.94-.4,1.09-.33,1.96-.93,3.17-.28.56-2.01,2.36-1.63,2.8,2.19-.88,3.12,3.13,2.05,4.55l2.04-.45c.24.22.1,2.17,0,2.56-.05.18-.39.15-.43.33-.19.85.08,1.88-.47,2.56l1.59-.22-.23.45h.91c.25.83-.6.8-.81,1.14-.06.1-.43,1.75-.57,2.09s-1.04.76-.66,1.77c.74.12.95-1.26,1.2-1.53.69-.77.39.23,1.09-1.48.33-.82.72-.96,1.35-1.71,1.73-2.06,2.67-3.34,4.7-5.13.35-.3.99-1.07,1.24-1.49l.66.2-.23-.45,12.29-8.42v6.14c-.81.51-2.74.66-3.41,1.02-.47.25-.35.87-.6,1.04-.41.29-1.22.09-1.68.32-.29.14-.34.6-.62.81-.84.63-3,.93-3.83,1.79-.37.38-.23.71-.4,1.09-.02.04-.71.09-.37.51.02.03.39-.06.45.16.14.55-.2,1.34.34,1.91l.25.18c1.12-.41,2.24-.18,1.68,1.17,1.34-.14.63,1.53,1.69,1.58.14,0,1.63-.19,1.69-.24.11-.09.03-.74.38-.88.55-.16,1.61,1.41,1.93-.68-.05-.06-1.62,1.02-1.36.12.34-.69,1.02-1.24,1.82-1.26.29-.59-.86-.39-.45-.9.02-.03.41-.06.57-.22.64-.65.85-1.67,1.93-.69v17.06H0v-70.27l.9-1.72c.13-.88-.22-2.34.14-3.05.21-.42,1.39-.64,1.01-1.59,1.67.25,2.83-.31,2.26-2.11-.05-.16-.84-.46-.43-1.4l-.67-.14c.08-.96-.81-1.02-.47-2.13l-.68-.13-.02-.9c-.97-.03-.58,1.03-.74,1.65-.25,1.02-.56,1.32-1.31,1.99v-23.88l9.02,10.01c.15.7-2.13,2.6-2.75,2.97-.58.34-1.93.02-1.61,1.6.08.39.49.4.57.61.21.53.33,1.62.68,2s1.61.5,1.79.82c.2.36-.09,1.1.09,1.3.05.06.39,0,.56.11.28.2,1.63,1.63,1.74,1.67.6.22.52.04,1.18.43.19.11.49.06.55.11.22.22-.39,2.32,1.19,2.38l-.02,2.14c.1.1,1.98-.08,2.41-.02s.3.43.48.47c.69.15,1.62-.29,2.05.53.14.26,0,.66.12.8.07.08.42.01.55.12.89.76.66,1.08,2.37.83v-1.37c.52-.06,1.17.11,1.66,0,.3-.07.56-1.31,2.14-.27.52.34.58.96,1.2.96l-.85-1.99c-1.52-2.45-2.32-5.31-3.63-7.95-1.87-3.75-3.8-7.59-5.55-11.47-1.06-2.35-2.01-4.79-3.19-7.28-.67-1.43-.81-2.69-1.57-4.21-1.6-3.19-4.76-8.02-6.95-10.75-.51-.63-1.7-1.72-2.13-2.41-.53-.86-.4-1.64.65-1.83,1.86-.33,2.77,2.99,3.73,3.68.32.23,1.17.5,1.23.6.12.18,0,.57.17.85.6.98,1.11,1.95,1.65,3.13.09.2.04.51.05.74l.45-.23v.91c.95-.58.86.65,1.37,1.42.33.5,1.24,1.3,1.67,1.79.14.16.09.54.18.62.17.16.79-.05.87.04.07.07-.1,1.46,1.14,1.36l-.26-.89c-1.08.27-.73-1.94-1.03-2.69-.14-.34-.99-.6-.76-1.43l-.45.23c.44-1.26-.54-1.57-.71-2.55-.72-.28.12-1.52-.88-1.55l.45-.45c-.95-.1-.86-1.3-1.13-1.88-.84-1.79-1.98-3.7-2.71-5.36-.36-.82-1.07-2.1-.12-2.73.56-.06,2.55.72,2.82.41.4-.44-.43-.43-.46-.57-.13-.6.52-.11.46-.56l-.45-.46h.68c-.32,1.48.49,2.85.56,4.2.04.73.09,3.53-.55,3.53v.33c.77.21.35.8.47,1.47l.63.03.02,1.35c.93-.17,1.47.12,2.28.45l-.45-2.04h1.58c.05,1.57.47,2.25,2.02,2.54l.56,1.94c1.08.42,2.04-.01,1.79-1.28,1.78.04.99-1.89,2.25-2.3v-.22c-.16.02-.36-.04-.45-.17-.7-.96-1.43-2.48-2.06-3.54-.18-.31-.6-.82-.77-1.08-.44-.71-.38-2.08-.36-2.95h-.91c.2-2.36,1.55-.5,2.66.19.67.42,1.1-.08,1.05,1.11l2.44,2.56v-.91c.39-.06.81.16,1.18.11.95-.13.83-1.61.9-1.69.08-.08.52.11.66-.16s.09-.91.24-1.27c.07-.16.32-.18.35-.26.32-.71.23-1.49,1.45-1.29l-.22-.65c1.15-.75,2.56-1.43,3.19-2.63.33-.44,1.22-.64,1.51-.89.32-.28.4-1.64,1.2-1.29-1.33-.69-.58-2.51-1.02-3.42-.14-.28-.59-.33-.73-.52-.6-.87-1.43-2.84-1.45-3.89-.02-.89.26-1.76.23-2.48-.05-1.05-.59-2.98-1.13-3.89-.13-.69.6-.14.91-.11l-.45.45c.79.04.75,1.34,1.07,1.99,1.4,2.85,2.66,6.19,4.3,8.91.1.16.43.22.55.41.33.53.55,1.23.73,1.83.35.44,3.21-.54,3.92.74.22.39.06.78.45,1.37.35.53,1.36,1.35,2.03,1.33.48-.01,3.55-.6,3.78-.79,1.15-.95-.6-3.83-.45-3.97,1.92-.12,1.88,1.54,2.5,2.58.19.33.22-.28.73.9.46,1.05,2.13,3.03,2.77,4.28.36.71.54,1.93.63,2,.11.08.51,0,.78.25.6.57,1.06,1.98,1.47,2.64,1.36,2.18,2.98,4.02,4.47,6.11.71.99.85,2.71,2.37,1.94-.65-1.34.64-1.43.56-2.71-.03-.49-.35-1.09-.8-1.27.66-.92.36-.82.14-1.61-.48-1.63-1.43-2.65-2.26-4.21-1.79-3.36-3.02-6.73-5.14-10.04-.16-.26-.57-.31-.86-.79-.35-.56-.46-1.45-.51-2.11.31.03.7-.08.97,0,.13.04,1.85,1.73,1.99,1.92.68.95,1.38,2.76,2.01,3.95,1.65,3.08,2.97,6.47,4.78,9.27.67,1.03,1.34,2.36,1.95,3.51,1.42,2.65,2.96,5.56,4.28,8.24,1.93,3.94,3.56,8.05,5.24,11.93.03.06.57.29.72.75.78,2.43,2.13,4.92,3.26,7.43,1.82,4.06,3.86,10.35,6.64,13.84.18.22.62.28.67.35.16.23-.17.58-.18.78,0,.06.74.24.43,1.01,1.35-.13.65.21.81.46.14.21.99.27.41.91l-.76.22.91.12c-.65,1.12.48,1.64.66,2.11.65,1.64,1.04,3.59,1.78,5.22.26.59,1.31,1.9,1.64,2.51.28.52-.08,1.47,1.14,1.43l-.33,1.34,2.63,3.64c.4-.74-.27-1.46-.23-1.92.12-1.52.41-3.35.48-5.01.11-2.6-.69-7.69,0-9.96,1.07-3.56.5-8.42.42-12.33-.02-1.03.51-2.55.01-3.57-.14-.28-.54-.26-.64-.55-.14-.41-.3-2.93-.38-3.05-.09-.14-.52-.14-.58-.36-.28-1.1.87-.89.94-1.13.21-.72-.18-1.98-.2-2.7-.04-1.66.64-6.14.41-7.24-.04-.19-.38-.16-.4-.26-.12-.69-.09-2.7-.28-3.14-.09-.2-.27-.2-.45-.17l.45-.45c-1.08-.2-.63-2.11-.7-2.83-.08-.89-.72-2.04-.09-3.08.31-.52,1.11-.26.78-1.44-.04-.15-.76-.28-.45-1.07.94-.38,1.18.44,1.26.46.19.05,1.02-.4,1.02-.46v-5h2.28c.11-1.37-.63-3.17,1.43-2.68.45.11.72.54,1.19.63.43.08.93-.08,1.31,0,.23.05.48.87.74,1.13,1.26,1.24,3.76,1.57,5.39,2.52.5.29,1.59,1.38,1.94,1.56.33.17,2.54.47,1.87,1.04-.54.46-.98.16-1.59.11-.15.74.63.9.88,1.27.21.31.17.96.39,1.02.72.2,1.19-.2,1.46-.82l.34-.12c.5,0,.79.81,1.17.88,1.36.24.18-1.41.88-1.55,1.76,1.39,2.16-1.59,4.06-.7l.27-.2c.2-.3-.11-2.26-.22-2.75-1.15-5.08-4.67-9.07-6.26-13.8-.7-2.08-.23-1.57-1.48-3.48-.75-1.15-.87-2.52-1.33-3.51-.24-.53-1.33-1.73-1.49-2.32-.05-.18-.06-.34-.04-.52l1.33-.41c.8.87.97,3.08,2.08,3.37-.03.14-.27.35-.24.55.02.15.38.14.4.2.39,1.22.98,1.86,1.25,3.09l1.77.94c.3-1.74-1.11-1.52-1.54-1.87-.5-.41-.83-2.71-.98-2.89-.08-.1-.49.03-.66-.02ZM351.9,81.18l.22-1.14-.9.24c-.16.15.4,2.54.43,2.84.36,3.33.65,6.43.71,9.73,0,.25.11,1.53.67,1.28-.19-.34,0-1.07-.05-1.25-.04-.15-.41-.1-.42-.23-.01-.3.4-.71.46-1.14.21-1.6-.4-5.92-.55-7.82-.07-.93-.55-1.73-.12-2.63l-.46.11ZM376.48,94.15c-.37-.45-1.17,1.38-1.25,1.59-.66,1.64-.99,4.98-.29,6.66.06.13,1.02,1.07,1.2,1.07l.49-.35-.15-8.98ZM116.35,102.73l-.26-.06.34.8,1.59,1.59c.6-.25.21-1.73-.57-1.36l.13-.68-1.22-.28ZM520.79,102.79l-1.59,1.02.45.34c-.47,0-.86.21-1.22.49-2.56,2.04-5.02,4.57-7.42,6.68-1.01.89-4.26,3.11-4.67,4.21-.19.51-.04.96-.34,1.48-.25.45-3.63,3.25-4.15,3.36-.76.17-1.8-.5-1.78,1.06l1.13-.34-2.5,2.51.94.9c-1.63,4.82-.13,10-.71,14.89l2.27-.68c-.07.99.31,1.84.23,2.84-.07.86-.69,1.58-.7,2.27s.54,1.27.46,2.03c-.05.51-1.81,3.45-2.16,4.23-.85,1.88-1.3,3.27-1.65,5.41-.84,5.23-1.34,10.65-2.56,15.67s-.96,11.84-1.18,17.03c-.03.7-.33,1.4-.19,2.15h.68s-.22-.66-.22-.66c1.54-.39.94-.84,1.18-1.9.16-.67.9-2.56,1.66-2.58l1.48.36.12-.7c1.22-.35,3.5.71,3.86.49.12-.07.5-.47.51-.59l-.4-.69c-.04-.12.39-.06.45-.26.34-1.17.26-6.44.94-6.86,1.12-.7.99,2.3.66,2.93.44.09.55-.2.73-.52.64-1.13.82-4.53-1.17-4.26,0-.63-.06-1.29,0-1.92.11-1.35.66-2.68.9-3.69.35-1.46.23-3.61.49-5.16,1.19-7.23,2.71-14.5,4.1-21.6,2.28-11.75,4.32-23.09,8.9-34.09.81-1.95,1.47-3.96,2.46-5.84ZM244.46,104.15c-.94-.03-.28-.69-.8-1.14l-.57.91c.16-.02.4-.04.45.16.32,1.15.21,3.09.5,4.24.11.43.48.69.62,1.2.43,1.62.38,3.88.71,5.66.07.37-.15.39.44.34.11-.37.1-.72.1-1.1.02-2.4-.43-3.98-.91-6.05-.09-.41-.51-3.37-.63-3.5-.06-.06-.27-.03-.38-.04l.45-.67ZM22.4,117.02c-.18-.34-.48-1.07-.67-1.27-.1-.1-1.62-.98-1.7-.92-.2.18.81,1.09.78,1.38,1.47.35,1.01,1.6,1.51,2.76.12.28.47.19.67.75.34.97.09,2.44-.68,2.95.5-.03.82,1.35.68,1.48-.07.06-.52-.15-.69.15-.13.24-.32,1.78-.21,1.89l1.03.22-.13,1.15c.29-.09,2.16.41,2.24.49.12.12.03,1.1.31,1.29.22.15.87-.07,1.09.39.38.78-1.02.34-.93,1.35l.4.18-.15.39.89.38-.23,2.23c1.5.28.94,1.68,1.06,2.65.02.18,1.33,3.11,1.44,3.25.16.22.55.07.66.17.11.11.11,1.01.32,1.41.04.08.92,1.2,1.09,1.41.23.29,1.19.37.52,1.01l-.51.22c.85.17,1.33,1.35,1.1,2.12-.15.52-1.1.68-1.39,1.35-.36.82-.02,1.59-.17,2.29-.04.18-.43.18-.46.27-.17.66.4.5.45.72.07.3.36,2.25.46,2.35h.68s0-1.37,0-1.37c1.11-.29,1.16.75,2.28.45v1.82c.81.21.5-.56,1.25-.48.36.04,1.87,1.21,1.51,1.81l.61.05c-.12.89.65.88.52,1.77l.61.05c-.16.78.33.79.47,1.07.07.15-.04.47.07.66s1,.59,1.31.51c.24-.26-.25-2.43-.14-2.96.08-.4.49-.69.51-1.02.04-.79-.79-1.54-.81-1.63-.11-.43.56-.92-.25-1.1l.92-1.47c-1.32-.19-.59-1.92-1.26-2.96h-.79c-.04-.73.03-1.55-.91-1.36l.4-.26c.09-.7-.38-.86-.71-1.33-.14-.2.26-.44-.83-.79l.45-.34c-.55-.13-1.35-1.12-.91-1.59h-.8c-.15-.24.05-1.19-.26-1.6-.61-.83-1.26-1.68-1.82-2.56-1.24-1.94-1.95-3.93-2.98-6.01-.69-1.4-1.38-2.19-1.95-3.73-.15-.41-.07-.86-.22-1.26-.04-.1-1.33-1.29-1.52-1.54v-.46s.46-.34.46-.34c-1.15.31-.83-1.55-1.13-2.09-1.17-2.11-2.44-4.3-3.55-6.41ZM104.02,117.57c-.99-.17-.83,1.94-.34,2.04.87-.08.11-1.22,1.02-1.14l-.77-.45.09-.45ZM259.93,118.04c-1.24-.1-2.01,1.1-3.36.93-.84,1.9-.06,2.85,1.92,2.91,2.22.06,2.16-2.34,1.44-3.84ZM112.39,126.72c-.23-.22-1.99-.52-2.57-.73-.41-.15-.65-.56-.95-.65-.68-.2-1.62.04-2.34-.05-.12.63.54.39.67,1.04.12.56-.51.13-.44.55.86.11.82,1.62,1.15,2.32.29.6,1.24,1.79,1.55,2.42.4.8.16,1.81,1.16,2.21l-.46.79c.66.04,1.46.67,1.37,1.37.66.18.42-.42.7-.78.19-.24.65-.35.68-.52.06-.34-.22-.76-.2-1.1.09-1.4.2-2.19.17-3.63-.02-1.06.35-2.44-.5-3.25ZM119.7,129.2l-1.34-.5c-.4,1.09.35,2.08.23,3.18l.68-.23-.2.58c.58.22.54,1.17.78,1.68.48,1.04,1.72,2.27,1.24,3.65l.66.02c.05.76-.02,1.67.94,1.81l-.45.45c1.3-.3.59,1.75,1.59,1.82l-.45.45c.77-.06.42.61.51.8.31.64.91,1.47,1.16,1.94.27.5.43,1.95.49,2.03.3.44.79.23.95,1.3.08.58.21,1.24.63,1.83.19.27.78.49.8.53.05.1-.89,1.69.49,1.71-.18.73.41,1.08.43,1.15.05.2-.28.85-.13,1l.82.22-.12.68c.78-.63-.18-1.61-.42-2.28-.12-.35-.35-.8-.36-.85-.31-1.26-.05-3.22-.37-4.17-.21-.61-.78-.58-.92-1.09-.18-.69.14-1.12.08-1.47-.09-.49-.92-.68-1.11-.99-.12-.19-.59-1.55-.74-1.82-.77-1.43-2.04-3.71-2.64-5.23-.14-.35-.42-2.43-.51-2.52-.07-.09-.53-.05-.77-.25-.92-.79-.59-1.2-.95-2.23-.39-1.11-1.29-2.01-1-3.2ZM304.25,131.74c-.34-.32-1.26-.83-1.72-1.12-.19-.12-.49-.57-.7-.21l5.01,8.07c-.25-1.04.66-1.17.68-1.93l-.89-.37c.09-.41-.15-1.71-.31-1.96-.14-.22-.83-.33-1.01-.58-.23-.31-.66-1.52-1.05-1.9ZM187.78,134.62c-1.32.11-.45,2.18-.09,2.93.12.25,1.33,2.22,1.68,1.84.23-.75-.83-1.31-.9-1.54-.08-.25.01-.63-.11-.97-.29-.76-.71-1.34-.58-2.27ZM377.38,135.31h-.9c0,1.16.33,2.89.25,3.98-.03.35-.61,2.31-.68,2.98-.25,2.32-.26,4.66-.33,6.99-.01.47-.62.64.08,1.28l-.4.06c-.13.14.36,1.42-.5,1.31v.45s.45.23.45.23c-.69-.2-.31,1.49-.32,2.05,0,.36-.3.78-.27,1.03.03.2.36.37.37.68,0,.14-.39.08-.45.26-.34,1.09.18,4.58-.24,6.07-.07.25-.43.06-.46.27v.33s.45.01.45.01v.45s-.45.11-.45.11l.46.11c.23.6-.4.36-.46.6-.14.56.08,1.93-.04,2.47-.03.15-.4.1-.4.21.01.25.46,2.19.9,1.95l-.45.45c.96.13.69,2.42.95,3.07.07.17.44.17.6.5.15.3,1.38,6.17,1.38,6.57.02.75-.27,1.52-.2,2.47.02.33.43,2.4.57,2.39.89.02.45-1.48.57-1.6h1.14c.04-.86.01-2.22.23-3.03.07-.28.46-.05.46-.27-.86-.2-.33-.93-.36-1.59-.22-4.7-.65-9.38-.77-14.09-.06-2.54.58-6.73-.01-9.07-.06-.23-.44-.05-.46-.26l.02-.33c1.2-.19,0-.98-.03-1.24l-.67-17.86ZM534.83,158.67c.69-1.5,1.24-12.22,1.68-15.05.11-.7,1.42-2.87-.01-3.08,0,.3,0,.62-.11.91-1.56,3.97-3.22,7.89-4.3,11.79-.51,1.83-1.14,3.57-1.67,5.44-.49,1.74-.78,3.06-1.24,4.68-.27.94-.33,2.42-.65,3.16-.07.16-.28.19-.45.17l.45.22c.19.6-.3.35-.45.62-.46.82-.43,4.47-.7,5.59-.04.17-.39.13-.44.32-.34,1.23-.21,4.59-.78,5.45-.05.08-.26.09-.37.07l.46.37c.31,1.08-.48,1-.6,1.32-.59,1.59-.06,4.91-.35,6.14-.06.27-.59.26-.66.51-.1.41.07,1.05,0,1.55-.33,2.34-.41,4.7-.47,7.06-.04,1.45.11,2.97.02,4.43h-1.14c.29-1.45-.63-3.1-.63-4.43,0-.55.38-1.23.39-1.61,0-.11-.36-.06-.38-.2-.2-1.04.29-.95.39-1.21.23-.54.13-1.45-.34-1.87l-1.01.48.22.65-3.61.03c-.27.45-.15,1.03-.33,1.5-.05.12-.82.56-.84.65-.14.65.35.46.44.72.16.45.04.95.33,1.57.41.85,2.07.93,2.16,1.02.1.1-.03.7.23,1.02.38.47,1.18-.04.96,1.19,1.46.11,1.61,1.51,2.36,2.53.61-.29,1.18-.9.79-1.59h.69c.02-1.14.27-3.09.69-4.16.08-.19.27-.19.44-.17l-.45-.23.46-.34-.46-.79c1.39-.38.29-3.35,1.59-3.65l-.02-.44c-1.17-.19-.07-.43.09-.75.36-.73.4-3.61.62-4.56,1.22-5.38,3.13-11.12,4.7-16.43.27-.89.46-2.7.76-3.35.09-.19.27-.18.44-.17v-.45s-.45-.22-.45-.22c.68,0,.78-1.6.88-2.19.26-1.61.02-2.87.64-4.24ZM136.71,141.99c-.38-.3-1.7-.89-1.04-.1.02.02.33-.08.44.17,1.04,2.41,2.03,4.72,3,7.15.7,1.75,1.26,3.66,2.04,5.47.08.19.35.21.41.36.17.4.25,1.24.45,1.5.18.24.6.08.67.15.2.21-.25,1.12.25,1.12.06-.42.3-1.8.22-2.13-.02-.09-.6-1.3-.62-1.39-.13-.59.27-3.97.1-4.34-.12-.26-.47-.27-.6-.49-.8-1.3-1.04-1.08-1.53-1.72-.24-.31-.07-.98-.28-1.36-.24-.43-1.79-1.72-1.94-1.99-.55-1-.38-1.45-1.57-2.4ZM116.63,147.72c-.86-1.48-1.62-4.04-3.41-4.67-.46-.16-.42.94-1.01,1.05.03.91.03,2.07.76,2.73.42.38,1.7.51,1.3,1.43,1.58-.65,2.07,1.73,2.58,2.66.27.49,1.32,1.9,1.5,2.3.37.82-.09,1.53,1.17,1.78-.26,1.53.08,1.86,1.03,2.82l1-.23c-.05-.71-1.39-.94-.75-1.59l.52-.22c-.86.24-.73-.74-1.11-1.5-.69-1.4-1.13-2.26-1.96-3.51-.37-.56.11-1.33-.8-1.36l.45-.45c-.51,0-1.01-.78-1.27-1.23ZM357.36,149.4l-.68-.23-.03,1.81h-.66s0,2.06,0,2.06l1.82-.45c.25,1.3-.59,2.06-.92,3.29,1.12.94,1.82-.38,1.83-1.47h-.68c-.26-.62.46-.35.46-.57l-.46-.25v-.63s.46-.36.46-.36c-1.25-.21-.43-2.28-1.36-2.64l.23-.55ZM234.39,149.68c-.33-.36-.91-.15-1.31-.05-.04.05.41,1.02.43,1.26,0,.1-.33.09-.41.28-.54,1.27.16.86.2,1.1.04.22-.28.91-.15,1.17.08.15,1.06.77,1.07.89.03.24-.21.59-.2.88.04,1.12.76.69.87.79.05.05-.3.89-.18,1.41.09.38.7,1.76,1.09,1.89l-.46,1.02.92-.13.22.82c.44.06.47.03.5-.39l.65.04c.29.2,1.13,3.2.21,3.19-.03.17.79.02.46.57-.06.09-.96-.74-.68.45.62-.23,1.38-.17,1.85.33.23.25-.33.69.31.57.23-.97,1.56-1.25,1.2-2.23l-.4-.26h.45c.2-.63-.41-.39-.6-.78s-.24-2.45-.36-2.72c-.16-.36-.57-.37-.72-.59s-.23-1.88-.48-2.27c-.19-.29-.77-.4-.92-.69-.21-.43.53-.85-.78-1.48l.45-.34c-1.44-.59-.91-.54-1.14-1.66-.03-.16-.67-.49-.82-.7-.29-.42-.6-.9-.86-1.3-.22-.34-.21-.85-.42-1.07ZM47.46,156.59c-.39-.57-.52-1.42-1.25-1.73.06,1.38,1.17,2.2,1.37,3.41,1.83-.17.32-.79.06-1.19-.02-.03.13-.05-.17-.49ZM397.19,156c-2.01-.42-2.2,1.17-2.34,2.76-.26,2.91.72,4.58.91,6.87.07.8-.09,1.61-.14,2.33,0,.11.39.07.43.25.15.63-.14,1.55,0,2.19.08.35.89,2.08,1.11,2.81.24.8-.12,1.44,1.03,1.91.98-.36,1.74-1.06,1.73-2.17,0-.55-.34-.93-.39-1.39-.04-.36.23-.77.12-1.28-.08-.39-.47-.64-.57-1-.09-.34.2-1.05.14-1.29-.05-.18-.41-.06-.46-.48-.17-1.41.36-1.41-.19-2.81-.27-.68.11-1.43-.05-1.93s-.67-.48-.8-.67c-.15-.21-.75-4.6-.73-5.09.02-.35.15-.66.19-1ZM146.42,157.32c-.07-.09.2-.9-.29-.86.21.46-.38,1.09-.38,1.25,0,.19.44.5.51.79.13.51-.15,1.09.2,1.59l1.03.22-.02,2.37.67.14c.02.88.15,2.48,1.16,2.72v.45s-.45.23-.45.23c.88-.1.38,1.11.66,1.26,1.36-.1.92,1.07,1.27,2.15.18.54,1.29,2.34,1.92,1.81.22-1.28,1.72-2.2.7-3.7-.17-.25-.49-.09-.61-.21-.11-.11-1.51-2.52-1.56-2.67-.46-1.64-1.1-2.92-1.96-4.42-.15-.26-1.24-.98-1.3-1.09-.15-.28.25-.69.1-.88-.07-.08-1.39-.82-1.67-1.17ZM55.6,170.71c-.16-.21.13-.69-.29-.61.04.49.04,1.49.22,1.89.13.28.61.13.8.38s.12.86.33,1.21c.12.2.51.26.75.67s.38,1.17.64,1.64l-.47.12c.43.55,1.51,1.02.91,2.04l1.82.46c.19-.61-.34-.35-.44-.62-.35-.86-.2-1.33-.85-2.34-.93-1.44-1.82-2.85-2.75-4.26-.25-.38-.53-.39-.68-.58ZM155.28,171.41c-.2-.35.21-1.09-.27-1.09-.17.99-1.23,1.6-1.71,2.51-.17.32.36.62-.32.76.26.47.16,1.04.3,1.52.13.45.48.39.65.72.41.82.88,2.27,1.32,2.99.36.58,1.71.74,1.11,1.73h.69c.2.66-.54.4-.68.91,1.07.09.69,1.42,1.03,2.05.18.34.65.32.79.63.16.37.3,2.21.46,2.33.13.09.87-.52,1.13.11.42,1.03-1.18.12-.91,1.02.9.15,2.01.39,2.28,1.36l-.68.46,1.15.1c.32.71-.26,1.19.9,1.49l-.11.45-1.02.22,1.14.23-.68.9.68.23-.68.46.65.11c-.35.52.32.83.28,1.36,0,.07-.76.19-.47.8h.91c.15.13-1.03,1.79.33,1.58.32-.14.97-1.86,1.36-2.27.98-1.05,3.15-1.4,2.03-3.56-.22-.43-.7-.41-.87-.74s-.07-.77-.24-1.13c-2.29-4.65-4.54-9.49-7.33-13.82-.5-.78-.44-1.64-1.41-1.67v-1.35s-.69.23-.69.23c.28-1.05-.94-1.38-1.09-1.64ZM405.16,172.14c-.42-.02-.47-.11-.45.34.04.77.44,1.55.69,2.28.11.32-.28.69.45.56l-.69-3.18ZM320.41,174.05c-.71-.5-1.56-.1-1.29-1.68l-.9,1.02c.91.99,1.46,2.51,3.04,2.37l.37-.55c-.52-.2-.86-.92-1.22-1.16ZM436.57,174.42c-.36-.44-.76,1.1-.98,1.3s-.62.17-.79.34c-.07.07-.91,1.63-.95,1.72-.35.83.01,1.79-.26,2.63l.47.37c-.82-.12-.29,1.25-.35,1.92-.07.83-.18,2.91-1.01,3.08l.45.45-.59.23.1.65-1.55.72c.56.77-1.11,2.8.68,2.27l-.23.45h.69c-.24.53-.1,1.1-.24,1.64-.03.13-.85.64-.44,1.54l.79-.22c.39.88.38.91,1.39,1.11.79.16-.14-.29-.15-.54-.06-1.24.43-1,.47-1.19.14-.62.4-2.9.36-3.55-.08-1.24.16-.68.31-1.65.11-.7-.18-1.25-.15-1.78.03-.57.52-.55.56-.7.43-1.63.57-4.12.96-5.73.34-1.42.01-2.58.06-3.55.02-.34.6-1.27.4-1.52ZM358.04,175.56h-.89c-.47,1.39-.93,5.02,1.35,4.2l-.46-.34.46-.11-.46-.68.46-.34h-.45c-.22-.61.39-.36.46-.6.31-1.19-.62-1.12-.46-2.12ZM406.75,177.37c-1.03-.05-.66,1.02-.73,1.25s-.13.1-.3.82c-.34,1.44-1.95.97-2.98,1.87-.93.81-.66,3-.51,4.12.08.57.69.56-.02,1.26,1.8-.66,1.49,1.41,1.75,2.46.31,1.23.39,1.33.52,2.43.08.69.29,3.01.53,3.46,1.08,2.01.59,3.79.84,6.1.02.23.12,1,.37,1.04l1-.24c-.53-.84.09-.6.22-.84,1-1.89,1.48-3.86,2.3-5.8.12-.29.79-.53.93-.95.32-.94.69-3.35.4-4.28-.04-.13-.8-.88-.86-1.05-.43-1.08-.21-2.34-.55-3.27-.41-1.12-.63-.58-.83-2.08-.01-.1-.76-1.29-.82-1.49-.16-.51-.32-1.5-.33-2.07l-.57.15-.32-.3-.02-2.58ZM317.07,177.6c-1.4.24.41,1.4.63,1.66.16.18-.14.69.28.62l-.03-1.44-.33-.33-.43.15-.11-.65ZM225.79,177.83c-.62-.21-.85.95-.97,1.06-.29.26-1.2.2-1.08.98l1.37.11v.58s.67,0,.67,0c-.49-1.05.45-1.64,0-2.73ZM391.05,178.51c-.82.19-1.43-.41-2.16-.47-.56-.05-1.24.24-1.56.18-.25-.05-.45-.48-.8-.36-.72.25-.71,3.89-.48,4.59.07.21.28.18.45.16l-.45.22v.34c1.06.37.3,1.5.34,2.05.03.38.36,2.06.48,2.38.35.95,1.17.77,1.84,1.22.35.24.4,1.12,1.44.84v1.82s.91-.23.91-.23l-.46.57.57.34-.12-13.64ZM26.85,179.43h-.67c-.17,1.15.84,1.08,1.03,1.35.1.14.4,1.33.63,1.53.39.35,1.2.09.7,1.56l1.06.95c-.2.75.03,1.81.68,2.34,1.06-1.16-.03-1.48-.16-2.19-.04-.23.21-.51.13-.71-.02-.04-.42-.16-.66-.59-.37-.67-.73-2.27-1.11-2.7-.44-.51-1.85-.73-1.61-1.52ZM182.78,183.74v-.69c-1.55.33.1,1.1.31,1.65.3.79-.35,1.34,1.17,1.76l.35-.45-1.14-.23.23-2.27-.91.23ZM75.8,184.42c-.21.08-2.13-.27-1.82.34.11.21.52.25.69.51.32.48.31,1.32.58,1.87.18.36,1.45,1.43,1.56,1.61.25.41.14,1.5.41,1.76.1.09.43,0,.63.2.64.66.81,2.27,2.03,2.58.63-1.44.33-1.79-.6-2.93-.24-.3-1.29-1.08-1.38-1.22-.48-.75-.14-1.3-1.21-2.61-.31-.38-.17-1.1-1.13-.98l.22-1.13ZM435.66,193.97l1.72-.44-.12-1.73-1.27.1-.33,2.06ZM511,195.34c-.5-.37-.39.34-.54.58-.24.4-.55.6-.54,1.36l1.08.34c.32.95-.58,1.01-.89,1.53-.9,1.5.14.97.55,1.65.29.49-.04,1.73.8,1.59l.69-6.6c-1.19.34-1.08-.4-1.14-.45ZM487.07,200.54c.18-.7.09-1.53.19-2.2.08-.54.83-1.81.18-2.09-.52-.22-.26.55-.4.85-.03.07-.41.06-.52.48-.22.77.04,2.69-.78,2.76-.04.5,1.24.31,1.33.19ZM316.39,209.66c-.42-.06-.86.26-1.25.23-.57-.05-.67-.76-1.26-.68l-.23,1.36c.6-.16,1.21.03,1.82-.1.26-.06,1.1-.33.91-.81ZM562.42,210.37l-3.13-.69c-.61,1.14-.54,2.33-.45,3.59.86.68,1.37-.51,1.94-.59.36-.05.67.27,1.16.1.64-.21.58-1.81.48-2.41ZM588.85,226.72l-3.76.72c-1.13.71,3.35,2.57,3.7.95.07-.3-.21-1.19.06-1.67ZM285.66,231.04c-1.04.37-1.84-.59-2.96.11.54.52,1.68.39,2.39.34.45-.03.66.18.56-.45Z"/>
  <path class="st0" d="M0,100.97c.39.12.81.29,1.17.48,2.31,1.27,5.39,2.12,7.56,3.37.14.08.16.3.15.46l.45-.11-.03-.77-.65-.02c.13-.53.04-1.08.07-1.6,0-.14-.2-.69.26-.44.73.38.88,2.09,1.14,2.51.14.22.57.19.57.22v3.64h-.67s-.22-.81-.22-.81c-1.91-.07-3.28-1.52-4.91-2.38-.73-.39-1.55-.9-2.19-1.22-.79-.4-1.86-.72-2.71-1.05v-2.27Z"/>
  <path class="st0" d="M347.57,89.14l-.45-.45c-.59,1.22.26,1.08.34,1.55.06.4-.2.96-.11,1.41-.68-.39-2.06.47-.91.8.38-.26.77-.83,1.14-.23-.9.9-.02,2.38-.23,3.52l-.45-.91c-.09.88-.68,1.37-.23,2.27h-.68c-.16-.54.03-1.21-.02-1.69-.21-2.12-.62-4.6.51-6.59.14-.25.51-.27.64-.55.34-.73.23-1.79.01-2.55,1.27.75.19,2.24.45,3.41Z"/>
  <path class="st0" d="M108.02,108.8c.16.13.54.38.55.58-1.19-.13-.82,1.3-1.59,1.95-.45.26-1.57-1.28-1.37-1.49l.79.46.56-.35-2.5-3.75,3.54,2.6Z"/>
  <path class="st0" d="M366.69,90.39c0,.11.41.4-.22.57-.28-.96-.3-2.23-.15-3.23.04-.25.03-.91.38-.87-.03,1.17.04,2.35,0,3.52Z"/>
</svg>