<?xml version="1.0" encoding="UTF-8"?>
<svg xmlns="http://www.w3.org/2000/svg" version="1.1" viewBox="0 0 439.43 200">
  <!-- Generator: Adobe Illustrator 29.5.1, SVG Export Plug-In . SVG Version: 2.1.0 Build 141)  -->
  <defs>
    <style>
      .st0 {
        fill: #673606;
      }

      .st1 {
        fill: #59ffc5;
      }

      .st2 {
        display: none;
      }
    </style>
  </defs>
  <g id="Layer_1">
    <g>
      <g>
        <path class="st1" d="M99.12,179.84c-16.97,1.26-30.16-5.72-44.51-17.41-4.26-3.53-5.73-9.58-2.94-15.38.24-.5.48-1,.72-1.49,1.68-3.49,4.76-6.44,8.52-8.41-.03,0-.06,0-.09,0-2.01.15-3.99.01-5.89-.4-.59-.12-1.17-.25-1.76-.37-7.21-1.54-12.25-6.91-11.95-13.26.79-17.19,11.8-33.62,26.21-42.9,10.77-7,22.67-9.98,35.18-9.15,1.78.12,3.58.31,5.36.58,12.41,1.76,23.41,7.25,32.46,11.59,1.79.86,3.5,1.69,5.14,2.45,1.63.71,3.39,1.5,5.41,2.42,1.84-3.66,3.36-7.49,4.5-11.52.03-.14.07-.26.12-.4.57-1.84,1.07-3.78,1.59-6.17.01-.05.02-.1.03-.15,1.55-6.99,2.52-14.77,5.51-22.82,2.91-8.59,9.52-14.39,17.92-13.7.18.01.36.03.54.05,7.57.74,15.38,6.52,20.99,14.67.23.33.45.67.66,1.02,4.18,6.89,5.57,12.81,6.34,17.04.02.09.03.18.05.28.2,1.23.36,2.41.49,3.6,3,2.37,5.09,5.61,5.85,8.93.29,1.27.59,2.65.88,4.05.08.37.15.73.23,1.09.29,1.41.58,2.9.86,4.35,1.04-.9,2.21-1.64,3.49-2.21,1.97-.86,4.08-1.27,6.28-1.21,2.42.06,4.88.72,7.07,1.85.8.42,1.55.9,2.24,1.41-.03-.69-.06-1.38-.09-2.08-.01-.55.01-1.09.07-1.62-8.13-3.17-15.49-8.38-22.1-16.31-1.57-1.9-2.96-3.7-4.37-5.68-3.87-5.38-4.79-13.1-1.42-18.63,2-3.22,5.35-5.04,9.08-4.77,2.16.15,4.39,1,6.4,2.41,18.9,13.11,23.48,15.18,34.76,15.88,3.73.17,8.17.07,13.88-.06.85-.02,1.7-.04,2.55-.05,2.18-.05,4.52-.1,7.07-.15,1.7-.04,3.43-.03,5.14.03,5.15.17,9.9.77,14.09,1.73,4.73-4.8,14.04-12.63,23.54-12.72.31,0,.62,0,.92.02,5.71.26,9.91,3.61,11.47,8.3.08.2.15.47.21.73.83,3.48.1,7.24-2.02,10.66-.79,1.3-1.58,2.59-2.38,3.88.78.16,1.49.32,2.16.47.11.03.22.05.33.08.52.12,1.28.3,1.79.39,2.32-.51,4.63-.78,6.87-.79.82,0,1.63.03,2.44.09,1.65-1.93,3.52-3.79,5.65-5.64,10.63-9.12,26.26-14.77,41.44-14.2,4.74.13,9.39.78,14,1.84,5.9,1.4,10.38,4.94,11.09,9.13.68,4.15-3.03,8.23-9.61,10.43-2.91.98-5.62,1.84-8.36,2.7-.69.22-1.33.42-1.93.61,5.26,1.35,9.19,4.21,9.99,7.73,1.04,4.51-3.58,8.91-11.24,10.88-3.66.97-7.45,1.72-11.47,2.28.97,13.45.24,27.07-13.94,38.42-2.7,2.19-5.78,4.14-9.19,5.79-3.13,1.61-7.88,3.73-13.24,3.99-.23.01-.46.02-.7.02-3.67.06-7.17-.84-10.38-2.63-2.31-1.27-4.25-2.9-5.69-4.7-.88.86-1.94,1.6-3.14,2.2-1.95.95-4.17,1.46-6.61,1.5-4.54.08-9.36-1.59-13.08-4.45-.38-.3-.77-.6-1.15-.9-1.47.61-3.09.98-4.81,1.06-.19.01-.38.02-.58.02-4.33.08-8.82-1.68-12.14-4.63-1.35-1.18-2.55-2.37-3.56-3.41-3.82,1.33-7.7,2.07-11.51,2.15-6.88.15-13.13-1.93-17.92-5.75-.6,1.16-1.28,2.3-2.03,3.41,0,0-.13.18-.13.19-3.99,5.67-10.54,9.82-17.66,10.43-.29.02-.57.04-.86.06-6.08.3-11.67-2-15.61-6.1-2.61,1.16-5.33,1.85-8.06,1.99-.4.02-.8.03-1.21.03-.35,0-.69-.01-1.02-.03-1.73,2.69-4.06,5.08-6.79,6.85-2.82,1.84-6.06,2.97-9.27,3.19-3.53.25-7-.59-9.96-2.37-.12-.06-.21-.12-.26-.16-6.19-3.91-12.14-8.07-17.71-11.71-6.6,10.47-15.67,20.82-26.96,30.6-.36.31-.7.6-1.03.85-9.11,7.19-19.8,13.1-29.38,15.88-3.16.92-6.35,1.58-9.48,1.96-.8.1-1.59.18-2.38.24ZM111.5,109.32c-4.63.1-8.73.78-12.08,2.06-6.37,2.68-11.97,7.87-18.78,14.26-1.98,1.87-3.98,3.76-6.03,5.64-1.37,1.25-2.94,2.34-4.63,3.24,5.6-.74,12.24-1.44,18.43-2.07,11.28-1.26,22.19-2.57,29.37-7.07,5.11-4.28,10.05-8.72,14.57-13.23-.03-.01-.06-.02-.09-.03-7.03-1.92-14.29-2.93-20.75-2.79ZM182.35,103.67c-.15-1.01-.3-2.03-.45-3.07-.27.75-.55,1.54-.85,2.37.44.23.87.46,1.3.69Z"/>
        <path class="st1" d="M181.37,36.14c.16.01.33.03.49.05,6.88.68,13.95,5.84,19.12,13.23.2.29.39.59.58.89,3.84,6.24,5.2,11.83,5.96,15.83.01.08.03.17.04.25.27,1.62.47,3.12.61,4.56,2.91,1.98,5.1,4.95,5.84,8.2.37,1.6.75,3.36,1.12,5.14.52,2.53,1.03,5.17,1.52,7.49,1.27-1.73,3-3.13,5.05-4.03,1.78-.78,3.71-1.14,5.65-1.09,2.17.05,4.35.61,6.37,1.64,1.87.98,3.42,2.28,4.56,3.77-.07-1.92-.15-3.87-.23-5.87-.01-.91.08-1.79.29-2.64-8.28-3.01-15.95-8.25-22.77-16.51-1.67-2.04-3.01-3.83-4.27-5.6-3.22-4.54-3.92-11-1.07-15.56,1.78-2.8,4.68-4.24,7.81-4.02,1.82.13,3.72.81,5.49,2.04,19.2,13.11,23.86,15.05,35.19,15.73,3.73.16,8.1.06,13.84-.08,2.85-.06,5.99-.14,9.53-.22,1.47-.04,3.17-.04,5.01.02,4.34.13,9.51.61,14.46,1.79.1.02.22.04.32.06,3.81-3.98,13.17-12.54,22.64-12.69.28,0,.55,0,.83.01,5.06.2,8.78,3.04,10.19,7.18.08.2.13.41.19.61.73,2.96.11,6.2-1.74,9.18-1.23,2.04-2.36,3.85-3.43,5.57.5.14,1.01.27,1.5.39,1.06.2,2,.42,2.86.61.78.18,1.82.42,2.38.47,2.44-.57,4.69-.82,6.77-.83,1.3,0,2.53.07,3.68.22,1.79-2.23,3.89-4.37,6.28-6.45,10.2-8.71,25.27-13.86,39.6-13.44,4.52.09,9.06.67,13.62,1.68,5.12,1.16,8.92,4.16,9.44,7.72.49,3.52-2.66,6.94-8.23,8.82-2.88.98-5.61,1.84-8.23,2.68-3.42,1.08-6.09,1.95-8.21,2.73.73.05,1.48.11,2.23.17,6.37.52,11.48,3.4,12.31,7.16.83,3.78-3.15,7.5-9.57,9.17-4.09,1.1-8.42,1.91-13.08,2.48.85,12.31,1.42,26.82-13.15,38.38-2.58,2.07-5.51,3.9-8.81,5.46-3.02,1.52-7.53,3.48-12.5,3.7-.21,0-.42.01-.63.02-2.92.03-5.99-.58-9.03-2.26-3.16-1.73-5.43-4.18-6.44-6.68-.93,1.65-2.44,3.04-4.43,4.01-1.75.83-3.76,1.26-5.86,1.28-3.93.05-8.18-1.33-11.52-3.87-.75-.58-1.5-1.16-2.2-1.75,0,0,0,0-.01,0-1.6.83-3.38,1.29-5.25,1.38-.17,0-.34.01-.51.02-3.71.06-7.63-1.39-10.6-3.99-1.69-1.46-3.12-2.93-4.36-4.21,0,0,0,0,0-.01-4.06,1.51-8.13,2.32-12.04,2.39-7.08.15-13.56-2.23-18.22-6.59-.74,1.64-1.66,3.3-2.79,4.94-.04.06-.08.12-.12.18-3.75,5.22-9.78,8.95-16.36,9.5-.28.02-.57.04-.85.06-5.94.28-11.38-2.13-15.06-6.28-2.66,1.3-5.49,2.08-8.36,2.23-.37.02-.74.03-1.12.03-.66,0-1.31-.04-1.96-.12-1.58,2.8-3.86,5.27-6.67,7.07-2.58,1.66-5.46,2.62-8.34,2.82-3.23.22-6.44-.53-9.27-2.21-.04,0-.07-.03-.1-.06-6.57-4.07-12.72-8.33-18.99-12.34-.08-.04-.15-.1-.23-.14-6.49,10.83-15.74,21.52-27.33,31.48-.28.24-.57.48-.84.69-8.78,6.86-19.03,12.48-28.27,15.15-3.15.91-6.23,1.54-9.22,1.91-.78.1-1.55.18-2.32.24-16.52,1.3-29.66-5.19-43.79-16.66-3.55-2.92-4.69-7.95-2.36-12.73.24-.5.49-.99.73-1.49,2.32-4.78,7.8-8.36,13.66-9.2,5.9-.85,13.39-1.66,19.73-2.32,11.7-1.35,22.99-2.78,30.71-7.75,6.01-5.03,11.8-10.3,17.04-15.68-.92-.33-1.85-.65-2.78-.96-7.36-2.03-14.81-3.08-21.48-2.97-4.86.08-9.31.78-13,2.17-6.94,2.89-12.74,8.26-19.78,14.86-1.93,1.82-3.88,3.66-5.91,5.51-3.15,2.87-7.5,4.68-11.89,4.99-1.71.12-3.44,0-5.11-.36-.59-.13-1.19-.25-1.79-.38-6.12-1.32-10.31-5.79-10.03-11.05.86-16.38,11.24-32.07,25.08-41,10.28-6.69,21.89-9.58,33.8-8.84,1.71.11,3.44.29,5.16.54,12.02,1.66,22.8,6.97,31.65,11.18,1.79.86,3.51,1.68,5.15,2.44,2.31,1,4.63,2.05,7.02,3.14,2.19-4.06,4-8.35,5.36-13,.02-.09.04-.16.07-.25.64-1.97,1.16-4.01,1.66-6.24,1.58-6.86,2.59-14.5,5.57-22.26,2.81-8,8.96-13.27,16.72-12.63M184.55,106.79c-.7-4.15-1.34-8.7-1.94-13.35-1.2,3.4-2.37,6.86-3.66,10.37,1.91,1,3.77,2.01,5.59,2.98M273.43,107.65c.71-.16,2.01-.55,4.02-1.61.56-.3,1.33-.72,2.3-1.13-2.24-.62-3.54-.89-4.74-.89-.9.55-1.92,2.01-1.77,3.22.03.14.1.29.19.42M179.91,30.5s0,0,0,0c-9.05-.73-16.1,5.59-19.13,14.86-3,8.38-3.93,16.34-5.46,23.5-.01.05-.02.1-.03.15-.5,2.38-.97,4.3-1.55,6.19-.05.15-.1.31-.13.46-.97,3.49-2.22,6.83-3.71,10.03-1.36-.62-2.6-1.18-3.79-1.71-1.63-.76-3.32-1.59-5.08-2.44-9.25-4.48-20.48-10.13-33.3-12.02-1.84-.29-3.69-.5-5.53-.62-12.99-.9-25.3,2.18-36.54,9.47-15.01,9.63-26.66,26.81-27.37,44.8-.3,7.48,5.62,13.74,13.89,15.49.6.13,1.19.25,1.79.38.11.02.22.05.33.07-1.81,1.71-3.28,3.67-4.3,5.81-.24.5-.47.99-.71,1.49-3.22,6.82-1.36,13.9,3.58,18.04,14.66,12.02,27.84,19.4,45.18,18.2.8-.06,1.62-.14,2.43-.24,3.2-.39,6.48-1.06,9.74-2.01,9.91-2.88,21.03-9.08,30.56-16.65.43-.33.8-.66,1.14-.94,10.99-9.58,19.9-19.64,26.56-29.74,5.14,3.45,10.59,7.31,16.34,11.01.08.06.18.12.3.18,3.17,1.92,6.89,2.83,10.7,2.56,3.53-.25,7.1-1.52,10.22-3.57,2.7-1.78,5.04-4.09,6.88-6.69.04,0,.08,0,.12,0,.42,0,.86-.01,1.29-.04,2.63-.15,5.25-.76,7.78-1.79,4.16,4.05,9.9,6.29,16.06,5.98,0,0,0,0,0,0,.04,0,.08,0,.12,0,.12-.01.24-.02.37-.03.17-.01.33-.02.5-.04,7.67-.68,14.71-5.23,18.93-11.33.01-.02.03-.04.04-.06,0-.01.02-.02.02-.04.03-.05.06-.1.1-.15.45-.67.87-1.35,1.26-2.04,4.88,3.41,11,5.24,17.63,5.08,3.64-.08,7.33-.75,10.97-1.93.83.83,1.75,1.73,2.78,2.64,3.73,3.35,8.81,5.36,13.68,5.26.22,0,.44-.01.65-.02,1.51-.08,2.95-.35,4.29-.81.03.02.06.04.08.07.01.01.03.02.04.03,4.19,3.24,9.6,5.15,14.66,5.04,2.71-.05,5.17-.64,7.32-1.71.72-.37,1.38-.78,2-1.23,1.38,1.33,3.01,2.54,4.83,3.55,3.65,2.05,7.6,3.08,11.71,2.99.26,0,.51-.01.76-.03,5.7-.31,10.67-2.58,14-4.33,3.52-1.74,6.7-3.8,9.51-6.1,14.31-11.54,15.73-25.04,14.76-38.5,3.43-.53,6.7-1.21,9.91-2.06,8.79-2.24,14.14-7.34,12.87-12.58-.71-3.03-3.44-5.64-7.25-7.42,1.91-.6,3.91-1.24,5.97-1.93,7.62-2.53,11.87-7.24,10.96-12.03-.94-4.82-6.13-8.89-12.76-10.55-4.73-1.14-9.48-1.85-14.35-2.02-15.64-.73-32.04,5.25-43.25,14.94-1.87,1.63-3.53,3.25-5.03,4.91-.4-.01-.8-.02-1.2-.02-2.25,0-4.57.25-6.9.74-.43-.09-.94-.22-1.24-.29-.13-.03-.26-.06-.39-.09-.08-.02-.16-.04-.24-.06.45-.72.89-1.44,1.33-2.17,2.39-3.83,3.21-8.09,2.29-12.06-.07-.27-.14-.58-.27-.93-1.73-5.26-6.35-9.08-12.72-9.42-.34-.02-.68-.03-1.03-.02-9.71.03-19.18,7.59-24.41,12.74-4.04-.88-8.57-1.43-13.44-1.61-1.75-.06-3.52-.08-5.28-.04-2.57.04-4.94.09-7.15.13-.85.02-1.7.03-2.55.05-5.75.12-10.21.21-13.93.03-11.04-.72-15.57-2.82-34.34-16.04-2.28-1.63-4.83-2.61-7.31-2.79-4.28-.32-8.11,1.82-10.36,5.54-1.28,2.12-1.99,4.6-2.21,7.15-.22-.39-.45-.78-.68-1.17-.02-.03-.03-.05-.05-.08-.22-.36-.47-.76-.77-1.19-6.07-8.95-14.63-15.37-22.92-16.17-.19-.02-.38-.04-.57-.05t0,0s0,0,0,0ZM211.27,69.14c-.1-.88-.22-1.77-.36-2.67,0-.03,0-.05-.01-.08.8,1.04,1.63,2.06,2.5,3.1,5.52,6.55,11.52,11.25,18.03,14.53-1.38-.39-2.79-.61-4.19-.65-2.42-.07-4.75.38-6.91,1.33-.62.27-1.21.59-1.78.93-.11-.58-.23-1.16-.34-1.73-.07-.35-.14-.71-.22-1.06-.29-1.43-.58-2.82-.87-4.12-.77-3.49-2.84-6.92-5.85-9.59h0ZM100.28,113.24c3.04-1.16,6.8-1.79,11.08-1.9,5.34-.14,11.27.54,17.16,1.91-3.74,3.6-7.72,7.15-11.82,10.58-6.61,4.03-17.13,5.24-28.06,6.42-3.45.33-7.23.71-10.93,1.11,1.56-1.45,3.09-2.9,4.56-4.29.02-.02.05-.05.07-.07,6.57-6.17,11.99-11.2,17.95-13.76h0Z"/>
        <path class="st1" d="M98.1,174.6c-17.17,1.39-31.19-5.09-46.53-16.65-4.55-3.49-6.25-9.53-3.52-15.32.23-.5.47-.99.71-1.49,1.65-3.48,4.75-6.42,8.57-8.37-.03,0-.06,0-.09,0-2.07.14-4.11,0-6.07-.44-.61-.13-1.21-.26-1.82-.39-7.46-1.59-12.74-7.02-12.49-13.42.64-17.33,11.85-33.8,26.28-43.05,10.8-6.98,22.65-9.94,35.23-9.02,1.79.13,3.6.34,5.39.63,12.5,1.88,23.74,7.57,33.03,12.09,1.83.9,3.59,1.75,5.27,2.55,1.67.74,3.47,1.56,5.55,2.52,1.74-3.72,3.15-7.63,4.18-11.78.03-.14.06-.27.11-.41.52-1.9.96-3.89,1.42-6.36,0-.05.02-.1.03-.15,1.35-7.23,2.12-15.33,4.94-23.76,2.73-9,9.32-15.13,17.89-14.44.18.01.37.03.55.05,7.73.75,15.83,6.82,21.75,15.43.24.35.47.71.7,1.07,4.42,7.26,5.97,13.51,6.85,17.94.02.1.04.19.05.29.23,1.29.42,2.53.58,3.78,3.11,2.5,5.31,5.9,6.15,9.36.32,1.32.65,2.76.98,4.22.09.38.17.76.25,1.13.32,1.46.64,3,.96,4.49,1.03-.92,2.2-1.68,3.49-2.25,1.97-.88,4.11-1.29,6.33-1.22,2.45.08,4.94.77,7.18,1.95.82.44,1.57.93,2.27,1.47-.04-.71-.07-1.43-.11-2.15-.02-.57,0-1.13.05-1.67-8.25-3.33-15.81-8.78-22.73-17.12-1.64-2-3.1-3.89-4.58-5.98-4.07-5.67-5.19-13.8-1.85-19.65,1.98-3.4,5.38-5.33,9.21-5.04,2.22.16,4.52,1.06,6.6,2.55,19.6,13.9,24.26,16.12,35.78,16.91,3.81.19,8.32.11,14.13,0,.86-.01,1.73-.03,2.6-.04,2.21-.04,4.59-.08,7.18-.11,1.73-.03,3.48,0,5.21.06,5.22.22,10.02.88,14.23,1.92,4.81-5.02,14.29-13.25,23.86-13.25.31,0,.62,0,.93.03,5.74.33,9.87,3.92,11.31,8.87.07.22.14.49.2.77.74,3.67-.1,7.59-2.32,11.14-.83,1.35-1.65,2.69-2.48,4.02.77.17,1.47.34,2.12.5.11.03.22.05.33.08.51.13,1.26.32,1.76.42,2.31-.52,4.6-.78,6.82-.78.81,0,1.61.03,2.4.1,1.7-1.99,3.61-3.9,5.77-5.81,10.81-9.42,26.47-15.14,41.2-14.33,4.61.2,9.07.94,13.47,2.09,5.62,1.52,9.77,5.18,10.31,9.41.51,4.2-3.19,8.28-9.64,10.48-2.85.98-5.52,1.84-8.21,2.7-.68.22-1.31.42-1.9.61,5.07,1.37,8.81,4.26,9.51,7.78.91,4.52-3.68,8.92-11.23,10.91-3.61.98-7.34,1.74-11.31,2.31.61,13.41-.13,26.94-14.46,38.08-2.73,2.15-5.84,4.05-9.28,5.64-3.16,1.56-7.95,3.6-13.29,3.81-.23,0-.46.01-.69.02-3.66.03-7.12-.85-10.27-2.61-2.26-1.25-4.15-2.83-5.53-4.57-.89.83-1.96,1.54-3.16,2.12-1.96.91-4.16,1.39-6.58,1.42-4.49.05-9.2-1.57-12.8-4.33-.37-.29-.74-.58-1.11-.87-1.47.59-3.07.93-4.76,1.01-.19,0-.38.01-.57.02-4.26.06-8.63-1.64-11.82-4.48-1.3-1.14-2.44-2.29-3.42-3.3-3.79,1.27-7.62,1.98-11.35,2.05-6.76.13-12.85-1.88-17.49-5.57-.61,1.12-1.29,2.22-2.05,3.28,0,0-.13.18-.13.18-4.02,5.45-10.48,9.39-17.46,9.97-.28.02-.56.04-.84.06-5.96.28-11.42-1.92-15.3-5.87-2.57,1.11-5.26,1.76-7.95,1.9-.4.02-.79.03-1.19.03-.34,0-.68-.01-1.01-.03-1.7,2.58-4,4.87-6.69,6.56-2.78,1.76-5.97,2.84-9.13,3.05-3.48.24-6.91-.57-9.87-2.27-.12-.05-.21-.11-.26-.15-6.18-3.75-12.2-7.79-17.88-11.36-6.37,10.17-15.22,20.14-26.32,29.56-.35.3-.69.58-1.02.82-8.97,6.93-19.55,12.67-29.15,15.43-3.16.91-6.37,1.57-9.54,1.98-.81.1-1.61.19-2.4.26ZM108.26,105.32c-4.71.05-8.85.7-12.23,1.95-6.41,2.64-11.98,7.79-18.77,14.13-1.98,1.86-3.97,3.74-6.03,5.6-1.37,1.24-2.95,2.32-4.67,3.21,5.73-.71,12.52-1.36,18.85-1.95,11.52-1.19,22.6-2.42,29.75-6.84,5.06-4.21,9.92-8.6,14.36-13.07-.03-.01-.06-.02-.1-.03-7.21-1.98-14.61-3.08-21.17-3ZM179.86,100.32c-.18-1.01-.37-2.04-.55-3.09-.25.76-.51,1.55-.79,2.38.45.24.89.47,1.33.71Z"/>
        <path class="st1" d="M176.97,30.28c.17.01.33.03.5.05,7.02.69,14.37,6.12,19.8,13.91.21.3.41.62.61.93,4.06,6.58,5.57,12.47,6.44,16.67.02.09.03.17.05.26.31,1.7.55,3.28.73,4.78,3.01,2.08,5.3,5.2,6.13,8.58.41,1.66.84,3.49,1.25,5.34.58,2.62,1.15,5.34,1.7,7.72,1.25-1.76,2.97-3.2,5.03-4.11,1.79-.79,3.73-1.15,5.7-1.1,2.19.06,4.41.66,6.46,1.73,1.9,1.02,3.47,2.36,4.63,3.9-.09-1.96-.18-3.97-.28-6.04-.02-.94.07-1.85.27-2.73-8.4-3.17-16.28-8.65-23.41-17.35-1.75-2.15-3.15-4.03-4.47-5.9-3.39-4.78-4.24-11.6-1.41-16.41,1.77-2.96,4.7-4.48,7.92-4.24,1.87.13,3.83.86,5.66,2.16,19.89,13.91,24.64,15.98,36.2,16.75,3.8.18,8.25.1,14.07-.02,2.89-.05,6.08-.12,9.67-.18,1.49-.03,3.21-.02,5.08.05,4.39.17,9.61.71,14.58,1.97.1.03.22.04.32.06,3.87-4.17,13.42-13.15,22.95-13.22.28,0,.56,0,.83.02,5.09.26,8.75,3.3,10.05,7.67.08.22.12.43.17.64.65,3.12-.06,6.5-1.98,9.61-1.28,2.12-2.46,4-3.57,5.78.49.15.99.28,1.47.41,1.04.21,1.97.44,2.81.64.77.19,1.79.44,2.34.5,2.43-.58,4.67-.82,6.72-.83,1.28,0,2.49.09,3.62.24,1.85-2.3,3.99-4.5,6.43-6.64,10.37-8.98,25.43-14.19,39.35-13.56,4.39.15,8.76.81,13.12,1.9,4.89,1.25,8.42,4.36,8.79,7.96.35,3.56-2.8,6.99-8.26,8.87-2.82.98-5.5,1.84-8.09,2.68-3.36,1.08-6,1.96-8.09,2.74.71.06,1.44.11,2.17.18,6.19.54,11.07,3.45,11.79,7.21.72,3.78-3.23,7.51-9.57,9.2-4.03,1.11-8.3,1.94-12.89,2.51.49,12.29.98,26.7-13.73,38.05-2.61,2.03-5.57,3.82-8.89,5.32-3.05,1.47-7.59,3.36-12.55,3.54-.21,0-.42.01-.63.01-2.91.02-5.95-.59-8.93-2.24-3.1-1.69-5.28-4.07-6.22-6.49-.96,1.6-2.49,2.93-4.49,3.87-1.76.8-3.76,1.2-5.83,1.22-3.89.04-8.04-1.32-11.27-3.77-.73-.56-1.44-1.12-2.12-1.7,0,0,0,0-.01,0-1.6.8-3.37,1.24-5.21,1.31-.17,0-.34.01-.51.01-3.65.04-7.48-1.35-10.33-3.87-1.62-1.41-2.99-2.83-4.18-4.07,0,0,0,0,0-.01-4.03,1.45-8.05,2.23-11.9,2.29-6.95.13-13.27-2.17-17.78-6.4-.76,1.59-1.69,3.19-2.82,4.77-.04.06-.08.12-.12.17-3.76,5.02-9.72,8.57-16.18,9.09-.27.02-.56.03-.83.06-5.82.26-11.14-2.05-14.77-6.05-2.62,1.25-5.42,1.99-8.25,2.13-.37.02-.73.03-1.1.02-.66,0-1.3-.04-1.94-.12-1.55,2.69-3.8,5.06-6.56,6.78-2.54,1.59-5.38,2.51-8.22,2.69-3.19.21-6.37-.51-9.19-2.12-.04,0-.07-.03-.1-.05-6.56-3.92-12.79-8.06-19.2-12-.08-.04-.15-.1-.23-.14-6.24,10.55-15.27,20.85-26.66,30.46-.28.23-.56.46-.83.66-8.65,6.63-18.8,12.08-28.06,14.72-3.16.9-6.26,1.53-9.28,1.92-.79.1-1.57.19-2.35.26-16.73,1.41-30.64-4.63-45.74-15.98-3.79-2.89-5.12-7.9-2.84-12.67.24-.5.48-.99.71-1.49,2.27-4.76,7.82-8.32,13.83-9.12,6.05-.81,13.7-1.58,20.18-2.2,11.95-1.28,23.42-2.64,31.1-7.51,5.94-4.95,11.65-10.14,16.77-15.48-.94-.34-1.89-.66-2.85-.99-7.55-2.1-15.14-3.24-21.92-3.2-4.94.03-9.44.7-13.15,2.06-6.98,2.84-12.75,8.18-19.78,14.74-1.93,1.81-3.87,3.64-5.91,5.47-3.16,2.85-7.57,4.63-12.08,4.91-1.76.11-3.54-.01-5.26-.39-.61-.13-1.23-.26-1.85-.39-6.32-1.36-10.71-5.89-10.48-11.19.69-16.5,11.24-32.24,25.09-41.14,10.31-6.68,21.89-9.54,33.87-8.7,1.73.12,3.46.32,5.2.59,12.12,1.77,23.14,7.29,32.23,11.67,1.84.89,3.6,1.74,5.29,2.53,2.37,1.04,4.76,2.13,7.21,3.27,2.08-4.12,3.77-8.49,4.99-13.27.02-.09.04-.17.07-.25.58-2.03,1.05-4.13,1.49-6.43,1.39-7.09,2.19-15.04,5.02-23.18,2.65-8.38,8.77-13.95,16.7-13.3M182.18,103.46c-.83-4.15-1.61-8.76-2.37-13.49-1.11,3.46-2.18,6.95-3.37,10.46,1.96,1.02,3.87,2.05,5.74,3.03M270.92,104.75c.7-.15,2-.54,4.02-1.6.56-.3,1.33-.71,2.31-1.12-2.21-.62-3.49-.89-4.68-.89-.9.55-1.95,2-1.83,3.2.03.14.1.29.18.42M175.36,24.34s0,0,0,0c-9.25-.73-16.26,5.96-19.09,15.67-2.83,8.78-3.54,17.07-4.87,24.47,0,.05-.02.1-.03.15-.43,2.46-.85,4.44-1.38,6.39-.05.16-.09.31-.12.48-.87,3.59-2.02,7.01-3.43,10.27-1.39-.64-2.67-1.23-3.89-1.78-1.67-.8-3.41-1.65-5.21-2.54-9.49-4.66-20.96-10.53-33.87-12.53-1.85-.3-3.72-.53-5.56-.67-13.04-1-25.3,2.07-36.57,9.35-15.02,9.61-26.91,26.83-27.48,44.97-.24,7.54,5.95,13.88,14.52,15.68.62.13,1.24.26,1.85.39.11.02.23.05.34.07-1.82,1.7-3.29,3.66-4.29,5.8-.23.5-.46.99-.7,1.49-3.17,6.81-1.04,13.89,4.26,17.97,15.71,11.87,29.74,18.71,47.28,17.35.81-.07,1.64-.15,2.46-.26,3.24-.41,6.53-1.09,9.79-2.03,9.92-2.86,20.91-8.88,30.29-16.18.42-.32.79-.63,1.12-.91,10.79-9.23,19.5-18.91,25.95-28.7,5.24,3.37,10.74,7.1,16.47,10.64.08.05.18.12.3.17,3.16,1.84,6.84,2.71,10.6,2.45,3.48-.24,6.99-1.45,10.06-3.42,2.65-1.7,4.96-3.91,6.77-6.4.04,0,.08,0,.12,0,.42,0,.85,0,1.27-.03,2.59-.14,5.17-.72,7.66-1.71,4.08,3.89,9.68,6.03,15.72,5.74,0,0,0,0,0,0,.04,0,.08,0,.11,0,.12-.01.24-.02.36-.03.16-.01.33-.02.49-.04,7.52-.64,14.46-4.97,18.71-10.82.01-.02.03-.04.04-.06,0-.01.02-.02.02-.04.03-.05.06-.09.1-.14.45-.65.87-1.3,1.27-1.96,4.74,3.3,10.69,5.06,17.2,4.92,3.57-.07,7.21-.7,10.81-1.83.79.81,1.68,1.67,2.67,2.54,3.58,3.23,8.52,5.18,13.32,5.1.21,0,.43-.01.64-.02,1.49-.07,2.91-.33,4.25-.76.03.02.05.04.08.06.01.01.03.02.04.03,4.04,3.13,9.33,4.99,14.34,4.91,2.68-.03,5.13-.59,7.29-1.61.72-.35,1.39-.75,2.01-1.18,1.34,1.29,2.92,2.47,4.71,3.46,3.57,2.01,7.49,3.02,11.59,2.97.26,0,.51,0,.76-.02,5.69-.26,10.71-2.44,14.08-4.12,3.55-1.68,6.77-3.68,9.61-5.93,14.46-11.32,15.86-24.74,15.23-38.15,3.38-.54,6.61-1.23,9.77-2.08,8.68-2.27,13.97-7.36,12.85-12.61-.63-3.04-3.21-5.66-6.86-7.45,1.88-.6,3.84-1.24,5.86-1.93,7.48-2.53,11.69-7.24,10.98-12.07-.75-4.87-5.53-9.08-11.85-10.88-4.51-1.24-9.07-2.05-13.8-2.3-15.18-1-31.62,5.06-43.02,15.07-1.9,1.68-3.6,3.36-5.14,5.07-.4-.02-.79-.03-1.19-.03-2.23,0-4.53.24-6.85.73-.42-.1-.92-.23-1.22-.31-.13-.03-.25-.06-.38-.1-.08-.02-.16-.04-.24-.06.46-.75.93-1.49,1.39-2.25,2.49-3.97,3.44-8.42,2.63-12.6-.06-.28-.13-.61-.24-.98-1.58-5.55-6.14-9.65-12.54-10.07-.34-.02-.69-.03-1.04-.04-9.78-.07-19.43,7.87-24.74,13.27-4.07-.96-8.65-1.57-13.58-1.79-1.77-.08-3.57-.11-5.36-.08-2.6.03-5.02.07-7.26.1-.87.01-1.73.03-2.59.04-5.85.1-10.39.17-14.19-.03-11.28-.8-15.9-3.06-35.37-17.08-2.36-1.72-5-2.77-7.54-2.96-4.39-.34-8.28,1.93-10.51,5.86-1.27,2.24-1.95,4.86-2.12,7.55-.23-.41-.47-.82-.72-1.23-.02-.03-.03-.05-.05-.08-.23-.38-.5-.8-.81-1.26-6.39-9.44-15.28-16.2-23.74-17-.19-.02-.39-.04-.59-.05t0,0s0,0,0,0ZM208.21,65.01c-.12-.92-.27-1.85-.43-2.8,0-.03,0-.06-.01-.08.84,1.09,1.7,2.17,2.62,3.27,5.77,6.89,11.95,11.81,18.58,15.24-1.4-.41-2.83-.64-4.25-.69-2.45-.09-4.81.37-6.97,1.34-.62.28-1.22.6-1.78.95-.13-.6-.25-1.2-.38-1.79-.08-.37-.16-.73-.24-1.1-.32-1.48-.65-2.93-.97-4.28-.86-3.64-3.04-7.24-6.16-10.05t0,0ZM96.96,109.16c3.06-1.13,6.86-1.73,11.22-1.8,5.43-.09,11.48.66,17.5,2.07-3.67,3.57-7.6,7.07-11.66,10.45-6.59,3.96-17.29,5.09-28.44,6.2-3.52.31-7.38.66-11.16,1.03,1.56-1.44,3.08-2.87,4.55-4.25.02-.02.05-.04.07-.07,6.54-6.12,11.93-11.12,17.93-13.63t0,0Z"/>
        <path class="st1" d="M249.75,82.89c-.07-3.16-5.09-3.09-5.09.07.13,9.11.76,16.74-1.51,24.79-.2.6-.72,2.21-.97,2.79-1.36,4.05-6.19,8.11-9.18,2.92-1.94-2.93-2.25-6.11-2.7-9.7-.29-2.68-.39-5.36-.65-8.34-.1-1.3-.93-2.55-2.3-3.26-3.02-1.52-6.11.26-6.65,3.18-.88,4.1-1.15,8.56-3.38,12.38-.85,1.39-1.84,2.51-2.84,2.9-.73-.16-1.53-1.14-2.41-2.41-2.19-4.21-4.06-8.95-5.56-14.23-1.35-4.69-2.77-11.95-4.39-17.62-.29-1.11-1.4-1.97-2.51-1.92-1.13.06-1.82,1.05-1.54,2.21.74,3.15,1.23,6.19,1.58,9.16,1.31,9.14.59,18.51,4.04,26.75,4.21,9.28,14.35,8.99,20.29,1.11.74,1.92,1.72,3.78,3.09,5.36,4.47,6.02,13.64,5.51,18.4-.54,7.98-10.78,3.89-23.7,4.28-35.6Z"/>
        <path class="st1" d="M196.44,76.82c-.37-4.72-.7-9.37-1.95-15.06-.74-3.08-1.93-7.15-4.55-11.1-8-10.75-16.2-6.17-18.8,1.24-3.6,8.73-4.22,18.12-6.91,26.17-2.17,7.5-5.64,14.54-10.57,21.41-5.17-2.43-10.63-4.91-16.44-7.36-9.25-4.04-20.96-10.53-32.82-11.97-25.67-3.88-46.32,16.06-48.12,38,.62.14,1.23.29,1.84.43,10.17-9.06,18.63-18.38,30.86-23.02,14.8-5.19,32.42-2.24,45.67,1.7,5.67,1.99,10.91,4.15,15.8,6.4-1.94,2.41-4.07,4.78-6.35,7.14-6.47,6.87-13.66,13.44-20.99,19.59-11.22,7.79-25.18,9.9-39.31,11.68-5.42.63-13.19,1.55-18.97,2.45-.26.49-.51.98-.77,1.47,14.23,10.56,29.84,16.2,49.06,11.01,7.11-1.95,14.88-5.85,21.56-10.77,11.51-9.4,19.44-19.29,24.31-28.81,1.31-2.65,2.47-5.23,3.5-7.76,10.83,5.79,20.01,11.8,29.7,17.17,4.02,2.2,9.63,1.45,10.63-4.66.6-5.79-1.87-10.87-2.75-15.84-2.28-9.25-2.84-18.73-3.66-29.5ZM183.94,115.1c-6.12-3.37-12.52-6.83-19.51-10.36,4.42-11.94,6.5-23.15,11.08-34.74,1.6-4.24,3.47-8.98,6.4-12.45.4-.4.75-.74,1.08-.96,2.09,3.79,2.85,8.47,3.48,12.18.69,4.46,1.45,10.1,1.93,13.99,1.12,8.67,2.68,18.54,4.74,25.31.91,4.41,3.02,8.6,3.27,13.27-4.4-1.42-8.3-4.13-12.48-6.24Z"/>
        <path class="st1" d="M297.36,115.04c-2.22-3.5-6.42-7.67-11.86-7.28-2.18.12-3.67.83-5.21,1.68-2.98,1.6-6.5,3.04-9.81,3.02-4.71.08-8.24-3.76-8.74-7.31-.63-4.74,3.26-10.01,8.78-11.39,4.62-.53,8.05.64,13.1,2.11,1.56.44,3.41-.06,4.35-1.25,1.05-1.33.58-3.03-1.07-3.79-4.66-2.23-12.26-5.39-18.39-2.9-10.61,3.61-13.9,14.96-8.61,22.53,5.58,8.27,16.58,7.09,25.06,3.05,1.54-.52,2.43-.25,3.78.69,2.55,1.86,4.82,4.74,7.64,7.07,1.77,1.51,4.6.19,3.63-1.66-.8-1.53-1.64-3.06-2.66-4.58Z"/>
        <path class="st1" d="M399.16,59.74c.72-.25.72-.94,0-1.09-12.63-2.73-28.41-.25-38.35,8.12-5.12,4.38-8.03,8.93-9.59,13.42-5.03-1.38-8.96-4.38-15.12-2.72-4.38.94-7.66-.35-11.26-.97-3.86-.87-7.45-2.11-10.95-3.42,2.32-4.31,4.97-8.39,8.08-13.75.47-.78.7-1.61.51-2.4-2-5.82-13.7,4.28-16.13,7.33-1.26,1.43-2.41,3.03-3.43,4.72-2.47-.83-4.99-1.55-7.64-2.04-5.08-1.15-11.11-1.52-16.56-1.36-32.34.15-31.35,3.93-62.27-15.81-.64-.43-1.16.44-.73,1.1,1.24,1.92,2.52,3.7,3.8,5.41,9.48,12.32,20.84,17.79,33.08,18.28,8.54.44,16.61-.54,25.29-1.08,4.69-.39,9.88-.46,14.58.23,2.55.31,4.98.83,7.36,1.47-5.18,12.53-3.65,25.85.46,34.09,2.69,5.51,7.55,11.07,14.05,15.83,1.02.74,2.48.99,3.58.54,1.35-.57,1.65-1.94.66-3.06-4.35-5.08-7.32-9.98-8.8-14.98-1.52-5.09-1.61-9.92-1.2-15.18.19-4.45.86-8.9,2.64-13.64,0,0,0,0,.01,0,5.59,2,12.18,3.26,18.71,4.62.89.29,1.72.73,2.58,1.15,3.26,2.06,7.81,1.89,12.51.98,1.67-.38,3.34-.64,5.02-.81-1.11,6.18-.2,12.21-.13,17.92.35,3.38.38,6.8-.67,10.1-1.94,5.68-5.59,9.75-8.5,15.85-.55,2.27,7.64-.8,8.84-1.3,2.44-1,4.68-2.24,6.61-3.7,13.98-10.57,9.23-25.64,10.44-39.12,2,0,4.05-.03,6.15-.17,4.83-.35,9.85-1.03,14.72-2.46.86-.21.69-.96-.15-1-7.01-.66-13.75-.21-20.24.05.04-.18.06-.36.1-.53,1.94-12.23,16.26-15.05,31.95-20.64Z"/>
        <path class="st1" d="M333.35,115.25c-3.28-7.6-2.44-14.71-3.51-22.09-.18-1.03-1.08-1.94-2.56-2.38-2.34-.7-5.22.06-6.43,1.69-2.87,4-3.36,8.19-2.67,12.39.72,4.26,2.71,8.66,6.76,12.67,1.14,1.11,3.11,1.79,5.02,1.61,2.57-.25,4.1-1.94,3.44-3.74,0,0-.05-.14-.05-.14Z"/>
      </g>
      <g>
        <g>
          <path class="st1" d="M92.12,172.84c-16.97,1.26-30.16-5.72-44.51-17.41-4.26-3.53-5.73-9.58-2.94-15.38.24-.5.48-1,.72-1.49,1.68-3.49,4.76-6.44,8.52-8.41-.03,0-.06,0-.09,0-2.01.15-3.99.01-5.89-.4-.59-.12-1.17-.25-1.76-.37-7.21-1.54-12.25-6.91-11.95-13.26.79-17.19,11.8-33.62,26.21-42.9,10.77-7,22.67-9.98,35.18-9.15,1.78.12,3.58.31,5.36.58,12.41,1.76,23.41,7.25,32.46,11.59,1.79.86,3.5,1.69,5.14,2.45,1.63.71,3.39,1.5,5.41,2.42,1.84-3.66,3.36-7.49,4.5-11.52.03-.14.07-.26.12-.4.57-1.84,1.07-3.78,1.59-6.17.01-.05.02-.1.03-.15,1.55-6.99,2.52-14.77,5.51-22.82,2.91-8.59,9.52-14.39,17.92-13.7.18.01.36.03.54.05,7.57.74,15.38,6.52,20.99,14.67.23.33.45.67.66,1.02,4.18,6.89,5.57,12.81,6.34,17.04.02.09.03.18.05.28.2,1.23.36,2.41.49,3.6,3,2.37,5.09,5.61,5.85,8.93.29,1.27.59,2.65.88,4.05.08.37.15.73.23,1.09.29,1.41.58,2.9.86,4.35,1.04-.9,2.21-1.64,3.49-2.21,1.97-.86,4.08-1.27,6.28-1.21,2.42.06,4.88.72,7.07,1.85.8.42,1.55.9,2.24,1.41-.03-.69-.06-1.38-.09-2.08-.01-.55.01-1.09.07-1.62-8.13-3.17-15.49-8.38-22.1-16.31-1.57-1.9-2.96-3.7-4.37-5.68-3.87-5.38-4.79-13.1-1.42-18.63,2-3.22,5.35-5.04,9.08-4.77,2.16.15,4.39,1,6.4,2.41,18.9,13.11,23.48,15.18,34.76,15.88,3.73.17,8.17.07,13.88-.06.85-.02,1.7-.04,2.55-.05,2.18-.05,4.52-.1,7.07-.15,1.7-.04,3.43-.03,5.14.03,5.15.17,9.9.77,14.09,1.73,4.73-4.8,14.04-12.63,23.54-12.72.31,0,.62,0,.92.02,5.71.26,9.91,3.61,11.47,8.3.08.2.15.47.21.73.83,3.48.1,7.24-2.02,10.66-.79,1.3-1.58,2.59-2.38,3.88.78.16,1.49.32,2.16.47.11.03.22.05.33.08.52.12,1.28.3,1.79.39,2.32-.51,4.63-.78,6.87-.79.82,0,1.63.03,2.44.09,1.65-1.93,3.52-3.79,5.65-5.64,10.63-9.12,26.26-14.77,41.44-14.2,4.74.13,9.39.78,14,1.84,5.9,1.4,10.38,4.94,11.09,9.13.68,4.15-3.03,8.23-9.61,10.43-2.91.98-5.62,1.84-8.36,2.7-.69.22-1.33.42-1.93.61,5.26,1.35,9.19,4.21,9.99,7.73,1.04,4.51-3.58,8.91-11.24,10.88-3.66.97-7.45,1.72-11.47,2.28.97,13.45.24,27.07-13.94,38.42-2.7,2.19-5.78,4.14-9.19,5.79-3.13,1.61-7.88,3.73-13.24,3.99-.23.01-.46.02-.7.02-3.67.06-7.17-.84-10.38-2.63-2.31-1.27-4.25-2.9-5.69-4.7-.88.86-1.94,1.6-3.14,2.2-1.95.95-4.17,1.46-6.61,1.5-4.54.08-9.36-1.59-13.08-4.45-.38-.3-.77-.6-1.15-.9-1.47.61-3.09.98-4.81,1.06-.19.01-.38.02-.58.02-4.33.08-8.82-1.68-12.14-4.63-1.35-1.18-2.55-2.37-3.56-3.41-3.82,1.33-7.7,2.07-11.51,2.15-6.88.15-13.13-1.93-17.92-5.75-.6,1.16-1.28,2.3-2.03,3.41,0,0-.13.18-.13.19-3.99,5.67-10.54,9.82-17.66,10.43-.29.02-.57.04-.86.06-6.08.3-11.67-2-15.61-6.1-2.61,1.16-5.33,1.85-8.06,1.99-.4.02-.8.03-1.21.03-.35,0-.69-.01-1.02-.03-1.73,2.69-4.06,5.08-6.79,6.85-2.82,1.84-6.06,2.97-9.27,3.19-3.53.25-7-.59-9.96-2.37-.12-.06-.21-.12-.26-.16-6.19-3.91-12.14-8.07-17.71-11.71-6.6,10.47-15.67,20.82-26.96,30.6-.36.31-.7.6-1.03.85-9.11,7.19-19.8,13.1-29.38,15.88-3.16.92-6.35,1.58-9.48,1.96-.8.1-1.59.18-2.38.24ZM104.5,102.32c-4.63.1-8.73.78-12.08,2.06-6.37,2.68-11.97,7.87-18.78,14.26-1.98,1.87-3.98,3.76-6.03,5.64-1.37,1.25-2.94,2.34-4.63,3.24,5.6-.74,12.24-1.44,18.43-2.07,11.28-1.26,22.19-2.57,29.37-7.07,5.11-4.28,10.05-8.72,14.57-13.23-.03-.01-.06-.02-.09-.03-7.03-1.92-14.29-2.93-20.75-2.79ZM175.35,96.67c-.15-1.01-.3-2.03-.45-3.07-.27.75-.55,1.54-.85,2.37.44.23.87.46,1.3.69Z"/>
          <path class="st0" d="M174.37,29.14c.16.01.33.03.49.05,6.88.68,13.95,5.84,19.12,13.23.2.29.39.59.58.89,3.84,6.24,5.2,11.83,5.96,15.83.01.08.03.17.04.25.27,1.62.47,3.12.61,4.56,2.91,1.98,5.1,4.95,5.84,8.2.37,1.6.75,3.36,1.12,5.14.52,2.53,1.03,5.17,1.52,7.49,1.27-1.73,3-3.13,5.05-4.03,1.78-.78,3.71-1.14,5.65-1.09,2.17.05,4.35.61,6.37,1.64,1.87.98,3.42,2.28,4.56,3.77-.07-1.92-.15-3.87-.23-5.87-.01-.91.08-1.79.29-2.64-8.28-3.01-15.95-8.25-22.77-16.51-1.67-2.04-3.01-3.83-4.27-5.6-3.22-4.54-3.92-11-1.07-15.56,1.78-2.8,4.68-4.24,7.81-4.02,1.82.13,3.72.81,5.49,2.04,19.2,13.11,23.86,15.05,35.19,15.73,3.73.16,8.1.06,13.84-.08,2.85-.06,5.99-.14,9.53-.22,1.47-.04,3.17-.04,5.01.02,4.34.13,9.51.61,14.46,1.79.1.02.22.04.32.06,3.81-3.98,13.17-12.54,22.64-12.69.28,0,.55,0,.83.01,5.06.2,8.78,3.04,10.19,7.18.08.2.13.41.19.61.73,2.96.11,6.2-1.74,9.18-1.23,2.04-2.36,3.85-3.43,5.57.5.14,1.01.27,1.5.39,1.06.2,2,.42,2.86.61.78.18,1.82.42,2.38.47,2.44-.57,4.69-.82,6.77-.83,1.3,0,2.53.07,3.68.22,1.79-2.23,3.89-4.37,6.28-6.45,10.2-8.71,25.27-13.86,39.6-13.44,4.52.09,9.06.67,13.62,1.68,5.12,1.16,8.92,4.16,9.44,7.72.49,3.52-2.66,6.94-8.23,8.82-2.88.98-5.61,1.84-8.23,2.68-3.42,1.08-6.09,1.95-8.21,2.73.73.05,1.48.11,2.23.17,6.37.52,11.48,3.4,12.31,7.16.83,3.78-3.15,7.5-9.57,9.17-4.09,1.1-8.42,1.91-13.08,2.48.85,12.31,1.42,26.82-13.15,38.38-2.58,2.07-5.51,3.9-8.81,5.46-3.02,1.52-7.53,3.48-12.5,3.7-.21,0-.42.01-.63.02-2.92.03-5.99-.58-9.03-2.26-3.16-1.73-5.43-4.18-6.44-6.68-.93,1.65-2.44,3.04-4.43,4.01-1.75.83-3.76,1.26-5.86,1.28-3.93.05-8.18-1.33-11.52-3.87-.75-.58-1.5-1.16-2.2-1.75,0,0,0,0-.01,0-1.6.83-3.38,1.29-5.25,1.38-.17,0-.34.01-.51.02-3.71.06-7.63-1.39-10.6-3.99-1.69-1.46-3.12-2.93-4.36-4.21,0,0,0,0,0-.01-4.06,1.51-8.13,2.32-12.04,2.39-7.08.15-13.56-2.23-18.22-6.59-.74,1.64-1.66,3.3-2.79,4.94-.04.06-.08.12-.12.18-3.75,5.22-9.78,8.95-16.36,9.5-.28.02-.57.04-.85.06-5.94.28-11.38-2.13-15.06-6.28-2.66,1.3-5.49,2.08-8.36,2.23-.37.02-.74.03-1.12.03-.66,0-1.31-.04-1.96-.12-1.58,2.8-3.86,5.27-6.67,7.07-2.58,1.66-5.46,2.62-8.34,2.82-3.23.22-6.44-.53-9.27-2.21-.04,0-.07-.03-.1-.06-6.57-4.07-12.72-8.33-18.99-12.34-.08-.04-.15-.1-.23-.14-6.49,10.83-15.74,21.52-27.33,31.48-.28.24-.57.48-.84.69-8.78,6.86-19.03,12.48-28.27,15.15-3.15.91-6.23,1.54-9.22,1.91-.78.1-1.55.18-2.32.24-16.52,1.3-29.66-5.19-43.79-16.66-3.55-2.92-4.69-7.95-2.36-12.73.24-.5.49-.99.73-1.49,2.32-4.78,7.8-8.36,13.66-9.2,5.9-.85,13.39-1.66,19.73-2.32,11.7-1.35,22.99-2.78,30.71-7.75,6.01-5.03,11.8-10.3,17.04-15.68-.92-.33-1.85-.65-2.78-.96-7.36-2.03-14.81-3.08-21.48-2.97-4.86.08-9.31.78-13,2.17-6.94,2.89-12.74,8.26-19.78,14.86-1.93,1.82-3.88,3.66-5.91,5.51-3.15,2.87-7.5,4.68-11.89,4.99-1.71.12-3.44,0-5.11-.36-.59-.13-1.19-.25-1.79-.38-6.12-1.32-10.31-5.79-10.03-11.05.86-16.38,11.24-32.07,25.08-41,10.28-6.69,21.89-9.58,33.8-8.84,1.71.11,3.44.29,5.16.54,12.02,1.66,22.8,6.97,31.65,11.18,1.79.86,3.51,1.68,5.15,2.44,2.31,1,4.63,2.05,7.02,3.14,2.19-4.06,4-8.35,5.36-13,.02-.09.04-.16.07-.25.64-1.97,1.16-4.01,1.66-6.24,1.58-6.86,2.59-14.5,5.57-22.26,2.81-8,8.96-13.27,16.72-12.63M177.55,99.79c-.7-4.15-1.34-8.7-1.94-13.35-1.2,3.4-2.37,6.86-3.66,10.37,1.91,1,3.77,2.01,5.59,2.98M266.43,100.65c.71-.16,2.01-.55,4.02-1.61.56-.3,1.33-.72,2.3-1.13-2.24-.62-3.54-.89-4.74-.89-.9.55-1.92,2.01-1.77,3.22.03.14.1.29.19.42M172.91,23.5s0,0,0,0c-9.05-.73-16.1,5.59-19.13,14.86-3,8.38-3.93,16.34-5.46,23.5-.01.05-.02.1-.03.15-.5,2.38-.97,4.3-1.55,6.19-.05.15-.1.31-.13.46-.97,3.49-2.22,6.83-3.71,10.03-1.36-.62-2.6-1.18-3.79-1.71-1.63-.76-3.32-1.59-5.08-2.44-9.25-4.48-20.48-10.13-33.3-12.02-1.84-.29-3.69-.5-5.53-.62-12.99-.9-25.3,2.18-36.54,9.47-15.01,9.63-26.66,26.81-27.37,44.8-.3,7.48,5.62,13.74,13.89,15.49.6.13,1.19.25,1.79.38.11.02.22.05.33.07-1.81,1.71-3.28,3.67-4.3,5.81-.24.5-.47.99-.71,1.49-3.22,6.82-1.36,13.9,3.58,18.04,14.66,12.02,27.84,19.4,45.18,18.2.8-.06,1.62-.14,2.43-.24,3.2-.39,6.48-1.06,9.74-2.01,9.91-2.88,21.03-9.08,30.56-16.65.43-.33.8-.66,1.14-.94,10.99-9.58,19.9-19.64,26.56-29.74,5.14,3.45,10.59,7.31,16.34,11.01.08.06.18.12.3.18,3.17,1.92,6.89,2.83,10.7,2.56,3.53-.25,7.1-1.52,10.22-3.57,2.7-1.78,5.04-4.09,6.88-6.69.04,0,.08,0,.12,0,.42,0,.86-.01,1.29-.04,2.63-.15,5.25-.76,7.78-1.79,4.16,4.05,9.9,6.29,16.06,5.98,0,0,0,0,0,0,.04,0,.08,0,.12,0,.12-.01.24-.02.37-.03.17-.01.33-.02.5-.04,7.67-.68,14.71-5.23,18.93-11.33.01-.02.03-.04.04-.06,0-.01.02-.02.02-.04.03-.05.06-.1.1-.15.45-.67.87-1.35,1.26-2.04,4.88,3.41,11,5.24,17.63,5.08,3.64-.08,7.33-.75,10.97-1.93.83.83,1.75,1.73,2.78,2.64,3.73,3.35,8.81,5.36,13.68,5.26.22,0,.44-.01.65-.02,1.51-.08,2.95-.35,4.29-.81.03.02.06.04.08.07.01.01.03.02.04.03,4.19,3.24,9.6,5.15,14.66,5.04,2.71-.05,5.17-.64,7.32-1.71.72-.37,1.38-.78,2-1.23,1.38,1.33,3.01,2.54,4.83,3.55,3.65,2.05,7.6,3.08,11.71,2.99.26,0,.51-.01.76-.03,5.7-.31,10.67-2.58,14-4.33,3.52-1.74,6.7-3.8,9.51-6.1,14.31-11.54,15.73-25.04,14.76-38.5,3.43-.53,6.7-1.21,9.91-2.06,8.79-2.24,14.14-7.34,12.87-12.58-.71-3.03-3.44-5.64-7.25-7.42,1.91-.6,3.91-1.24,5.97-1.93,7.62-2.53,11.87-7.24,10.96-12.03-.94-4.82-6.13-8.89-12.76-10.55-4.73-1.14-9.48-1.85-14.35-2.02-15.64-.73-32.04,5.25-43.25,14.94-1.87,1.63-3.53,3.25-5.03,4.91-.4-.01-.8-.02-1.2-.02-2.25,0-4.57.25-6.9.74-.43-.09-.94-.22-1.24-.29-.13-.03-.26-.06-.39-.09-.08-.02-.16-.04-.24-.06.45-.72.89-1.44,1.33-2.17,2.39-3.83,3.21-8.09,2.29-12.06-.07-.27-.14-.58-.27-.93-1.73-5.26-6.35-9.08-12.72-9.42-.34-.02-.68-.03-1.03-.02-9.71.03-19.18,7.59-24.41,12.74-4.04-.88-8.57-1.43-13.44-1.61-1.75-.06-3.52-.08-5.28-.04-2.57.04-4.94.09-7.15.13-.85.02-1.7.03-2.55.05-5.75.12-10.21.21-13.93.03-11.04-.72-15.57-2.82-34.34-16.04-2.28-1.63-4.83-2.61-7.31-2.79-4.28-.32-8.11,1.82-10.36,5.54-1.28,2.12-1.99,4.6-2.21,7.15-.22-.39-.45-.78-.68-1.17-.02-.03-.03-.05-.05-.08-.22-.36-.47-.76-.77-1.19-6.07-8.95-14.63-15.37-22.92-16.17-.19-.02-.38-.04-.57-.05t0,0s0,0,0,0ZM204.27,62.14c-.1-.88-.22-1.77-.36-2.67,0-.03,0-.05-.01-.08.8,1.04,1.63,2.06,2.5,3.1,5.52,6.55,11.52,11.25,18.03,14.53-1.38-.39-2.79-.61-4.19-.65-2.42-.07-4.75.38-6.91,1.33-.62.27-1.21.59-1.78.93-.11-.58-.23-1.16-.34-1.73-.07-.35-.14-.71-.22-1.06-.29-1.43-.58-2.82-.87-4.12-.77-3.49-2.84-6.92-5.85-9.59h0ZM93.28,106.24c3.04-1.16,6.8-1.79,11.08-1.9,5.34-.14,11.27.54,17.16,1.91-3.74,3.6-7.72,7.15-11.82,10.58-6.61,4.03-17.13,5.24-28.06,6.42-3.45.33-7.23.71-10.93,1.11,1.56-1.45,3.09-2.9,4.56-4.29.02-.02.05-.05.07-.07,6.57-6.17,11.99-11.2,17.95-13.76h0Z"/>
        </g>
        <g>
          <path class="st0" d="M91.1,167.6c-17.17,1.39-31.19-5.09-46.53-16.65-4.55-3.49-6.25-9.53-3.52-15.32.23-.5.47-.99.71-1.49,1.65-3.48,4.75-6.42,8.57-8.37-.03,0-.06,0-.09,0-2.07.14-4.11,0-6.07-.44-.61-.13-1.21-.26-1.82-.39-7.46-1.59-12.74-7.02-12.49-13.42.64-17.33,11.85-33.8,26.28-43.05,10.8-6.98,22.65-9.94,35.23-9.02,1.79.13,3.6.34,5.39.63,12.5,1.88,23.74,7.57,33.03,12.09,1.83.9,3.59,1.75,5.27,2.55,1.67.74,3.47,1.56,5.55,2.52,1.74-3.72,3.15-7.63,4.18-11.78.03-.14.06-.27.11-.41.52-1.9.96-3.89,1.42-6.36,0-.05.02-.1.03-.15,1.35-7.23,2.12-15.33,4.94-23.76,2.73-9,9.32-15.13,17.89-14.44.18.01.37.03.55.05,7.73.75,15.83,6.82,21.75,15.43.24.35.47.71.7,1.07,4.42,7.26,5.97,13.51,6.85,17.94.02.1.04.19.05.29.23,1.29.42,2.53.58,3.78,3.11,2.5,5.31,5.9,6.15,9.36.32,1.32.65,2.76.98,4.22.09.38.17.76.25,1.13.32,1.46.64,3,.96,4.49,1.03-.92,2.2-1.68,3.49-2.25,1.97-.88,4.11-1.29,6.33-1.22,2.45.08,4.94.77,7.18,1.95.82.44,1.57.93,2.27,1.47-.04-.71-.07-1.43-.11-2.15-.02-.57,0-1.13.05-1.67-8.25-3.33-15.81-8.78-22.73-17.12-1.64-2-3.1-3.89-4.58-5.98-4.07-5.67-5.19-13.8-1.85-19.65,1.98-3.4,5.38-5.33,9.21-5.04,2.22.16,4.52,1.06,6.6,2.55,19.6,13.9,24.26,16.12,35.78,16.91,3.81.19,8.32.11,14.13,0,.86-.01,1.73-.03,2.6-.04,2.21-.04,4.59-.08,7.18-.11,1.73-.03,3.48,0,5.21.06,5.22.22,10.02.88,14.23,1.92,4.81-5.02,14.29-13.25,23.86-13.25.31,0,.62,0,.93.03,5.74.33,9.87,3.92,11.31,8.87.07.22.14.49.2.77.74,3.67-.1,7.59-2.32,11.14-.83,1.35-1.65,2.69-2.48,4.02.77.17,1.47.34,2.12.5.11.03.22.05.33.08.51.13,1.26.32,1.76.42,2.31-.52,4.6-.78,6.82-.78.81,0,1.61.03,2.4.1,1.7-1.99,3.61-3.9,5.77-5.81,10.81-9.42,26.47-15.14,41.2-14.33,4.61.2,9.07.94,13.47,2.09,5.62,1.52,9.77,5.18,10.31,9.41.51,4.2-3.19,8.28-9.64,10.48-2.85.98-5.52,1.84-8.21,2.7-.68.22-1.31.42-1.9.61,5.07,1.37,8.81,4.26,9.51,7.78.91,4.52-3.68,8.92-11.23,10.91-3.61.98-7.34,1.74-11.31,2.31.61,13.41-.13,26.94-14.46,38.08-2.73,2.15-5.84,4.05-9.28,5.64-3.16,1.56-7.95,3.6-13.29,3.81-.23,0-.46.01-.69.02-3.66.03-7.12-.85-10.27-2.61-2.26-1.25-4.15-2.83-5.53-4.57-.89.83-1.96,1.54-3.16,2.12-1.96.91-4.16,1.39-6.58,1.42-4.49.05-9.2-1.57-12.8-4.33-.37-.29-.74-.58-1.11-.87-1.47.59-3.07.93-4.76,1.01-.19,0-.38.01-.57.02-4.26.06-8.63-1.64-11.82-4.48-1.3-1.14-2.44-2.29-3.42-3.3-3.79,1.27-7.62,1.98-11.35,2.05-6.76.13-12.85-1.88-17.49-5.57-.61,1.12-1.29,2.22-2.05,3.28,0,0-.13.18-.13.18-4.02,5.45-10.48,9.39-17.46,9.97-.28.02-.56.04-.84.06-5.96.28-11.42-1.92-15.3-5.87-2.57,1.11-5.26,1.76-7.95,1.9-.4.02-.79.03-1.19.03-.34,0-.68-.01-1.01-.03-1.7,2.58-4,4.87-6.69,6.56-2.78,1.76-5.97,2.84-9.13,3.05-3.48.24-6.91-.57-9.87-2.27-.12-.05-.21-.11-.26-.15-6.18-3.75-12.2-7.79-17.88-11.36-6.37,10.17-15.22,20.14-26.32,29.56-.35.3-.69.58-1.02.82-8.97,6.93-19.55,12.67-29.15,15.43-3.16.91-6.37,1.57-9.54,1.98-.81.1-1.61.19-2.4.26ZM101.26,98.32c-4.71.05-8.85.7-12.23,1.95-6.41,2.64-11.98,7.79-18.77,14.13-1.98,1.86-3.97,3.74-6.03,5.6-1.37,1.24-2.95,2.32-4.67,3.21,5.73-.71,12.52-1.36,18.85-1.95,11.52-1.19,22.6-2.42,29.75-6.84,5.06-4.21,9.92-8.6,14.36-13.07-.03-.01-.06-.02-.1-.03-7.21-1.98-14.61-3.08-21.17-3ZM172.86,93.32c-.18-1.01-.37-2.04-.55-3.09-.25.76-.51,1.55-.79,2.38.45.24.89.47,1.33.71Z"/>
          <path class="st1" d="M169.97,23.28c.17.01.33.03.5.05,7.02.69,14.37,6.12,19.8,13.91.21.3.41.62.61.93,4.06,6.58,5.57,12.47,6.44,16.67.02.09.03.17.05.26.31,1.7.55,3.28.73,4.78,3.01,2.08,5.3,5.2,6.13,8.58.41,1.66.84,3.49,1.25,5.34.58,2.62,1.15,5.34,1.7,7.72,1.25-1.76,2.97-3.2,5.03-4.11,1.79-.79,3.73-1.15,5.7-1.1,2.19.06,4.41.66,6.46,1.73,1.9,1.02,3.47,2.36,4.63,3.9-.09-1.96-.18-3.97-.28-6.04-.02-.94.07-1.85.27-2.73-8.4-3.17-16.28-8.65-23.41-17.35-1.75-2.15-3.15-4.03-4.47-5.9-3.39-4.78-4.24-11.6-1.41-16.41,1.77-2.96,4.7-4.48,7.92-4.24,1.87.13,3.83.86,5.66,2.16,19.89,13.91,24.64,15.98,36.2,16.75,3.8.18,8.25.1,14.07-.02,2.89-.05,6.08-.12,9.67-.18,1.49-.03,3.21-.02,5.08.05,4.39.17,9.61.71,14.58,1.97.1.03.22.04.32.06,3.87-4.17,13.42-13.15,22.95-13.22.28,0,.56,0,.83.02,5.09.26,8.75,3.3,10.05,7.67.08.22.12.43.17.64.65,3.12-.06,6.5-1.98,9.61-1.28,2.12-2.46,4-3.57,5.78.49.15.99.28,1.47.41,1.04.21,1.97.44,2.81.64.77.19,1.79.44,2.34.5,2.43-.58,4.67-.82,6.72-.83,1.28,0,2.49.09,3.62.24,1.85-2.3,3.99-4.5,6.43-6.64,10.37-8.98,25.43-14.19,39.35-13.56,4.39.15,8.76.81,13.12,1.9,4.89,1.25,8.42,4.36,8.79,7.96.35,3.56-2.8,6.99-8.26,8.87-2.82.98-5.5,1.84-8.09,2.68-3.36,1.08-6,1.96-8.09,2.74.71.06,1.44.11,2.17.18,6.19.54,11.07,3.45,11.79,7.21.72,3.78-3.23,7.51-9.57,9.2-4.03,1.11-8.3,1.94-12.89,2.51.49,12.29.98,26.7-13.73,38.05-2.61,2.03-5.57,3.82-8.89,5.32-3.05,1.47-7.59,3.36-12.55,3.54-.21,0-.42.01-.63.01-2.91.02-5.95-.59-8.93-2.24-3.1-1.69-5.28-4.07-6.22-6.49-.96,1.6-2.49,2.93-4.49,3.87-1.76.8-3.76,1.2-5.83,1.22-3.89.04-8.04-1.32-11.27-3.77-.73-.56-1.44-1.12-2.12-1.7,0,0,0,0-.01,0-1.6.8-3.37,1.24-5.21,1.31-.17,0-.34.01-.51.01-3.65.04-7.48-1.35-10.33-3.87-1.62-1.41-2.99-2.83-4.18-4.07,0,0,0,0,0-.01-4.03,1.45-8.05,2.23-11.9,2.29-6.95.13-13.27-2.17-17.78-6.4-.76,1.59-1.69,3.19-2.82,4.77-.04.06-.08.12-.12.17-3.76,5.02-9.72,8.57-16.18,9.09-.27.02-.56.03-.83.06-5.82.26-11.14-2.05-14.77-6.05-2.62,1.25-5.42,1.99-8.25,2.13-.37.02-.73.03-1.1.02-.66,0-1.3-.04-1.94-.12-1.55,2.69-3.8,5.06-6.56,6.78-2.54,1.59-5.38,2.51-8.22,2.69-3.19.21-6.37-.51-9.19-2.12-.04,0-.07-.03-.1-.05-6.56-3.92-12.79-8.06-19.2-12-.08-.04-.15-.1-.23-.14-6.24,10.55-15.27,20.85-26.66,30.46-.28.23-.56.46-.83.66-8.65,6.63-18.8,12.08-28.06,14.72-3.16.9-6.26,1.53-9.28,1.92-.79.1-1.57.19-2.35.26-16.73,1.41-30.64-4.63-45.74-15.98-3.79-2.89-5.12-7.9-2.84-12.67.24-.5.48-.99.71-1.49,2.27-4.76,7.82-8.32,13.83-9.12,6.05-.81,13.7-1.58,20.18-2.2,11.95-1.28,23.42-2.64,31.1-7.51,5.94-4.95,11.65-10.14,16.77-15.48-.94-.34-1.89-.66-2.85-.99-7.55-2.1-15.14-3.24-21.92-3.2-4.94.03-9.44.7-13.15,2.06-6.98,2.84-12.75,8.18-19.78,14.74-1.93,1.81-3.87,3.64-5.91,5.47-3.16,2.85-7.57,4.63-12.08,4.91-1.76.11-3.54-.01-5.26-.39-.61-.13-1.23-.26-1.85-.39-6.32-1.36-10.71-5.89-10.48-11.19.69-16.5,11.24-32.24,25.09-41.14,10.31-6.68,21.89-9.54,33.87-8.7,1.73.12,3.46.32,5.2.59,12.12,1.77,23.14,7.29,32.23,11.67,1.84.89,3.6,1.74,5.29,2.53,2.37,1.04,4.76,2.13,7.21,3.27,2.08-4.12,3.77-8.49,4.99-13.27.02-.09.04-.17.07-.25.58-2.03,1.05-4.13,1.49-6.43,1.39-7.09,2.19-15.04,5.02-23.18,2.65-8.38,8.77-13.95,16.7-13.3M175.18,96.46c-.83-4.15-1.61-8.76-2.37-13.49-1.11,3.46-2.18,6.95-3.37,10.46,1.96,1.02,3.87,2.05,5.74,3.03M263.92,97.75c.7-.15,2-.54,4.02-1.6.56-.3,1.33-.71,2.31-1.12-2.21-.62-3.49-.89-4.68-.89-.9.55-1.95,2-1.83,3.2.03.14.1.29.18.42M168.36,17.34s0,0,0,0c-9.25-.73-16.26,5.96-19.09,15.67-2.83,8.78-3.54,17.07-4.87,24.47,0,.05-.02.1-.03.15-.43,2.46-.85,4.44-1.38,6.39-.05.16-.09.31-.12.48-.87,3.59-2.02,7.01-3.43,10.27-1.39-.64-2.67-1.23-3.89-1.78-1.67-.8-3.41-1.65-5.21-2.54-9.49-4.66-20.96-10.53-33.87-12.53-1.85-.3-3.72-.53-5.56-.67-13.04-1-25.3,2.07-36.57,9.35-15.02,9.61-26.91,26.83-27.48,44.97-.24,7.54,5.95,13.88,14.52,15.68.62.13,1.24.26,1.85.39.11.02.23.05.34.07-1.82,1.7-3.29,3.66-4.29,5.8-.23.5-.46.99-.7,1.49-3.17,6.81-1.04,13.89,4.26,17.97,15.71,11.87,29.74,18.71,47.28,17.35.81-.07,1.64-.15,2.46-.26,3.24-.41,6.53-1.09,9.79-2.03,9.92-2.86,20.91-8.88,30.29-16.18.42-.32.79-.63,1.12-.91,10.79-9.23,19.5-18.91,25.95-28.7,5.24,3.37,10.74,7.1,16.47,10.64.08.05.18.12.3.17,3.16,1.84,6.84,2.71,10.6,2.45,3.48-.24,6.99-1.45,10.06-3.42,2.65-1.7,4.96-3.91,6.77-6.4.04,0,.08,0,.12,0,.42,0,.85,0,1.27-.03,2.59-.14,5.17-.72,7.66-1.71,4.08,3.89,9.68,6.03,15.72,5.74,0,0,0,0,0,0,.04,0,.08,0,.11,0,.12-.01.24-.02.36-.03.16-.01.33-.02.49-.04,7.52-.64,14.46-4.97,18.71-10.82.01-.02.03-.04.04-.06,0-.01.02-.02.02-.04.03-.05.06-.09.1-.14.45-.65.87-1.3,1.27-1.96,4.74,3.3,10.69,5.06,17.2,4.92,3.57-.07,7.21-.7,10.81-1.83.79.81,1.68,1.67,2.67,2.54,3.58,3.23,8.52,5.18,13.32,5.1.21,0,.43-.01.64-.02,1.49-.07,2.91-.33,4.25-.76.03.02.05.04.08.06.01.01.03.02.04.03,4.04,3.13,9.33,4.99,14.34,4.91,2.68-.03,5.13-.59,7.29-1.61.72-.35,1.39-.75,2.01-1.18,1.34,1.29,2.92,2.47,4.71,3.46,3.57,2.01,7.49,3.02,11.59,2.97.26,0,.51,0,.76-.02,5.69-.26,10.71-2.44,14.08-4.12,3.55-1.68,6.77-3.68,9.61-5.93,14.46-11.32,15.86-24.74,15.23-38.15,3.38-.54,6.61-1.23,9.77-2.08,8.68-2.27,13.97-7.36,12.85-12.61-.63-3.04-3.21-5.66-6.86-7.45,1.88-.6,3.84-1.24,5.86-1.93,7.48-2.53,11.69-7.24,10.98-12.07-.75-4.87-5.53-9.08-11.85-10.88-4.51-1.24-9.07-2.05-13.8-2.3-15.18-1-31.62,5.06-43.02,15.07-1.9,1.68-3.6,3.36-5.14,5.07-.4-.02-.79-.03-1.19-.03-2.23,0-4.53.24-6.85.73-.42-.1-.92-.23-1.22-.31-.13-.03-.25-.06-.38-.1-.08-.02-.16-.04-.24-.06.46-.75.93-1.49,1.39-2.25,2.49-3.97,3.44-8.42,2.63-12.6-.06-.28-.13-.61-.24-.98-1.58-5.55-6.14-9.65-12.54-10.07-.34-.02-.69-.03-1.04-.04-9.78-.07-19.43,7.87-24.74,13.27-4.07-.96-8.65-1.57-13.58-1.79-1.77-.08-3.57-.11-5.36-.08-2.6.03-5.02.07-7.26.1-.87.01-1.73.03-2.59.04-5.85.1-10.39.17-14.19-.03-11.28-.8-15.9-3.06-35.37-17.08-2.36-1.72-5-2.77-7.54-2.96-4.39-.34-8.28,1.93-10.51,5.86-1.27,2.24-1.95,4.86-2.12,7.55-.23-.41-.47-.82-.72-1.23-.02-.03-.03-.05-.05-.08-.23-.38-.5-.8-.81-1.26-6.39-9.44-15.28-16.2-23.74-17-.19-.02-.39-.04-.59-.05t0,0s0,0,0,0ZM201.21,58.01c-.12-.92-.27-1.85-.43-2.8,0-.03,0-.06-.01-.08.84,1.09,1.7,2.17,2.62,3.27,5.77,6.89,11.95,11.81,18.58,15.24-1.4-.41-2.83-.64-4.25-.69-2.45-.09-4.81.37-6.97,1.34-.62.28-1.22.6-1.78.95-.13-.6-.25-1.2-.38-1.79-.08-.37-.16-.73-.24-1.1-.32-1.48-.65-2.93-.97-4.28-.86-3.64-3.04-7.24-6.16-10.05t0,0ZM89.96,102.16c3.06-1.13,6.86-1.73,11.22-1.8,5.43-.09,11.48.66,17.5,2.07-3.67,3.57-7.6,7.07-11.66,10.45-6.59,3.96-17.29,5.09-28.44,6.2-3.52.31-7.38.66-11.16,1.03,1.56-1.44,3.08-2.87,4.55-4.25.02-.02.05-.04.07-.07,6.54-6.12,11.93-11.12,17.93-13.63t0,0Z"/>
        </g>
        <g>
          <path class="st1" d="M242.75,75.89c-.07-3.16-5.09-3.09-5.09.07.13,9.11.76,16.74-1.51,24.79-.2.6-.72,2.21-.97,2.79-1.36,4.05-6.19,8.11-9.18,2.92-1.94-2.93-2.25-6.11-2.7-9.7-.29-2.68-.39-5.36-.65-8.34-.1-1.3-.93-2.55-2.3-3.26-3.02-1.52-6.11.26-6.65,3.18-.88,4.1-1.15,8.56-3.38,12.38-.85,1.39-1.84,2.51-2.84,2.9-.73-.16-1.53-1.14-2.41-2.41-2.19-4.21-4.06-8.95-5.56-14.23-1.35-4.69-2.77-11.95-4.39-17.62-.29-1.11-1.4-1.97-2.51-1.92-1.13.06-1.82,1.05-1.54,2.21.74,3.15,1.23,6.19,1.58,9.16,1.31,9.14.59,18.51,4.04,26.75,4.21,9.28,14.35,8.99,20.29,1.11.74,1.92,1.72,3.78,3.09,5.36,4.47,6.02,13.64,5.51,18.4-.54,7.98-10.78,3.89-23.7,4.28-35.6Z"/>
          <path class="st1" d="M189.44,69.82c-.37-4.72-.7-9.37-1.95-15.06-.74-3.08-1.93-7.15-4.55-11.1-8-10.75-16.2-6.17-18.8,1.24-3.6,8.73-4.22,18.12-6.91,26.17-2.17,7.5-5.64,14.54-10.57,21.41-5.17-2.43-10.63-4.91-16.44-7.36-9.25-4.04-20.96-10.53-32.82-11.97-25.67-3.88-46.32,16.06-48.12,38,.62.14,1.23.29,1.84.43,10.17-9.06,18.63-18.38,30.86-23.02,14.8-5.19,32.42-2.24,45.67,1.7,5.67,1.99,10.91,4.15,15.8,6.4-1.94,2.41-4.07,4.78-6.35,7.14-6.47,6.87-13.66,13.44-20.99,19.59-11.22,7.79-25.18,9.9-39.31,11.68-5.42.63-13.19,1.55-18.97,2.45-.26.49-.51.98-.77,1.47,14.23,10.56,29.84,16.2,49.06,11.01,7.11-1.95,14.88-5.85,21.56-10.77,11.51-9.4,19.44-19.29,24.31-28.81,1.31-2.65,2.47-5.23,3.5-7.76,10.83,5.79,20.01,11.8,29.7,17.17,4.02,2.2,9.63,1.45,10.63-4.66.6-5.79-1.87-10.87-2.75-15.84-2.28-9.25-2.84-18.73-3.66-29.5ZM176.94,108.1c-6.12-3.37-12.52-6.83-19.51-10.36,4.42-11.94,6.5-23.15,11.08-34.74,1.6-4.24,3.47-8.98,6.4-12.45.4-.4.75-.74,1.08-.96,2.09,3.79,2.85,8.47,3.48,12.18.69,4.46,1.45,10.1,1.93,13.99,1.12,8.67,2.68,18.54,4.74,25.31.91,4.41,3.02,8.6,3.27,13.27-4.4-1.42-8.3-4.13-12.48-6.24Z"/>
          <path class="st1" d="M290.36,108.04c-2.22-3.5-6.42-7.67-11.86-7.28-2.18.12-3.67.83-5.21,1.68-2.98,1.6-6.5,3.04-9.81,3.02-4.71.08-8.24-3.76-8.74-7.31-.63-4.74,3.26-10.01,8.78-11.39,4.62-.53,8.05.64,13.1,2.11,1.56.44,3.41-.06,4.35-1.25,1.05-1.33.58-3.03-1.07-3.79-4.66-2.23-12.26-5.39-18.39-2.9-10.61,3.61-13.9,14.96-8.61,22.53,5.58,8.27,16.58,7.09,25.06,3.05,1.54-.52,2.43-.25,3.78.69,2.55,1.86,4.82,4.74,7.64,7.07,1.77,1.51,4.6.19,3.63-1.66-.8-1.53-1.64-3.06-2.66-4.58Z"/>
          <path class="st1" d="M392.16,52.74c.72-.25.72-.94,0-1.09-12.63-2.73-28.41-.25-38.35,8.12-5.12,4.38-8.03,8.93-9.59,13.42-5.03-1.38-8.96-4.38-15.12-2.72-4.38.94-7.66-.35-11.26-.97-3.86-.87-7.45-2.11-10.95-3.42,2.32-4.31,4.97-8.39,8.08-13.75.47-.78.7-1.61.51-2.4-2-5.82-13.7,4.28-16.13,7.33-1.26,1.43-2.41,3.03-3.43,4.72-2.47-.83-4.99-1.55-7.64-2.04-5.08-1.15-11.11-1.52-16.56-1.36-32.34.15-31.35,3.93-62.27-15.81-.64-.43-1.16.44-.73,1.1,1.24,1.92,2.52,3.7,3.8,5.41,9.48,12.32,20.84,17.79,33.08,18.28,8.54.44,16.61-.54,25.29-1.08,4.69-.39,9.88-.46,14.58.23,2.55.31,4.98.83,7.36,1.47-5.18,12.53-3.65,25.85.46,34.09,2.69,5.51,7.55,11.07,14.05,15.83,1.02.74,2.48.99,3.58.54,1.35-.57,1.65-1.94.66-3.06-4.35-5.08-7.32-9.98-8.8-14.98-1.52-5.09-1.61-9.92-1.2-15.18.19-4.45.86-8.9,2.64-13.64,0,0,0,0,.01,0,5.59,2,12.18,3.26,18.71,4.62.89.29,1.72.73,2.58,1.15,3.26,2.06,7.81,1.89,12.51.98,1.67-.38,3.34-.64,5.02-.81-1.11,6.18-.2,12.21-.13,17.92.35,3.38.38,6.8-.67,10.1-1.94,5.68-5.59,9.75-8.5,15.85-.55,2.27,7.64-.8,8.84-1.3,2.44-1,4.68-2.24,6.61-3.7,13.98-10.57,9.23-25.64,10.44-39.12,2,0,4.05-.03,6.15-.17,4.83-.35,9.85-1.03,14.72-2.46.86-.21.69-.96-.15-1-7.01-.66-13.75-.21-20.24.05.04-.18.06-.36.1-.53,1.94-12.23,16.26-15.05,31.95-20.64Z"/>
          <path class="st1" d="M326.35,108.25c-3.28-7.6-2.44-14.71-3.51-22.09-.18-1.03-1.08-1.94-2.56-2.38-2.34-.7-5.22.06-6.43,1.69-2.87,4-3.36,8.19-2.67,12.39.72,4.26,2.71,8.66,6.76,12.67,1.14,1.11,3.11,1.79,5.02,1.61,2.57-.25,4.1-1.94,3.44-3.74,0,0-.05-.14-.05-.14Z"/>
        </g>
      </g>
    </g>
  </g>
  <g id="Layer_2" class="st2">
    <g>
      <g>
        <path class="st1" d="M168.51,186.79c-16.98,1.23-30.2-5.7-45.01-17.36-4.39-3.53-6.02-9.58-3.29-15.39.23-.5.47-1,.71-1.5,1.65-3.5,4.74-6.45,8.54-8.41-.03,0-.06,0-.09,0-2.05.14-4.06,0-6-.42-.6-.13-1.2-.25-1.8-.38-7.37-1.57-12.59-6.98-12.34-13.38.64-17.33,11.89-33.86,26.39-43.16,10.85-7.01,22.74-9.99,35.32-9.12,1.79.12,3.6.33,5.4.61,12.5,1.83,23.71,7.45,32.94,11.91,1.82.88,3.57,1.73,5.24,2.51,1.66.73,3.45,1.54,5.51,2.48,1.77-3.69,3.2-7.58,4.25-11.7.03-.14.06-.27.11-.41.53-1.89.98-3.87,1.43-6.32.01-.05.02-.11.03-.16,1.36-7.17,2.11-15.21,4.89-23.61,2.69-8.97,9.25-15.12,17.82-14.44.18.01.36.03.55.05,7.73.74,15.83,6.8,21.72,15.36.25.35.48.72.71,1.09,4.38,7.19,5.9,13.38,6.76,17.77.02.1.04.19.05.29.22,1.28.41,2.51.56,3.74,3.09,2.46,5.26,5.81,6.07,9.23.32,1.32.64,2.75.96,4.21.08.36.16.72.23,1.07.3,1.38.61,2.93.93,4.44,1.03-.91,2.2-1.67,3.48-2.24,1.97-.87,4.1-1.28,6.31-1.22,2.44.07,4.92.75,7.14,1.91.81.43,1.56.92,2.26,1.45-.03-.7-.07-1.41-.1-2.12-.01-.56,0-1.11.06-1.65-8.21-3.26-15.69-8.63-22.54-16.86-1.62-1.97-3.06-3.84-4.54-5.91-4.03-5.61-5.13-13.69-1.78-19.52,1.98-3.39,5.39-5.32,9.21-5.04,2.22.16,4.52,1.05,6.58,2.54,19.5,13.82,24.11,15.98,35.61,16.75,3.8.18,8.31.1,14.11-.02.87-.02,1.73-.03,2.6-.05,2.21-.04,4.59-.09,7.17-.13,1.73-.03,3.48-.02,5.21.05,5.22.2,10.02.85,14.23,1.87,4.86-4.98,14.44-13.16,24.02-13.17.31,0,.62,0,.93.02,5.75.32,9.85,3.87,11.27,8.77.07.21.13.49.19.76.72,3.63-.12,7.51-2.35,11.03-.83,1.33-1.65,2.65-2.5,3.98.76.16,1.46.33,2.1.49.12.03.24.06.36.09.51.13,1.26.31,1.77.41,2.33-.52,4.64-.78,6.87-.79.81,0,1.62.03,2.42.1,1.7-1.97,3.62-3.87,5.8-5.76,10.87-9.34,26.54-15.02,41.32-14.23,4.62.19,9.12.91,13.58,2.04,5.69,1.49,10.01,5.09,10.7,9.28.66,4.16-2.98,8.23-9.49,10.42-2.92.99-5.7,1.88-8.29,2.7-.68.22-1.32.42-1.91.61,5.18,1.36,9.04,4.24,9.81,7.76,1.01,4.52-3.61,8.93-11.27,10.91-3.65.98-7.44,1.74-11.47,2.3.81,13.45.03,27.04-14.17,38.33-2.7,2.18-5.78,4.13-9.19,5.76-3.13,1.6-7.87,3.71-13.22,3.96-.23.01-.47.02-.7.02-3.67.05-7.16-.84-10.38-2.63-2.31-1.27-4.26-2.89-5.69-4.68-.88.85-1.93,1.59-3.13,2.19-1.95.94-4.16,1.45-6.59,1.48-4.53.07-9.34-1.6-13.05-4.43-.37-.29-.75-.59-1.14-.89-1.47.61-3.08.97-4.79,1.05-.19.01-.38.02-.58.02-4.31.07-8.78-1.67-12.09-4.6-1.34-1.17-2.53-2.35-3.54-3.39-3.81,1.31-7.67,2.05-11.46,2.12-6.84.15-13.06-1.92-17.8-5.71-.6,1.14-1.28,2.27-2.03,3.37-.04.06-.08.12-.12.18-4,5.61-10.54,9.72-17.63,10.32-.28.02-.57.04-.85.06-6.06.29-11.61-1.99-15.51-6.06-2.6,1.15-5.32,1.82-8.05,1.97-.4.02-.8.03-1.2.03-.34,0-.68-.01-1.02-.03-1.74,2.66-4.08,5.03-6.82,6.79-2.83,1.82-6.07,2.94-9.28,3.16-3.53.24-6.98-.6-9.94-2.36-.12-.06-.2-.12-.25-.15-6.17-3.89-12.11-8.03-17.7-11.66-6.62,10.39-15.77,20.68-27.15,30.41-.39.32-.72.6-1.04.85-9.18,7.15-19.91,13.04-29.52,15.8-3.17.91-6.37,1.56-9.49,1.95-.8.1-1.59.18-2.37.24ZM149.24,132.75c-1.9,1.79-3.89,3.67-5.95,5.53-1.38,1.25-2.96,2.35-4.67,3.24,5.78-.74,12.75-1.44,18.71-2.02,11.44-1.23,22.48-2.51,29.7-7,5.14-4.27,10.08-8.7,14.58-13.2-.03-.01-.06-.02-.09-.03-7.14-1.95-14.5-3.01-21.05-2.9-4.69.08-8.84.74-12.22,2.01-6.42,2.67-12.05,7.86-18.88,14.25-.63-.42-1.26-.84-1.9-1.27.6.46,1.19.92,1.77,1.38ZM251.94,111.03c-.17-1.01-.33-2.04-.5-3.08-.26.76-.53,1.55-.82,2.38.44.23.88.47,1.32.7Z"/>
        <path class="st1" d="M249.35,41.49c.17.01.33.03.5.05,7.02.68,14.36,6.09,19.76,13.84.21.3.41.61.61.93,4.04,6.54,5.53,12.37,6.37,16.53.02.09.03.17.05.26.31,1.68.53,3.24.71,4.73,2.99,2.05,5.25,5.13,6.06,8.47.4,1.64.81,3.45,1.21,5.27.56,2.58,1.11,5.28,1.64,7.62,1.26-1.75,2.98-3.17,5.03-4.08,1.79-.79,3.72-1.15,5.68-1.1,2.18.06,4.39.64,6.42,1.69,1.89,1,3.45,2.32,4.6,3.84-.08-1.94-.16-3.93-.26-5.97-.02-.92.07-1.83.28-2.69-8.36-3.11-16.16-8.5-23.22-17.08-1.73-2.12-3.12-3.98-4.43-5.84-3.36-4.73-4.19-11.5-1.36-16.3,1.77-2.95,4.71-4.48,7.92-4.24,1.87.13,3.82.85,5.65,2.14,19.79,13.81,24.48,15.83,36.02,16.57,3.79.17,8.24.08,14.06-.05,2.89-.06,6.08-.13,9.67-.19,1.49-.03,3.21-.03,5.08.04,4.39.16,9.62.68,14.58,1.93.1.03.22.04.32.06,3.91-4.13,13.56-13.05,23.1-13.14.28,0,.56,0,.83.02,5.09.25,8.74,3.26,10.02,7.58.07.21.12.43.17.64.64,3.09-.08,6.43-2.02,9.51-1.29,2.1-2.47,3.96-3.59,5.73.49.14,1,.28,1.48.41,1.05.21,1.99.43,2.84.63.78.19,1.81.43,2.36.49,2.45-.58,4.7-.82,6.77-.83,1.29,0,2.51.08,3.66.24,1.85-2.28,4-4.46,6.45-6.58,10.42-8.91,25.51-14.09,39.48-13.47,4.42.15,8.82.78,13.24,1.85,4.95,1.23,8.62,4.28,9.11,7.85.47,3.53-2.64,6.94-8.14,8.81-2.84.97-5.55,1.84-8.15,2.67-3.39,1.08-6.05,1.96-8.16,2.73.72.06,1.46.11,2.2.17,6.29.54,11.32,3.43,12.11,7.19.79,3.78-3.18,7.52-9.6,9.2-4.08,1.1-8.41,1.93-13.06,2.5.69,12.32,1.18,26.79-13.41,38.3-2.58,2.06-5.51,3.88-8.81,5.43-3.02,1.51-7.52,3.46-12.49,3.67-.21,0-.42.01-.63.02-2.91.03-5.99-.58-9.03-2.26-3.16-1.73-5.43-4.16-6.44-6.64-.93,1.64-2.43,3.01-4.42,3.98-1.75.83-3.75,1.25-5.85,1.27-3.92.05-8.16-1.33-11.49-3.85-.75-.58-1.49-1.15-2.19-1.74,0,0,0,0-.01,0-1.59.83-3.37,1.28-5.24,1.36-.17,0-.34.01-.51.02-3.69.05-7.6-1.38-10.55-3.97-1.68-1.45-3.1-2.9-4.32-4.17,0,0,0,0,0-.01-4.04,1.49-8.1,2.3-11.99,2.36-7.04.14-13.48-2.22-18.09-6.54-.74,1.62-1.67,3.26-2.8,4.89-.04.06-.08.12-.12.18-3.75,5.17-9.77,8.86-16.33,9.4-.28.02-.57.03-.84.06-5.91.27-11.32-2.12-14.96-6.24-2.65,1.29-5.49,2.06-8.34,2.2-.37.02-.74.03-1.11.03-.66,0-1.31-.04-1.95-.12-1.59,2.77-3.88,5.22-6.7,7.01-2.59,1.64-5.47,2.6-8.34,2.79-3.23.22-6.43-.53-9.25-2.2-.04,0-.07-.03-.1-.06-6.54-4.05-12.69-8.29-19-12.29-.08-.04-.15-.1-.23-.14-6.5,10.76-15.82,21.38-27.5,31.29-.29.24-.57.48-.85.69-8.84,6.83-19.14,12.42-28.41,15.07-3.16.9-6.25,1.53-9.24,1.9-.78.1-1.55.18-2.32.24-16.55,1.27-29.73-5.17-44.31-16.62-3.66-2.92-4.93-7.95-2.64-12.74.24-.5.48-1,.72-1.49,2.28-4.78,7.8-8.37,13.75-9.19,5.99-.83,13.59-1.63,20.02-2.28,11.86-1.33,23.28-2.73,31.04-7.67,6.03-5.01,11.83-10.27,17.05-15.63-.93-.33-1.88-.66-2.82-.98-7.48-2.07-15.04-3.17-21.79-3.09-4.93.06-9.43.74-13.15,2.13-7,2.88-12.83,8.26-19.9,14.86-1.94,1.82-3.9,3.67-5.94,5.52-3.17,2.88-7.56,4.68-12.03,4.97-1.74.11-3.5,0-5.21-.38-.61-.13-1.21-.26-1.82-.39-6.25-1.34-10.59-5.86-10.35-11.15.71-16.51,11.3-32.3,25.22-41.24,10.36-6.71,21.97-9.59,33.96-8.8,1.73.11,3.46.3,5.2.57,12.12,1.72,23.1,7.17,32.13,11.49,1.82.88,3.58,1.72,5.25,2.49,2.36,1.03,4.72,2.1,7.16,3.21,2.12-4.1,3.84-8.44,5.08-13.18.02-.09.04-.16.07-.25.59-2.01,1.06-4.1,1.5-6.38,1.4-7.03,2.19-14.92,4.98-23.03,2.61-8.35,8.71-13.93,16.64-13.3M254.2,114.16c-.75-4.15-1.47-8.73-2.17-13.43-1.14,3.44-2.26,6.91-3.5,10.42,1.94,1.01,3.82,2.03,5.67,3.01M343.03,115.23c.71-.15,2-.55,4.02-1.61.56-.3,1.33-.72,2.31-1.13-2.23-.62-3.52-.89-4.71-.89-.9.55-1.93,2-1.8,3.21.03.14.1.29.18.42M247.73,35.56s0,0,0,0c-9.25-.72-16.23,6-19.02,15.68-2.79,8.75-3.48,16.99-4.82,24.33,0,.05-.02.1-.03.15-.43,2.44-.86,4.41-1.39,6.34-.05.16-.09.31-.12.47-.88,3.57-2.05,6.96-3.49,10.2-1.38-.63-2.65-1.21-3.86-1.75-1.66-.78-3.39-1.63-5.18-2.5-9.44-4.59-20.88-10.39-33.79-12.35-1.85-.3-3.72-.52-5.56-.65-13.05-.95-25.34,2.14-36.66,9.44-15.1,9.65-27.03,26.93-27.58,45.07-.24,7.54,5.9,13.85,14.35,15.64.61.13,1.22.26,1.83.38.11.02.22.05.33.07-1.81,1.71-3.28,3.68-4.28,5.82-.23.5-.46,1-.7,1.49-3.16,6.83-1.1,13.92,4.01,18.04,15.15,11.98,28.32,19.31,45.66,18.15.8-.06,1.62-.14,2.43-.23,3.2-.38,6.48-1.05,9.74-1.99,9.92-2.86,21.09-9.04,30.7-16.57.43-.33.81-.65,1.14-.94,11.08-9.54,20.07-19.54,26.76-29.57,5.16,3.44,10.6,7.28,16.32,10.96.08.06.18.12.3.18,3.15,1.91,6.86,2.82,10.67,2.55,3.52-.24,7.1-1.5,10.23-3.54,2.7-1.76,5.06-4.06,6.9-6.63.04,0,.08,0,.12,0,.42,0,.86-.01,1.29-.03,2.62-.14,5.24-.75,7.76-1.77,4.12,4.02,9.82,6.25,15.96,5.94,0,0,0,0,0,0,.04,0,.08,0,.12,0,.12-.01.24-.02.36-.03.17-.01.33-.02.5-.04,7.65-.67,14.67-5.18,18.9-11.22.01-.02.03-.04.04-.06.01-.02.03-.04.04-.07.03-.04.05-.08.08-.11.45-.66.87-1.34,1.26-2.01,4.84,3.38,10.92,5.2,17.51,5.05,3.62-.07,7.29-.73,10.92-1.9.82.83,1.74,1.72,2.76,2.62,3.71,3.33,8.77,5.33,13.62,5.23.22,0,.43-.01.65-.02,1.51-.08,2.94-.35,4.28-.8.03.02.06.04.08.07.01.01.03.02.04.03,4.17,3.22,9.58,5.12,14.63,5.02,2.71-.05,5.16-.63,7.3-1.69.71-.36,1.38-.77,1.99-1.22,1.38,1.32,3.01,2.53,4.84,3.54,3.65,2.05,7.61,3.07,11.72,2.99.26,0,.51-.01.76-.03,5.7-.3,10.66-2.56,13.98-4.29,3.52-1.73,6.7-3.78,9.5-6.07,14.31-11.49,15.79-24.95,14.97-38.42,3.43-.54,6.7-1.22,9.9-2.08,8.8-2.26,14.14-7.37,12.9-12.62-.69-3.04-3.38-5.65-7.12-7.44,1.9-.6,3.88-1.24,5.91-1.93,7.55-2.52,11.7-7.22,10.81-12.01-.93-4.82-5.92-8.95-12.3-10.72-4.56-1.21-9.15-2.01-13.89-2.25-15.2-.98-31.66,5.04-43.13,14.96-1.91,1.67-3.61,3.33-5.16,5.03-.4-.02-.8-.02-1.2-.02-2.24,0-4.56.24-6.9.73-.43-.1-.95-.23-1.23-.3-.13-.03-.26-.06-.38-.09-.08-.02-.16-.04-.24-.06.47-.74.93-1.48,1.39-2.23,2.5-3.93,3.46-8.33,2.66-12.47-.06-.27-.12-.6-.24-.97-1.57-5.49-6.09-9.56-12.49-9.96-.34-.02-.69-.03-1.04-.03-9.79-.06-19.54,7.84-24.9,13.2-4.07-.94-8.64-1.54-13.58-1.75-1.77-.08-3.58-.1-5.36-.07-2.61.03-5.02.07-7.26.11-.87.01-1.73.03-2.59.04-5.85.11-10.39.19-14.18,0-11.26-.78-15.83-2.99-35.21-16.93-2.35-1.71-4.99-2.76-7.53-2.94-4.39-.33-8.29,1.94-10.52,5.87-1.27,2.24-1.95,4.84-2.13,7.52-.23-.41-.47-.81-.72-1.23-.02-.03-.03-.05-.05-.08-.23-.37-.49-.8-.81-1.25-6.36-9.39-15.25-16.14-23.71-16.94-.19-.02-.39-.04-.59-.05,0,0,0,0,0,0,0,0,0,0,0,0ZM280.46,75.96c-.12-.91-.26-1.83-.42-2.77,0-.03,0-.06-.01-.08.83,1.08,1.69,2.14,2.59,3.22,5.71,6.8,11.83,11.64,18.42,15.01-1.39-.4-2.82-.63-4.23-.67-2.44-.08-4.79.37-6.95,1.34-.62.28-1.21.59-1.78.95-.12-.6-.25-1.19-.37-1.77-.08-.36-.15-.72-.23-1.08-.31-1.46-.63-2.9-.95-4.23-.84-3.59-2.98-7.14-6.08-9.92h0ZM169.15,120.27c3.07-1.15,6.87-1.76,11.21-1.86,5.41-.12,11.43.6,17.4,1.99-3.73,3.6-7.72,7.13-11.84,10.55-6.64,4.02-17.3,5.2-28.39,6.34-3.5.33-7.33.69-11.09,1.08,1.57-1.45,3.1-2.9,4.58-4.29.02-.02.05-.05.07-.07,6.6-6.17,12.04-11.2,18.05-13.75t0,0Z"/>
        <path class="st1" d="M321.75,92.23c-.06-3.16-5.09-3.09-5.1.07.09,9.11.71,16.71-1.55,24.77-.19.6-.71,2.21-.96,2.8-1.34,4.06-6.18,8.15-9.19,2.93-1.95-2.94-2.26-6.13-2.71-9.71-.29-2.68-.39-5.35-.64-8.32-.1-1.29-.92-2.54-2.29-3.25-3.02-1.51-6.1.27-6.65,3.18-.88,4.09-1.16,8.54-3.4,12.37-.85,1.39-1.85,2.51-2.84,2.91-.73-.16-1.53-1.15-2.4-2.41-2.18-4.21-4.03-8.94-5.52-14.2-1.35-4.68-2.76-11.93-4.39-17.61-.3-1.11-1.4-1.97-2.51-1.93-1.13.06-1.82,1.05-1.53,2.22.75,3.16,1.24,6.19,1.59,9.16,1.32,9.12.57,18.45,3.98,26.71,4.16,9.32,14.34,9.03,20.29,1.11.74,1.93,1.72,3.79,3.09,5.39,4.49,6.08,13.72,5.56,18.46-.54,7.93-10.87,3.8-23.72,4.28-35.62Z"/>
        <path class="st1" d="M268.43,86.19c-.38-4.73-.73-9.4-2-15.14-.76-3.11-1.96-7.22-4.61-11.22-8.09-10.9-16.31-6.21-18.84,1.3-3.53,8.84-4.05,18.28-6.69,26.33-2.12,7.51-5.57,14.53-10.5,21.39-5.14-2.42-10.59-4.89-16.38-7.33-9.23-4.03-20.93-10.5-32.77-11.93-25.61-3.86-46.21,16.08-48.09,38.03.61.14,1.22.28,1.83.43,10.18-9.08,18.66-18.4,30.88-23.05,14.78-5.2,32.38-2.27,45.59,1.66,5.65,1.98,10.87,4.13,15.74,6.38-1.95,2.41-4.09,4.78-6.38,7.14-6.5,6.87-13.76,13.48-21.16,19.66-11.3,7.84-25.22,9.96-39.28,11.74-5.4.63-13.12,1.55-18.86,2.45-.26.49-.52.99-.78,1.48,14.01,10.6,29.25,16.41,48.48,11.21,7.11-1.95,14.93-5.9,21.69-10.88,11.66-9.52,19.73-19.51,24.7-29.05,1.33-2.66,2.52-5.24,3.56-7.77,10.75,5.78,19.85,11.8,29.51,17.23,4.01,2.22,9.64,1.46,10.67-4.7.63-5.84-1.82-10.93-2.68-15.89-2.24-9.24-2.79-18.67-3.64-29.46ZM255.89,124.45c-6.08-3.38-12.43-6.83-19.38-10.35,4.48-11.93,6.5-23.09,10.99-34.73,1.57-4.26,3.4-9.04,6.31-12.55.39-.41.74-.75,1.07-.97,2.12,3.82,2.9,8.55,3.55,12.27.72,4.48,1.5,10.13,1.99,14.02,1.14,8.67,2.68,18.5,4.7,25.26.89,4.41,2.96,8.61,3.19,13.32-4.4-1.43-8.27-4.16-12.43-6.27Z"/>
        <path class="st1" d="M369.65,124.39c-2.28-3.52-6.55-7.7-12.02-7.31-2.19.12-3.69.83-5.23,1.68-2.98,1.6-6.52,3.05-9.84,3.03-4.74.07-8.31-3.78-8.83-7.33-.65-4.74,3.25-10,8.8-11.38,4.64-.53,8.09.64,13.17,2.11,1.57.44,3.43-.06,4.38-1.25,1.06-1.33.59-3.03-1.06-3.79-4.69-2.23-12.3-5.38-18.47-2.89-10.68,3.62-13.98,14.93-8.62,22.52,5.66,8.31,16.73,7.13,25.22,3.06,1.54-.52,2.44-.25,3.81.69,2.59,1.87,4.92,4.77,7.79,7.12,1.81,1.52,4.64.2,3.63-1.67-.82-1.55-1.69-3.08-2.74-4.61Z"/>
        <path class="st1" d="M472.11,69.03c.72-.24.7-.93-.01-1.08-12.67-2.74-28.42-.31-38.48,8.08-5.16,4.38-8.11,8.95-9.7,13.44-5.08-1.38-9.03-4.38-15.25-2.72-4.43.94-7.72-.35-11.35-.97-3.89-.87-7.49-2.11-11.01-3.43,2.38-4.33,5.1-8.43,8.3-13.82.49-.78.73-1.62.54-2.42-1.92-5.87-13.85,4.3-16.33,7.38-1.28,1.44-2.46,3.05-3.52,4.75-2.48-.83-5.01-1.56-7.66-2.05-5.1-1.15-11.17-1.53-16.65-1.36-32.56.15-31.5,4.02-62.55-15.94-.64-.44-1.16.45-.73,1.12,1.24,1.94,2.53,3.75,3.81,5.47,9.51,12.45,20.84,17.91,33.12,18.4,8.57.43,16.68-.55,25.42-1.1,4.72-.39,9.94-.47,14.67.22,2.56.31,5.01.84,7.4,1.47-5.37,12.58-3.82,25.85.4,34.12,2.76,5.53,7.73,11.13,14.36,15.93,1.04.74,2.52,1,3.61.54,1.35-.57,1.63-1.96.63-3.09-4.45-5.12-7.52-10.04-9.04-15.06-1.57-5.1-1.68-9.94-1.25-15.2.2-4.45.89-8.91,2.73-13.65,0,0,0,0,.01,0,5.62,2,12.25,3.25,18.84,4.62.9.29,1.73.73,2.6,1.15,3.29,2.06,7.88,1.89,12.64.97,1.69-.38,3.38-.64,5.07-.81-1.13,6.19-.19,12.23-.1,17.96.37,3.39.42,6.82-.63,10.13-1.92,5.71-5.58,9.79-8.44,15.94-.52,2.29,7.68-.81,8.9-1.31,2.44-1.01,4.69-2.26,6.64-3.72,14.05-10.62,9.25-25.75,10.42-39.25,2.03,0,4.1-.03,6.23-.17,4.89-.36,9.97-1.04,14.88-2.46.87-.22.69-.96-.16-1-7.1-.66-13.91-.21-20.47.05.04-.18.06-.36.1-.53,1.93-12.25,16.39-15.07,32.03-20.62Z"/>
        <path class="st1" d="M405.96,124.62c-3.39-7.64-2.57-14.76-3.65-22.15-.18-1.03-1.09-1.94-2.59-2.38-2.36-.7-5.28.07-6.49,1.69-2.9,4-3.39,8.19-2.67,12.4.76,4.27,2.8,8.69,6.94,12.72,1.17,1.12,3.15,1.8,5.09,1.62,2.59-.25,4.12-1.95,3.43-3.75,0,0-.05-.14-.05-.14Z"/>
      </g>
      <g>
        <g>
          <path class="st1" d="M161.51,179.79c-16.98,1.23-30.2-5.7-45.01-17.36-4.39-3.53-6.02-9.58-3.29-15.39.23-.5.47-1,.71-1.5,1.65-3.5,4.74-6.45,8.54-8.41-.03,0-.06,0-.09,0-2.05.14-4.06,0-6-.42-.6-.13-1.2-.25-1.8-.38-7.37-1.57-12.59-6.98-12.34-13.38.64-17.33,11.89-33.86,26.39-43.16,10.85-7.01,22.74-9.99,35.32-9.12,1.79.12,3.6.33,5.4.61,12.5,1.83,23.71,7.45,32.94,11.91,1.82.88,3.57,1.73,5.24,2.51,1.66.73,3.45,1.54,5.51,2.48,1.77-3.69,3.2-7.58,4.25-11.7.03-.14.06-.27.11-.41.53-1.89.98-3.87,1.43-6.32.01-.05.02-.11.03-.16,1.36-7.17,2.11-15.21,4.89-23.61,2.69-8.97,9.25-15.12,17.82-14.44.18.01.36.03.55.05,7.73.74,15.83,6.8,21.72,15.36.25.35.48.72.71,1.09,4.38,7.19,5.9,13.38,6.76,17.77.02.1.04.19.05.29.22,1.28.41,2.51.56,3.74,3.09,2.46,5.26,5.81,6.07,9.23.32,1.32.64,2.75.96,4.21.08.36.16.72.23,1.07.3,1.38.61,2.93.93,4.44,1.03-.91,2.2-1.67,3.48-2.24,1.97-.87,4.1-1.28,6.31-1.22,2.44.07,4.92.75,7.14,1.91.81.43,1.56.92,2.26,1.45-.03-.7-.07-1.41-.1-2.12-.01-.56,0-1.11.06-1.65-8.21-3.26-15.69-8.63-22.54-16.86-1.62-1.97-3.06-3.84-4.54-5.91-4.03-5.61-5.13-13.69-1.78-19.52,1.98-3.39,5.39-5.32,9.21-5.04,2.22.16,4.52,1.05,6.58,2.54,19.5,13.82,24.11,15.98,35.61,16.75,3.8.18,8.31.1,14.11-.02.87-.02,1.73-.03,2.6-.05,2.21-.04,4.59-.09,7.17-.13,1.73-.03,3.48-.02,5.21.05,5.22.2,10.02.85,14.23,1.87,4.86-4.98,14.44-13.16,24.02-13.17.31,0,.62,0,.93.02,5.75.32,9.85,3.87,11.27,8.77.07.21.13.49.19.76.72,3.63-.12,7.51-2.35,11.03-.83,1.33-1.65,2.65-2.5,3.98.76.16,1.46.33,2.1.49.12.03.24.06.36.09.51.13,1.26.31,1.77.41,2.33-.52,4.64-.78,6.87-.79.81,0,1.62.03,2.42.1,1.7-1.97,3.62-3.87,5.8-5.76,10.87-9.34,26.54-15.02,41.32-14.23,4.62.19,9.12.91,13.58,2.04,5.69,1.49,10.01,5.09,10.7,9.28.66,4.16-2.98,8.23-9.49,10.42-2.92.99-5.7,1.88-8.29,2.7-.68.22-1.32.42-1.91.61,5.18,1.36,9.04,4.24,9.81,7.76,1.01,4.52-3.61,8.93-11.27,10.91-3.65.98-7.44,1.74-11.47,2.3.81,13.45.03,27.04-14.17,38.33-2.7,2.18-5.78,4.13-9.19,5.76-3.13,1.6-7.87,3.71-13.22,3.96-.23.01-.47.02-.7.02-3.67.05-7.16-.84-10.38-2.63-2.31-1.27-4.26-2.89-5.69-4.68-.88.85-1.93,1.59-3.13,2.19-1.95.94-4.16,1.45-6.59,1.48-4.53.07-9.34-1.6-13.05-4.43-.37-.29-.75-.59-1.14-.89-1.47.61-3.08.97-4.79,1.05-.19.01-.38.02-.58.02-4.31.07-8.78-1.67-12.09-4.6-1.34-1.17-2.53-2.35-3.54-3.39-3.81,1.31-7.67,2.05-11.46,2.12-6.84.15-13.06-1.92-17.8-5.71-.6,1.14-1.28,2.27-2.03,3.37-.04.06-.08.12-.12.18-4,5.61-10.54,9.72-17.63,10.32-.28.02-.57.04-.85.06-6.06.29-11.61-1.99-15.51-6.06-2.6,1.15-5.32,1.82-8.05,1.97-.4.02-.8.03-1.2.03-.34,0-.68-.01-1.02-.03-1.74,2.66-4.08,5.03-6.82,6.79-2.83,1.82-6.07,2.94-9.28,3.16-3.53.24-6.98-.6-9.94-2.36-.12-.06-.2-.12-.25-.15-6.17-3.89-12.11-8.03-17.7-11.66-6.62,10.39-15.77,20.68-27.15,30.41-.39.32-.72.6-1.04.85-9.18,7.15-19.91,13.04-29.52,15.8-3.17.91-6.37,1.56-9.49,1.95-.8.1-1.59.18-2.37.24ZM142.24,125.75c-1.9,1.79-3.89,3.67-5.95,5.53-1.38,1.25-2.96,2.35-4.67,3.24,5.78-.74,12.75-1.44,18.71-2.02,11.44-1.23,22.48-2.51,29.7-7,5.14-4.27,10.08-8.7,14.58-13.2-.03-.01-.06-.02-.09-.03-7.14-1.95-14.5-3.01-21.05-2.9-4.69.08-8.84.74-12.22,2.01-6.42,2.67-12.05,7.86-18.88,14.25-.63-.42-1.26-.84-1.9-1.27.6.46,1.19.92,1.77,1.38ZM244.94,104.03c-.17-1.01-.33-2.04-.5-3.08-.26.76-.53,1.55-.82,2.38.44.23.88.47,1.32.7Z"/>
          <path class="st0" d="M242.35,34.49c.17.01.33.03.5.05,7.02.68,14.36,6.09,19.76,13.84.21.3.41.61.61.93,4.04,6.54,5.53,12.37,6.37,16.53.02.09.03.17.05.26.31,1.68.53,3.24.71,4.73,2.99,2.05,5.25,5.13,6.06,8.47.4,1.64.81,3.45,1.21,5.27.56,2.58,1.11,5.28,1.64,7.62,1.26-1.75,2.98-3.17,5.03-4.08,1.79-.79,3.72-1.15,5.68-1.1,2.18.06,4.39.64,6.42,1.69,1.89,1,3.45,2.32,4.6,3.84-.08-1.94-.16-3.93-.26-5.97-.02-.92.07-1.83.28-2.69-8.36-3.11-16.16-8.5-23.22-17.08-1.73-2.12-3.12-3.98-4.43-5.84-3.36-4.73-4.19-11.5-1.36-16.3,1.77-2.95,4.71-4.48,7.92-4.24,1.87.13,3.82.85,5.65,2.14,19.79,13.81,24.48,15.83,36.02,16.57,3.79.17,8.24.08,14.06-.05,2.89-.06,6.08-.13,9.67-.19,1.49-.03,3.21-.03,5.08.04,4.39.16,9.62.68,14.58,1.93.1.03.22.04.32.06,3.91-4.13,13.56-13.05,23.1-13.14.28,0,.56,0,.83.02,5.09.25,8.74,3.26,10.02,7.58.07.21.12.43.17.64.64,3.09-.08,6.43-2.02,9.51-1.29,2.1-2.47,3.96-3.59,5.73.49.14,1,.28,1.48.41,1.05.21,1.99.43,2.84.63.78.19,1.81.43,2.36.49,2.45-.58,4.7-.82,6.77-.83,1.29,0,2.51.08,3.66.24,1.85-2.28,4-4.46,6.45-6.58,10.42-8.91,25.51-14.09,39.48-13.47,4.42.15,8.82.78,13.24,1.85,4.95,1.23,8.62,4.28,9.11,7.85.47,3.53-2.64,6.94-8.14,8.81-2.84.97-5.55,1.84-8.15,2.67-3.39,1.08-6.05,1.96-8.16,2.73.72.06,1.46.11,2.2.17,6.29.54,11.32,3.43,12.11,7.19.79,3.78-3.18,7.52-9.6,9.2-4.08,1.1-8.41,1.93-13.06,2.5.69,12.32,1.18,26.79-13.41,38.3-2.58,2.06-5.51,3.88-8.81,5.43-3.02,1.51-7.52,3.46-12.49,3.67-.21,0-.42.01-.63.02-2.91.03-5.99-.58-9.03-2.26-3.16-1.73-5.43-4.16-6.44-6.64-.93,1.64-2.43,3.01-4.42,3.98-1.75.83-3.75,1.25-5.85,1.27-3.92.05-8.16-1.33-11.49-3.85-.75-.58-1.49-1.15-2.19-1.74,0,0,0,0-.01,0-1.59.83-3.37,1.28-5.24,1.36-.17,0-.34.01-.51.02-3.69.05-7.6-1.38-10.55-3.97-1.68-1.45-3.1-2.9-4.32-4.17,0,0,0,0,0-.01-4.04,1.49-8.1,2.3-11.99,2.36-7.04.14-13.48-2.22-18.09-6.54-.74,1.62-1.67,3.26-2.8,4.89-.04.06-.08.12-.12.18-3.75,5.17-9.77,8.86-16.33,9.4-.28.02-.57.03-.84.06-5.91.27-11.32-2.12-14.96-6.24-2.65,1.29-5.49,2.06-8.34,2.2-.37.02-.74.03-1.11.03-.66,0-1.31-.04-1.95-.12-1.59,2.77-3.88,5.22-6.7,7.01-2.59,1.64-5.47,2.6-8.34,2.79-3.23.22-6.43-.53-9.25-2.2-.04,0-.07-.03-.1-.06-6.54-4.05-12.69-8.29-19-12.29-.08-.04-.15-.1-.23-.14-6.5,10.76-15.82,21.38-27.5,31.29-.29.24-.57.48-.85.69-8.84,6.83-19.14,12.42-28.41,15.07-3.16.9-6.25,1.53-9.24,1.9-.78.1-1.55.18-2.32.24-16.55,1.27-29.73-5.17-44.31-16.62-3.66-2.92-4.93-7.95-2.64-12.74.24-.5.48-1,.72-1.49,2.28-4.78,7.8-8.37,13.75-9.19,5.99-.83,13.59-1.63,20.02-2.28,11.86-1.33,23.28-2.73,31.04-7.67,6.03-5.01,11.83-10.27,17.05-15.63-.93-.33-1.88-.66-2.82-.98-7.48-2.07-15.04-3.17-21.79-3.09-4.93.06-9.43.74-13.15,2.13-7,2.88-12.83,8.26-19.9,14.86-1.94,1.82-3.9,3.67-5.94,5.52-3.17,2.88-7.56,4.68-12.03,4.97-1.74.11-3.5,0-5.21-.38-.61-.13-1.21-.26-1.82-.39-6.25-1.34-10.59-5.86-10.35-11.15.71-16.51,11.3-32.3,25.22-41.24,10.36-6.71,21.97-9.59,33.96-8.8,1.73.11,3.46.3,5.2.57,12.12,1.72,23.1,7.17,32.13,11.49,1.82.88,3.58,1.72,5.25,2.49,2.36,1.03,4.72,2.1,7.16,3.21,2.12-4.1,3.84-8.44,5.08-13.18.02-.09.04-.16.07-.25.59-2.01,1.06-4.1,1.5-6.38,1.4-7.03,2.19-14.92,4.98-23.03,2.61-8.35,8.71-13.93,16.64-13.3M247.2,107.16c-.75-4.15-1.47-8.73-2.17-13.43-1.14,3.44-2.26,6.91-3.5,10.42,1.94,1.01,3.82,2.03,5.67,3.01M336.03,108.23c.71-.15,2-.55,4.02-1.61.56-.3,1.33-.72,2.31-1.13-2.23-.62-3.52-.89-4.71-.89-.9.55-1.93,2-1.8,3.21.03.14.1.29.18.42M240.73,28.56s0,0,0,0c-9.25-.72-16.23,6-19.02,15.68-2.79,8.75-3.48,16.99-4.82,24.33,0,.05-.02.1-.03.15-.43,2.44-.86,4.41-1.39,6.34-.05.16-.09.31-.12.47-.88,3.57-2.05,6.96-3.49,10.2-1.38-.63-2.65-1.21-3.86-1.75-1.66-.78-3.39-1.63-5.18-2.5-9.44-4.59-20.88-10.39-33.79-12.35-1.85-.3-3.72-.52-5.56-.65-13.05-.95-25.34,2.14-36.66,9.44-15.1,9.65-27.03,26.93-27.58,45.07-.24,7.54,5.9,13.85,14.35,15.64.61.13,1.22.26,1.83.38.11.02.22.05.33.07-1.81,1.71-3.28,3.68-4.28,5.82-.23.5-.46,1-.7,1.49-3.16,6.83-1.1,13.92,4.01,18.04,15.15,11.98,28.32,19.31,45.66,18.15.8-.06,1.62-.14,2.43-.23,3.2-.38,6.48-1.05,9.74-1.99,9.92-2.86,21.09-9.04,30.7-16.57.43-.33.81-.65,1.14-.94,11.08-9.54,20.07-19.54,26.76-29.57,5.16,3.44,10.6,7.28,16.32,10.96.08.06.18.12.3.18,3.15,1.91,6.86,2.82,10.67,2.55,3.52-.24,7.1-1.5,10.23-3.54,2.7-1.76,5.06-4.06,6.9-6.63.04,0,.08,0,.12,0,.42,0,.86-.01,1.29-.03,2.62-.14,5.24-.75,7.76-1.77,4.12,4.02,9.82,6.25,15.96,5.94,0,0,0,0,0,0,.04,0,.08,0,.12,0,.12-.01.24-.02.36-.03.17-.01.33-.02.5-.04,7.65-.67,14.67-5.18,18.9-11.22.01-.02.03-.04.04-.06.01-.02.03-.04.04-.07.03-.04.05-.08.08-.11.45-.66.87-1.34,1.26-2.01,4.84,3.38,10.92,5.2,17.51,5.05,3.62-.07,7.29-.73,10.92-1.9.82.83,1.74,1.72,2.76,2.62,3.71,3.33,8.77,5.33,13.62,5.23.22,0,.43-.01.65-.02,1.51-.08,2.94-.35,4.28-.8.03.02.06.04.08.07.01.01.03.02.04.03,4.17,3.22,9.58,5.12,14.63,5.02,2.71-.05,5.16-.63,7.3-1.69.71-.36,1.38-.77,1.99-1.22,1.38,1.32,3.01,2.53,4.84,3.54,3.65,2.05,7.61,3.07,11.72,2.99.26,0,.51-.01.76-.03,5.7-.3,10.66-2.56,13.98-4.29,3.52-1.73,6.7-3.78,9.5-6.07,14.31-11.49,15.79-24.95,14.97-38.42,3.43-.54,6.7-1.22,9.9-2.08,8.8-2.26,14.14-7.37,12.9-12.62-.69-3.04-3.38-5.65-7.12-7.44,1.9-.6,3.88-1.24,5.91-1.93,7.55-2.52,11.7-7.22,10.81-12.01-.93-4.82-5.92-8.95-12.3-10.72-4.56-1.21-9.15-2.01-13.89-2.25-15.2-.98-31.66,5.04-43.13,14.96-1.91,1.67-3.61,3.33-5.16,5.03-.4-.02-.8-.02-1.2-.02-2.24,0-4.56.24-6.9.73-.43-.1-.95-.23-1.23-.3-.13-.03-.26-.06-.38-.09-.08-.02-.16-.04-.24-.06.47-.74.93-1.48,1.39-2.23,2.5-3.93,3.46-8.33,2.66-12.47-.06-.27-.12-.6-.24-.97-1.57-5.49-6.09-9.56-12.49-9.96-.34-.02-.69-.03-1.04-.03-9.79-.06-19.54,7.84-24.9,13.2-4.07-.94-8.64-1.54-13.58-1.75-1.77-.08-3.58-.1-5.36-.07-2.61.03-5.02.07-7.26.11-.87.01-1.73.03-2.59.04-5.85.11-10.39.19-14.18,0-11.26-.78-15.83-2.99-35.21-16.93-2.35-1.71-4.99-2.76-7.53-2.94-4.39-.33-8.29,1.94-10.52,5.87-1.27,2.24-1.95,4.84-2.13,7.52-.23-.41-.47-.81-.72-1.23-.02-.03-.03-.05-.05-.08-.23-.37-.49-.8-.81-1.25-6.36-9.39-15.25-16.14-23.71-16.94-.19-.02-.39-.04-.59-.05,0,0,0,0,0,0,0,0,0,0,0,0ZM273.46,68.96c-.12-.91-.26-1.83-.42-2.77,0-.03,0-.06-.01-.08.83,1.08,1.69,2.14,2.59,3.22,5.71,6.8,11.83,11.64,18.42,15.01-1.39-.4-2.82-.63-4.23-.67-2.44-.08-4.79.37-6.95,1.34-.62.28-1.21.59-1.78.95-.12-.6-.25-1.19-.37-1.77-.08-.36-.15-.72-.23-1.08-.31-1.46-.63-2.9-.95-4.23-.84-3.59-2.98-7.14-6.08-9.92h0ZM162.15,113.27c3.07-1.15,6.87-1.76,11.21-1.86,5.41-.12,11.43.6,17.4,1.99-3.73,3.6-7.72,7.13-11.84,10.55-6.64,4.02-17.3,5.2-28.39,6.34-3.5.33-7.33.69-11.09,1.08,1.57-1.45,3.1-2.9,4.58-4.29.02-.02.05-.05.07-.07,6.6-6.17,12.04-11.2,18.05-13.75t0,0Z"/>
        </g>
        <g>
          <path class="st0" d="M314.75,85.23c-.06-3.16-5.09-3.09-5.1.07.09,9.11.71,16.71-1.55,24.77-.19.6-.71,2.21-.96,2.8-1.34,4.06-6.18,8.15-9.19,2.93-1.95-2.94-2.26-6.13-2.71-9.71-.29-2.68-.39-5.35-.64-8.32-.1-1.29-.92-2.54-2.29-3.25-3.02-1.51-6.1.27-6.65,3.18-.88,4.09-1.16,8.54-3.4,12.37-.85,1.39-1.85,2.51-2.84,2.91-.73-.16-1.53-1.15-2.4-2.41-2.18-4.21-4.03-8.94-5.52-14.2-1.35-4.68-2.76-11.93-4.39-17.61-.3-1.11-1.4-1.97-2.51-1.93-1.13.06-1.82,1.05-1.53,2.22.75,3.16,1.24,6.19,1.59,9.16,1.32,9.12.57,18.45,3.98,26.71,4.16,9.32,14.34,9.03,20.29,1.11.74,1.93,1.72,3.79,3.09,5.39,4.49,6.08,13.72,5.56,18.46-.54,7.93-10.87,3.8-23.72,4.28-35.62Z"/>
          <path class="st0" d="M261.43,79.19c-.38-4.73-.73-9.4-2-15.14-.76-3.11-1.96-7.22-4.61-11.22-8.09-10.9-16.31-6.21-18.84,1.3-3.53,8.84-4.05,18.28-6.69,26.33-2.12,7.51-5.57,14.53-10.5,21.39-5.14-2.42-10.59-4.89-16.38-7.33-9.23-4.03-20.93-10.5-32.77-11.93-25.61-3.86-46.21,16.08-48.09,38.03.61.14,1.22.28,1.83.43,10.18-9.08,18.66-18.4,30.88-23.05,14.78-5.2,32.38-2.27,45.59,1.66,5.65,1.98,10.87,4.13,15.74,6.38-1.95,2.41-4.09,4.78-6.38,7.14-6.5,6.87-13.76,13.48-21.16,19.66-11.3,7.84-25.22,9.96-39.28,11.74-5.4.63-13.12,1.55-18.86,2.45-.26.49-.52.99-.78,1.48,14.01,10.6,29.25,16.41,48.48,11.21,7.11-1.95,14.93-5.9,21.69-10.88,11.66-9.52,19.73-19.51,24.7-29.05,1.33-2.66,2.52-5.24,3.56-7.77,10.75,5.78,19.85,11.8,29.51,17.23,4.01,2.22,9.64,1.46,10.67-4.7.63-5.84-1.82-10.93-2.68-15.89-2.24-9.24-2.79-18.67-3.64-29.46ZM248.89,117.45c-6.08-3.38-12.43-6.83-19.38-10.35,4.48-11.93,6.5-23.09,10.99-34.73,1.57-4.26,3.4-9.04,6.31-12.55.39-.41.74-.75,1.07-.97,2.12,3.82,2.9,8.55,3.55,12.27.72,4.48,1.5,10.13,1.99,14.02,1.14,8.67,2.68,18.5,4.7,25.26.89,4.41,2.96,8.61,3.19,13.32-4.4-1.43-8.27-4.16-12.43-6.27Z"/>
          <path class="st0" d="M362.65,117.39c-2.28-3.52-6.55-7.7-12.02-7.31-2.19.12-3.69.83-5.23,1.68-2.98,1.6-6.52,3.05-9.84,3.03-4.74.07-8.31-3.78-8.83-7.33-.65-4.74,3.25-10,8.8-11.38,4.64-.53,8.09.64,13.17,2.11,1.57.44,3.43-.06,4.38-1.25,1.06-1.33.59-3.03-1.06-3.79-4.69-2.23-12.3-5.38-18.47-2.89-10.68,3.62-13.98,14.93-8.62,22.52,5.66,8.31,16.73,7.13,25.22,3.06,1.54-.52,2.44-.25,3.81.69,2.59,1.87,4.92,4.77,7.79,7.12,1.81,1.52,4.64.2,3.63-1.67-.82-1.55-1.69-3.08-2.74-4.61Z"/>
          <path class="st0" d="M465.11,62.03c.72-.24.7-.93-.01-1.08-12.67-2.74-28.42-.31-38.48,8.08-5.16,4.38-8.11,8.95-9.7,13.44-5.08-1.38-9.03-4.38-15.25-2.72-4.43.94-7.72-.35-11.35-.97-3.89-.87-7.49-2.11-11.01-3.43,2.38-4.33,5.1-8.43,8.3-13.82.49-.78.73-1.62.54-2.42-1.92-5.87-13.85,4.3-16.33,7.38-1.28,1.44-2.46,3.05-3.52,4.75-2.48-.83-5.01-1.56-7.66-2.05-5.1-1.15-11.17-1.53-16.65-1.36-32.56.15-31.5,4.02-62.55-15.94-.64-.44-1.16.45-.73,1.12,1.24,1.94,2.53,3.75,3.81,5.47,9.51,12.45,20.84,17.91,33.12,18.4,8.57.43,16.68-.55,25.42-1.1,4.72-.39,9.94-.47,14.67.22,2.56.31,5.01.84,7.4,1.47-5.37,12.58-3.82,25.85.4,34.12,2.76,5.53,7.73,11.13,14.36,15.93,1.04.74,2.52,1,3.61.54,1.35-.57,1.63-1.96.63-3.09-4.45-5.12-7.52-10.04-9.04-15.06-1.57-5.1-1.68-9.94-1.25-15.2.2-4.45.89-8.91,2.73-13.65,0,0,0,0,.01,0,5.62,2,12.25,3.25,18.84,4.62.9.29,1.73.73,2.6,1.15,3.29,2.06,7.88,1.89,12.64.97,1.69-.38,3.38-.64,5.07-.81-1.13,6.19-.19,12.23-.1,17.96.37,3.39.42,6.82-.63,10.13-1.92,5.71-5.58,9.79-8.44,15.94-.52,2.29,7.68-.81,8.9-1.31,2.44-1.01,4.69-2.26,6.64-3.72,14.05-10.62,9.25-25.75,10.42-39.25,2.03,0,4.1-.03,6.23-.17,4.89-.36,9.97-1.04,14.88-2.46.87-.22.69-.96-.16-1-7.1-.66-13.91-.21-20.47.05.04-.18.06-.36.1-.53,1.93-12.25,16.39-15.07,32.03-20.62Z"/>
          <path class="st0" d="M398.96,117.62c-3.39-7.64-2.57-14.76-3.65-22.15-.18-1.03-1.09-1.94-2.59-2.38-2.36-.7-5.28.07-6.49,1.69-2.9,4-3.39,8.19-2.67,12.4.76,4.27,2.8,8.69,6.94,12.72,1.17,1.12,3.15,1.8,5.09,1.62,2.59-.25,4.12-1.95,3.43-3.75,0,0-.05-.14-.05-.14Z"/>
        </g>
      </g>
    </g>
  </g>
</svg>