<?xml version="1.0" encoding="UTF-8"?>
<svg id="Layer_1" xmlns="http://www.w3.org/2000/svg" version="1.1" viewBox="0 0 600 238.77">
  <!-- Generator: Adobe Illustrator 29.5.1, SVG Export Plug-In . SVG Version: 2.1.0 Build 141)  -->
  <defs>
    <style>
      .st0 {
        fill: #673606;
      }
    </style>
  </defs>
  <path class="st0" d="M486.88,192.55c-.08.22.08.56-.62.64-1.13.13-2.02-.74-2.56-1.1-5.12-3.42-10.07-7.02-15.26-10.45-2.04-1.35-5.58-3.34-6.96-4.69-.19-.19-1.6-.48-1.47-.97-1.62.11.44,1.77-.23,2.06-.62.08-1.02-.27-1.47-.28-.57,0-1.02.37-1.37.17-.52-.28-.03-.54-.2-.88-.1-.2-.55-.19-.59-.28-.19-.41.26-.96-.23-1.37-.09-.07-.46-.06-.46-.14,0-.67-.35-.71-.44-1.2-.1-.54.78-.74.68-1.06-.02-.07-.35-.07-.37-.09-1.27-1.42-4.02-2.12-5.99-3.18-1.72-.93-2.92-1.75-5.1-2.42-.23-.07-.27-.25-.5-.33-.54.17-.29.51-.2.77.79,2.35,2.35,4.55,3.03,6.99.32,1.17,1.07,2.3,1.61,3.36.39.77-.36,2.65.69,3.31.22.14.65.16.81.4.25.36-.03.76.14,1.12.95,2.02,2.38,4.31,3.99,6.23.11.13.46.64.48.76.06.29-.41.36-.54.57-.14.22.2,1.39-1.1,1.19-.07-.01-.95-.43-.98-.46-.19-.15-.13-.44-.35-.65-.31-.31-.99-.48-1.2-.94-.37-.78-.62-1.43-1.23-2.22-1.41-1.85-3.31-3.73-4.87-5.5-.89-1.01-1.34-2.18-2.2-3.09-.95-1-.83-2.8-1.71-3.94-2.02-2.62-3.31-5.53-5.03-8.22.24-.42-.53-.87-.32-1.24.23-.4,1.18.3,1.58.15-.08-.56-.48-1.08-.78-1.62-.5-.91-1.26-1.99-1.77-2.95-.18-.33-1.47-1.24-2.05-1.35-.14-.03-.75.11-1.04-.06-.14-.08-.11-.31-.31-.45-1.41-.94-3.8-2.17-5.43-2.94-.31-.15-1.06-.13-1.28-.27l-.11-.86-1.26-.11c.22-.42-.16-.27-.4-.46-.34-.27-.39-.69-1.18-.63l-.34.22v-.13l-.69-.08c-.2-.5,1.08.1.91-.27-.12-.25-1.17-.97-1.45-1.15s-.17-.46-1.05-.42l.13.44-1.95.32c-.13-.4,1.3-.22,1.14-.65-.67.06-1.49-.28-1.72-.54-.07-.08.93-.72-.56-.65l.45-.32c-.92-.05-1.91-.38-1.82-.87l-.22.22-.91-.11c-.08.28-.02.28.45.38l-.45.38.91-.11c.05.18-.55.1-.65.28-.09.16.29,1.71.88,1.73v.21c-1.16.19.26.49.38.89.07.23-.3.49.08.82.14.12.53.12.63.26.45.59.3,1.6.56,2.26.75,1.92,2.08,3.85,3.18,5.82.18.33.53.68.62.82.24.42.31,1.42.62,1.73.12.12.27.14.53.14l-.45.21c.18,0,.37,0,.45.08.37.41.02,1.43,1.14,1.55l-.45.11v.22l.46.05-.46.05c-.16.3.29.13.5.37.43.5.11,1.59,1.09,2.07l-.45.16c.99.12.75,1.08.96,1.47.17.29.52.69.76,1.15.15.28.8.91.8,1.12.01.47-.8.42-.92.5-.06.04.6.73.21.96-.55-.2-2.35,0-2.46-.02-.06-.02-.1-.17-.29-.24-.17-.06-.49-.04-.6-.09-.29-.13-.1-.76-1.2-.62-.39.73-.04,1.1.9,1.69l-.44.26c.7-.05.81.9.57,1.08-.19.15-.93.14-.79.43l1.16.05c-.05.26.63.54.65.58.13.22.53,1.62.49,1.82-.1.52-1.17.46-2.07.49.05.27-.31.7.45.65l-.46.16c1.09.13.27,1.45-.45,1.63-.47.12-.87-.06-1.22-.03-.45.03-1.01.43-1.94.17l-.72-2.4c-1.19-1.04-.93-2.3-1.89-3.45-.44-.53-1.36-.99-1.33-1.59-1.09.05-.72-.54-.95-.93-.1-.17-.74-.48-.85-.57-1.25-1.05-1.77-2.26-3.27-3.17-.19-.11-.12-1.01-1.04-.98l.45-.21c-1.05-.03-.82-.69-1.2-.94-.65-.43-.59.08-.84-.71-.01-.04-.98-.51-1.09-.69-.15-.25,0-.53-.05-.79-.28-.18-.41,0-.45.16-.1.37.07.81,0,1.19-.2,1.03-.19,1.6-.21,2.6-.01.47-.66.49-.69.56-.17.38.21,1.88-.85,1.98-.81.08-1.93-.05-2.8,0-.13-.06.09-1.51.02-1.79-.05-.21-.44-.1-.49-.31-.08-.29-.08-1.13,0-1.42.06-.21.44-.1.49-.31.14-.52-.13-1.19-.03-1.73.32-.04,2.25-.73,2.28-.79.38-.92.11-1.84-2.09-1.88-1.16-.24-.45-1.56-.62-2.1l-.71-.12c-.08-.35.17-.85.01-1.17-.02-.04-.83-.27-.48-.72l-.62-.02c.24-.34-.46-.45-.48-.5-.1-.19.11-.72-.03-.78l-.67-.07c-.28-.68.87-2.04-1.11-2.11l-.02-1.18-.45.11v-.33l-.69.05-.33-.15.11-.55-.91.32-.21-.37-.7-.06c1.03,1.49-3.62.62-5.41.9-.05,0-.42.28-.62.36-.12.05-1,.24-1.03.26-.29.24.4.2.45.28.27.48.19,1.64-1.37,1.45.41-.3-.31-.26-.42-.34-.06-.04.25-.22.18-.35s-.75-.16-.67-.39l-.45.05.46.7c-.45.05-.62-.22-1.02-.22-.27,0-.58.18-.93.22-.79.08-1.15-.42-2.14-.32-.09.04-.23.95-.33,1.09-.21.27-.76.3-.81.4-.15.31-.06.71-.29,1.14-.33.61-1.23,1.15-1.47,1.91-.05.16,0,.37.01.53.1.84.39,1.79.18,2.67l.46,1.36c1.15-.07.3.33.43.81.22.79,1.22,1.83,1.54,2.64.08.19-.15.37-.08.57.12.33.74.8.81,1.04.1.35-.79.75-.58.91,1.03.3,2.04.62,3.08.92.45.13,1.03.15,1.44.27s.93.62,1.76.54l-.27.53-.61.02-.03.43c-.66.07-.42-.24-.96-.36-.46-.1-.97-.04-1.37-.11-.44-.07-1.98-.47-2.22-.4.24.57.23,1.18.47,1.76.33.78.88,1.92,1.33,2.66.25.41.12.7.26,1.03.04.1,1.1.38,1.27.56.46.51-.48,1.53-.38,2.06.09.47,1,.86,1.08,1.1.11.33,0,1.33.08,1.81.23,1.16.54,2.31.36,3.48-.04.25-.88.29-.56.77.06.09.43.09.58.24.59.57-.03,1.26.04,1.82.09.65.88,1.1.7,1.85-.09.38-.59.59-.69.97-.33,1.25.13,2.85-.09,4.17-.36,2.12-1.19,4.07-1.73,6.12-.44,1.69-1.41,2.52-1.16,4.22.09.6-2.51,4.68-2.99,5.61-1.51,2.94-2.73,5.93-5.02,8.77-.1.13-.68.8-.74.84-.3.21-.96.15-1.19.24-.47.19-.42,1.23-1.85,1.05-.48-.59-.35-1.27.43-1.78-.97-.13-.15-.25-.06-.46.59-1.37,1.03-2.76,1.34-4.11.25-1.07.69-1.83,1.16-2.83.66-1.43,1.07-2.79,2.13-4.18.12-.16.55-.33.6-.46.09-.28-.48-1.07-.41-1.27.03-.1.51-.08.66-.25,1.03-1.16.78-3.07,1.82-4.34.52-.63,1.12-.35,1.66-.62.45-.23.4-.84.69-1.19s.99-.38,1.21-.81c.55-1.07.56-2.31.82-3.42.87-3.8,1.1-7.43.56-11.26-.09-.62-.12-1.59-.34-2.16-.11-.28-.88-.63-1.03-.92s.14-.44.08-.58c-.05-.13-.53-.21-.63-.45-.2-.49.48-.68.46-.96-.03-.32-1.11-.69-1.09-1.42.01-.42.84-1.11.83-1.17-.03-.16-.48-.3-.57-.47-.37-.73-.23-1.84-.75-2.58-.32-.45-.8-.64-1.84-.6l.09-.44-1.68-.97-.19.42c1.15.12.06.24.03.26-.35.29,0,.61-.09.88s-.93,1.87-.86,1.97l.41.16c-.63-.05-.47.21-.45.44-.8-.07-1.47-.16-2.18.11-.46.17-.2.47-1.46.33-.12-.23.45-.38.54-.54.27-.47-.57-.75,1.3-.94.27-.17-.26-1.4.89-1.45-.99-.43-.02-.76,0-1.15.01-.23-.63-.62-.45-.94.05-.09.41-.07.45-.15.08-.15.07-.88,0-1.04-.02-.04-1.1-.44-.67-.73-1.36.11-.69-.2-1.16-.59-.24-.2-.74-.22-.88-.37-.35-.36-.3-1.02-.51-1.35-.13-.2-.72-.3-.77-.45-.11-.34.5-.98-.3-1.4-.2-.1-.54-.05-.64-.09-.18-.08-.09-.34-.35-.49-.18-.11-1.49-.49-2-.73-2.33-1.09-3.4-2.23-4.35-3.56-.12-.17-.55-.15-.62-.19-.04-.02.31-.36.21-.56-.05-.1-.49-.11-.65-.25-.26-.23-.13-.72-.95-.69.38.26-.08.4-.15.61-.17.58.12,1.71-.77,2.04v.22l.46.16c-.11,0-.33,0-.38.03-.31.22-.65,2.28-.77,2.73-.04.16-.37.26-.38.42-.02.31.55.38.71.63.38.59.88,2.02,1.04,2.65.27,1.02.18,2.16.47,3.19-.67.14-1.57-.68-1.69-.12-.09.42.3.94.33,1.36.09,1.12-.36,2.31-.23,3.36.21,1.84,1.38,3.66,2.02,5.43.31.85.27,2.29.7,3,.06.09.29.08.45.07l-.45.21c.75-.05.37.33.48.58.38.89.32,1.92,1.08,2.65.12.12.41.51.53.55s.86-.21.86.17c-1.23.55-1.19-.21-1.64-.31-.95-.21-2.01.23-2.85-.1-.07-.03-1.08-.67-1.1-.72-.18-.33-.12-2.21-.67-2.29l-.57.06c-.02.24.33.47.4.67.13.36-.15,1.17.53,1.29.14.61-2.38.3-2.96.09-.45-.15-.4-.35-.7-.53-.14-.08-.5-.11-.68-.22-.44-.26-.25-.57-1.29-.68-1.42-.15-1.63.16-2.79.31.59.94-1.68,1.36-3.28,1.39-.39-.07-.35-.35-.6-.48-1.58-.84-1.11-1.26-2.2-2.08-1.54-1.16-2.31-2.63-2.37-4.09-.03-.73,1.47-1.1.46-1.89-1,.18-1.88.35-2.22-.29-.57-1.08-.28-2.53-.51-3.65l-.45-.07.45-.16c-.24-.09-.39-.19-.44-.33-.83-2.17-1.15-4.6-1.72-6.82-.06-.24.11-.61-.02-.83s-.53-.19-.56-.28c-.21-.63-.19-.9-.7-1.59-.09-.12-.06-.26-.43-.28.02.24-.04.49-.19.72-.95,1.45-.93,2.53-.48,4.09.04.16.37.26.38.42-.27.22-.6.72-.83.89-.5.37-1.02.06-1.17.85-.12.66-.09,4.41.39,4.9.71.73,1.19,1.7,1.16,2.59-.02.59-1.07,1.61.5,1.89v.1c-1.03.05-1.12,1.21-.8,1.52.16.16.74.17.8.29.13.25.16.69-.46.74l.46.27-.46.06.46.12c-.14.65.21,1.29.24,1.93.02.31-.26.58-.26.87,0,.42.43.87.25,1.3-.11.27-.63.22-.69.34-.11.21.08.55,0,.79l.91-.11-.03,1.72-1.35-.03c-.11-.53-.68-.51-1.14-.76-.81-.44-2.74-1.45-2.85-2-.06-.31.32-.47.35-.72.03-.29-.26-.68-.23-1.08.12-1.33.16-2.04,1.64-3.12.16-.12.59-.15.65-.25.11-.19.19-.88-.45-.79v-.16c1.19-.24.03-.51,0-.56-.09-.17.04-.39-.1-.58-.35-.46-1.3-.89-1.04-1.33.06-.1.42-.06.44-.08l.02-.21c-.72-.02-.92-.69-1.16-1-.07-.09-.35-.09-.41-.17-.25-.38-.44-1.35-.02-1.68.09-.07.47-.06.47-.13,0-.1-1.02-1.77-1.16-1.91-.12-.13-.54-.12-.64-.26-.31-.45.31-.62-1.19-.87-.17-.35.49-.72.46-.96s-.89-.44-.44-.81c-.57-.21-4.4.7-5.24.82-1.22-.28-.54-3.21-.23-3.85l-2.05.11c.09-.51-.48-1.09-.47-1.57.02-1.47,1.83-2.92,2.75-4.31.06-.09.28-.08.44-.08v-.21l-.45-.11c.71.04.64-.31,0-.38l.46-.43c-.72-.04-.74-1.22,0-1.14l-.46-.16.46-.12-.06-1.32-.4-.07.46-.27-.68.11c-.27-.09-.33-1.49-.47-1.77-.04-.08-.38-.08-.43-.16-.74-1.4-1.46-2.93-2.06-4.21-.17-.36-.24-1.13-.67-1.48-.2-.16-1.7-.6-1.88-.92-1.36.03-1.29.66-3,.4-.5-.08-.42-.4-.66-.5-.18-.07-.86-.1-1.24-.22s-2.41-.75-2.5-.81c-.27-.17-.58-1.1-.77-1.4-.05-.08-.37-.08-.42-.17-.27-.47-.24-1.3-.51-1.69-.14-.2-1.52-.42-.87-1.05l-1.01.11c-.2-.33-.71-.04-1.27-.33.42.76-.18.77-1.36.97l-.35-.21c-.54.12-.3.84-1.26.92-.32.03-.48-.15-.79-.16-.08,0-1.46.12-1.53.13-2.26.34-1.43,1.57-1.4,2.39.08,1.92.16,3.77.99,5.56.48,1.03.2,2.46.68,3.54l.46.07-.45.21c.72-.03.57.85.74,1.14.58,1.01.81,2.41,1.52,3.58.12.2.74.66.89,1,.13.32-.24,1.27.72,1.32l-.45.21c.8.04.61.99.8,1.36.58,1.18.85,2.15,1.3,3.33.06.16.42.31.42.45,0,.06-.42.04-.47.13-.12.22.35.66-.46.58l.23-.54-.45.22c-.17-.37-.18-.84-.35-1.19-.45-.97-1-2.78-1.87-3.58-.35-.32-.95-.43-1.09-.54-.11-.09-.63-.62-.81-.8-.27-.27.03-.69-.9-.71l.45-.11c.18-.28-.27-.17-.44-.3-.27-.22-.42-.54-.59-.78h-1.02v.11c.74-.06.22.32.37.66s.89.8,1.16,1.16c.55.77,1.08,1.43,1.69,2.22,1.09,1.41,1.67,2.96,3.38,4.25l.91-.06c.08.26.38.6.64.83,1.18,1.02,3.51,3.21,4.09,4.23.28.51.26,1.36.59,1.82.09.12.36.15.6.16l-.45.21c.18,0,.36,0,.44.08.36.37.43,1.26.71,1.68,2,3.01,4.34,5.73,5.96,8.88.43.83,1.31,2.17,1.06,2.95-.14.45-.86,1.01-.9,1.53-.08.92,1.53,2.27,2.21,3.17.54.72,1,1.92,1.69,2.53.33.29,1.29.47.89,1.06l1.14-.11c1.59,2.77,1.55,5.66.89,8.5-1.01,4.31-3.73,9.71-6.28,13.9-.44.73-.88,1.46-1.31,2.19-.27.18-1.28,0-1.48.48-.06.16-.18,1.28,0,1.35.57.23.95-.47,1.36-.32.49.6.07,1.28.22,1.9.41,1.61.73,3.23,1,4.86.1.63,1.2,1.24-1.3,1.14-.33-.05-1.2-1.36-1.24-1.58-.41-2.29-.87-4.51-1.61-6.8-.08-.26.27-.81.2-1.2-.06-.35-.59-1.03-.65-1.4-.14-.85.61-2.47.43-3.47-.06-.34-.49-.52-.49-.75,0-.27.49-.48.47-.65-.04-.36-.52-.98-.47-1.52.04-.45.46-1.02.46-1.42,0-.28-.43-.47-.33-.79.3-.93-.16-1-.06-1.69.22-1.61.75-3.26.66-4.87-.03-.5-.27-1.09-.24-1.61-1.6-.2-.06-.24-.1-.56-.31-2.45.69-4.92.46-7.45-.12-1.25-1.17-2.22-1.62-3.38-.05-.14.21-.35.13-.52-.05-.11-.56-.1-.66-.25-.25-.35-.17-1.36-.38-1.83-.45-1.05-1.26-2.37-1.7-3.26-.13-.26.12-.59-.1-.91-.17-.25-.67-.28-.89-.45-.79-.63-1.21-1.4-2.14-2.01-.22-.15-1.18-.48-1.2-.52-.18-.39.62-.13.46-.48-1.3.07-.76-.55-1.14-.89-.12-.11-.46-.12-.55-.2-.17-.15-.55-.55-.36-.64-1.55.21-1.03-.26-1.39-.67-.28-.32-1.62-1.23-1.75-1.46-.47-.8-.43-.88-1.33-1.63-.84-.7-.68-.94-1.24-1.57-.13-.14-.77-.26-.87-.39-.18-.24.02-.53-.19-.74-.32-.34-1.34-.86-1.7-1.26-2.73-3.01-5.18-6.4-7.66-9.48-.38-.47-.31-1.06-1.17-1.28v-.29l.46-.17c-.86-.05-.68-.72-.98-1.11-.37-.49-1.23-1.2-1.56-1.64-.57-.75-.15-.95-1.1-1.78-.26-.23-.2-.66-.39-.9-.54-.65-1.44-1.45-1.87-2.14-1.09-1.75-2.39-3.39-3.41-5.09-.23-.39-.33-.85-.47-1.25l-.69-.07c.22-.28-.19-1.7-.43-1.87s-1.33-.59-1.62-.81c-.37-.28-.88-1.15-1.41-1.41-.17-.09-.64-.06-.81-.16-.07-.04-1.05-.71-1.12-.77-.21-.16-.63-.84-.82-.92-.12-.05-.47,0-.56-.04-.38-.18.2-.74-1.87-.63l.23.22h-.69l.23-.21-1.14-.11c-.32.82-1.82.73-3.19.54.09.63.34,1.43-.2,2.02-.24.26-1.06.41-.94.9-1.07.02-1.24-.17-1.32-.61l-.95-.68c-.02.31-.04.64.19.93.33.42.68.98,1.11,1.42.14.14.49.09.54.29.09.35.1,1.61-.02,1.94-.03.08-.33.06-.39.13-.06.07.14.32-.27.44-1.04.31-1.68-.91-1.99-1.23-.12-.13-.46-.14-.48-.16-.05-.05.04-.78-.2-1.03-.14-.15-.47-.13-.59-.27-.28-.32-.54-.81-.62-1.17-.99-.11-.09.59-.23.65h-1.14l.23-.22-.91.11.44-.6.69.06c.31-.47.15-.83,0-1.3-1.51.08-.42.84-.91,1.3l-.91-.11.59-.32c.34-.61-.96-.58-.82.1-.78.08-.16-.38-.9-.33,1.05-.41,0-.88.79-1.3l.11.65h1.26l.07-.49-.42-.1c.71-.3.12-.39.07-.57-.09-.31.29-.6-.75-.68v-.21l.68.11-.27-.31-1.1-.02c-.21-.25.38-.55.37-.7,0-.11-.56-.31-.14-.6l-.68.11v-1.02l-.57-.49c-.3.06-.48.35-.35.43.1.05.89-.14.68.22l-.68-.05v1.18l.46.12-.46.12c-.03.25-.18.51.45.48v.16c-.71.09-.71.57,0,.65l-.46.05v.22l.45.11-.46.16.46.11c-.7.07-.52.39-.4.68l.39.02-.45.27.46.16-.46.06.46.05c.22.29-.39.17-.46.29-.06.11-.06.49.06.56l.39.02-.45.27.46.16-.46.06.46.05c.22.29-.39.17-.46.29-.13.25-.14.59.46.63l-.46.12c-.04.29-.16.45.46.53l-.46.12-.22,1.88c.58.1.57-.32.82-.33.17,0,.43.11.67.1.43-.01,1.02-.36,1.71-.04.2.66-.73.54-1.1.72-.15.07-2.06,1.24-2.12,1.32-.15.19.02.34-.07.5-.12.21-.49.18-.58.29-.17.23-.32.83.44.79v.21l-.45.11c1.23.05.02.36,0,.4-.11.22-.09,1.35-.02,1.61.05.19.38.12.5.32.98,1.69,1.02,4.71,1.13,6.49.05.73,1.14,1.73-1.16,1.91-.06-.22-.13-.45-.68-.43l.47-.17-.25-.48-.68.06c-.41-.14.06-.77-.9-.71.02.38.04,1.38-.31,1.7-.04.03-.26.04-.37.03l.45.11c.23.29-.39.17-.46.29-.09.17.12.4-.1.58-.19.16-.84.12-1.03.29-.24.21-.36,1.26-.2,1.48l1.05.33c-.57.61-.05,1.46-.4,2.05-.06.1-.29.08-.45.07l.45.11c.18.3-.34.14-.5.37-.45.65-.11,2.21-.59,2.84-.1.13-.2.17-.5.15l.45.11c.23.29-.4.17-.46.29-.06.11-.22,1.33-.19,1.51.22,1.42,1.76,3.35,2.91,4.57.51.54.72,1.42.69,2.01l.46.07-.45.27.46.16-.46.06.46.12c-.17.94.69,2.03.6,2.93s-.19,1.74-.31,2.59c-.14,1.02,1.11,2.85,1.51,3.89.13.33-.07.72.03,1.07.08.29.66.57.44.93l.68-.43-.02.53-.66.06c.78.42.18.64.23.97.08.54.41,1.19.47,1.73.04.39.14,1.77-.05,2.04-.49.74-1.74-.49-1.96-.66-.14-.11.02-.19-.51-.14l.22,1.84-.68-.6-1.34.05c-.26-.07-1.37-2.41-1.53-2.77-.22-.48-.23-1.03-.55-1.59-1.17-2.11-2.67-4.29-4.13-6.28-.65-.88-1.16-1.81-1.77-2.7l-.93-.18.18.2c-.51.04-.58.23-.64.45-.63.11-.38-.24-.82-.31-.3-.05-.68,0-1-.01l-.11-1.08c-.67.51-.34,1.35-2.16,1.3.03-.52.36-.98.65-1.47.26-.45.74-1.22,1.14-1.61l-.19-.21c.75-.12.17-.2.26-.42.14-.33.83-.71.57-1.22-.07-.13-.49-.1-.6-.24-.59-.77-.43-1.5-1.21-2.44-.42-.51-.18-1.09-.42-1.42-.1-.15-.6-.14-.66-.25-.4-.78-.24-1.54-1.11-2.29-.23-.2.13-.55-.93-.45.16.27.15.64.1.92-.09.54-.36,2.95-.63,3.17-.05.04-.27.04-.38.03l.45.11c.22.3-.39.19-.44.22-.35.23,1.25.29.05.45l-.81,7.54c-.84.04.04.15.08.41.04.21-.37.34-.41.52-.19.73.82,2.63-1.75,2.57-.1,0-.2-.36-.81-.22.37,1.04-.4,1.88-.65,2.89-.62,2.5-1.6,4.82-2.3,7.25-.22.77-.28,1.67,0,2.43l-.46-.05c-.02.18.4.21.4.41,0,.08-.36,1.45-.4,1.52-.08.13-.46.02-.46.13,1.21.2-.08.56-.21.87-.14.33.35.75.36.86,0,.16-1.66,2.52-1.95,3.03-.19.34-.79.68-.71,1.07l.46.23c-.63.31-1.28,1.02-1.53,1.44-.17.29-1.01,2.39-.98,2.56,0,.07.42.05.46.14.27.55-.62.5-.91.64-.98.48-.95,1.58-1.39,2.24-.06.1-.66.07-.44.45l.46.12-.68.33.68.33c-.3.27-1.15.07-1.39.23-.37.24-.6,1.25-.85,1.63-.1.15-.41.15-.47.23-.39.6-.38,1.27-1.16,1.81l.68.06v.21c-.38.06-1.38.45-1.57.61-.33.27-.16.55-.36.8-.17.23-1.34,1.67-1.51,1.72-.93.27-1.14-.38-1.4-.5-1.13-.51-2.87.02-3.13-.08-.15-.27-.69-.72-.67-.97.04-.54,1.28-2.69,1.69-3.32.5-.75,1.31-1.32,1.99-1.98.44-.43.4-.88,1.34-1.2.29-.1.74-.06,1.03-.17.35-.13.36-.41.55-.58.08-.07.44-.08.46-.13.16-.33-.46-.25-.48-.34-.02-.12.25-.27.2-.35-.03-.04-1.26-.39-1.43-.56-.29-.3-.27-1.15-.06-1.46.8-1.24,1.75-2.6,2.42-3.83s1.14-2.75,1.97-3.87c.38-.51,1.79-1.13,1.92-1.52.34-1.01.27-2.7.34-3.79.03-.52-.22-1.28-.12-1.73.06-.24.8-.21.87-.55.03-.15-.2-.34-.17-.53.19-1.64.09-2.95-.43-4.55-.12-.36.03-.93-.29-1.27-.18-.19-.64-.18-.77-.34-.25-.3-.28-1.8-.36-2.17-1.19-5.44-2.62-11-4.71-16.36-.07-.18-.42-.15-.47-.24-.41-.79-.19-2.05-.7-2.77-.07-.1-.28-.09-.45-.08l.45-.21c-.17,0-.38.02-.45-.08-.22-.32-.13-.95-.38-1.34-.13-.21-.23-.57-.76-.53v-.1c1.26-.09.02-.46-.07-.57-.23-.27-.31-1.33-.39-1.7h-.68c-.21-.39.55-.24.47-.6-.04-.19-.41-.14-.56-.39-.47-.83-.08-1.14-1.03-2.03-.21-.19-.05-.59-.94-.56.39.6-.24,1.2-.34,1.79-.2,1.18.08,2.38.11,3.56.05,1.93-.38,4.81.89,6.54.22.3,1.45,1.65.55,1.76l-1.9-.11.23-.43c-.96-.15-.78.4-1.05.44l-1.02-.07c-.25-.22-.1-.53-.24-.73-.11-.15-.53-.14-.71-.32-1.8-1.7-1.27-3.22-1.73-5.02-.57-2.22-1.34-4.81-2.09-7.13-.37-1.14-1.53-2.57-1.77-3.6-.18-.78.36-1.52.14-2.23-.15-.49-1.13-1.26-1.48-1.9-.87-1.59-2.09-3.1-3.05-4.62-.65-1.03-.4-1.85-1.23-2.87-.17-.21-.77-.65-.91-.87-.26-.39.36-.93-.79-1.15.54-.42-.09-.32-.2-.45-.38-.46-.44-.94-.48-1.43-.45-.03-.38-.02-.51.14-.29.33-.22,1.1-1.07,1.17-.24.27.39.18.45.28.31.5-.53.34-.86.5-.21.1-.11.32-.43.42-.82.26-1.98-.3-1.67-.7l.46-.18-6.4-1.35c-.11-.56-1.29-.7-1.87-1.18-.46-.39-.54-.73-.62-1.16-.91-.11-.04.68-.99.64l-1.06-.42,1.36.11-.22-.28-1.37.06.45-.32-1.58-.11c-.33.16-.44,1.51-.65,1.8-.5.69-1.24,1.64-1.68,2.36-.28.46-.16,1.44-1.1,1.59l.45.11c.2.28-.32.17-.45.29-.82.79-1.25,2.26-1.85,3.19-.05.07-.36.09-.47.23-.59.79-.92,2.18-1.56,2.91-.08.09-.27.09-.45.08.05.25,1.32,0,1.57.12.63.74-.18.96-.86,1.47-.36.26-1.1,1-1.46,1.2-.22.13-.75.13-1.06.34-.14.09-1.5,1.83-1.68,2.09-.27.38-.18.87-.54,1.26-.13.14-.5.13-.53.2-.15.39.5.44.64.66.43.65-.89.93-1.27,1.5l1.44.59c.21.2-.53.56.32,1.03.18.1.63.12.69.23.15.29-.05.78-.2,1.08-.37.78-1.68,2.69-3.01,3.11-.88.28-1.63.09-2.23.67-.48.46-.95,1.71-1.15,2.27-.13.37.19,2.16-1.74,1.57-1.16-.36-1.13-1.28-.79-1.84l-.87-.13c-.25-.68.64-1.28,1-1.93.44-.8.68-1.85,1.17-2.58.83-1.25,2.27-2.36,2.79-3.76.37-.97-.19-1.63.7-2.57.06-.07.38-.06.44-.16.27-.45.83-2.8.7-3.23-.08-.29-.58-.49-.47-.81-.6-.06-.34.08-.59.23l-1.23-.12.06-.3.4-.07-.46-.16c.79-.02.34-.72.94-1.13,1.36-.92,1.55-.73,2.54-1.93.33-.39,1.37-1.38,1.52-1.68.18-.38.42-2.34.34-2.79-.1-.56-.92-.92-.8-1.31.06-.2.39-.14.51-.31.26-.34.1-.7.32-1.04.17-.27.87-.38.92-.48.03-.07-.15-.2-.08-.3.29-.47.94-1.53.95-1.98,0-.17.02-.46-.55-.38l-.37,1.42c-.56.2-.86-.07-1.29-.09-1.4-.04-.74.49-.84.76-.03.08-.35.08-.43.17-.19.19-.69.93-.76.97-.18.08-.61,0-.78.18-.28.29.2,1.41-.75,1.47.92.46-.22.2-.23.76-1.5-.3-2.92,0-4.09.43v.11c1.23.06.04.35,0,.4-.15.26-.29,1.24-.39,1.62-.76,2.92-1.7,5.75-2.68,8.71-1.71,5.18-4.05,10.46-6.35,15.51-1.84,4.05-3.48,8.25-6.38,12.13-.59.25-.93,1.68-1.63,1.6-1.15-.12-.99-1.19-1.14-1.55s-.65-.47-.74-.8c-.27-.97.42-2.41.62-3.43.43-2.17.65-3.96,1.75-6.11.98-1.91,1.28-3.13,1.92-5.04.13-.4.67-.9.67-1.2,0-.22-.03-.18-.47-.17v.43c-1.92-.35-1.45.52-1.94.87-.61.43-.79-.1-.93-.2-1.58-1.22.95-2.66,2-3.84,1.81-2.04,1.94-2.94,2.02-5.11,0-.21-.31-.5-.22-.63.11-.18.93-.2.91-.45.06-.3-.58-.38-.69-.65-.42-.97,0-2.58-.48-3.45-1.36-2.48-2.18-5.55-2.88-8.16-.18-.68-.16-2.37-.52-2.87-.06-.09-.28-.09-.45-.08l.45-.27-.48-.21.48-.49-.46-.11.46-.06c-.58-.05-.61-.77-.66-1.1-.37-2.3-.07-4.42-.25-6.7,0-.17.21-.43-.34-.38-.53.17-.49.93-.7,1.08-.11.08-.43.07-.55.2-.26.27-.55,1-.69,1.32-.32.01-.56,0-.82-.1-.53-.22,0-.63-.77-.55-.04.24-.18.52-.39.73-1.21,1.2-2.7,2.54-4.09,3.69s-3.24,2.83-3.63,4.21c-.03.12.18.29.11.4-.09.15-.67.18-.91.44-.27.29-.16.69-.39,1-.11.15-.41.14-.53.3-.27.37-.85,1.69-1.21,1.91-.26.16-.93.06-1.16.21l-.1.87c-.38-.03-.68-.13-1.08-.03-.1.02-.93.51-.95.54-.76,1.39-1.2,2.43-1.47,3.97-.16.9-1.17,1.45-1.25,2.31-.07.71.82.89.04,1.75-.13.14-.53.13-.53.19,0,.58-.01.97-.27,1.59-.29.68-.62,1.16-.98,1.81-1.15,2.03-2.05,4.04-3.36,6.09-1.93,3.02-1.72,3.3-6.42,5.5-5.93,2.77-11.89,5.47-18.34,7.95-1.14.44-4.18,1.76-5.52,1.66-.24-.02-.46-.23-.83-.19-.03.12-.1.27-.26.37-1.29.78-2.1,2.14-3.11,3.06-.37.34-.71.91-1.71.78-.58-.08-.68-.67-.61-.9.07-.2.51-.32.46-.54-.01-.06-.43-.05-.47-.13-.14-.28.32-1.39.47-1.7.04-.08.36-.06.39-.12.07-.13-.2-.61.05-.81l-1.59-.1c-.02.07.03.18-.03.23-.84.62-1.1,1.79-1.76,2.54-.17.19-.85.43-.83.8l-2.62.32c.06-.34-.21-.42-.88-.45l-.03-.42h-.68c-.18.41-.34.91-.56,1.31-.26.48-.51.96-.77,1.47-.63,1.22-1.17,1.47-3.9,1.55.91-1.54-2.34-.66-4.06-1.32l-.06-.14c-.02-.37.54-.69.67-.99,1.6-3.69,2.88-7.66,5.46-11.18,1.12-1.52,1.64-2.73,2.32-4.18.56-1.18.1-1.78.46-2.92.23-.72.9-1.38.88-2.13-.69-.06-.35.1-.48.25-.14.18-.2.36-.43.53-.32.23-1.2.32-.92.84h.91v.32h-.66c.17.21.02.34-.41.42h-1.5c-.98.3-.52,1.9-.84,2.44-.06.1-.29.08-.45.07l.45.11v.22l-.46.05.46.05c.17.33-.43.11-.48.37-.27,1.37.1,4.45-.93,5.62-.14.16-.52.15-.59.2-.05.04.03.57-.3.87-.05.05-1.3.79-1.4.82-.28.07-.76,0-1.09.02-.11-.05.11-.72,0-.9-.02-.04-.52-.36-.79-.73-.56-.74-.16-.23-.1-.91.04-.51-.63-.97-.26-1.71.06-.12.59-.11.67-.25.07-.12-.2-.95-.18-1.17,0-.25.36-.54.2-.82-1.59.76-3.31,1.45-3.72,2.56-.53.31-1.26.52-1.86.79-.47.21-.55.63-1.47.55l-.02-.43h-.66c-.46-.22,2.29-1.82,2.6-2.07,1.96-1.63,3.67-3.48,5.6-5.14-.63-.12-.74-.86-.44-1.16.51-.51.15-.18.2-.68.09-.87.17-1.75.21-2.6-.33-.09-.54,0-.43-.26l.46-.05-.7-.11c.2-.4-.02-.79,0-1.19.08-2.1-.15-3.85-1.07-5.87-.34-.74-.11-1.69-.53-2.45-.78-1.41-.61-2.54-.86-4.03-.03-.21-.46-.15-.45-.21.2-1.77.38-3.54.57-5.33.06-.57-.23-2.21.32-2.66.1-.08.27-.09.45-.08v-.21l-.45-.05.46-.05v-.22l-.45-.11c1.17-.05.29-.68.45-1.02.09-.18.11-.12.23-.55.06-.23.78-.55.46-.93l.68.11c-.12-.14-.28-.57-.21-.69.6-1.02,1.79-2.23,2.26-3.35.06-.14,1.15-.87.67-1.09.76-.19,1.14-.98.91-1.36h.69c0-.11-.16-.22-.11-.34.49-1.12,1.22-2.27,1.57-3.4.14-.45-.05-1.17.12-1.5.07-.13.56,0,.46-.18-.63-.02-.49-.09-.7.15-.5.56-.75,1.14-1.14,1.71-.35.51-.79,1.19-1.19,1.63-1.51,1.68-2.09,3.5-3.3,5.13-1,1.35-2.43,2.81-2.93,4.24-.13.38-.25,1.02-.06,1.38l-.69.06.45.11v.22l-.46.05c0,.1.72-.03.46.27l-.7.07-.21,1.93-.68-.05.92.39-.27.35-.88.02c-.09.57-.08,1.31-.25,1.88-.12.41-.57.5-.6.55-.09.15.19.46.4.59l-.45.06c1.02.41.05.35,0,.45-.62,1.13-.21,3.29-.47,4.53-.04.18-.49.56-.52.77-.87,4.85-1.09,9.32-3.96,14.1-1.66,2.78-3.31,5.77-5.46,8.55-1.54,1.98-2.98,3.94-4.49,5.88-.25.32-1.05.99-1.16,1.29-.06.17.19.36.11.48s-.46.13-.59.21c-.25.16.12.34-.87.39-.6.03-.33-.26-.23-.44.56-1.1,1.87-2.22,2.53-3.34.2-.35-.21-.73.56-.82l-.24-.27c-1.31.21-2.59-.1-2.26-.81.1-.22.47-.33.56-.49.89-1.57,1.48-3.17,2.34-4.74.09-.16-.15-.33-.05-.46.26-.39,1.81-.81,2.13-1.27.18-.26-.19-.86.67-.91l.02-.15c-.78-.14-1.02-.41-1.47-.6-.21-.09-.61-.07-.75-.13-.14-.07-.07-.28-.27-.35-.33-.12-1,.02-1.34-.07-.13-.03-.48-.51-.95-.52-.11.13,0,.53-.05.6-.08.09-.43.09-.55.21-.05.05-.41,1.03-.43,1.13-.05.32.96,1.16-.57,1.1l.46.18c.17.61-.88.87-1.95,1.01-.26-.08-.23-.11-.25-.23-.09-.58.13-.93.35-1.46s.41-.45.46-.55c.39-.77.16-2.23.48-3.12.97-2.66,2.27-5.26,3.22-7.89,1.36-3.75,2.64-7.46,4.21-11.21.2-.48.16-1.38.47-1.82.1-.14.19-.17.5-.15v-.21l-.45-.05c1.06-.52.61-1.85,1.09-2.39.12-.13.18-.17.5-.15v-.21l-.45-.11c1.06.04,0-.38-.4-.52-.12-.04-.49,0-.68-.06-.28-.08-.74-.69-1.65-.63l.22-.21-1.15-.06c-.69.71-1.24,1.47-1.12,2.27l-.46.07.45.21c-.8-.05-.38.59-.47.91-1.77,6.31-2.26,12.86-4.99,19.07l.43.1c-.12.32-.45.72-.54,1.02-.06.19.21.42.12.59-.06.11-.48.1-.61.23-.18.18-.17,1.03-.55,1.39-.17.16-.63.15-.79.3-.21.2-.07.5-.26.74-.09.11-1.36.47-.12.69l.04.14c-1.08.5-1.28,1.44-2.04,2.06-.7.57-4.86,2.12-6.19,2.45-.18.05-.21.18-.36.2-1.3.14-1.71-.25-1.68-.81.03-.65,1.31-.96,1.57-1.54,1.01-2.24,2.5-4,3.59-6.2,1.64-3.31,3.27-7.54,4.15-10.81.18-.68.02-1.49.14-1.97.54-2.12,1.29-4.25,1.95-6.35.38-1.22.99-2.45,1.36-3.68.09-.29-.47-.88.47-.91v-.21l-.45-.11c.17.01.37.01.44-.08.45-.55.28-1.68.66-2.25.63-.94.41-2.17,1.12-3.04,1.19-1.46,1.82-3.18,2.52-4.68.17-.36.35-.73.22-1.1l-.67-.07c-.18-.6.06-1.22-.02-1.82-.06-.39-.17-1.05-.27-1.42s-1.09-1.22-.15-1.25v-.22h-.45l.43-.12v-.14c-.34-.17-.23-.58-.89-.5l.23.32-.69.06.46.27c-1.01-.12-.79.54-1.15.89-.18.17-1.43.69-1.57.82-.27.25-.14.63-.34.89-1.89,2.47-2.89,4.05-3.86,6.5-.1.25-.24.5-.36.75-.59.03-.64-.16-.69-.37-.14-.57.81-3.47.47-3.63-1-.11-1.12.64-1.76.87-.79.28-1.75.36-2.45.53-.86.2-.92.72-1.93.66-.03-.19,0-.38.06-.57.37-1.18,2.46-2.21,3.29-3.31.4-.52.33-.93.93-1.51.28-.27,2.01-1.12,1.63-1.33-2.19.42-3.12-1.49-2.05-2.17l-2.04.22c-.24-.11-.1-1.03,0-1.22.05-.09.39-.07.43-.16.19-.41-.08-.89.47-1.22l-1.59.11.23-.21h-.91c-.25-.4.6-.38.81-.55.06-.05.43-.83.57-1s1.04-.36.66-.84c-.74-.06-.95.6-1.2.73-.69.37-.39-.11-1.09.71-.33.39-.72.46-1.35.82-1.73.98-2.67,1.59-4.7,2.44-.35.14-.99.51-1.24.71l-.66-.09.23.21L0,139.48v-2.92c.81-.24,2.74-.31,3.41-.49.47-.12.35-.41.6-.5.41-.14,1.22-.04,1.68-.15.29-.07.34-.29.62-.38.84-.3,3-.44,3.83-.85.37-.18.23-.34.4-.52.02-.02.71-.04.37-.24-.02-.01-.39.03-.45-.07-.14-.26.2-.64-.34-.91l-.25-.09c-1.12.19-2.24.08-1.68-.56-1.34.07-.63-.73-1.69-.75-.14,0-1.63.09-1.69.12-.11.04-.03.35-.38.42-.55.08-1.61-.67-1.93.32.05.03,1.62-.48,1.36-.06-.34.33-1.02.59-1.82.6-.29.28.86.19.45.43-.02.01-.41.03-.57.11-.64.31-.85.79-1.93.33v-8.14h600v33.47l-.9.82c-.13.42.22,1.11-.14,1.45-.21.2-1.39.3-1.01.76-1.67-.12-2.83.15-2.26,1.01.05.07.84.22.43.67l.67.07c-.08.46.81.49.47,1.02l.68.06.02.43c.97,0,.58-.49.74-.79.25-.48.56-.63,1.31-.95v11.37l-9.02-4.77c-.15-.33,2.13-1.24,2.75-1.41.58-.16,1.93,0,1.61-.76-.08-.18-.49-.19-.57-.29-.21-.25-.33-.77-.68-.95s-1.61-.24-1.79-.39c-.2-.17.09-.52-.09-.62-.05-.03-.39,0-.56-.05-.28-.09-1.63-.78-1.74-.8-.6-.1-.52-.02-1.18-.21-.19-.05-.49-.03-.55-.05-.22-.11.39-1.1-1.19-1.13l.02-1.02c-.1-.05-1.98.04-2.41,0s-.3-.2-.48-.22c-.69-.07-1.62.14-2.05-.25-.14-.12,0-.31-.12-.38-.07-.04-.42,0-.55-.06-.89-.36-.66-.51-2.37-.39v.65c-.52.03-1.17-.05-1.66,0-.3.03-.56.63-2.14.13-.52-.16-.58-.46-1.2-.46l.85.95c1.52,1.17,2.32,2.53,3.63,3.79,1.87,1.79,3.8,3.61,5.55,5.47,1.06,1.12,2.01,2.28,3.19,3.47.67.68.81,1.28,1.57,2.01,1.6,1.52,4.76,3.82,6.95,5.12.51.3,1.7.82,2.13,1.15.53.41.4.78-.65.87-1.86.16-2.77-1.43-3.73-1.76-.32-.11-1.17-.24-1.23-.29-.12-.09,0-.27-.17-.41-.6-.47-1.11-.93-1.65-1.49-.09-.1-.04-.24-.05-.35l-.45.11v-.43c-.95.28-.86-.31-1.37-.68-.33-.24-1.24-.62-1.67-.85-.14-.08-.09-.26-.18-.3-.17-.07-.79.02-.87-.02-.07-.04.1-.69-1.14-.65l.26.42c1.08-.13.73.92,1.03,1.28.14.16.99.28.76.68l.45-.11c-.44.6.54.75.71,1.21.72.13-.12.72.88.74l-.45.21c.95.05.86.62,1.13.9.84.85,1.98,1.76,2.71,2.55.36.39,1.07,1,.12,1.3-.56.03-2.55-.34-2.82-.2-.4.21.43.2.46.27.13.29-.52.05-.46.27l.45.22h-.68c.32-.71-.49-1.36-.56-2-.04-.35-.09-1.68.55-1.68v-.16c-.77-.1-.35-.38-.47-.7h-.63l-.02-.66c-.93.08-1.47-.06-2.28-.22l.45.97h-1.58c-.05-.75-.47-1.07-2.02-1.21l-.56-.93c-1.08-.2-2.04,0-1.79.61-1.78-.02-.99.9-2.25,1.1v.1c.16,0,.36.02.45.08.7.46,1.43,1.18,2.06,1.68.18.15.6.39.77.52.44.34.38.99.36,1.4h.91c-.2,1.12-1.55.24-2.66-.09-.67-.2-1.1.04-1.05-.53l-2.44-1.22v.43c-.39.03-.81-.08-1.18-.05-.95.06-.83.77-.9.8-.08.04-.52-.05-.66.08s-.09.43-.24.6c-.07.08-.32.09-.35.12-.32.34-.23.71-1.45.61l.22.31c-1.15.36-2.56.68-3.19,1.25-.33.21-1.22.31-1.51.42-.32.13-.4.78-1.2.61,1.33.33.58,1.2,1.02,1.63.14.13.59.16.73.25.6.42,1.43,1.35,1.45,1.85.02.42-.26.84-.23,1.18.05.5.59,1.42,1.13,1.86.13.33-.6.07-.91.05l.45-.21c-.79-.02-.75-.64-1.07-.95-1.4-1.36-2.66-2.95-4.3-4.24-.1-.08-.43-.1-.55-.2-.33-.25-.55-.59-.73-.87-.35-.21-3.21.26-3.92-.35-.22-.18-.06-.37-.45-.65-.35-.25-1.36-.64-2.03-.63-.48,0-3.55.28-3.78.38-1.15.45.6,1.82.45,1.89-1.92.06-1.88-.73-2.5-1.23-.19-.16-.22.13-.73-.43-.46-.5-2.13-1.44-2.77-2.04-.36-.34-.54-.92-.63-.95-.11-.04-.51,0-.78-.12-.6-.27-1.06-.94-1.47-1.26-1.36-1.04-2.98-1.92-4.47-2.91-.71-.47-.85-1.29-2.37-.92.65.64-.64.68-.56,1.29.03.23.35.52.8.61-.66.44-.36.39-.14.77.48.77,1.43,1.26,2.26,2.01,1.79,1.6,3.02,3.2,5.14,4.78.16.12.57.15.86.38.35.27.46.69.51,1-.31-.02-.7.04-.97,0-.13-.02-1.85-.82-1.99-.92-.68-.45-1.38-1.32-2.01-1.88-1.65-1.47-2.97-3.08-4.78-4.42-.67-.49-1.34-1.12-1.95-1.67-1.42-1.26-2.96-2.65-4.28-3.92-1.93-1.87-3.56-3.84-5.24-5.68-.03-.03-.57-.14-.72-.36-.78-1.16-2.13-2.34-3.26-3.54-1.82-1.93-3.86-4.93-6.64-6.59-.18-.11-.62-.13-.67-.17-.16-.11.17-.28.18-.37,0-.03-.74-.11-.43-.48-1.35.06-.65-.1-.81-.22-.14-.1-.99-.13-.41-.43l.76-.11-.91-.06c.65-.53-.48-.78-.66-1-.65-.78-1.04-1.71-1.78-2.49-.26-.28-1.31-.91-1.64-1.2-.28-.25.08-.7-1.14-.68l.33-.64-2.63-1.73c-.4.35.27.69.23.91-.12.72-.41,1.59-.48,2.39-.11,1.24.69,3.66,0,4.74-1.07,1.7-.5,4.01-.42,5.87.02.49-.51,1.21-.01,1.7.14.13.54.13.64.26.14.19.3,1.39.38,1.45.09.07.52.07.58.17.28.52-.87.42-.94.54-.21.34.18.94.2,1.29.04.79-.64,2.93-.41,3.45.04.09.38.07.4.13.12.33.09,1.29.28,1.49.09.09.27.09.45.08l-.45.21c1.08.09.63,1,.7,1.35.08.43.72.97.09,1.47-.31.25-1.11.12-.78.69.04.07.76.13.45.51-.94.18-1.18-.21-1.26-.22-.19-.03-1.02.19-1.02.22v2.38h-2.28c-.11.65.63,1.51-1.43,1.28-.45-.05-.72-.26-1.19-.3-.43-.04-.93.04-1.31,0-.23-.02-.48-.41-.74-.54-1.26-.59-3.76-.75-5.39-1.2-.5-.14-1.59-.66-1.94-.75-.33-.08-2.54-.22-1.87-.5.54-.22.98-.08,1.59-.05.15-.35-.63-.43-.88-.6-.21-.15-.17-.46-.39-.49-.72-.1-1.19.09-1.46.39l-.34.06c-.5,0-.79-.39-1.17-.42-1.36-.11-.18.67-.88.74-1.76-.66-2.16.76-4.06.33l-.27.09c-.2.14.11,1.08.22,1.31,1.15,2.42,4.67,4.32,6.26,6.57.7.99.23.75,1.48,1.66.75.55.87,1.2,1.33,1.67.24.25,1.33.83,1.49,1.11.05.09.06.16.04.25l-1.33.2c-.8-.41-.97-1.47-2.08-1.6.03-.07.27-.17.24-.26-.02-.07-.38-.06-.4-.09-.39-.58-.98-.88-1.25-1.47l-1.77-.45c-.3.83,1.11.72,1.54.89.5.19.83,1.29.98,1.38.08.05.49-.01.66,0v.02ZM248.11,200.24l-.22.54.9-.12c.16-.07-.4-1.21-.43-1.35-.36-1.59-.65-3.06-.71-4.63,0-.12-.11-.73-.67-.61.19.16,0,.51.05.6.04.07.41.05.42.11,0,.14-.4.34-.46.54-.21.76.4,2.82.55,3.73.07.44.55.82.12,1.25l.46-.05h0ZM223.53,194.07c.37.21,1.17-.66,1.25-.76.66-.78.99-2.37.29-3.17-.06-.06-1.02-.51-1.2-.51l-.49.17.15,4.28h0ZM483.66,189.98l.26.03-.34-.38-1.59-.76c-.6.12-.21.82.57.65l-.13.33,1.22.13h0ZM79.22,189.95l1.59-.49-.45-.16c.47,0,.86-.1,1.22-.23,2.56-.97,5.02-2.17,7.42-3.18,1.01-.43,4.26-1.48,4.67-2,.19-.24.04-.46.34-.71.25-.21,3.63-1.55,4.15-1.6.76-.08,1.8.24,1.78-.51l-1.13.16,2.5-1.19-.94-.43c1.63-2.3.13-4.76.71-7.09l-2.27.32c.07-.47-.31-.88-.23-1.35.07-.41.69-.75.7-1.08s-.54-.6-.46-.97c.05-.24,1.81-1.65,2.16-2.01.85-.89,1.3-1.56,1.65-2.58.84-2.49,1.34-5.07,2.56-7.46s.96-5.64,1.18-8.11c.03-.33.33-.67.19-1.02h-.68l.22.31c-1.54.19-.94.4-1.18.91-.16.32-.9,1.22-1.66,1.23l-1.48-.17-.12.33c-1.22.17-3.5-.34-3.86-.23-.12.04-.5.23-.51.28l.4.33c.04.06-.39.03-.45.13-.34.56-.26,3.07-.94,3.27-1.12.33-.99-1.1-.66-1.39-.44-.04-.55.1-.73.25-.64.54-.82,2.16,1.17,2.03,0,.3.06.61,0,.91-.11.64-.66,1.28-.9,1.76-.35.69-.23,1.72-.49,2.46-1.19,3.44-2.71,6.91-4.1,10.29-2.28,5.6-4.32,11-8.9,16.24-.81.93-1.47,1.89-2.46,2.78v-.03ZM355.55,189.3c.94.02.28.33.8.54l.57-.43c-.16,0-.4.02-.45-.07-.32-.55-.21-1.47-.5-2.02-.11-.21-.48-.33-.62-.57-.43-.77-.38-1.85-.71-2.7-.07-.18.15-.19-.44-.16-.11.18-.1.34-.1.52-.02,1.14.43,1.9.91,2.88.09.19.51,1.6.63,1.67.06.03.27,0,.38.02l-.45.32h-.02ZM577.61,183.17c.18.16.48.51.67.6.1.05,1.62.47,1.7.44.2-.09-.81-.52-.78-.66-1.47-.17-1.01-.76-1.51-1.32-.12-.13-.47-.09-.67-.36-.34-.46-.09-1.16.68-1.41-.5.02-.82-.64-.68-.7.07-.03.52.07.69-.07.13-.11.32-.85.21-.9l-1.03-.11.13-.55c-.29.04-2.16-.19-2.24-.23-.12-.06-.03-.53-.31-.61-.22-.07-.87.03-1.09-.18-.38-.37,1.02-.16.93-.64l-.4-.09.15-.19-.89-.18.23-1.06c-1.5-.13-.94-.8-1.06-1.26-.02-.09-1.33-1.48-1.44-1.55-.16-.11-.55-.03-.66-.08-.11-.05-.11-.48-.32-.67-.04-.04-.92-.57-1.09-.67-.23-.14-1.19-.18-.52-.48l.51-.11c-.85-.08-1.33-.64-1.1-1.01.15-.25,1.1-.32,1.39-.65.36-.39.02-.76.17-1.09.04-.09.43-.09.46-.13.17-.31-.4-.24-.45-.35-.07-.14-.36-1.07-.46-1.12h-.68v.65c-1.11.14-1.16-.36-2.28-.22v-.87c-.81-.1-.5.27-1.25.23-.36-.02-1.87-.58-1.51-.86l-.61-.02c.12-.42-.65-.42-.52-.84l-.61-.02c.16-.37-.33-.37-.47-.51-.07-.07.04-.22-.07-.32s-1-.28-1.31-.24c-.24.12.25,1.16.14,1.41-.08.19-.49.33-.51.48-.04.38.79.73.81.78.11.2-.56.44.25.53l-.92.7c1.32.09.59.92,1.26,1.41h.79c.04.35-.03.74.91.65l-.4.13c-.09.33.38.41.71.63.14.1-.26.21.83.38l-.45.16c.55.06,1.35.53.91.76h.8c.15.11-.05.57.26.76.61.39,1.26.8,1.82,1.22,1.24.93,1.95,1.87,2.98,2.86.69.66,1.38,1.04,1.95,1.78.15.19.07.41.22.6.04.05,1.33.61,1.52.74v.22l-.46.16c1.15-.15.83.74,1.13,1,1.17,1.01,2.44,2.05,3.55,3.05h0ZM495.99,182.91c.99.08.83-.92.34-.97-.87.04-.11.58-1.02.54l.77.22-.09.21ZM340.08,182.69c1.24.05,2.01-.53,3.36-.44.84-.91.06-1.36-1.92-1.38-2.22-.03-2.16,1.11-1.44,1.83h0ZM487.62,178.55c.23.1,1.99.25,2.57.35.41.07.65.27.95.31.68.09,1.62-.02,2.34.02.12-.3-.54-.19-.67-.49-.12-.27.51-.06.44-.26-.86-.05-.82-.77-1.15-1.1-.29-.29-1.24-.85-1.55-1.15-.4-.38-.16-.86-1.16-1.05l.46-.38c-.66-.02-1.46-.32-1.37-.65-.66-.08-.42.2-.7.37-.19.12-.65.16-.68.25-.06.16.22.36.2.52-.09.67-.2,1.04-.17,1.73.02.5-.35,1.16.5,1.55v-.02ZM480.31,177.37l1.34.24c.4-.52-.35-.99-.23-1.52l-.68.11.2-.28c-.58-.1-.54-.56-.78-.8-.48-.5-1.72-1.08-1.24-1.74h-.66c-.05-.37.02-.8-.94-.87l.45-.21c-1.3.14-.59-.83-1.59-.87l.45-.21c-.77.03-.42-.29-.51-.38-.31-.31-.91-.7-1.16-.92-.27-.24-.43-.93-.49-.97-.3-.21-.79-.11-.95-.62-.08-.28-.21-.59-.63-.87-.19-.13-.78-.23-.8-.25-.05-.05.89-.8-.49-.82.18-.35-.41-.51-.43-.55-.05-.09.28-.41.13-.48l-.82-.1.12-.32c-.78.3.18.77.42,1.09.12.17.35.38.36.4.31.6.05,1.53.37,1.99.21.29.78.28.92.52.18.33-.14.53-.08.7.09.24.92.32,1.11.47.12.09.59.74.74.87.77.68,2.04,1.77,2.64,2.49.14.17.42,1.16.51,1.2.07.04.53.02.77.12.92.37.59.57.95,1.06.39.53,1.29.96,1,1.52h0ZM295.76,176.16c.34.15,1.26.4,1.72.54.19.06.49.27.7.1l-5.01-3.85c.25.49-.66.56-.68.92l.89.18c-.09.2.15.81.31.93.14.11.83.16,1.01.28.23.15.66.73,1.05.91h0ZM412.23,174.79c1.32-.05.45-1.04.09-1.4-.12-.12-1.33-1.06-1.68-.88-.23.35.83.63.9.73.08.12-.01.3.11.46.29.36.71.64.58,1.08h0ZM222.63,174.46h.9c0-.55-.33-1.38-.25-1.9.03-.17.61-1.1.68-1.42.25-1.11.26-2.22.33-3.33,0-.23.62-.3-.08-.61l.4-.03c.13-.07-.36-.67.5-.63v-.21l-.45-.11c.69.1.31-.71.32-.97,0-.17.3-.37.27-.49-.03-.1-.36-.17-.37-.32,0-.07.39-.04.45-.12.34-.52-.18-2.18.24-2.89.07-.12.43-.03.46-.13v-.16h-.45v-.21l.45-.05-.46-.05c-.23-.29.4-.17.46-.29.14-.27-.08-.92.04-1.18.03-.07.4-.05.4-.1,0-.12-.46-1.04-.9-.93l.45-.21c-.96-.06-.69-1.15-.95-1.46-.07-.08-.44-.08-.6-.24-.15-.14-1.38-2.94-1.38-3.13-.02-.36.27-.72.2-1.18-.02-.15-.43-1.14-.57-1.14-.89,0-.45.7-.57.76h-1.14c-.04.41,0,1.06-.23,1.44-.07.13-.46.02-.46.13.86.1.33.44.36.76.22,2.24.65,4.47.77,6.71.06,1.21-.58,3.21,0,4.32.06.11.44.03.46.12l-.02.16c-1.2.09,0,.47.03.59l.67,8.51h.03ZM65.18,163.33c-.69.72-1.24,5.82-1.68,7.17-.11.33-1.42,1.37,0,1.47,0-.14,0-.3.11-.43,1.56-1.89,3.22-3.76,4.3-5.62.51-.87,1.14-1.7,1.67-2.59.49-.83.78-1.46,1.24-2.23.27-.45.33-1.15.65-1.51.07-.08.28-.09.45-.08l-.45-.11c-.19-.28.3-.17.45-.29.46-.39.43-2.13.7-2.66.04-.08.39-.06.44-.15.34-.59.21-2.19.78-2.6.05-.04.26-.04.37-.03l-.46-.18c-.31-.52.48-.47.6-.63.59-.76.06-2.34.35-2.93.06-.13.59-.12.66-.24.1-.19-.07-.5,0-.74.33-1.11.41-2.24.47-3.36.04-.69-.11-1.41-.02-2.11h1.14c-.29.69.63,1.48.63,2.11,0,.26-.38.59-.39.77,0,.05.36.03.38.1.2.49-.29.45-.39.58-.23.26-.13.69.34.89l1.01-.23-.22-.31h3.61c.27-.23.15-.51.33-.73.05-.06.82-.27.84-.31.14-.31-.35-.22-.44-.34-.16-.21-.04-.45-.33-.75-.41-.4-2.07-.44-2.16-.49-.1-.05.03-.33-.23-.49-.38-.22-1.18.02-.96-.57-1.46-.05-1.61-.72-2.36-1.21-.61.14-1.18.43-.79.76h-.69c-.02.55-.27,1.47-.69,1.98-.08.09-.27.09-.44.08l.45.11-.46.16.46.38c-1.39.18-.29,1.6-1.59,1.74l.02.21c1.17.09.07.2-.09.36-.36.35-.4,1.72-.62,2.17-1.22,2.56-3.13,5.3-4.7,7.82-.27.43-.46,1.29-.76,1.59-.09.09-.27.09-.44.08v.21l.45.11c-.68,0-.78.76-.88,1.05-.26.77-.02,1.37-.64,2.02h-.03ZM463.3,171.28c.38.14,1.7.42,1.04.05-.02,0-.33.04-.44-.08-1.04-1.15-2.03-2.25-3-3.4-.7-.83-1.26-1.74-2.04-2.6-.08-.09-.35-.1-.41-.17-.17-.19-.25-.59-.45-.72-.18-.11-.6-.04-.67-.07-.2-.1.25-.54-.25-.53-.06.2-.3.86-.22,1.01.02.04.6.62.62.66.13.28-.27,1.89-.1,2.07.12.12.47.13.6.23.8.62,1.04.52,1.53.82.24.15.07.47.28.65.24.2,1.79.82,1.94.95.55.48.38.69,1.57,1.14h0ZM483.38,168.55c.86.7,1.62,1.92,3.41,2.23.46.08.42-.45,1.01-.5-.03-.43-.03-.99-.76-1.3-.42-.18-1.7-.24-1.3-.68-1.58.31-2.07-.82-2.58-1.27-.27-.23-1.32-.91-1.5-1.09-.37-.39.09-.73-1.17-.85.26-.73-.08-.88-1.03-1.34l-1,.11c.05.34,1.39.45.75.76l-.52.11c.86-.11.73.35,1.11.72.69.67,1.13,1.08,1.96,1.67.37.27-.11.63.8.65l-.45.21c.51,0,1.01.37,1.27.58h0ZM242.65,167.75l.68.11.03-.86h.66v-.98l-1.82.22c-.25-.62.59-.98.92-1.57-1.12-.45-1.82.18-1.83.7h.68c.26.3-.46.17-.46.27l.46.12v.3l-.46.17c1.25.1.43,1.09,1.36,1.26l-.23.26h.01ZM365.62,167.61c.33.17.91.07,1.31.02.04-.02-.41-.48-.43-.6,0-.05.33-.04.41-.13.54-.61-.16-.41-.2-.52-.04-.1.28-.43.15-.56-.08-.07-1.06-.36-1.07-.42-.03-.11.21-.28.2-.42-.04-.53-.76-.33-.87-.38-.05-.02.3-.42.18-.67-.09-.18-.7-.84-1.09-.9l.46-.49-.92.06-.22-.39c-.44-.03-.47-.02-.5.19l-.65-.02c-.29-.1-1.13-1.52-.21-1.52.03-.08-.79,0-.46-.27.06-.04.96.35.68-.22-.62.11-1.38.08-1.85-.16-.23-.12.33-.33-.31-.27-.23.46-1.56.59-1.2,1.06l.4.13h-.45c-.2.3.41.18.6.37s.24,1.17.36,1.3c.16.17.57.17.72.28s.23.9.48,1.08c.19.14.77.19.92.33.21.21-.53.4.78.71l-.45.16c1.44.28.91.26,1.14.79.03.08.67.23.82.33.29.2.6.43.86.62.22.16.21.41.42.51h0ZM552.55,164.32c.39.27.52.68,1.25.82-.06-.66-1.17-1.05-1.37-1.62-1.83.08-.32.38-.06.57.02,0-.13.03.17.24h.01ZM202.82,164.6c2.01.2,2.2-.56,2.34-1.31.26-1.39-.72-2.18-.91-3.27-.07-.38.09-.77.14-1.11,0-.05-.39-.03-.43-.12-.15-.3.14-.74,0-1.04-.08-.16-.89-.99-1.11-1.34-.24-.38.12-.69-1.03-.91-.98.17-1.74.51-1.73,1.03,0,.26.34.45.39.66.04.17-.23.37-.12.61.08.19.47.3.57.48.09.16-.2.5-.14.61.05.08.41.03.46.23.17.67-.36.67.19,1.34.27.33-.11.68.05.92s.67.23.8.32c.15.1.75,2.19.73,2.42-.02.17-.15.31-.19.48h-.01ZM453.59,163.98c.07.04-.2.43.29.41-.21-.22.38-.52.38-.6,0-.09-.44-.24-.51-.38-.13-.24.15-.52-.2-.76l-1.03-.11.02-1.13-.67-.07c-.02-.42-.15-1.18-1.16-1.3v-.21l.45-.11c-.88.05-.38-.53-.66-.6-1.36.05-.92-.51-1.27-1.02-.18-.26-1.29-1.11-1.92-.86-.22.61-1.72,1.05-.7,1.76.17.12.49.04.61.1.11.05,1.51,1.2,1.56,1.27.46.78,1.1,1.39,1.96,2.1.15.12,1.24.47,1.3.52.15.13-.25.33-.1.42.07.04,1.39.39,1.67.56h-.02ZM544.41,157.6c.16.1-.13.33.29.29-.04-.23-.04-.71-.22-.9-.13-.14-.61-.06-.8-.18s-.12-.41-.33-.58c-.12-.1-.51-.13-.75-.32s-.38-.56-.64-.78l.47-.06c-.43-.26-1.51-.49-.91-.97l-1.82-.22c-.19.29.34.17.44.29.35.41.2.63.85,1.12.93.69,1.82,1.36,2.75,2.03.25.18.53.19.68.28h0ZM444.73,157.26c.2.17-.21.52.27.52.17-.47,1.23-.76,1.71-1.2.17-.15-.36-.3.32-.36-.26-.22-.16-.49-.3-.72-.13-.21-.48-.19-.65-.34-.41-.39-.88-1.08-1.32-1.42-.36-.28-1.71-.35-1.11-.82h-.69c-.2-.31.54-.19.68-.43-1.07-.04-.69-.68-1.03-.98-.18-.16-.65-.15-.79-.3-.16-.17-.3-1.05-.46-1.11-.13-.04-.87.25-1.13-.05-.42-.49,1.18-.06.91-.49-.9-.07-2.01-.18-2.28-.65l.68-.22-1.15-.05c-.32-.34.26-.56-.9-.71l.11-.22,1.02-.11-1.14-.11.68-.43-.68-.11.68-.22-.65-.05c.35-.25-.32-.39-.28-.65,0-.03.76-.09.47-.38h-.91c-.15-.06,1.03-.85-.33-.75-.32.06-.97.88-1.36,1.08-.98.5-3.15.67-2.03,1.7.22.2.7.2.87.35s.07.37.24.54c2.29,2.22,4.54,4.52,7.33,6.58.5.37.44.78,1.41.8v.64l.69-.11c-.28.5.94.66,1.09.78h.03ZM194.85,156.91c.42,0,.47.05.45-.16-.04-.36-.44-.74-.69-1.09-.11-.15.28-.33-.45-.27l.69,1.52ZM279.6,156.01c.71.24,1.56.05,1.29.8l.9-.49c-.91-.47-1.46-1.2-3.04-1.13l-.37.26c.52.09.86.44,1.22.55h0ZM163.44,155.83c.36.21.76-.52.98-.62s.62-.08.79-.16c.07-.03.91-.77.95-.82.35-.39,0-.85.26-1.25l-.47-.18c.82.06.29-.59.35-.92.07-.4.18-1.39,1.01-1.47l-.45-.21.59-.11-.1-.31,1.55-.35c-.56-.37,1.11-1.34-.68-1.08l.23-.22h-.69c.24-.25.1-.52.24-.78.03-.06.85-.31.44-.73l-.79.1c-.39-.42-.38-.43-1.39-.53-.79-.07.14.14.15.26.06.59-.43.48-.47.57-.14.3-.4,1.38-.36,1.69.08.59-.16.32-.31.78-.11.33.18.59.15.85-.03.27-.52.26-.56.34-.43.78-.57,1.96-.96,2.73-.34.67,0,1.23-.06,1.69-.02.16-.6.61-.4.72h0ZM241.97,155.29h.89c.47-.66.93-2.39-1.35-2l.46.16-.46.05.46.33-.46.16h.45c.22.29-.39.17-.46.29-.31.56.62.53.46,1.01h.01ZM193.26,154.42c1.03.02.66-.48.73-.6s.13-.05.3-.39c.34-.69,1.95-.46,2.98-.89.93-.39.66-1.43.51-1.96-.08-.27-.69-.27.02-.6-1.8.31-1.49-.67-1.75-1.17-.31-.59-.39-.63-.52-1.16-.08-.33-.29-1.43-.53-1.65-1.08-.96-.59-1.8-.84-2.9-.02-.11-.12-.48-.37-.49l-1,.12c.53.4-.09.28-.22.4-1,.9-1.48,1.84-2.3,2.76-.12.14-.79.25-.93.45-.32.45-.69,1.6-.4,2.04.04.06.8.42.86.5.43.51.21,1.11.55,1.56.41.53.63.28.83.99,0,.05.76.61.82.71.16.24.32.72.33.99l.57-.07.32.14.02,1.23h.02ZM282.94,154.32c1.4-.11-.41-.67-.63-.79-.16-.09.14-.33-.28-.29l.03.69.33.16.43-.07.11.31h.01ZM374.22,154.21c.62.1.85-.45.97-.51.29-.12,1.2-.09,1.08-.47l-1.37-.05v-.27h-.67c.49.5-.45.78,0,1.3h0ZM208.96,153.88c.82-.09,1.43.19,2.16.22.56.02,1.24-.11,1.56-.08.25.02.45.23.8.17.72-.12.71-1.85.48-2.18-.07-.1-.28-.09-.45-.08l.45-.11v-.16c-1.06-.18-.3-.72-.34-.98-.03-.18-.36-.98-.48-1.13-.35-.45-1.17-.37-1.84-.58-.35-.11-.4-.53-1.44-.4v-.87l-.91.11.46-.27-.57-.16.12,6.5ZM573.16,153.44h.67c.17-.55-.84-.51-1.03-.64-.1-.06-.4-.63-.63-.73-.39-.17-1.2-.04-.7-.74l-1.06-.45c.2-.36-.03-.86-.68-1.11-1.06.55.03.7.16,1.05.04.11-.21.24-.13.34.02.02.42.08.66.28.37.32.73,1.08,1.11,1.29.44.24,1.85.35,1.61.72h.02ZM417.23,151.39v.33c1.55-.16-.1-.53-.31-.79-.3-.38.35-.64-1.17-.84l-.35.22,1.14.11-.23,1.08.91-.11h.01ZM524.21,151.07c.21-.04,2.13.13,1.82-.16-.11-.1-.52-.12-.69-.24-.32-.23-.31-.63-.58-.89-.18-.17-1.45-.68-1.56-.77-.25-.2-.14-.72-.41-.84-.1-.04-.43,0-.63-.09-.64-.31-.81-1.08-2.03-1.23-.63.69-.33.85.6,1.4.24.14,1.29.52,1.38.58.48.36.14.62,1.21,1.24.31.18.17.52,1.13.46l-.22.54h-.02ZM164.35,146.52l-1.72.21.12.82,1.27-.05.33-.98ZM89.01,145.87c.5.18.39-.16.54-.28.24-.19.55-.28.54-.65l-1.08-.16c-.32-.45.58-.48.89-.73.9-.71-.14-.46-.55-.79-.29-.23.04-.83-.8-.76l-.69,3.14c1.19-.16,1.08.19,1.14.21v.02ZM112.94,143.39c-.18.33-.09.73-.19,1.05-.08.26-.83.86-.18.99.52.1.26-.26.4-.41.03-.04.41-.03.52-.23.22-.37-.04-1.28.78-1.31.04-.24-1.24-.15-1.33-.09ZM283.62,139.04c.42.03.86-.13,1.25-.11.57.02.67.36,1.26.33l.23-.65c-.6.07-1.21-.02-1.82.05-.26.03-1.1.16-.91.38h-.01ZM37.59,138.71l3.13.33c.61-.54.54-1.11.45-1.71-.86-.32-1.37.24-1.94.28-.36.02-.67-.13-1.16-.05-.64.1-.58.86-.48,1.15ZM11.16,130.92l3.76-.34c1.13-.34-3.35-1.22-3.7-.45-.07.14.21.57-.06.8h0ZM314.35,128.86c1.04-.18,1.84.28,2.96-.05-.54-.25-1.68-.19-2.39-.16-.45,0-.66-.09-.56.22h0Z"/>
  <path class="st0" d="M600,65.64c-.39-.06-.81-.14-1.17-.23-2.31-.61-5.39-1.01-7.56-1.61-.14-.04-.16-.14-.15-.22l-.45.05.03.37h.65c-.13.27-.04.52-.07.77,0,.07.2.33-.26.21-.73-.18-.88-.99-1.14-1.19-.14-.11-.57-.09-.57-.1v-1.73h.67l.22.39c1.91.04,3.28.73,4.91,1.13.73.18,1.55.43,2.19.58.79.19,1.86.34,2.71.5v1.08h0Z"/>
  <path class="st0" d="M252.43,71.27l.45.22c.59-.58-.26-.51-.34-.74-.06-.19.2-.46.11-.67.68.18,2.06-.23.91-.38-.38.12-.77.39-1.14.11.9-.43.02-1.13.23-1.68l.45.43c.09-.42.68-.65.23-1.08h.68c.16.26-.03.57.02.8.21,1.01.62,2.19-.51,3.14-.14.12-.51.13-.64.26-.34.35-.23.85,0,1.21-1.27-.36-.19-1.07-.45-1.62h0Z"/>
  <path class="st0" d="M491.98,61.91c-.16-.06-.54-.18-.55-.27,1.19.06.82-.62,1.59-.93.45-.13,1.57.61,1.37.71l-.79-.22-.56.17,2.5,1.79-3.54-1.24h-.02Z"/>
  <path class="st0" d="M233.31,70.67c0-.05-.41-.19.22-.27.28.46.3,1.06.15,1.54-.04.12-.03.43-.38.41.03-.56-.04-1.12,0-1.68h.01Z"/>
  <rect class="st0" x="0" width="600.01" height="130.93"/>
</svg>