<?xml version="1.0" encoding="UTF-8"?>
<svg id="Layer_1" xmlns="http://www.w3.org/2000/svg" version="1.1" viewBox="0 0 600 112.36">
  <!-- Generator: Adobe Illustrator 29.5.1, SVG Export Plug-In . SVG Version: 2.1.0 Build 141)  -->
  <defs>
    <style>
      .st0 {
        fill: #673606;
      }
    </style>
  </defs>
  <g>
    <path class="st0" d="M486.87,89.94c-.08.11.08.28-.62.33-1.13.07-2.02-.38-2.56-.56-5.12-1.75-10.07-3.59-15.26-5.34-2.04-.69-5.58-1.71-6.96-2.4-.19-.1-1.6-.24-1.47-.5-1.62.06.44.91-.23,1.05-.62.04-1.02-.14-1.47-.14-.57,0-1.02.19-1.37.09-.52-.14-.03-.28-.2-.45-.1-.1-.55-.1-.59-.14-.19-.21.26-.49-.23-.7-.09-.04-.46-.03-.46-.07,0-.34-.35-.36-.44-.61-.1-.28.78-.38.68-.54-.02-.03-.35-.04-.37-.05-1.27-.72-4.02-1.08-5.99-1.63-1.72-.47-2.92-.89-5.1-1.23-.23-.04-.27-.13-.5-.17-.54.09-.29.26-.2.39.79,1.2,2.35,2.32,3.03,3.57.32.6,1.07,1.17,1.61,1.72.39.39-.36,1.35.69,1.69.22.07.65.08.81.2.25.18-.03.39.14.57.95,1.03,2.38,2.2,3.99,3.18.11.07.46.33.48.39.06.15-.41.18-.54.29-.14.11.2.71-1.1.61-.07,0-.95-.22-.98-.23-.19-.08-.13-.22-.35-.33-.31-.16-.99-.25-1.2-.48-.37-.4-.62-.73-1.23-1.14-1.41-.94-3.31-1.9-4.87-2.81-.89-.52-1.34-1.11-2.2-1.58-.95-.51-.83-1.43-1.71-2.01-2.02-1.34-3.31-2.82-5.03-4.2.24-.21-.53-.44-.32-.63.23-.21,1.18.15,1.58.08-.08-.29-.48-.55-.78-.83-.5-.46-1.26-1.02-1.77-1.51-.18-.17-1.47-.63-2.05-.69-.14-.01-.75.06-1.04-.03-.14-.04-.11-.16-.31-.23-1.41-.48-3.8-1.11-5.43-1.5-.31-.07-1.06-.07-1.28-.14l-.11-.44-1.26-.06c.22-.22-.16-.14-.4-.23-.34-.14-.39-.35-1.18-.32l-.34.11v-.07s-.69-.04-.69-.04c-.2-.26,1.08.05.91-.14-.12-.13-1.17-.5-1.45-.59s-.17-.24-1.05-.21l.13.22-1.95.16c-.13-.2,1.3-.11,1.14-.33-.67.03-1.49-.14-1.72-.28-.07-.04.93-.37-.56-.33l.45-.16c-.92-.02-1.91-.19-1.82-.44l-.22.11-.91-.05c-.08.14-.02.14.45.19l-.45.19.91-.05c.05.09-.55.05-.65.14-.09.08.29.87.88.88v.11c-1.16.1.26.25.38.45.07.12-.3.25.08.42.14.06.53.06.63.13.45.3.3.82.56,1.15.75.98,2.08,1.96,3.18,2.97.18.17.53.35.62.42.24.21.31.73.62.88.12.06.27.07.53.07l-.45.11c.18,0,.37,0,.45.04.37.21.02.73,1.14.79l-.45.05v.11s.46.03.46.03l-.46.03c-.16.15.29.07.5.19.43.25.11.81,1.09,1.06l-.45.08c.99.06.75.55.96.75.17.15.52.35.76.59.15.14.8.46.8.57.01.24-.8.21-.92.25-.06.02.6.37.21.49-.55-.1-2.35,0-2.46,0-.06,0-.1-.09-.29-.12-.17-.03-.49-.02-.6-.05-.29-.07-.1-.39-1.2-.32-.39.37-.04.56.9.86l-.44.13c.7-.03.81.46.57.55-.19.07-.93.07-.79.22l1.16.02c-.05.13.63.28.65.29.13.11.53.83.49.93-.1.26-1.17.24-2.07.25.05.14-.31.36.45.33l-.46.08c1.09.07.27.74-.45.83-.47.06-.87-.03-1.22-.02-.45.02-1.01.22-1.94.09l-.72-1.22c-1.19-.53-.93-1.17-1.89-1.76-.44-.27-1.36-.51-1.33-.81-1.09.03-.72-.28-.95-.47-.1-.08-.74-.24-.85-.29-1.25-.54-1.77-1.15-3.27-1.62-.19-.06-.12-.51-1.04-.5l.45-.11c-1.05-.02-.82-.35-1.2-.48-.65-.22-.59.04-.84-.36-.01-.02-.98-.26-1.09-.35-.15-.13,0-.27-.05-.4-.28-.09-.41,0-.45.08-.1.19.07.41,0,.61-.2.53-.19.82-.21,1.33-.01.24-.66.25-.69.29-.17.2.21.96-.85,1.01-.81.04-1.93-.02-2.8,0-.13-.03.09-.77.02-.92-.05-.11-.44-.05-.49-.16-.08-.15-.08-.58,0-.73.06-.11.44-.05.49-.16.14-.27-.13-.61-.03-.88.32-.02,2.25-.37,2.28-.4.38-.47.11-.94-2.09-.96-1.16-.12-.45-.8-.62-1.07l-.71-.06c-.08-.18.17-.43.01-.6-.02-.02-.83-.14-.48-.37h-.62c.24-.18-.46-.24-.48-.26-.1-.1.11-.37-.03-.4l-.67-.03c-.28-.35.87-1.04-1.11-1.08l-.02-.6-.45.06v-.17s-.69.03-.69.03l-.33-.08.11-.28-.91.17-.21-.19-.7-.03c1.03.76-3.62.31-5.41.46-.05,0-.42.14-.62.18-.12.02-1,.12-1.03.13-.29.12.4.1.45.15.27.24.19.84-1.37.74.41-.15-.31-.14-.42-.17-.06-.02.25-.11.18-.18s-.75-.08-.67-.2l-.45.03.46.36c-.45.03-.62-.11-1.02-.11-.27,0-.58.09-.93.11-.79.04-1.15-.22-2.14-.17-.09.02-.23.49-.33.55-.21.14-.76.15-.81.2-.15.16-.06.36-.29.58-.33.31-1.23.59-1.47.97-.05.08,0,.19.01.27.1.43.39.91.18,1.36l.46.69c1.15-.04.3.17.43.42.22.4,1.22.94,1.54,1.35.08.1-.15.19-.08.29.12.17.74.41.81.53.1.18-.79.38-.58.47,1.03.15,2.04.32,3.08.47.45.07,1.03.08,1.44.14s.93.32,1.76.28l-.27.27h-.61s-.03.23-.03.23c-.66.03-.42-.12-.96-.18-.46-.05-.97-.02-1.37-.05-.44-.04-1.98-.24-2.22-.21.24.29.23.6.47.9.33.4.88.98,1.33,1.36.25.21.12.36.26.53.04.05,1.1.19,1.27.29.46.26-.48.78-.38,1.05.09.24,1,.44,1.08.56.11.17,0,.68.08.92.23.59.54,1.18.36,1.77-.04.13-.88.15-.56.39.06.05.43.04.58.12.59.29-.03.64.04.93.09.33.88.56.7.94-.09.19-.59.3-.69.5-.33.64.13,1.46-.09,2.13-.36,1.08-1.19,2.08-1.73,3.13-.44.86-1.41,1.29-1.16,2.15.09.3-2.51,2.39-2.99,2.87-1.51,1.5-2.73,3.03-5.02,4.48-.1.07-.68.41-.74.43-.3.11-.96.08-1.19.13-.47.1-.42.63-1.85.54-.48-.3-.35-.65.43-.91-.97-.07-.15-.13-.06-.23.59-.7,1.03-1.41,1.34-2.1.25-.55.69-.93,1.16-1.44.66-.73,1.07-1.43,2.13-2.14.12-.08.55-.17.6-.23.09-.14-.48-.54-.41-.65.03-.05.51-.04.66-.13,1.03-.59.78-1.57,1.82-2.22.52-.32,1.12-.18,1.66-.32.45-.12.4-.43.69-.61s.99-.19,1.21-.41c.55-.54.56-1.18.82-1.75.87-1.94,1.1-3.8.56-5.75-.09-.31-.12-.81-.34-1.1-.11-.14-.88-.32-1.03-.47s.14-.23.08-.3c-.05-.06-.53-.11-.63-.23-.2-.25.48-.35.46-.49-.03-.16-1.11-.35-1.09-.72.01-.22.84-.57.83-.6-.03-.08-.48-.15-.57-.24-.37-.37-.23-.94-.75-1.32-.32-.23-.8-.32-1.84-.31l.09-.22-1.68-.5-.19.21c1.15.06.06.12.03.13-.35.15,0,.31-.09.45s-.93.95-.86,1.01l.41.08c-.63-.02-.47.1-.45.22-.8-.04-1.47-.08-2.18.05-.46.09-.2.24-1.46.17-.12-.12.45-.19.54-.27.27-.24-.57-.38,1.3-.48.27-.09-.26-.72.89-.74-.99-.22-.02-.39,0-.59.01-.12-.63-.32-.45-.48.05-.04.41-.04.45-.08.08-.08.07-.45,0-.53-.02-.02-1.1-.23-.67-.37-1.36.06-.69-.1-1.16-.3-.24-.1-.74-.11-.88-.19-.35-.18-.3-.52-.51-.69-.13-.1-.72-.15-.77-.23-.11-.18.5-.5-.3-.71-.2-.05-.54-.02-.64-.05-.18-.04-.09-.17-.35-.25-.18-.05-1.49-.25-2-.37-2.33-.56-3.4-1.14-4.35-1.82-.12-.09-.55-.08-.62-.1-.04-.01.31-.18.21-.29-.05-.05-.49-.06-.65-.13-.26-.12-.13-.37-.95-.35.38.13-.08.2-.15.31-.17.3.12.87-.77,1.04v.11s.46.08.46.08c-.11,0-.33,0-.38.02-.31.11-.65,1.16-.77,1.39-.04.08-.37.13-.38.21-.02.16.55.19.71.32.38.3.88,1.03,1.04,1.35.27.52.18,1.1.47,1.63-.67.07-1.57-.35-1.69-.06-.09.22.3.48.33.69.09.57-.36,1.18-.23,1.72.21.94,1.38,1.87,2.02,2.77.31.43.27,1.17.7,1.53.06.05.29.04.45.04l-.45.11c.75-.03.37.17.48.3.38.45.32.98,1.08,1.35.12.06.41.26.53.28s.86-.11.86.09c-1.23.28-1.19-.11-1.64-.16-.95-.11-2.01.12-2.85-.05-.07-.01-1.08-.34-1.1-.37-.18-.17-.12-1.13-.67-1.17l-.57.03c-.02.12.33.24.4.34.13.18-.15.6.53.66.14.31-2.38.15-2.96.05-.45-.08-.4-.18-.7-.27-.14-.04-.5-.06-.68-.11-.44-.13-.25-.29-1.29-.35-1.42-.08-1.63.08-2.79.16.59.48-1.68.7-3.28.71-.39-.03-.35-.18-.6-.25-1.58-.43-1.11-.65-2.2-1.06-1.54-.59-2.31-1.35-2.37-2.09-.03-.37,1.47-.56.46-.97-1,.09-1.88.18-2.22-.15-.57-.55-.28-1.29-.51-1.86l-.45-.03.45-.08c-.24-.04-.39-.1-.44-.17-.83-1.11-1.15-2.35-1.72-3.48-.06-.12.11-.31-.02-.42s-.53-.1-.56-.14c-.21-.32-.19-.46-.7-.81-.09-.06-.06-.13-.43-.14.02.12-.04.25-.19.37-.95.74-.93,1.29-.48,2.09.04.08.37.13.38.21-.27.11-.6.37-.83.46-.5.19-1.02.03-1.17.44-.12.34-.09,2.25.39,2.5.71.37,1.19.87,1.16,1.32-.02.3-1.07.82.5.96v.05c-1.03.03-1.12.62-.8.78.16.08.74.08.8.15.13.13.16.35-.46.38l.46.14-.46.03.46.06c-.14.33.21.66.24.99.02.16-.26.3-.26.44,0,.22.43.45.25.67-.11.14-.63.11-.69.17-.11.11.08.28,0,.4l.91-.06-.03.88-1.35-.02c-.11-.27-.68-.26-1.14-.39-.81-.22-2.74-.74-2.85-1.02-.06-.16.32-.24.35-.37.03-.15-.26-.35-.23-.55.12-.68.16-1.04,1.64-1.6.16-.06.59-.08.65-.13.11-.1.19-.45-.45-.41v-.08c1.19-.12.03-.26,0-.29-.09-.09.04-.2-.1-.3-.35-.24-1.3-.45-1.04-.68.06-.05.42-.03.44-.04l.02-.11c-.72-.01-.92-.35-1.16-.51-.07-.05-.35-.05-.41-.09-.25-.2-.44-.69-.02-.86.09-.04.47-.03.47-.07,0-.05-1.02-.9-1.16-.98-.12-.07-.54-.06-.64-.13-.31-.23.31-.32-1.19-.44-.17-.18.49-.37.46-.49s-.89-.22-.44-.41c-.57-.11-4.4.36-5.24.42-1.22-.14-.54-1.64-.23-1.97l-2.05.05c.09-.26-.48-.55-.47-.8.02-.75,1.83-1.49,2.75-2.2.06-.05.28-.04.44-.04v-.11s-.45-.05-.45-.05c.71.02.64-.16,0-.19l.46-.22c-.72-.02-.74-.62,0-.58l-.46-.08.46-.06-.06-.67-.4-.04.46-.14-.68.06c-.27-.04-.33-.76-.47-.9-.04-.04-.38-.04-.43-.08-.74-.72-1.46-1.5-2.06-2.15-.17-.19-.24-.58-.67-.75-.2-.08-1.7-.31-1.88-.47-1.36.01-1.29.34-3,.2-.5-.04-.42-.2-.66-.25-.18-.04-.86-.05-1.24-.11s-2.41-.39-2.5-.41c-.27-.09-.58-.56-.77-.72-.05-.04-.37-.04-.42-.09-.27-.24-.24-.67-.51-.86-.14-.1-1.52-.21-.87-.53l-1.01.06c-.2-.17-.71-.02-1.27-.17.42.39-.18.39-1.36.5l-.35-.11c-.54.06-.3.43-1.26.47-.32.01-.48-.08-.79-.08-.08,0-1.46.06-1.53.07-2.26.17-1.43.8-1.4,1.22.08.98.16,1.92.99,2.84.48.52.2,1.25.68,1.81l.46.04-.45.11c.72-.02.57.43.74.58.58.51.81,1.23,1.52,1.83.12.1.74.34.89.51.13.16-.24.65.72.68l-.45.11c.8.02.61.5.8.7.58.61.85,1.1,1.3,1.7.06.08.42.16.42.23,0,.03-.42.02-.47.07-.12.11.35.34-.46.29l.23-.28-.45.11c-.17-.19-.18-.43-.35-.61-.45-.49-1-1.42-1.87-1.83-.35-.16-.95-.22-1.09-.28-.11-.05-.63-.32-.81-.41-.27-.14.03-.35-.9-.36l.45-.05c.18-.14-.27-.09-.44-.15-.27-.11-.42-.27-.59-.4h-1.02s0,.05,0,.05c.74-.03.22.16.37.34s.89.41,1.16.59c.55.39,1.08.73,1.69,1.14,1.09.72,1.67,1.51,3.38,2.17l.91-.03c.08.13.38.31.64.43,1.18.52,3.51,1.64,4.09,2.16.28.26.26.69.59.93.09.06.36.08.6.08l-.45.11c.18,0,.36,0,.44.04.36.19.43.64.71.86,2,1.54,4.34,2.93,5.96,4.53.43.42,1.31,1.11,1.06,1.51-.14.23-.86.52-.9.78-.08.47,1.53,1.16,2.21,1.62.54.37,1,.98,1.69,1.29.33.15,1.29.24.89.54l1.14-.06c1.59,1.41,1.55,2.89.89,4.34-1.01,2.2-3.73,4.96-6.28,7.1-.44.37-.88.75-1.31,1.12-.27.09-1.28,0-1.48.25-.06.08-.18.65,0,.69.57.12.95-.24,1.36-.17.49.31.07.65.22.97.41.82.73,1.65,1,2.48.1.32,1.2.63-1.3.58-.33-.03-1.2-.7-1.24-.81-.41-1.17-.87-2.3-1.61-3.47-.08-.13.27-.41.2-.61-.06-.18-.59-.53-.65-.72-.14-.43.61-1.26.43-1.77-.06-.17-.49-.27-.49-.38,0-.14.49-.24.47-.33-.04-.18-.52-.5-.47-.78.04-.23.46-.52.46-.73,0-.14-.43-.24-.33-.4.3-.47-.16-.51-.06-.87.22-.82.75-1.67.66-2.49-.03-.25-.27-.56-.24-.82-1.6-.1-.06-.12-.1-.28-.31-1.25.69-2.51.46-3.81-.12-.64-1.17-1.13-1.62-1.72-.05-.07.21-.18.13-.27-.05-.06-.56-.05-.66-.13-.25-.18-.17-.69-.38-.94-.45-.54-1.26-1.21-1.7-1.67-.13-.13.12-.3-.1-.46-.17-.13-.67-.14-.89-.23-.79-.32-1.21-.72-2.14-1.02-.22-.07-1.18-.24-1.2-.26-.18-.2.62-.07.46-.25-1.3.03-.76-.28-1.14-.46-.12-.05-.46-.06-.55-.1-.17-.08-.55-.28-.36-.33-1.55.11-1.03-.13-1.39-.34-.28-.17-1.62-.63-1.75-.75-.47-.41-.43-.45-1.33-.83-.84-.36-.68-.48-1.24-.8-.13-.07-.77-.13-.87-.2-.18-.12.02-.27-.19-.38-.32-.18-1.34-.44-1.7-.64-2.73-1.54-5.18-3.27-7.66-4.84-.38-.24-.31-.54-1.17-.65v-.15s.46-.09.46-.09c-.86-.02-.68-.37-.98-.57-.37-.25-1.23-.62-1.56-.84-.57-.38-.15-.49-1.1-.91-.26-.12-.2-.34-.39-.46-.54-.33-1.44-.74-1.87-1.09-1.09-.89-2.39-1.73-3.41-2.6-.23-.2-.33-.43-.47-.64l-.69-.04c.22-.14-.19-.87-.43-.96s-1.33-.3-1.62-.41c-.37-.14-.88-.59-1.41-.72-.17-.04-.64-.03-.81-.08-.07-.02-1.05-.36-1.12-.39-.21-.08-.63-.43-.82-.47-.12-.03-.47,0-.56-.02-.38-.09.2-.38-1.87-.32l.23.11h-.69s.23-.11.23-.11l-1.14-.06c-.32.42-1.82.37-3.19.28.09.32.34.73-.2,1.03-.24.13-1.06.21-.94.46-1.07,0-1.24-.08-1.32-.31l-.95-.35c-.02.16-.04.33.19.48.33.22.68.5,1.11.73.14.07.49.04.54.15.09.18.1.82-.02.99-.03.04-.33.03-.39.07-.06.04.14.16-.27.22-1.04.16-1.68-.47-1.99-.63-.12-.07-.46-.07-.48-.08-.05-.02.04-.4-.2-.53-.14-.07-.47-.07-.59-.14-.28-.17-.54-.41-.62-.6-.99-.05-.09.3-.23.33h-1.14s.23-.11.23-.11l-.91.05.44-.31.69.03c.31-.24.15-.42,0-.66-1.51.04-.42.43-.91.66l-.91-.06.59-.16c.34-.31-.96-.3-.82.05-.78.04-.16-.2-.9-.17,1.05-.21,0-.45.79-.66l.11.33h1.26s.07-.25.07-.25l-.42-.05c.71-.15.12-.2.07-.29-.09-.16.29-.31-.75-.35v-.11s.68.05.68.05l-.27-.16h-1.1c-.21-.14.38-.29.37-.37,0-.06-.56-.16-.14-.3l-.68.06v-.52s-.57-.25-.57-.25c-.3.03-.48.18-.35.22.1.03.89-.07.68.11l-.68-.03v.6s.46.06.46.06l-.46.06c-.03.13-.18.26.45.24v.08c-.71.05-.71.29.01.33l-.46.03v.11s.45.06.45.06l-.46.08.46.06c-.7.04-.52.2-.4.35h.39s-.45.15-.45.15l.46.08-.46.03.46.03c.22.15-.39.09-.46.15-.06.06-.06.25.06.29h.39s-.45.15-.45.15l.46.08-.46.03.46.03c.22.15-.39.09-.46.15-.13.13-.14.3.46.32l-.46.06c-.04.15-.16.23.46.27l-.46.06-.22.96c.58.05.57-.17.82-.17.17,0,.43.06.67.05.43,0,1.02-.18,1.71-.02.2.33-.73.28-1.1.37-.15.04-2.06.63-2.12.67-.15.1.02.17-.07.26-.12.11-.49.09-.58.15-.17.12-.32.42.44.4v.11s-.45.05-.45.05c1.23.03.02.19,0,.2-.11.11-.09.69-.02.82.05.1.38.06.5.16.98.86,1.02,2.4,1.13,3.31.05.37,1.14.88-1.16.97-.06-.11-.13-.23-.68-.22l.47-.09-.25-.25-.68.03c-.41-.07.06-.39-.9-.36.02.19.04.7-.31.87-.04.02-.26.02-.37.02l.45.05c.23.15-.39.09-.46.15-.09.09.12.2-.1.3-.19.08-.84.06-1.03.15-.24.11-.36.64-.2.75l1.05.17c-.57.31-.05.75-.4,1.05-.06.05-.29.04-.45.04l.45.05c.18.15-.34.07-.5.19-.45.33-.11,1.13-.59,1.45-.1.07-.2.09-.5.08l.45.05c.23.15-.4.09-.46.15-.06.06-.22.68-.19.77.22.73,1.76,1.71,2.91,2.33.51.27.72.73.69,1.03l.46.04-.45.14.46.08-.46.03.46.06c-.17.48.69,1.04.6,1.5s-.19.89-.31,1.32c-.14.52,1.11,1.46,1.51,1.99.13.17-.07.37.03.55.08.15.66.29.44.47l.68-.22-.02.27-.66.03c.78.21.18.33.23.5.08.28.41.61.47.88.04.2.14.9-.05,1.04-.49.38-1.74-.25-1.96-.33-.14-.06.02-.1-.51-.07l.22.94-.68-.31-1.34.02c-.26-.04-1.37-1.23-1.53-1.41-.22-.24-.23-.53-.55-.81-1.17-1.08-2.67-2.19-4.13-3.21-.65-.45-1.16-.92-1.77-1.38l-.93-.09.18.1c-.51.02-.58.12-.64.23-.63.06-.38-.12-.82-.16-.3-.02-.68,0-1,0l-.11-.55c-.67.26-.34.69-2.16.66.03-.27.36-.5.65-.75.26-.23.74-.62,1.14-.82l-.19-.11c.75-.06.17-.1.26-.21.14-.17.83-.36.57-.62-.07-.06-.49-.05-.6-.12-.59-.39-.43-.76-1.21-1.24-.42-.26-.18-.55-.42-.73-.1-.07-.6-.07-.66-.13-.4-.4-.24-.79-1.11-1.17-.23-.1.13-.28-.93-.23.16.14.15.33.1.47-.09.28-.36,1.51-.63,1.62-.05.02-.27.02-.38.02l.45.05c.22.15-.39.1-.44.11-.35.12,1.25.15.05.23l-.81,3.85c-.84.02.04.07.08.21.04.11-.37.17-.41.26-.19.37.82,1.34-1.75,1.31-.1,0-.2-.18-.81-.11.37.53-.4.96-.65,1.47-.62,1.28-1.6,2.46-2.3,3.7-.22.39-.28.85-.01,1.24l-.46-.03c-.02.09.4.11.4.21,0,.04-.36.74-.4.78-.08.07-.46.01-.46.06,1.21.1-.08.29-.21.44-.14.17.35.38.36.44,0,.08-1.66,1.29-1.95,1.55-.19.17-.79.35-.71.55l.46.12c-.63.16-1.28.52-1.53.74-.17.15-1.01,1.22-.98,1.31.01.03.42.02.46.07.27.28-.62.26-.91.33-.98.24-.95.81-1.39,1.14-.06.05-.66.04-.44.23l.46.06-.68.17.68.17c-.3.14-1.15.04-1.39.12-.37.12-.6.64-.85.83-.1.08-.41.08-.47.12-.39.31-.38.65-1.16.92l.68.03v.11c-.38.03-1.38.23-1.57.31-.33.14-.16.28-.36.41-.17.11-1.34.85-1.51.88-.93.14-1.14-.19-1.4-.25-1.13-.26-2.87.01-3.13-.04-.15-.14-.69-.37-.67-.5.04-.28,1.28-1.38,1.69-1.7.5-.39,1.31-.67,1.99-1.01.44-.22.4-.45,1.34-.61.29-.05.74-.03,1.03-.08.35-.06.36-.21.55-.3.08-.04.44-.04.46-.07.16-.17-.46-.13-.48-.17-.02-.06.25-.14.2-.18-.03-.02-1.26-.2-1.43-.29-.29-.15-.27-.59-.06-.75.8-.63,1.75-1.33,2.42-1.95s1.14-1.4,1.97-1.97c.38-.26,1.79-.58,1.92-.78.34-.52.27-1.38.34-1.93.03-.26-.22-.65-.12-.89.06-.12.8-.11.87-.28.03-.08-.2-.18-.17-.27.19-.84.09-1.51-.43-2.33-.12-.18.03-.48-.29-.65-.18-.1-.64-.09-.77-.18-.25-.15-.28-.92-.36-1.11-1.19-2.78-2.62-5.62-4.71-8.35-.07-.09-.42-.08-.47-.12-.41-.4-.19-1.05-.7-1.41-.07-.05-.28-.05-.45-.04l.45-.11c-.17,0-.38,0-.45-.04-.22-.16-.13-.49-.38-.68-.13-.11-.23-.29-.76-.27v-.05c1.26-.05.02-.24-.07-.29-.23-.14-.31-.68-.39-.87h-.68c-.21-.2.55-.12.47-.31-.04-.1-.41-.07-.56-.2-.47-.42-.08-.58-1.03-1.04-.21-.1-.05-.3-.94-.29.39.31-.24.61-.34.91-.2.61.08,1.22.11,1.82.05.99-.38,2.46.89,3.34.22.15,1.45.84.55.9l-1.9-.06.23-.22c-.96-.08-.78.2-1.05.22l-1.02-.04c-.25-.11-.1-.27-.24-.37-.11-.08-.53-.07-.71-.16-1.8-.87-1.27-1.64-1.73-2.56-.57-1.13-1.34-2.46-2.09-3.64-.37-.58-1.53-1.31-1.77-1.84-.18-.4.36-.78.14-1.14-.15-.25-1.13-.64-1.48-.97-.87-.81-2.09-1.58-3.05-2.36-.65-.52-.4-.94-1.23-1.47-.17-.11-.77-.33-.91-.45-.26-.2.36-.47-.79-.59.54-.22-.09-.16-.2-.23-.38-.24-.44-.48-.48-.73-.45-.01-.38-.01-.51.07-.29.17-.22.56-1.07.6-.24.14.39.09.45.14.31.25-.53.17-.86.25-.21.05-.11.16-.43.21-.82.13-1.98-.15-1.67-.36l.46-.09-6.4-.69c-.11-.29-1.29-.36-1.87-.6-.46-.2-.54-.37-.62-.59-.91-.06-.04.35-.99.33l-1.06-.21,1.36.05-.22-.14-1.37.03.45-.16-1.58-.06c-.33.08-.44.77-.65.92-.5.35-1.24.84-1.68,1.2-.28.24-.16.74-1.1.81l.45.05c.2.15-.32.09-.45.15-.82.4-1.25,1.15-1.85,1.63-.05.04-.36.05-.47.12-.59.4-.92,1.11-1.56,1.49-.08.05-.27.05-.45.04.05.13,1.32,0,1.57.06.63.38-.18.49-.86.75-.36.14-1.1.51-1.46.61-.22.06-.75.07-1.06.17-.14.05-1.5.93-1.68,1.07-.27.19-.18.44-.54.64-.13.07-.5.06-.53.1-.15.2.5.23.64.34.43.33-.89.47-1.27.76l1.44.3c.21.1-.53.28.32.53.18.05.63.06.69.12.15.15-.05.4-.2.55-.37.4-1.68,1.37-3.01,1.59-.88.15-1.63.05-2.23.34-.48.24-.95.88-1.15,1.16-.13.19.19,1.1-1.74.8-1.16-.18-1.13-.66-.79-.94l-.87-.07c-.25-.35.64-.66,1-.99.44-.41.68-.95,1.17-1.32.83-.64,2.27-1.21,2.79-1.92.37-.5-.19-.83.7-1.31.06-.03.38-.03.44-.08.27-.23.83-1.43.7-1.65-.08-.15-.58-.25-.47-.41-.6-.03-.34.04-.59.12l-1.23-.06.06-.16.4-.04-.46-.08c.79-.01.34-.37.94-.57,1.36-.47,1.55-.37,2.54-.99.33-.2,1.37-.7,1.52-.86.18-.2.42-1.2.34-1.42-.1-.29-.92-.47-.8-.67.06-.1.39-.07.51-.16.26-.17.1-.36.32-.53.17-.14.87-.19.92-.25.03-.03-.15-.1-.08-.15.29-.24.94-.78.95-1.01,0-.09.02-.23-.55-.19l-.37.72c-.56.1-.86-.04-1.29-.05-1.4-.02-.74.25-.84.39-.03.04-.35.04-.43.09-.19.1-.69.48-.76.49-.18.04-.61,0-.78.09-.28.15.2.72-.75.75.92.23-.22.1-.23.39-1.5-.15-2.92,0-4.09.22v.05c1.23.03.04.18,0,.21-.15.13-.29.63-.39.83-.76,1.49-1.7,2.93-2.68,4.45-1.71,2.65-4.05,5.34-6.35,7.92-1.84,2.07-3.48,4.21-6.38,6.19-.59.13-.93.86-1.63.82-1.15-.06-.99-.61-1.14-.79s-.65-.24-.74-.41c-.27-.49.42-1.23.62-1.75.43-1.11.65-2.02,1.75-3.12.98-.97,1.28-1.6,1.92-2.58.13-.2.67-.46.67-.61,0-.11-.03-.09-.47-.09v.22c-1.92-.18-1.45.27-1.94.44-.61.22-.79-.05-.93-.1-1.58-.62.95-1.36,2-1.96,1.81-1.04,1.94-1.5,2.02-2.61,0-.11-.31-.25-.22-.32.11-.09.93-.1.91-.23.06-.15-.58-.19-.69-.33-.42-.49,0-1.32-.48-1.76-1.36-1.27-2.18-2.84-2.88-4.17-.18-.35-.16-1.21-.52-1.47-.06-.05-.28-.05-.45-.04l.45-.14-.48-.11.48-.25-.46-.06.46-.03c-.58-.03-.61-.39-.66-.56-.37-1.17-.07-2.26-.25-3.42-.01-.08.21-.22-.34-.19-.53.09-.49.48-.7.55-.11.04-.43.04-.55.1-.26.14-.55.51-.69.68-.32,0-.56,0-.82-.05-.53-.11,0-.32-.77-.28-.04.12-.18.26-.39.37-1.21.61-2.7,1.3-4.09,1.88s-3.24,1.44-3.63,2.15c-.03.06.18.15.11.2-.09.07-.67.09-.91.22-.27.15-.16.35-.39.51-.11.08-.41.07-.53.15-.27.19-.85.86-1.21.98-.26.08-.93.03-1.16.11l-.1.45c-.38-.01-.68-.07-1.08-.02-.1.01-.93.26-.95.28-.76.71-1.2,1.24-1.47,2.03-.16.46-1.17.74-1.25,1.18-.07.36.82.45.04.89-.13.07-.53.06-.53.1,0,.3-.01.5-.27.81-.29.35-.62.59-.98.92-1.15,1.04-2.05,2.07-3.36,3.11-1.93,1.54-1.72,1.69-6.42,2.81-5.93,1.42-11.89,2.79-18.34,4.06-1.14.22-4.18.9-5.52.85-.24,0-.46-.12-.83-.09-.03.06-.1.14-.26.19-1.29.4-2.1,1.1-3.11,1.57-.37.17-.71.46-1.71.4-.58-.04-.68-.34-.61-.46.07-.1.51-.17.46-.28-.01-.03-.43-.02-.47-.07-.14-.14.32-.71.47-.87.04-.04.36-.03.39-.06.07-.07-.2-.31.05-.42l-1.59-.05s.03.09-.03.12c-.84.32-1.1.92-1.76,1.3-.17.1-.85.22-.83.41l-2.62.16c.06-.17-.21-.22-.88-.23l-.03-.21h-.68c-.18.21-.34.46-.56.67-.26.25-.51.49-.77.75-.63.62-1.17.75-3.9.79.91-.79-2.34-.34-4.06-.67l-.06-.07c-.02-.19.54-.35.67-.51,1.6-1.89,2.88-3.91,5.46-5.71,1.12-.78,1.64-1.4,2.32-2.13.56-.6.1-.91.46-1.49.23-.37.9-.71.88-1.09-.69-.03-.35.05-.48.13-.14.09-.2.19-.43.27-.32.12-1.2.16-.92.43h.91s0,.17,0,.17h-.66c.17.11.02.17-.41.21h-1.5c-.98.15-.52.97-.84,1.24-.06.05-.29.04-.45.04l.45.05v.11s-.46.03-.46.03l.46.03c.17.17-.43.06-.48.19-.27.7.1,2.27-.93,2.87-.14.08-.52.08-.59.1-.05.02.03.29-.3.45-.05.02-1.3.41-1.4.42-.28.04-.76,0-1.09.01-.11-.02.11-.37,0-.46-.02-.02-.52-.18-.79-.37-.56-.38-.16-.12-.1-.47.04-.26-.63-.5-.26-.88.06-.06.59-.06.67-.13.07-.06-.2-.48-.18-.6.01-.13.36-.28.2-.42-1.59.39-3.31.74-3.72,1.31-.53.16-1.26.27-1.86.4-.47.11-.55.32-1.47.28l-.02-.22h-.66c-.46-.11,2.29-.93,2.6-1.06,1.96-.83,3.67-1.78,5.6-2.62-.63-.06-.74-.44-.44-.59.51-.26.15-.09.2-.35.09-.44.17-.89.21-1.33-.33-.05-.54,0-.43-.13l.46-.03-.7-.06c.2-.2-.02-.4,0-.61.08-1.07-.15-1.97-1.07-3-.34-.38-.11-.87-.53-1.25-.78-.72-.61-1.3-.86-2.06-.03-.11-.46-.08-.45-.1.2-.91.38-1.81.57-2.72.06-.29-.23-1.13.32-1.36.1-.04.27-.05.45-.04v-.11s-.45-.03-.45-.03l.46-.03v-.11s-.45-.05-.45-.05c1.17-.03.29-.35.45-.52.09-.09.11-.06.23-.28.06-.12.78-.28.46-.47l.68.05c-.12-.07-.28-.29-.21-.35.6-.52,1.79-1.14,2.26-1.71.06-.07,1.15-.44.67-.56.76-.1,1.14-.5.91-.7h.69c0-.06-.16-.11-.11-.17.49-.57,1.22-1.16,1.57-1.74.14-.23-.05-.6.12-.77.07-.07.56,0,.46-.09-.63,0-.49-.04-.7.08-.5.29-.75.58-1.14.87-.35.26-.79.61-1.19.83-1.51.86-2.09,1.79-3.3,2.62-1,.69-2.43,1.44-2.93,2.17-.13.19-.25.52-.06.7l-.69.03.45.05v.11s-.46.03-.46.03c0,.05.72-.01.46.14l-.7.04-.21.99-.68-.03.92.2-.27.18h-.88c-.09.3-.08.68-.25.97-.12.21-.57.26-.6.28-.09.08.19.24.4.3l-.45.03c1.02.21.05.18,0,.23-.62.58-.21,1.68-.47,2.31-.04.09-.49.28-.52.39-.87,2.48-1.09,4.76-3.96,7.2-1.66,1.42-3.31,2.95-5.46,4.37-1.54,1.01-2.98,2.01-4.49,3-.25.17-1.05.5-1.16.66-.06.09.19.19.11.25s-.46.07-.59.11c-.25.08.12.17-.87.2-.6.02-.33-.13-.23-.22.56-.56,1.87-1.14,2.53-1.71.2-.18-.21-.37.56-.42l-.24-.14c-1.31.11-2.59-.05-2.26-.41.1-.11.47-.17.56-.25.89-.8,1.48-1.62,2.34-2.42.09-.08-.15-.17-.05-.24.26-.2,1.81-.41,2.13-.65.18-.13-.19-.44.67-.46l.02-.08c-.78-.07-1.02-.21-1.47-.31-.21-.05-.61-.03-.75-.07-.14-.04-.07-.14-.27-.18-.33-.06-1,0-1.34-.04-.13-.02-.48-.26-.95-.26-.11.07.01.27-.05.3-.08.05-.43.04-.55.11-.05.03-.41.53-.43.58-.05.16.96.59-.57.56l.46.09c.17.31-.88.44-1.95.52-.26-.04-.23-.05-.25-.12-.09-.29.13-.47.35-.74s.41-.23.46-.28c.39-.4.16-1.14.48-1.59.97-1.36,2.27-2.69,3.22-4.03,1.36-1.92,2.64-3.81,4.21-5.73.2-.25.16-.71.47-.93.1-.07.19-.09.5-.08v-.11s-.45-.03-.45-.03c1.06-.26.61-.94,1.09-1.22.12-.07.18-.09.5-.08v-.11s-.45-.06-.45-.06c1.06.02-.01-.2-.4-.26-.12-.02-.49,0-.68-.03-.28-.04-.74-.35-1.65-.32l.22-.11-1.15-.03c-.69.36-1.24.75-1.12,1.16l-.46.04.45.11c-.8-.03-.38.3-.47.47-1.77,3.22-2.26,6.57-4.99,9.74l.43.05c-.12.16-.45.37-.54.52-.06.1.21.21.12.3-.06.06-.48.05-.61.12-.18.09-.17.53-.55.71-.17.08-.63.08-.79.15-.21.1-.07.25-.26.38-.09.05-1.36.24-.12.35l.04.07c-1.08.26-1.28.74-2.04,1.05-.7.29-4.86,1.08-6.19,1.25-.18.02-.21.09-.36.1-1.3.07-1.71-.13-1.68-.41.03-.33,1.31-.49,1.57-.79,1.01-1.14,2.5-2.04,3.59-3.17,1.64-1.69,3.27-3.85,4.15-5.52.18-.35.02-.76.14-1.01.54-1.08,1.29-2.17,1.95-3.25.38-.62.99-1.25,1.36-1.88.09-.15-.47-.45.47-.46v-.11s-.45-.05-.45-.05c.17,0,.37,0,.44-.04.45-.28.28-.86.66-1.15.63-.48.41-1.11,1.12-1.55,1.19-.75,1.82-1.62,2.52-2.39.17-.18.35-.37.22-.56l-.67-.03c-.18-.31.06-.62-.02-.93-.06-.2-.17-.54-.27-.73s-1.09-.62-.15-.64v-.11s-.45,0-.45,0l.43-.06v-.07c-.34-.08-.23-.3-.89-.25l.23.17-.69.03.46.14c-1.01-.06-.79.28-1.15.46-.18.09-1.43.35-1.57.42-.27.13-.14.32-.34.46-1.89,1.26-2.89,2.07-3.86,3.32-.1.13-.24.26-.36.39-.59.02-.64-.08-.69-.19-.14-.29.81-1.77.47-1.86-1-.05-1.12.33-1.76.44-.79.14-1.75.19-2.45.27-.86.1-.92.37-1.93.34-.03-.1,0-.19.06-.29.37-.6,2.46-1.13,3.29-1.69.4-.26.33-.48.93-.77.28-.14,2.01-.57,1.63-.68-2.19.22-3.12-.76-2.05-1.11l-2.04.11c-.24-.05-.1-.53,0-.62.05-.04.39-.04.43-.08.19-.21-.08-.46.47-.62l-1.59.05.23-.11h-.91c-.25-.2.6-.2.81-.28.06-.02.43-.43.57-.51s1.04-.19.66-.43c-.74-.03-.95.31-1.2.37-.69.19-.39-.06-1.09.36-.33.2-.72.23-1.35.42-1.73.5-2.67.81-4.7,1.25-.35.07-.99.26-1.24.36l-.66-.05.23.11L0,62.84v-1.49c.81-.13,2.74-.16,3.41-.25.47-.06.35-.21.6-.25.41-.07,1.22-.02,1.68-.08.29-.03.34-.15.62-.2.84-.15,3-.23,3.83-.44.37-.09.23-.17.4-.27.02,0,.71-.02.37-.12-.02,0-.39.02-.45-.04-.14-.13.2-.33-.34-.46l-.25-.04c-1.12.1-2.24.04-1.68-.28-1.34.03-.63-.37-1.69-.38-.14,0-1.63.05-1.69.06-.11.02-.03.18-.38.21-.55.04-1.61-.34-1.93.17.05.02,1.62-.25,1.36-.03-.34.17-1.02.3-1.82.31-.29.14.86.09.45.22-.02,0-.41.01-.57.05-.64.16-.85.41-1.93.17v-4.15h600v17.09l-.9.42c-.13.21.22.57-.14.74-.21.1-1.39.15-1.01.39-1.67-.06-2.83.08-2.26.51.05.04.84.11.43.34l.67.03c-.08.23.81.25.47.52l.68.03.02.22c.97,0,.58-.25.74-.4.25-.25.56-.32,1.31-.48v5.81l-9.02-2.43c-.15-.17,2.13-.63,2.75-.72.58-.08,1.93,0,1.61-.39-.08-.09-.49-.1-.57-.15-.21-.13-.33-.39-.68-.49s-1.61-.12-1.79-.2c-.2-.09.09-.27-.09-.32-.05-.01-.39,0-.56-.03-.28-.05-1.63-.4-1.74-.41-.6-.05-.52,0-1.18-.11-.19-.03-.49-.02-.55-.03-.22-.05.39-.56-1.19-.58l.02-.52c-.1-.02-1.98.02-2.41,0s-.3-.1-.48-.11c-.69-.04-1.62.07-2.05-.13-.14-.06,0-.16-.12-.2-.07-.02-.42,0-.55-.03-.89-.18-.66-.26-2.37-.2v.33c-.52.02-1.17-.03-1.66,0-.3.02-.56.32-2.14.07-.52-.08-.58-.23-1.2-.23l.85.48c1.52.6,2.32,1.29,3.63,1.93,1.87.91,3.8,1.85,5.55,2.79,1.06.57,2.01,1.17,3.19,1.77.67.35.81.66,1.57,1.02,1.6.78,4.76,1.95,6.95,2.61.51.15,1.7.42,2.13.59.53.21.4.4-.65.45-1.86.08-2.77-.73-3.73-.9-.32-.06-1.17-.12-1.23-.15-.12-.04,0-.14-.17-.21-.6-.24-1.11-.47-1.65-.76-.09-.05-.04-.12-.05-.18l-.45.06v-.22c-.95.14-.86-.16-1.37-.35-.33-.12-1.24-.32-1.67-.44-.14-.04-.09-.13-.18-.15-.17-.04-.79.01-.87,0-.07-.02.1-.35-1.14-.33l.26.22c1.08-.06.73.47,1.03.65.14.08.99.15.76.35l.45-.06c-.44.31.54.38.71.62.72.07-.12.37.88.38l-.45.11c.95.02.86.32,1.13.46.84.43,1.98.9,2.71,1.3.36.2,1.07.51.12.66-.56.02-2.55-.17-2.82-.1-.4.11.43.1.46.14.13.15-.52.03-.46.14l.45.11h-.68c.32-.36-.49-.69-.56-1.02-.04-.18-.09-.86.55-.86v-.08c-.77-.05-.35-.19-.47-.36h-.63s-.02-.34-.02-.34c-.93.04-1.47-.03-2.28-.11l.45.5h-1.58c-.05-.38-.47-.55-2.02-.62l-.56-.47c-1.08-.1-2.04,0-1.79.31-1.78,0-.99.46-2.25.56v.05c.16,0,.36,0,.45.04.7.23,1.43.6,2.06.86.18.07.6.2.77.26.44.17.38.51.36.72h.91c-.2.57-1.55.12-2.66-.05-.67-.1-1.1.02-1.05-.27l-2.44-.62v.22c-.39.01-.81-.04-1.18-.03-.95.03-.83.39-.9.41-.08.02-.52-.03-.66.04s-.09.22-.24.31c-.07.04-.32.04-.35.06-.32.17-.23.36-1.45.31l.22.16c-1.15.18-2.56.35-3.19.64-.33.11-1.22.16-1.51.22-.32.07-.4.4-1.2.31,1.33.17.58.61,1.02.83.14.07.59.08.73.13.6.21,1.43.69,1.45.95.02.22-.26.43-.23.6.05.26.59.72,1.13.95.13.17-.6.03-.91.03l.45-.11c-.79,0-.75-.33-1.07-.48-1.4-.69-2.66-1.51-4.3-2.17-.1-.04-.43-.05-.55-.1-.33-.13-.55-.3-.73-.44-.35-.11-3.21.13-3.92-.18-.22-.09-.06-.19-.45-.33-.35-.13-1.36-.33-2.03-.32-.48,0-3.55.15-3.78.19-1.15.23.6.93.45.97-1.92.03-1.88-.38-2.5-.63-.19-.08-.22.07-.73-.22-.46-.26-2.13-.74-2.77-1.04-.36-.17-.54-.47-.63-.49-.11-.02-.51,0-.78-.06-.6-.14-1.06-.48-1.47-.64-1.36-.53-2.98-.98-4.47-1.49-.71-.24-.85-.66-2.37-.47.65.33-.64.35-.56.66.03.12.35.26.8.31-.66.22-.36.2-.14.39.48.4,1.43.64,2.26,1.02,1.79.82,3.02,1.64,5.14,2.44.16.06.57.08.86.19.35.14.46.35.51.51-.31,0-.7.02-.97,0-.13,0-1.85-.42-1.99-.47-.68-.23-1.38-.67-2.01-.96-1.65-.75-2.97-1.57-4.78-2.26-.67-.25-1.34-.57-1.95-.85-1.42-.65-2.96-1.35-4.28-2-1.93-.96-3.56-1.96-5.24-2.9-.03-.01-.57-.07-.72-.18-.78-.59-2.13-1.2-3.26-1.81-1.82-.99-3.86-2.52-6.64-3.37-.18-.05-.62-.07-.67-.09-.16-.05.17-.14.18-.19,0-.02-.74-.06-.43-.25-1.35.03-.65-.05-.81-.11-.14-.05-.99-.07-.41-.22l.76-.05-.91-.03c.65-.27-.48-.4-.66-.51-.65-.4-1.04-.87-1.78-1.27-.26-.14-1.31-.46-1.64-.61-.28-.13.08-.36-1.14-.35l.33-.33-2.63-.89c-.4.18.27.35.23.47-.12.37-.41.81-.48,1.22-.11.63.69,1.87,0,2.42-1.07.87-.5,2.05-.42,3,.02.25-.51.62-.01.87.14.07.54.06.64.13.14.1.3.71.38.74.09.04.52.03.58.09.28.27-.87.22-.94.28-.21.18.18.48.2.66.04.4-.64,1.49-.41,1.76.04.05.38.04.4.06.12.17.09.66.28.76.09.05.27.05.45.04l-.45.11c1.08.05.63.51.7.69.08.22.72.5.09.75-.31.13-1.11.06-.78.35.04.04.76.07.45.26-.94.09-1.18-.11-1.26-.11-.19-.01-1.02.1-1.02.11v1.22h-2.28c-.11.33.63.77-1.43.65-.45-.03-.72-.13-1.19-.15-.43-.02-.93.02-1.31,0-.23-.01-.48-.21-.74-.27-1.26-.3-3.76-.38-5.39-.61-.5-.07-1.59-.34-1.94-.38-.33-.04-2.54-.11-1.87-.25.54-.11.98-.04,1.59-.03.15-.18-.63-.22-.88-.31-.21-.07-.17-.23-.39-.25-.72-.05-1.19.05-1.46.2l-.34.03c-.5,0-.79-.2-1.17-.21-1.36-.06-.18.34-.88.38-1.76-.34-2.16.39-4.06.17l-.27.05c-.2.07.11.55.22.67,1.15,1.24,4.67,2.21,6.26,3.36.7.51.23.38,1.48.85.75.28.87.61,1.33.85.24.13,1.33.42,1.49.56.05.04.06.08.04.13l-1.33.1c-.8-.21-.97-.75-2.08-.82.03-.03.27-.09.24-.13-.02-.04-.38-.03-.4-.05-.39-.3-.98-.45-1.25-.75l-1.77-.23c-.3.42,1.11.37,1.54.45.5.1.83.66.98.7.08.02.49,0,.66,0ZM248.1,93.87l-.22.28.9-.06c.16-.04-.4-.62-.43-.69-.36-.81-.65-1.56-.71-2.37,0-.06-.11-.37-.67-.31.19.08,0,.26.05.3.04.04.41.02.42.06.01.07-.4.17-.46.28-.21.39.4,1.44.55,1.9.07.23.55.42.12.64l.46-.03ZM223.52,90.72c.37.11,1.17-.34,1.25-.39.66-.4.99-1.21.29-1.62-.06-.03-1.02-.26-1.2-.26l-.49.08.15,2.18ZM483.65,88.63l.26.02-.34-.19-1.59-.39c-.6.06-.21.42.57.33l-.13.17,1.22.07ZM79.21,88.62l1.59-.25-.45-.08c.47,0,.86-.05,1.22-.12,2.56-.5,5.02-1.11,7.42-1.63,1.01-.22,4.26-.76,4.67-1.02.19-.12.04-.23.34-.36.25-.11,3.63-.79,4.15-.82.76-.04,1.8.12,1.78-.26l-1.13.08,2.5-.61-.94-.22c1.63-1.17.13-2.43.71-3.62l-2.27.17c.07-.24-.31-.45-.23-.69.07-.21.69-.38.7-.55s-.54-.31-.46-.49c.05-.12,1.81-.84,2.16-1.03.85-.46,1.3-.8,1.65-1.32.84-1.27,1.34-2.59,2.56-3.81s.96-2.88,1.18-4.14c.03-.17.33-.34.19-.52h-.68s.22.16.22.16c-1.54.1-.94.2-1.18.46-.16.16-.9.62-1.66.63l-1.48-.09-.12.17c-1.22.08-3.5-.17-3.86-.12-.12.02-.5.12-.51.14l.4.17s-.39.01-.45.06c-.34.29-.26,1.57-.94,1.67-1.12.17-.99-.56-.66-.71-.44-.02-.55.05-.73.13-.64.27-.82,1.1,1.17,1.04,0,.15.06.31,0,.47-.11.33-.66.65-.9.9-.35.35-.23.88-.49,1.26-1.19,1.76-2.71,3.53-4.1,5.26-2.28,2.86-4.32,5.62-8.9,8.29-.81.48-1.47.96-2.46,1.42ZM355.54,88.28c.94,0,.28.17.8.28l.57-.22c-.16,0-.4.01-.45-.04-.32-.28-.21-.75-.5-1.03-.11-.1-.48-.17-.62-.29-.43-.39-.38-.94-.71-1.38-.07-.09.15-.1-.44-.08-.11.09-.1.18-.1.27-.02.58.43.97.91,1.47.09.1.51.82.63.85.06.02.27,0,.38,0l-.45.16ZM577.6,85.15c.18.08.48.26.67.31.1.02,1.62.24,1.7.22.2-.04-.81-.27-.78-.34-1.47-.09-1.01-.39-1.51-.67-.12-.07-.47-.05-.67-.18-.34-.24-.09-.59.68-.72-.5,0-.82-.33-.68-.36.07-.02.52.04.69-.04.13-.06.32-.43.21-.46l-1.03-.05.13-.28c-.29.02-2.16-.1-2.24-.12-.12-.03-.03-.27-.31-.31-.22-.04-.87.02-1.09-.09-.38-.19,1.02-.08.93-.33l-.4-.04.15-.1-.89-.09.23-.54c-1.5-.07-.94-.41-1.06-.65-.02-.04-1.33-.76-1.44-.79-.16-.05-.55-.02-.66-.04-.11-.03-.11-.25-.32-.34-.04-.02-.92-.29-1.09-.34-.23-.07-1.19-.09-.52-.25l.51-.05c-.85-.04-1.33-.33-1.1-.51.15-.13,1.1-.17,1.39-.33.36-.2.02-.39.17-.56.04-.04.43-.04.46-.06.17-.16-.4-.12-.45-.18-.07-.07-.36-.55-.46-.57h-.68s0,.33,0,.33c-1.11.07-1.16-.18-2.28-.11v-.44c-.81-.05-.5.14-1.25.12-.36,0-1.87-.29-1.51-.44h-.61c.12-.23-.65-.23-.52-.44h-.61c.16-.2-.33-.2-.47-.27-.07-.04.04-.11-.07-.16s-1-.14-1.31-.13c-.24.06.25.59.14.72-.08.1-.49.17-.51.25-.04.19.79.38.81.4.11.1-.56.22.25.27l-.92.36c1.32.05.59.47,1.26.72h.79c.04.18-.03.38.91.33l-.4.06c-.09.17.38.21.71.32.14.05-.26.11.83.19l-.45.08c.55.03,1.35.27.91.39h.8c.15.06-.05.29.26.39.61.2,1.26.41,1.82.62,1.24.47,1.95.96,2.98,1.46.69.34,1.38.53,1.95.91.15.1.07.21.22.31.04.02,1.33.31,1.52.38v.11s-.46.08-.46.08c1.15-.08.83.38,1.13.51,1.17.51,2.44,1.04,3.55,1.56ZM495.98,85.02c.99.04.83-.47.34-.5-.87.02-.11.3-1.02.28l.77.11-.09.11ZM340.07,84.91c1.24.02,2.01-.27,3.36-.23.84-.46.06-.69-1.92-.71-2.22-.01-2.16.57-1.44.93ZM487.61,82.79c.23.05,1.99.13,2.57.18.41.04.65.14.95.16.68.05,1.62,0,2.34.01.12-.15-.54-.1-.67-.25-.12-.14.51-.03.44-.13-.86-.03-.82-.39-1.15-.56-.29-.15-1.24-.44-1.55-.59-.4-.19-.16-.44-1.16-.54l.46-.19c-.66-.01-1.46-.16-1.37-.33-.66-.04-.42.1-.7.19-.19.06-.65.08-.68.13-.06.08.22.18.2.27-.09.34-.2.53-.17.88.02.26-.35.59.5.79ZM480.3,82.19l1.34.12c.4-.27-.35-.5-.23-.77l-.68.05.2-.14c-.58-.05-.54-.28-.78-.41-.48-.25-1.72-.55-1.24-.89h-.66c-.05-.19.02-.41-.94-.44l.45-.11c-1.3.07-.59-.43-1.59-.44l.45-.11c-.77.01-.42-.15-.51-.19-.31-.16-.91-.36-1.16-.47-.27-.12-.43-.47-.49-.49-.3-.11-.79-.06-.95-.32-.08-.14-.21-.3-.63-.45-.19-.07-.78-.12-.8-.13-.05-.03.89-.41-.49-.42.18-.18-.41-.26-.43-.28-.05-.05.28-.21.13-.24l-.82-.05.12-.17c-.78.15.18.39.42.55.12.09.35.19.36.21.31.31.05.78.37,1.02.21.15.78.14.92.27.18.17-.14.27-.08.36.09.12.92.17,1.11.24.12.05.59.38.74.44.77.35,2.04.9,2.64,1.27.14.09.42.59.51.61.07.02.53.01.77.06.92.19.59.29.95.54.39.27,1.29.49,1,.78ZM295.75,81.57c.34.08,1.26.2,1.72.27.19.03.49.14.7.05l-5.01-1.96c.25.25-.66.29-.68.47l.89.09c-.09.1.15.42.31.48.14.05.83.08,1.01.14.23.08.66.37,1.05.46ZM412.22,80.87c1.32-.03.45-.53.09-.71-.12-.06-1.33-.54-1.68-.45-.23.18.83.32.9.37.08.06-.01.15.11.24.29.19.71.33.58.55ZM222.62,80.7h.9c0-.28-.33-.7-.25-.97.03-.09.61-.56.68-.72.25-.57.26-1.13.33-1.7.01-.12.62-.16-.08-.31h.4c.13-.05-.36-.36.5-.33v-.11s-.45-.05-.45-.05c.69.05.31-.36.32-.5,0-.09.3-.19.27-.25-.03-.05-.36-.09-.37-.17,0-.03.39-.02.45-.06.34-.27-.18-1.11.24-1.48.07-.06.43-.02.46-.07v-.08s-.45,0-.45,0v-.11s.45-.03.45-.03l-.46-.03c-.23-.15.4-.09.46-.15.14-.14-.08-.47.04-.6.03-.04.4-.02.4-.05-.01-.06-.46-.53-.9-.47l.45-.11c-.96-.03-.69-.59-.95-.75-.07-.04-.44-.04-.6-.12-.15-.07-1.38-1.5-1.38-1.6-.02-.18.27-.37.2-.6-.02-.08-.43-.58-.57-.58-.89,0-.45.36-.57.39h-1.14c-.04.21-.01.54-.23.74-.07.07-.46.01-.46.06.86.05.33.23.36.39.22,1.14.65,2.28.77,3.43.06.62-.58,1.64.01,2.21.06.06.44.01.46.06l-.02.08c-1.2.05,0,.24.03.3l.67,4.35ZM65.17,75.02c-.69.37-1.24,2.97-1.68,3.66-.11.17-1.42.7.01.75,0-.07,0-.15.11-.22,1.56-.97,3.22-1.92,4.3-2.87.51-.45,1.14-.87,1.67-1.32.49-.42.78-.74,1.24-1.14.27-.23.33-.59.65-.77.07-.04.28-.05.45-.04l-.45-.05c-.19-.15.3-.09.45-.15.46-.2.43-1.09.7-1.36.04-.04.39-.03.44-.08.34-.3.21-1.12.78-1.33.05-.02.26-.02.37-.02l-.46-.09c-.31-.26.48-.24.6-.32.59-.39.06-1.19.35-1.49.06-.07.59-.06.66-.12.1-.1-.07-.26,0-.38.33-.57.41-1.14.47-1.72.04-.35-.11-.72-.02-1.08h1.14c-.29.35.63.76.63,1.08,0,.13-.38.3-.39.39,0,.03.36.01.38.05.2.25-.29.23-.39.29-.23.13-.13.35.34.45l1.01-.12-.22-.16h3.61c.27-.12.15-.26.33-.37.05-.03.82-.14.84-.16.14-.16-.35-.11-.44-.17-.16-.11-.04-.23-.33-.38-.41-.21-2.07-.23-2.16-.25-.1-.02.03-.17-.23-.25-.38-.11-1.18.01-.96-.29-1.46-.03-1.61-.37-2.36-.62-.61.07-1.18.22-.79.39h-.69c-.02.28-.27.75-.69,1.01-.08.05-.27.05-.44.04l.45.05-.46.08.46.19c-1.39.09-.29.82-1.59.89l.02.11c1.17.05.07.1-.09.18-.36.18-.4.88-.62,1.11-1.22,1.31-3.13,2.7-4.7,4-.27.22-.46.66-.76.81-.09.05-.27.04-.44.04v.11s.45.05.45.05c-.68,0-.78.39-.88.53-.26.39-.02.7-.64,1.03ZM463.29,79.08c.38.07,1.7.22,1.04.02-.02,0-.33.02-.44-.04-1.04-.59-2.03-1.15-3-1.74-.7-.43-1.26-.89-2.04-1.33-.08-.05-.35-.05-.41-.09-.17-.1-.25-.3-.45-.37-.18-.06-.6-.02-.67-.04-.2-.05.25-.27-.25-.27-.06.1-.3.44-.22.52.02.02.6.32.62.34.13.14-.27.97-.1,1.05.12.06.47.07.6.12.8.32,1.04.26,1.53.42.24.08.07.24.28.33.24.1,1.79.42,1.94.49.55.24.38.35,1.57.58ZM483.37,77.68c.86.36,1.62.98,3.41,1.14.46.04.42-.23,1.01-.26-.03-.22-.03-.5-.76-.66-.42-.09-1.7-.12-1.3-.35-1.58.16-2.07-.42-2.58-.65-.27-.12-1.32-.46-1.5-.56-.37-.2.09-.37-1.17-.43.26-.37-.08-.45-1.03-.69l-1,.06c.05.17,1.39.23.75.39l-.52.05c.86-.06.73.18,1.11.37.69.34,1.13.55,1.96.85.37.14-.11.32.8.33l-.45.11c.51,0,1.01.19,1.27.3ZM242.64,77.28l.68.06.03-.44h.66s0-.5,0-.5l-1.82.11c-.25-.32.59-.5.92-.8-1.12-.23-1.82.09-1.83.36h.68c.26.15-.46.09-.46.14l.46.06v.15s-.46.09-.46.09c1.25.05.43.55,1.36.64l-.23.13ZM365.61,77.21c.33.09.91.04,1.31.01.04-.01-.41-.25-.43-.31,0-.02.33-.02.41-.07.54-.31-.16-.21-.2-.27-.04-.05.28-.22.15-.28-.08-.04-1.06-.19-1.07-.22-.03-.06.21-.14.2-.21-.04-.27-.76-.17-.87-.19-.05-.01.3-.22.18-.34-.09-.09-.7-.43-1.09-.46l.46-.25-.92.03-.22-.2c-.44-.01-.47,0-.5.1h-.65c-.29-.06-1.13-.79-.21-.79.03-.04-.79,0-.46-.14.06-.02.96.18.68-.11-.62.06-1.38.04-1.85-.08-.23-.06.33-.17-.31-.14-.23.24-1.56.3-1.2.54l.4.06h-.45c-.2.15.41.09.6.19s.24.6.36.66c.16.09.57.09.72.14s.23.46.48.55c.19.07.77.1.92.17.21.11-.53.21.78.36l-.45.08c1.44.14.91.13,1.14.4.03.04.67.12.82.17.29.1.6.22.86.32.22.08.21.21.42.26ZM552.54,75.53c.39.14.52.35,1.25.42-.06-.33-1.17-.54-1.37-.83-1.83.04-.32.19-.06.29.02,0-.13.01.17.12ZM202.81,75.67c2.01.1,2.2-.29,2.34-.67.26-.71-.72-1.11-.91-1.67-.07-.19.09-.39.14-.57,0-.03-.39-.02-.43-.06-.15-.15.14-.38,0-.53-.08-.08-.89-.51-1.11-.68-.24-.2.12-.35-1.03-.47-.98.09-1.74.26-1.73.53,0,.13.34.23.39.34.04.09-.23.19-.12.31.08.09.47.16.57.24.09.08-.2.26-.14.31.05.04.41.02.46.12.17.34-.36.34.19.68.27.17-.11.35.05.47s.67.12.8.16c.15.05.75,1.12.73,1.24-.02.09-.15.16-.19.24ZM453.58,75.35c.07.02-.2.22.29.21-.21-.11.38-.26.38-.3,0-.05-.44-.12-.51-.19-.13-.12.15-.26-.2-.39l-1.03-.05.02-.58-.67-.04c-.02-.21-.15-.6-1.16-.66v-.11s.45-.05.45-.05c-.88.03-.38-.27-.66-.31-1.36.02-.92-.26-1.27-.52-.18-.13-1.29-.57-1.92-.44-.22.31-1.72.53-.7.9.17.06.49.02.61.05.11.03,1.51.61,1.56.65.46.4,1.1.71,1.96,1.07.15.06,1.24.24,1.3.26.15.07-.25.17-.1.21.07.02,1.39.2,1.67.28ZM544.4,72.09c.16.05-.13.17.29.15-.04-.12-.04-.36-.22-.46-.13-.07-.61-.03-.8-.09s-.12-.21-.33-.3c-.12-.05-.51-.06-.75-.16s-.38-.28-.64-.4l.47-.03c-.43-.13-1.51-.25-.91-.5l-1.82-.11c-.19.15.34.08.44.15.35.21.2.32.85.57.93.35,1.82.69,2.75,1.04.25.09.53.1.68.14ZM444.72,71.92c.2.08-.21.26.27.27.17-.24,1.23-.39,1.71-.61.17-.08-.36-.15.32-.19-.26-.11-.16-.25-.3-.37-.13-.11-.48-.1-.65-.17-.41-.2-.88-.55-1.32-.73-.36-.14-1.71-.18-1.11-.42h-.69c-.2-.16.54-.1.68-.22-1.07-.02-.69-.35-1.03-.5-.18-.08-.65-.08-.79-.15-.16-.09-.3-.54-.46-.57-.13-.02-.87.13-1.13-.03-.42-.25,1.18-.03.91-.25-.9-.04-2.01-.09-2.28-.33l.68-.11-1.15-.03c-.32-.17.26-.29-.9-.36l.11-.11,1.02-.05-1.14-.06.68-.22-.68-.06.68-.11-.65-.03c.35-.13-.32-.2-.28-.33,0-.02.76-.05.47-.19h-.91c-.15-.03,1.03-.44-.33-.38-.32.03-.97.45-1.36.55-.98.26-3.15.34-2.03.87.22.1.7.1.87.18s.07.19.24.27c2.29,1.13,4.54,2.31,7.33,3.36.5.19.44.4,1.41.41v.33s.69-.06.69-.06c-.28.26.94.34,1.09.4ZM194.84,71.74c.42,0,.47.03.45-.08-.04-.19-.44-.38-.69-.55-.11-.08.28-.17-.45-.14l.69.77ZM279.59,71.28c.71.12,1.56.02,1.29.41l.9-.25c-.91-.24-1.46-.61-3.04-.58l-.37.13c.52.05.86.22,1.22.28ZM163.43,71.19c.36.11.76-.27.98-.32s.62-.04.79-.08c.07-.02.91-.4.95-.42.35-.2-.01-.43.26-.64l-.47-.09c.82.03.29-.3.35-.47.07-.2.18-.71,1.01-.75l-.45-.11.59-.06-.1-.16,1.55-.18c-.56-.19,1.11-.68-.68-.55l.23-.11h-.69c.24-.13.1-.27.24-.4.03-.03.85-.16.44-.38l-.79.05c-.39-.21-.38-.22-1.39-.27-.79-.04.14.07.15.13.06.3-.43.24-.47.29-.14.15-.4.71-.36.86.08.3-.16.17-.31.4-.11.17.18.3.15.43-.03.14-.52.13-.56.17-.43.4-.57,1-.96,1.39-.34.34-.01.63-.06.86-.02.08-.6.31-.4.37ZM241.96,70.91h.89c.47-.34.93-1.22-1.35-1.02l.46.08-.46.03.46.17-.46.08h.45c.22.15-.39.09-.46.15-.31.29.62.27.46.52ZM193.25,70.47c1.03.01.66-.25.73-.3s.13-.02.3-.2c.34-.35,1.95-.24,2.98-.45.93-.2.66-.73.51-1-.08-.14-.69-.14.02-.31-1.8.16-1.49-.34-1.75-.6-.31-.3-.39-.32-.52-.59-.08-.17-.29-.73-.53-.84-1.08-.49-.59-.92-.84-1.48-.02-.05-.12-.24-.37-.25l-1,.06c.53.2-.09.14-.22.21-1,.46-1.48.94-2.3,1.41-.12.07-.79.13-.93.23-.32.23-.69.82-.4,1.04.04.03.8.22.86.26.43.26.21.57.55.8.41.27.63.14.83.51.01.02.76.31.82.36.16.12.32.37.33.5l.57-.04.32.07.02.63ZM282.93,70.42c1.4-.06-.41-.34-.63-.4-.16-.04.14-.17-.28-.15l.03.35.33.08.43-.04.11.16ZM374.21,70.36c.62.05.85-.23.97-.26.29-.06,1.2-.05,1.08-.24l-1.37-.03v-.14s-.67,0-.67,0c.49.26-.45.4,0,.66ZM208.95,70.19c.82-.05,1.43.1,2.16.11.56.01,1.24-.06,1.56-.04.25.01.45.12.8.09.72-.06.71-.95.48-1.12-.07-.05-.28-.04-.45-.04l.45-.05v-.08c-1.06-.09-.3-.37-.34-.5-.03-.09-.36-.5-.48-.58-.35-.23-1.17-.19-1.84-.3-.35-.06-.4-.27-1.44-.2v-.44s-.91.06-.91.06l.46-.14-.57-.08.12,3.32ZM573.15,69.97h.67c.17-.28-.84-.26-1.03-.33-.1-.03-.4-.32-.63-.37-.39-.09-1.2-.02-.7-.38l-1.06-.23c.2-.18-.03-.44-.68-.57-1.06.28.03.36.16.53.04.06-.21.12-.13.17.02,0,.42.04.66.14.37.16.73.55,1.11.66.44.12,1.85.18,1.61.37ZM417.22,68.92v.17c1.55-.08-.1-.27-.31-.4-.3-.19.35-.33-1.17-.43l-.35.11,1.14.06-.23.55.91-.06ZM524.2,68.76c.21-.02,2.13.06,1.82-.08-.11-.05-.52-.06-.69-.12-.32-.12-.31-.32-.58-.46-.18-.09-1.45-.35-1.56-.39-.25-.1-.14-.37-.41-.43-.1-.02-.43,0-.63-.05-.64-.16-.81-.55-2.03-.63-.63.35-.33.44.6.71.24.07,1.29.26,1.38.3.48.18.14.32,1.21.63.31.09.17.27,1.13.24l-.22.27ZM164.34,66.43l-1.72.11.12.42,1.27-.02.33-.5ZM89,66.1c.5.09.39-.08.54-.14.24-.1.55-.14.54-.33l-1.08-.08c-.32-.23.58-.25.89-.37.9-.36-.14-.24-.55-.4-.29-.12.04-.42-.8-.39l-.69,1.6c1.19-.08,1.08.1,1.14.11ZM112.93,64.84c-.18.17-.09.37-.19.54-.08.13-.83.44-.18.51.52.05.26-.13.4-.21.03-.02.41-.01.52-.12.22-.19-.04-.65.78-.67.04-.12-1.24-.07-1.33-.05ZM283.61,62.62c.42.01.86-.06,1.25-.06.57.01.67.19,1.26.17l.23-.33c-.6.04-1.21,0-1.82.02-.26.01-1.1.08-.91.2ZM37.58,62.44l3.13.17c.61-.28.54-.57.45-.87-.86-.16-1.37.12-1.94.14-.36.01-.67-.06-1.16-.03-.64.05-.58.44-.48.59ZM11.15,58.47l3.76-.18c1.13-.17-3.35-.62-3.7-.23-.07.07.21.29-.06.41ZM314.34,57.42c1.04-.09,1.84.14,2.96-.03-.54-.13-1.68-.1-2.39-.08-.45,0-.66-.04-.56.11Z"/>
    <path class="st0" d="M600,89.06c-.39-.03-.81-.07-1.17-.12-2.31-.31-5.39-.52-7.56-.82-.14-.02-.16-.07-.15-.11l-.45.03.03.19h.65c-.13.14-.04.27-.07.4,0,.03.2.17-.26.11-.73-.09-.88-.51-1.14-.61-.14-.05-.57-.05-.57-.05v-.89h.67s.22.2.22.2c1.91.02,3.28.37,4.91.58.73.09,1.55.22,2.19.3.79.1,1.86.18,2.71.26v.55Z"/>
    <path class="st0" d="M252.43,91.94l.45.11c.59-.3-.26-.26-.34-.38-.06-.1.2-.23.11-.34.68.09,2.06-.12.91-.19-.38.06-.77.2-1.14.06.9-.22.02-.58.23-.86l.45.22c.09-.21.68-.33.23-.55h.68c.16.13-.03.29.02.41.21.52.62,1.12-.51,1.6-.14.06-.51.07-.64.13-.34.18-.23.44-.01.62-1.27-.18-.19-.54-.45-.83Z"/>
    <path class="st0" d="M491.98,87.15c-.16-.03-.54-.09-.55-.14,1.19.03.82-.32,1.59-.47.45-.06,1.57.31,1.37.36l-.79-.11-.56.08,2.5.91-3.54-.63Z"/>
    <path class="st0" d="M233.31,91.63s-.41-.1.22-.14c.28.23.3.54.15.78-.04.06-.03.22-.38.21.03-.28-.04-.57,0-.86Z"/>
  </g>
  <rect class="st0" y="-1" width="605.41" height="58.47"/>
</svg>